<?xml version="1.0" encoding="UTF-8" ?>
<!DOCTYPE svg PUBLIC "-//W3C//DTD SVG 1.1//EN" "http://www.w3.org/Graphics/SVG/1.1/DTD/svg11.dtd">
<svg width="280pt" height="300pt" viewBox="0 0 280 300" version="1.1" xmlns="http://www.w3.org/2000/svg">
<g id="#ffffffff">
<path fill="#ffffff" opacity="1.00" d=" M 0.00 0.00 L 280.00 0.00 L 280.00 300.00 L 0.00 300.00 L 0.00 175.80 C 0.74 175.47 2.21 174.80 2.95 174.46 C 3.36 172.27 3.78 170.07 4.00 167.85 C 5.47 168.39 6.21 167.84 6.22 166.18 C 7.56 169.56 8.88 172.98 11.02 175.95 C 10.69 170.63 9.11 165.36 5.95 161.02 C 2.87 164.96 1.55 170.00 0.00 174.70 L 0.00 158.77 L 0.69 158.82 C 7.17 159.29 13.67 159.10 20.16 158.99 C 20.02 157.73 19.89 156.47 19.74 155.21 L 20.45 155.13 C 22.51 156.65 24.44 158.61 27.13 158.86 C 27.09 159.28 27.02 160.13 26.99 160.55 C 25.54 163.14 24.18 165.78 23.26 168.61 C 22.74 168.67 21.71 168.78 21.19 168.84 C 20.98 167.20 20.78 165.57 20.56 163.94 C 20.60 161.33 18.10 162.91 18.17 164.63 C 17.56 166.19 16.98 167.76 16.39 169.33 C 14.67 166.23 13.47 162.73 10.78 160.30 C 11.87 165.07 13.94 169.57 14.75 174.42 C 15.14 174.55 15.92 174.82 16.31 174.95 C 17.25 172.38 18.42 169.91 19.60 167.44 C 20.47 170.19 21.26 172.98 22.65 175.51 C 24.49 171.02 26.79 166.54 26.92 161.58 C 28.48 161.60 30.04 161.63 31.60 161.65 C 30.28 166.48 29.22 171.42 26.93 175.91 C 27.57 175.76 28.87 175.46 29.52 175.32 C 30.07 172.83 30.65 170.34 30.98 167.81 C 31.69 167.84 33.11 167.89 33.81 167.92 C 34.59 171.23 36.41 174.23 38.74 176.67 C 37.34 171.41 36.00 165.87 32.34 161.66 C 34.85 161.24 37.26 160.37 39.57 159.30 C 41.25 158.57 42.84 157.63 44.28 156.49 C 45.17 155.77 46.03 155.01 46.90 154.26 C 46.83 155.84 46.77 157.42 46.71 159.00 C 55.41 158.94 64.12 159.25 72.81 158.85 C 72.79 157.72 72.77 156.59 72.75 155.46 C 77.42 160.47 84.77 159.89 90.98 159.26 C 94.18 159.11 96.44 156.69 98.59 154.64 C 98.88 156.08 99.16 157.52 99.45 158.97 C 103.14 159.03 106.83 159.02 110.52 159.00 C 110.96 156.32 111.43 153.64 111.99 150.98 C 112.53 153.69 112.96 156.42 113.38 159.15 C 116.25 158.96 119.35 159.45 122.00 158.08 C 122.91 155.70 123.29 153.17 123.86 150.70 C 123.94 153.45 123.98 156.20 124.04 158.95 C 128.05 159.03 132.05 159.03 136.05 159.03 C 136.65 142.27 136.57 125.48 136.09 108.72 C 130.48 108.51 124.86 108.50 119.25 108.73 C 118.97 111.36 118.67 113.99 118.30 116.60 C 117.35 114.01 116.55 111.36 115.78 108.71 C 110.34 108.48 104.89 108.50 99.45 108.79 C 99.16 110.64 98.87 112.50 98.57 114.35 C 97.51 112.64 96.46 110.93 95.42 109.21 C 90.20 108.20 84.75 107.25 79.48 108.48 C 76.21 109.22 74.21 112.17 71.96 114.41 C 70.98 112.57 69.97 110.73 68.96 108.90 C 61.37 108.43 53.76 108.51 46.16 108.74 C 41.98 108.79 37.79 108.80 33.60 108.84 C 32.94 108.84 31.61 108.83 30.95 108.83 C 27.48 108.78 24.01 108.87 20.54 108.92 C 20.16 108.91 19.39 108.88 19.01 108.87 C 12.91 108.46 6.79 108.40 0.69 108.75 L 0.00 108.79 L 0.00 0.00 M 187.21 49.23 C 185.70 50.24 187.42 52.72 188.87 51.56 C 190.38 50.55 188.65 48.06 187.21 49.23 M 156.76 51.74 C 156.83 52.52 156.99 54.06 157.07 54.84 C 157.75 54.82 159.10 54.79 159.78 54.77 C 159.79 54.11 159.80 52.79 159.80 52.13 C 159.04 52.03 157.52 51.84 156.76 51.74 M 144.02 54.02 C 144.00 54.79 143.95 56.33 143.92 57.10 C 144.70 57.09 146.25 57.05 147.03 57.04 C 147.00 56.30 146.94 54.84 146.91 54.10 C 146.19 54.08 144.75 54.04 144.02 54.02 M 164.18 55.12 C 164.16 55.90 164.10 57.48 164.08 58.27 C 165.74 58.32 167.40 58.36 169.06 58.40 C 169.03 57.53 168.96 55.79 168.93 54.91 C 167.35 54.98 165.77 55.05 164.18 55.12 M 177.24 55.20 C 177.08 56.49 176.92 57.77 176.76 59.06 C 177.64 59.05 179.39 59.04 180.27 59.03 C 180.12 57.76 179.97 56.48 179.83 55.21 C 179.18 55.21 177.89 55.20 177.24 55.20 M 194.06 55.05 C 194.04 55.81 193.99 57.32 193.97 58.08 C 194.75 58.08 196.30 58.09 197.08 58.09 C 197.05 57.33 197.00 55.80 196.97 55.04 C 196.24 55.04 194.79 55.05 194.06 55.05 M 153.35 57.18 C 152.18 58.63 154.71 60.30 155.71 58.81 C 156.87 57.36 154.34 55.69 153.35 57.18 M 140.90 58.87 C 140.46 59.91 140.53 61.07 140.38 62.16 C 141.31 62.15 143.18 62.12 144.11 62.11 C 144.14 61.17 144.18 59.28 144.20 58.34 C 143.09 58.47 141.98 58.59 140.90 58.87 M 160.49 58.05 C 160.54 60.01 160.62 61.98 160.74 63.94 C 161.54 63.91 163.14 63.85 163.94 63.81 C 163.98 62.23 164.04 60.66 164.10 59.08 C 162.89 58.73 161.69 58.39 160.49 58.05 M 188.49 58.24 C 188.98 59.36 189.44 60.50 190.06 61.56 C 191.02 61.49 191.97 61.39 192.93 61.27 C 192.92 60.46 192.91 58.86 192.91 58.06 C 191.43 58.12 189.96 58.18 188.49 58.24 M 170.61 59.40 C 171.59 61.73 173.34 63.50 175.68 64.46 C 175.87 62.57 176.04 60.67 176.20 58.78 C 174.34 58.97 172.47 59.18 170.61 59.40 M 205.48 59.55 C 206.56 60.67 207.65 61.78 208.74 62.89 C 208.86 61.87 209.11 59.82 209.24 58.79 C 208.30 58.98 206.42 59.36 205.48 59.55 M 148.52 61.18 C 149.09 63.34 150.49 64.86 152.69 65.39 C 152.86 63.87 153.03 62.35 153.20 60.83 C 151.64 60.94 150.08 61.06 148.52 61.18 M 182.79 60.73 C 183.10 61.97 183.46 63.19 183.88 64.40 C 185.47 65.59 187.34 64.25 188.92 63.72 C 188.37 60.83 184.99 61.18 182.79 60.73 M 199.60 64.72 C 201.03 64.88 202.47 65.04 203.91 65.20 C 203.94 64.28 203.98 62.45 204.00 61.53 C 201.49 60.77 200.33 62.59 199.60 64.72 M 129.88 62.25 C 129.81 63.82 129.75 65.38 129.69 66.94 C 130.53 66.93 132.21 66.92 133.05 66.91 C 132.97 65.34 132.89 63.77 132.81 62.20 C 132.08 62.21 130.62 62.24 129.88 62.25 M 157.20 61.93 C 156.21 63.96 155.86 66.21 155.49 68.42 C 157.40 68.03 160.58 68.73 160.84 66.00 C 160.32 64.18 159.15 62.38 157.20 61.93 M 167.10 62.23 C 166.73 63.88 166.35 65.54 165.97 67.20 C 167.67 67.29 169.68 68.31 171.06 66.85 C 170.90 65.22 170.56 63.63 170.24 62.03 C 169.46 62.08 167.89 62.18 167.10 62.23 M 137.08 64.11 C 137.07 64.82 137.04 66.25 137.03 66.97 C 138.37 67.36 139.71 67.75 141.05 68.14 C 141.10 66.70 141.14 65.27 141.18 63.83 C 139.81 63.92 138.44 64.02 137.08 64.11 M 177.23 63.84 C 177.25 65.25 177.27 66.67 177.29 68.08 C 179.13 68.13 180.97 68.18 182.81 68.23 C 182.90 67.34 183.10 65.56 183.19 64.67 C 181.21 64.39 179.22 64.11 177.23 63.84 M 194.17 64.16 C 194.13 64.88 194.05 66.31 194.01 67.02 C 195.68 67.45 197.36 67.87 199.04 68.29 C 199.03 66.83 199.03 65.37 199.03 63.91 C 197.41 64.00 195.79 64.08 194.17 64.16 M 143.70 65.36 C 144.09 68.36 146.10 70.38 148.89 71.35 C 149.16 69.21 149.33 67.06 149.39 64.91 C 147.49 65.05 145.59 65.20 143.70 65.36 M 189.83 65.11 C 189.48 67.01 189.14 68.91 188.80 70.81 C 190.27 70.85 191.75 70.89 193.23 70.92 C 193.17 69.08 193.10 67.23 193.03 65.39 C 192.23 65.32 190.63 65.18 189.83 65.11 M 223.43 65.14 C 222.27 66.59 224.77 68.29 225.77 66.79 C 226.93 65.34 224.42 63.63 223.43 65.14 M 211.08 66.93 C 211.14 68.43 211.21 69.94 211.30 71.45 C 212.97 70.41 214.63 69.36 216.27 68.27 C 214.54 67.82 212.81 67.37 211.08 66.93 M 118.80 67.64 C 119.07 69.03 119.07 70.54 119.91 71.75 C 121.12 71.39 122.31 71.00 123.50 70.57 C 121.98 69.52 120.41 68.54 118.80 67.64 M 127.22 67.43 C 126.81 68.78 126.40 70.14 126.00 71.49 C 128.06 71.93 131.43 72.36 131.13 69.20 C 129.86 68.53 128.53 67.99 127.22 67.43 M 133.74 68.48 C 133.89 70.26 134.05 72.04 134.20 73.83 C 135.88 73.81 137.56 73.79 139.24 73.77 C 139.23 72.20 139.24 70.62 138.92 69.07 C 137.24 68.56 135.48 68.55 133.74 68.48 M 205.89 68.06 C 205.87 69.44 205.85 70.82 205.83 72.21 C 207.23 72.10 208.62 72.00 210.02 71.89 C 209.71 70.56 209.39 69.24 209.08 67.91 C 208.28 67.95 206.69 68.03 205.89 68.06 M 199.66 68.92 C 199.47 70.54 199.24 72.16 199.21 73.80 C 200.16 74.49 201.40 75.04 202.58 74.57 C 204.98 73.72 203.15 70.75 203.33 68.90 C 202.41 68.91 200.58 68.91 199.66 68.92 M 117.14 73.89 C 116.36 75.35 116.70 77.04 116.69 78.62 C 118.20 78.06 119.73 77.53 121.20 76.83 C 121.11 74.56 119.34 73.18 117.14 73.89 M 123.87 73.57 C 123.86 75.09 123.84 76.62 123.83 78.14 C 125.75 78.16 127.67 78.18 129.60 78.19 C 129.40 76.83 129.42 75.38 128.81 74.11 C 127.18 73.83 125.52 73.72 123.87 73.57 M 209.00 74.96 C 209.08 76.42 209.16 77.87 209.25 79.33 C 210.61 78.87 212.73 79.41 213.43 77.83 C 213.43 76.58 213.26 75.35 213.14 74.12 C 211.76 74.40 210.38 74.68 209.00 74.96 M 216.20 73.52 C 216.04 75.10 215.89 76.68 215.75 78.27 C 217.31 78.13 218.86 77.98 220.43 77.83 C 219.89 75.60 218.42 74.09 216.20 73.52 M 221.12 73.98 C 221.12 74.80 221.13 76.45 221.13 77.27 C 222.67 77.21 224.21 77.15 225.75 77.08 C 225.76 76.35 225.79 74.90 225.80 74.17 C 224.24 74.11 222.68 74.04 221.12 73.98 M 108.96 74.51 C 108.97 75.38 109.00 77.13 109.01 78.01 C 110.39 78.24 111.79 78.16 113.19 78.13 C 111.82 76.87 110.41 75.66 108.96 74.51 M 99.91 77.91 C 99.93 78.70 99.96 80.27 99.97 81.05 C 100.71 81.03 102.20 80.99 102.94 80.97 C 102.95 80.22 102.98 78.74 103.00 78.00 C 102.23 77.98 100.69 77.94 99.91 77.91 M 114.20 80.09 C 114.17 81.44 114.14 82.79 114.11 84.14 C 116.02 84.20 118.17 85.04 119.89 83.84 C 119.75 82.11 119.41 80.41 119.10 78.70 C 117.46 79.16 115.83 79.63 114.20 80.09 M 107.05 81.16 C 107.09 82.36 107.12 83.56 107.17 84.77 C 108.45 84.85 109.73 84.92 111.01 85.01 C 111.05 83.65 111.08 82.30 111.12 80.95 C 109.76 81.02 108.40 81.09 107.05 81.16 M 216.68 82.21 C 217.78 83.95 218.91 85.68 220.07 87.39 C 221.82 85.55 222.93 83.29 223.36 80.79 C 221.12 81.20 218.89 81.68 216.68 82.21 M 224.15 82.07 C 224.15 82.76 224.17 84.13 224.17 84.82 C 225.82 84.94 227.47 85.06 229.13 85.19 C 229.07 83.73 229.01 82.27 228.95 80.81 C 227.34 81.23 225.74 81.65 224.15 82.07 M 231.01 81.08 C 230.92 82.38 230.84 83.68 230.76 84.99 C 231.59 84.99 233.25 85.00 234.07 85.01 C 234.11 84.24 234.18 82.70 234.22 81.93 C 233.14 81.65 232.07 81.36 231.01 81.08 M 91.10 82.10 C 90.58 83.73 91.13 84.28 92.77 83.76 C 93.28 82.13 92.73 81.58 91.10 82.10 M 236.87 81.90 C 236.93 82.65 237.04 84.13 237.10 84.87 C 237.79 84.87 239.18 84.87 239.87 84.86 C 239.92 84.13 240.00 82.66 240.05 81.93 C 239.25 81.92 237.67 81.91 236.87 81.90 M 99.87 83.93 C 99.86 84.72 99.83 86.32 99.82 87.12 C 100.63 87.12 102.27 87.11 103.09 87.11 C 103.09 86.31 103.08 84.72 103.08 83.93 C 102.28 83.93 100.67 83.93 99.87 83.93 M 106.27 89.88 C 106.57 92.63 109.78 91.15 111.54 91.14 C 110.97 89.73 110.43 88.29 109.72 86.94 C 107.94 86.65 105.45 87.70 106.27 89.88 M 227.26 88.07 C 225.18 89.39 226.82 91.96 226.85 93.88 C 227.68 93.89 229.34 93.91 230.16 93.92 C 230.29 91.99 232.00 89.33 229.79 88.05 C 229.16 88.06 227.89 88.07 227.26 88.07 M 99.09 88.82 C 99.46 90.43 99.83 92.05 100.21 93.66 C 100.93 93.67 102.37 93.68 103.09 93.68 C 103.20 92.57 103.36 91.45 103.35 90.32 C 103.03 88.31 100.48 89.25 99.09 88.82 M 233.18 89.06 C 233.12 90.70 233.07 92.34 233.02 93.99 C 234.29 93.95 235.56 93.92 236.84 93.89 C 236.82 92.29 236.79 90.69 236.77 89.09 C 235.57 89.08 234.38 89.07 233.18 89.06 M 239.00 91.07 C 239.29 92.37 239.59 93.68 239.89 94.98 C 240.86 94.58 241.83 94.19 242.80 93.79 C 242.82 93.09 242.87 91.70 242.89 91.00 C 241.59 91.02 240.29 91.05 239.00 91.07 M 246.04 90.74 C 246.00 92.23 245.97 93.72 245.97 95.21 C 246.90 94.66 247.81 94.10 248.72 93.51 C 248.62 92.04 246.95 91.61 246.04 90.74 M 91.43 91.58 C 91.32 93.09 91.22 94.61 91.12 96.12 C 92.89 95.68 94.66 95.24 96.42 94.78 C 94.78 93.67 93.12 92.61 91.43 91.58 M 98.80 95.08 C 99.24 96.97 99.69 98.87 100.14 100.76 C 100.81 100.74 102.16 100.72 102.84 100.71 C 103.24 98.84 103.65 96.98 104.05 95.11 C 102.30 95.09 100.55 95.08 98.80 95.08 M 233.98 95.37 C 233.82 97.49 232.66 99.98 234.16 101.87 C 235.97 101.69 237.74 101.24 239.51 100.85 C 238.65 98.14 236.73 96.16 233.98 95.37 M 83.91 97.80 C 83.94 98.58 84.02 100.14 84.06 100.91 C 84.74 100.88 86.11 100.82 86.79 100.78 C 86.81 100.08 86.85 98.67 86.87 97.97 C 86.13 97.93 84.65 97.84 83.91 97.80 M 91.23 99.14 C 91.22 99.80 91.22 101.10 91.22 101.76 C 92.91 101.91 94.61 102.07 96.31 102.22 C 96.27 100.73 96.22 99.23 96.17 97.74 C 94.52 98.20 92.87 98.67 91.23 99.14 M 239.35 98.62 C 239.90 100.39 240.41 102.18 241.19 103.87 C 243.78 104.45 243.77 100.89 244.13 99.15 C 242.66 98.33 240.95 98.64 239.35 98.62 M 245.98 100.81 C 245.99 101.61 246.02 103.21 246.03 104.02 C 247.03 104.30 248.04 104.59 249.06 104.88 C 249.36 103.63 249.66 102.39 249.97 101.15 C 248.64 101.04 247.31 100.92 245.98 100.81 M 83.77 104.83 C 85.53 105.34 87.30 105.85 89.06 106.36 C 88.91 104.79 88.76 103.22 88.61 101.65 C 86.99 102.70 85.38 103.76 83.77 104.83 M 239.77 105.39 C 239.80 107.32 239.85 109.26 239.90 111.19 C 241.32 111.13 242.75 111.06 244.18 111.00 C 244.08 109.41 244.02 107.82 243.80 106.25 C 242.60 105.51 241.11 105.62 239.77 105.39 M 142.61 108.63 C 140.16 109.13 138.47 111.34 137.33 113.40 C 136.05 120.53 137.07 127.81 136.92 135.00 C 137.06 141.55 136.01 148.15 137.18 154.65 C 138.49 158.65 143.19 159.02 146.39 160.82 C 144.67 161.12 142.96 161.58 141.42 162.43 C 138.92 165.89 139.66 170.26 141.06 173.99 C 144.35 175.37 148.07 176.54 151.47 174.77 C 151.90 174.85 152.74 175.00 153.17 175.07 C 153.06 174.14 152.85 172.28 152.74 171.36 C 151.50 172.23 150.34 173.21 149.42 174.43 C 147.10 174.04 144.23 174.43 142.93 172.01 C 140.89 170.53 141.03 167.99 141.00 165.74 C 143.06 164.56 144.88 162.94 147.08 162.01 C 149.31 162.22 151.23 163.68 153.43 164.15 C 152.40 162.55 150.90 161.35 149.31 160.35 C 152.61 159.67 155.92 158.95 159.24 158.36 C 160.29 156.76 161.35 155.18 162.46 153.62 C 162.71 155.41 162.95 157.20 163.19 159.00 C 166.84 159.00 170.49 159.01 174.15 159.01 C 174.18 155.19 174.22 151.37 174.69 147.58 C 176.27 151.12 176.89 154.98 177.28 158.81 C 192.84 159.32 208.41 158.70 223.97 158.98 C 224.68 150.89 222.71 142.44 225.64 134.65 C 227.83 126.08 230.46 117.59 231.27 108.73 C 227.53 108.59 223.79 108.59 220.05 108.74 C 219.61 112.03 218.98 115.31 217.83 118.44 C 217.14 115.22 216.66 111.96 216.17 108.70 C 203.97 108.47 191.77 108.61 179.57 108.70 C 179.52 111.01 179.50 113.32 179.50 115.63 C 179.00 115.64 177.98 115.66 177.47 115.67 C 177.21 113.38 176.97 111.10 176.74 108.81 C 172.21 108.51 167.67 108.52 163.14 108.72 C 162.89 110.72 162.63 112.72 162.32 114.71 C 161.12 112.83 159.95 110.93 158.80 109.03 C 153.48 108.05 147.93 107.35 142.61 108.63 M 247.22 108.30 C 244.31 108.93 246.12 114.34 248.78 113.89 C 249.55 112.43 250.04 110.82 250.12 109.17 C 249.27 108.36 248.31 108.07 247.22 108.30 M 250.75 111.31 C 250.84 112.38 251.02 114.52 251.11 115.59 C 252.65 114.98 254.22 114.42 255.68 113.64 C 256.26 111.02 252.35 111.99 250.75 111.31 M 243.99 115.63 C 244.00 117.41 244.01 119.20 244.03 120.98 C 245.84 121.03 247.65 121.08 249.47 121.12 C 249.41 119.42 249.42 117.69 248.97 116.03 C 247.33 115.68 245.65 115.68 243.99 115.63 M 250.90 118.90 C 250.52 120.59 250.15 122.27 249.79 123.96 C 251.21 123.99 252.64 124.03 254.07 124.07 C 253.98 122.42 253.89 120.77 253.81 119.12 C 253.09 119.07 251.63 118.96 250.90 118.90 M 256.21 122.20 C 256.07 123.46 255.93 124.72 255.80 125.99 C 256.66 126.00 258.39 126.03 259.25 126.04 C 259.11 124.75 258.97 123.47 258.84 122.18 C 258.18 122.19 256.87 122.20 256.21 122.20 M 246.54 130.99 C 248.86 131.28 251.20 131.32 253.53 131.11 C 252.89 128.83 251.72 126.77 250.04 125.09 C 248.79 127.01 247.61 128.97 246.54 130.99 M 260.81 125.81 C 260.85 126.59 260.92 128.15 260.96 128.93 C 261.66 128.89 263.08 128.81 263.79 128.77 C 263.80 128.12 263.80 126.81 263.80 126.16 C 263.06 126.07 261.56 125.90 260.81 125.81 M 252.58 134.78 C 254.07 134.89 255.56 135.01 257.05 135.12 C 256.99 133.56 256.93 131.99 256.87 130.43 C 254.52 130.92 252.98 132.40 252.58 134.78 M 256.55 137.37 C 258.11 137.71 259.67 138.05 261.24 138.39 C 261.12 137.35 260.88 135.27 260.75 134.23 C 259.34 135.26 257.94 136.31 256.55 137.37 M 251.42 136.72 C 250.22 137.39 249.65 138.76 249.25 140.00 C 249.75 141.60 250.88 142.90 252.01 144.10 C 253.12 142.74 254.92 141.12 254.14 139.17 C 253.52 138.04 253.11 134.98 251.42 136.72 M 263.39 139.17 C 262.23 140.61 264.71 142.35 265.71 140.84 C 266.87 139.39 264.39 137.65 263.39 139.17 M 255.98 141.98 C 255.26 143.24 254.55 144.50 253.84 145.76 C 255.55 145.86 257.26 145.96 258.97 146.06 C 258.92 144.74 258.87 143.43 258.83 142.12 C 258.12 142.09 256.69 142.02 255.98 141.98 M 259.85 145.85 C 259.48 147.55 259.12 149.26 258.77 150.97 C 260.21 151.00 261.64 151.02 263.08 151.05 C 263.05 149.39 263.02 147.73 262.99 146.07 C 262.21 146.02 260.63 145.90 259.85 145.85 M 251.29 148.24 C 249.55 149.76 250.35 152.35 250.02 154.37 C 251.42 154.01 252.87 153.77 254.21 153.18 C 255.09 151.94 255.71 150.55 256.39 149.20 C 254.70 148.83 253.02 148.40 251.29 148.24 M 262.57 153.78 C 264.16 153.85 265.75 153.90 267.34 153.93 C 266.73 152.98 266.11 152.04 265.46 151.13 C 264.29 151.76 263.47 152.83 262.57 153.78 M 254.06 154.92 C 254.06 155.71 254.08 157.27 254.08 158.05 C 255.74 158.07 257.40 158.10 259.06 158.12 C 258.97 156.74 258.87 155.36 258.79 153.99 C 257.21 154.30 255.63 154.61 254.06 154.92 M 249.81 159.15 C 249.75 161.08 248.96 163.24 250.16 164.99 C 251.54 165.05 253.10 165.07 253.97 163.77 C 253.90 162.16 253.59 160.58 253.34 158.99 C 252.45 159.03 250.69 159.11 249.81 159.15 M 259.24 159.35 C 257.75 160.34 259.41 162.88 260.87 161.72 C 262.36 160.72 260.70 158.19 259.24 159.35 M 40.18 160.73 C 39.99 165.57 40.26 170.42 40.04 175.27 C 40.88 175.24 42.56 175.18 43.39 175.16 C 43.00 174.37 42.20 172.80 41.81 172.02 C 44.56 171.25 46.77 169.50 48.58 167.34 C 49.37 164.88 46.82 163.20 45.81 161.24 C 44.08 161.24 42.35 161.22 40.62 161.27 L 40.18 160.73 M 51.21 161.17 C 51.25 165.90 51.27 170.64 51.22 175.37 C 53.97 175.43 56.68 174.99 59.34 174.33 C 60.98 170.44 61.73 165.68 58.77 162.20 C 56.41 161.06 53.74 161.24 51.21 161.17 M 63.62 161.84 C 62.16 166.09 66.35 169.09 66.06 173.19 C 64.82 174.03 63.67 174.99 62.63 176.07 C 64.95 175.62 67.15 174.74 69.31 173.82 C 69.29 170.49 67.14 167.92 65.96 164.98 C 66.62 163.39 67.65 161.99 68.60 160.57 C 66.93 160.98 65.27 161.41 63.62 161.84 M 76.80 160.94 C 76.75 164.94 76.58 168.94 76.75 172.94 C 76.71 174.37 77.39 175.33 78.81 175.83 C 78.94 173.62 78.99 171.42 79.00 169.22 C 80.59 169.00 82.18 168.76 83.76 168.48 C 82.27 168.02 80.76 167.64 79.25 167.28 C 79.20 165.75 79.15 164.22 79.12 162.69 C 80.71 162.16 82.30 161.61 83.86 160.97 C 81.50 160.83 79.15 160.88 76.80 160.94 M 87.34 162.43 C 86.04 166.00 85.37 170.20 87.33 173.66 C 90.82 176.49 95.38 175.65 99.27 174.29 C 100.80 170.43 101.70 165.74 98.72 162.31 C 95.17 160.07 90.96 160.90 87.34 162.43 M 103.74 160.85 C 103.56 165.86 103.56 170.87 103.81 175.87 C 105.48 175.24 105.88 173.67 106.14 172.08 C 107.45 173.44 108.90 174.67 110.38 175.85 C 109.84 173.69 108.87 171.38 110.05 169.25 C 111.26 166.77 111.24 163.77 109.50 161.55 C 107.61 161.07 105.66 161.03 103.74 160.85 M 120.02 160.90 C 120.23 165.76 119.28 170.80 120.47 175.55 C 122.93 176.15 125.70 176.24 127.69 174.42 C 126.11 174.15 124.53 173.92 122.94 173.72 C 122.95 172.25 122.96 170.79 122.96 169.33 C 124.50 169.12 126.03 168.88 127.55 168.63 C 126.18 168.07 124.79 167.54 123.40 167.05 C 123.33 165.65 123.28 164.26 123.25 162.87 C 124.70 162.32 126.15 161.75 127.57 161.13 C 125.06 160.94 122.54 160.92 120.02 160.90 M 129.02 160.69 C 129.57 162.53 130.05 164.48 131.37 165.95 L 130.85 166.88 C 131.01 167.44 131.34 168.56 131.50 169.12 C 130.52 171.27 129.73 173.50 129.10 175.78 C 130.76 174.25 131.75 170.34 134.61 171.38 C 136.13 171.51 135.97 173.64 136.69 174.65 C 137.29 174.81 138.50 175.14 139.10 175.31 C 137.06 172.76 135.58 169.83 134.02 166.98 C 136.25 165.34 137.98 163.16 139.27 160.73 C 136.48 160.88 136.33 164.43 133.85 164.95 C 131.48 164.67 130.59 162.13 129.02 160.69 M 155.71 161.13 C 155.60 165.91 155.57 170.68 155.71 175.45 C 157.73 175.38 159.77 175.32 161.75 174.82 C 160.06 174.50 158.37 174.25 156.66 174.06 C 156.67 172.34 156.67 170.63 156.66 168.91 C 158.35 168.77 160.04 168.57 161.72 168.31 C 160.08 167.89 158.40 167.66 156.73 167.44 C 156.72 165.79 156.73 164.14 156.76 162.50 C 158.43 162.21 160.10 161.93 161.73 161.46 C 159.73 161.23 157.72 161.19 155.71 161.13 M 164.02 161.19 C 163.95 165.79 163.95 170.39 164.05 174.98 C 164.59 174.92 165.66 174.80 166.20 174.75 L 166.21 175.62 C 168.02 175.41 169.85 175.22 171.63 174.76 C 170.00 174.48 168.36 174.25 166.72 174.07 C 166.74 169.94 167.01 165.81 166.85 161.69 L 166.94 160.92 C 166.21 160.98 164.75 161.12 164.02 161.19 M 173.73 162.36 C 173.43 166.68 173.63 171.02 173.75 175.35 C 176.06 175.28 178.39 175.26 180.66 174.74 C 179.00 174.46 177.34 174.24 175.67 174.08 C 175.66 169.55 175.88 165.00 175.50 160.48 C 175.05 160.95 174.17 161.89 173.73 162.36 M 182.76 160.94 C 182.65 165.76 182.59 170.60 182.80 175.42 C 185.21 175.45 187.77 175.77 189.97 174.54 C 187.97 174.19 185.95 174.02 183.93 173.84 C 183.93 172.27 183.93 170.71 183.92 169.14 C 185.95 169.02 187.97 168.86 189.99 168.56 C 188.19 167.63 186.20 167.54 184.23 167.43 C 184.17 165.78 184.13 164.13 184.09 162.48 C 186.09 162.32 188.12 162.19 189.95 161.28 C 187.56 160.99 185.16 160.96 182.76 160.94 M 199.23 161.16 C 199.23 164.01 199.20 166.86 199.03 169.71 C 196.27 167.58 194.71 164.37 192.77 161.56 C 192.99 166.29 191.87 171.23 193.42 175.79 C 193.83 172.85 193.67 169.87 193.71 166.91 C 196.76 168.89 197.99 172.52 200.15 175.30 C 199.54 170.61 199.92 165.92 200.30 161.23 L 199.23 161.16 M 203.16 165.29 C 202.45 168.18 203.21 171.14 203.92 173.96 C 207.72 175.85 211.97 176.62 216.05 175.09 C 216.05 174.26 216.06 172.59 216.07 171.76 C 213.43 173.47 210.39 174.18 207.26 173.98 C 206.47 171.11 205.99 168.17 205.89 165.20 C 207.87 164.38 209.74 161.78 212.06 162.89 C 213.54 163.41 215.02 163.94 216.52 164.40 C 216.41 160.55 211.93 160.27 209.05 160.68 C 206.37 160.87 204.48 163.17 203.16 165.29 M 219.05 161.06 C 219.07 165.77 219.10 170.48 219.05 175.19 C 221.50 175.44 223.99 175.47 226.40 174.89 C 224.35 174.43 222.27 174.12 220.19 173.85 C 220.16 172.31 220.13 170.78 220.07 169.25 C 221.73 169.01 223.38 168.73 225.02 168.40 C 223.49 167.93 221.93 167.57 220.35 167.32 C 220.31 165.76 220.29 164.20 220.28 162.65 C 221.89 162.26 223.50 161.85 225.06 161.29 C 223.06 161.09 221.06 161.09 219.05 161.06 M 254.18 165.02 C 251.81 166.23 253.08 171.19 255.71 170.69 C 257.51 168.78 257.96 164.26 254.18 165.02 M 247.04 170.57 C 247.01 172.22 246.98 173.87 246.97 175.52 C 249.64 175.70 251.87 174.44 253.46 172.35 C 251.33 171.71 249.19 171.13 247.04 170.57 M 256.46 174.56 C 259.35 176.31 259.86 172.83 260.31 170.73 C 258.10 170.89 254.84 171.68 256.46 174.56 M 44.23 172.17 C 44.09 172.61 43.82 173.50 43.68 173.94 C 45.33 174.53 46.98 175.13 48.60 175.80 C 47.02 174.76 46.34 171.83 44.23 172.17 M 250.89 175.93 C 250.48 177.65 250.06 179.37 249.66 181.09 C 251.09 181.06 252.53 181.03 253.96 181.00 C 253.89 179.41 253.82 177.82 253.76 176.23 C 253.04 176.15 251.61 176.01 250.89 175.93 M 150.19 177.59 C 150.29 179.48 150.42 181.37 150.58 183.25 C 152.39 184.08 154.18 184.97 155.99 185.83 C 155.23 189.64 153.21 193.01 151.51 196.45 C 150.14 199.46 149.47 202.79 147.62 205.58 C 152.68 205.22 157.75 205.38 162.81 205.42 C 162.77 203.44 162.72 201.46 162.66 199.49 C 160.57 199.45 158.48 199.41 156.39 199.33 C 159.60 194.10 162.63 186.94 158.64 181.31 C 156.76 178.43 153.38 177.80 150.19 177.59 M 173.38 178.49 C 168.52 180.83 164.92 186.45 165.57 192.02 C 165.24 196.75 167.77 200.96 171.20 204.00 C 175.70 206.22 181.10 206.07 185.86 204.79 C 189.43 204.03 190.75 200.26 192.57 197.54 C 195.84 190.79 192.56 182.44 186.31 178.74 C 182.20 177.14 177.59 177.44 173.38 178.49 M 199.27 181.30 C 198.94 189.31 199.36 197.35 199.07 205.37 C 200.64 205.37 202.22 205.36 203.80 205.35 C 203.62 196.05 203.73 186.76 203.74 177.46 C 201.93 178.30 199.43 178.89 199.27 181.30 M 214.30 178.20 C 212.81 179.01 211.66 180.36 210.75 181.77 C 210.00 184.45 210.81 187.22 210.82 189.93 C 210.06 192.55 208.86 195.17 209.25 197.97 C 209.52 200.59 210.31 203.98 213.19 204.78 C 217.15 206.44 221.94 205.90 225.51 203.52 C 227.51 200.21 227.81 196.04 226.60 192.41 C 226.10 191.19 223.59 190.29 224.95 188.89 C 227.82 185.30 225.69 179.88 221.76 178.23 C 219.34 177.37 216.71 177.24 214.30 178.20 M 243.17 182.30 C 243.17 182.90 243.16 184.12 243.16 184.72 C 244.49 186.70 247.03 185.23 248.94 185.25 C 248.94 184.38 248.96 182.64 248.97 181.76 C 247.06 181.80 244.42 180.19 243.17 182.30 M 250.86 184.77 C 252.57 185.25 254.28 185.72 255.99 186.20 C 255.92 184.64 255.85 183.10 255.77 181.55 C 254.12 182.61 252.48 183.68 250.86 184.77 M 80.97 184.98 C 80.70 186.08 80.42 187.18 80.15 188.28 C 81.50 188.31 82.84 188.33 84.18 188.36 C 84.15 187.50 84.09 185.77 84.06 184.91 C 83.28 184.93 81.74 184.97 80.97 184.98 M 86.88 186.12 C 86.59 187.68 86.27 189.24 86.11 190.83 C 87.40 191.34 88.80 191.39 90.17 191.52 C 90.05 189.75 89.93 188.00 89.80 186.24 C 89.07 186.21 87.61 186.15 86.88 186.12 M 245.72 187.73 C 245.86 189.31 246.02 190.89 246.18 192.48 C 248.43 191.93 249.92 190.42 250.48 188.17 C 248.89 188.02 247.30 187.87 245.72 187.73 M 256.23 188.62 C 255.39 189.02 254.59 189.49 253.84 190.03 C 255.24 191.46 258.73 192.09 258.73 189.26 C 257.92 188.94 257.08 188.73 256.23 188.62 M 91.11 189.13 C 91.11 190.85 91.10 192.58 91.10 194.31 C 92.71 194.26 94.34 194.24 95.93 193.94 C 96.34 192.27 96.36 190.55 96.44 188.85 C 94.66 188.94 92.89 189.03 91.11 189.13 M 237.25 191.98 C 237.27 192.78 237.31 194.37 237.33 195.16 C 239.65 195.28 241.97 195.23 244.29 195.05 C 243.74 193.76 243.23 192.46 242.56 191.24 C 240.77 191.33 239.01 191.68 237.25 191.98 M 246.60 194.21 C 247.61 195.48 248.64 196.75 249.66 198.01 C 250.11 196.68 250.56 195.35 251.02 194.03 C 249.54 194.08 248.07 194.14 246.60 194.21 M 80.87 194.86 C 80.89 195.65 80.94 197.23 80.96 198.02 C 81.68 197.98 83.13 197.91 83.85 197.87 C 83.88 197.16 83.93 195.72 83.96 195.00 C 83.19 194.96 81.64 194.90 80.87 194.86 M 87.06 195.05 C 86.70 196.31 86.35 197.57 86.01 198.83 C 87.33 198.93 88.66 199.04 89.99 199.15 C 90.03 198.35 90.11 196.75 90.16 195.94 C 89.12 195.65 88.09 195.35 87.06 195.05 M 90.67 200.88 C 92.44 201.04 94.21 201.17 95.98 201.29 C 95.84 199.40 95.70 197.50 95.54 195.61 C 93.34 196.78 91.54 198.51 90.67 200.88 M 96.37 198.94 C 97.45 200.98 98.67 202.94 100.00 204.83 C 101.28 202.93 102.48 200.97 103.57 198.95 C 101.18 198.52 98.75 198.52 96.37 198.94 M 239.48 199.36 C 238.59 201.37 241.03 202.32 242.65 202.01 C 243.31 200.66 243.81 199.25 244.34 197.85 C 242.73 198.28 239.84 197.02 239.48 199.36 M 230.49 203.83 C 232.72 204.35 234.97 204.81 237.24 205.22 C 236.79 202.97 236.29 200.73 235.73 198.51 C 233.48 199.73 231.69 201.57 230.49 203.83 M 239.85 204.83 C 240.31 205.84 240.78 206.86 241.26 207.87 C 241.89 207.88 243.16 207.89 243.79 207.90 C 243.82 206.55 243.85 205.20 243.88 203.86 C 242.53 204.18 241.19 204.50 239.85 204.83 M 94.38 205.17 C 93.72 206.36 93.20 207.62 92.64 208.86 C 94.24 208.87 95.84 208.87 97.44 208.86 C 96.50 207.61 96.48 204.80 94.38 205.17 M 99.12 206.10 C 99.15 207.67 99.18 209.24 99.21 210.81 C 100.42 210.83 101.62 210.85 102.83 210.88 C 102.90 209.23 102.97 207.58 103.05 205.93 C 101.74 205.98 100.43 206.04 99.12 206.10 M 103.46 210.87 C 105.22 211.27 106.97 211.75 108.78 211.88 C 110.98 210.38 108.98 207.50 108.92 205.42 C 106.37 206.42 104.47 208.33 103.46 210.87 M 231.22 208.09 C 232.10 209.19 232.98 210.29 233.86 211.39 C 234.64 211.23 236.21 210.91 236.99 210.75 C 236.55 209.14 236.11 207.53 235.67 205.92 C 234.18 206.64 232.70 207.37 231.22 208.09 M 224.08 208.83 C 224.07 209.68 224.05 211.38 224.04 212.24 C 225.98 212.26 228.60 213.86 229.92 211.76 C 229.90 211.15 229.85 209.92 229.83 209.31 C 228.59 207.21 225.98 208.84 224.08 208.83 M 114.19 212.46 C 113.66 214.70 113.19 216.96 112.78 219.23 C 115.03 218.80 117.27 218.32 119.51 217.78 C 118.30 215.50 116.47 213.67 114.19 212.46 M 232.90 212.88 C 232.91 213.67 232.93 215.24 232.94 216.03 C 233.74 216.03 235.34 216.03 236.14 216.03 C 236.16 215.24 236.19 213.65 236.21 212.85 C 235.38 212.86 233.73 212.88 232.90 212.88 M 96.13 215.13 C 96.09 215.85 96.03 217.30 95.99 218.03 C 96.77 218.05 98.33 218.08 99.10 218.10 C 99.08 217.34 99.02 215.80 98.99 215.03 C 98.28 215.06 96.84 215.10 96.13 215.13 M 101.09 214.30 C 101.05 215.39 100.98 217.55 100.94 218.63 C 102.55 218.37 104.17 218.14 105.74 217.71 C 105.92 215.30 102.61 215.34 101.09 214.30 M 107.00 214.87 C 107.09 216.25 107.17 217.64 107.26 219.03 C 108.54 218.70 109.81 218.37 111.09 218.04 C 111.04 217.26 110.95 215.72 110.91 214.94 C 109.60 214.92 108.30 214.90 107.00 214.87 M 216.76 220.99 C 217.67 220.99 219.49 221.01 220.40 221.01 C 220.38 218.71 221.93 214.36 218.09 215.13 C 214.98 215.29 216.69 219.05 216.76 220.99 M 224.06 214.99 C 224.05 216.31 224.04 217.64 224.04 218.97 C 225.66 218.91 227.29 218.84 228.92 218.78 C 228.91 217.59 228.90 216.40 228.89 215.21 C 227.28 215.13 225.66 215.06 224.06 214.99 M 233.10 219.08 C 233.09 219.79 233.07 221.23 233.06 221.94 C 233.82 221.98 235.33 222.05 236.09 222.09 C 236.08 221.30 236.07 219.73 236.06 218.94 C 235.32 218.98 233.84 219.04 233.10 219.08 M 116.19 223.12 C 115.20 225.40 118.47 225.45 119.78 226.42 C 119.98 224.77 120.17 223.11 120.35 221.46 C 118.94 221.66 116.36 221.02 116.19 223.12 M 123.22 221.15 C 120.99 222.67 123.22 226.15 125.67 225.85 C 127.06 224.51 126.85 222.43 127.25 220.70 C 125.90 220.78 124.56 220.93 123.22 221.15 M 207.84 221.82 C 205.84 222.40 206.03 224.78 207.20 226.07 C 209.39 226.42 211.41 225.29 213.42 224.64 C 211.80 223.36 210.26 220.34 207.84 221.82 M 223.01 221.88 C 223.37 222.88 223.74 223.88 224.10 224.89 C 224.83 224.89 226.30 224.89 227.04 224.89 C 226.97 223.59 226.90 222.29 226.83 220.99 C 225.56 221.28 224.28 221.58 223.01 221.88 M 111.19 222.49 C 110.47 223.57 110.57 224.94 110.35 226.18 C 111.27 226.15 113.12 226.08 114.04 226.05 C 114.08 225.15 114.16 223.36 114.20 222.47 C 113.20 222.44 112.19 222.44 111.19 222.49 M 214.27 221.92 C 214.24 222.72 214.18 224.31 214.15 225.11 C 215.70 225.43 217.26 225.79 218.84 225.97 C 219.47 225.17 219.81 224.27 219.84 223.25 C 218.45 221.65 216.14 222.23 214.27 221.92 M 130.53 226.18 C 131.57 228.74 133.38 230.82 136.07 231.68 C 136.38 229.87 136.79 228.07 136.83 226.24 C 135.34 224.13 132.56 226.11 130.53 226.18 M 196.96 226.10 C 196.92 227.90 196.88 229.69 196.86 231.50 C 198.26 231.36 199.74 231.47 201.05 230.85 C 201.21 229.26 201.22 227.66 201.27 226.08 C 199.83 226.08 198.40 226.09 196.96 226.10 M 222.46 230.65 C 223.42 230.74 225.35 230.91 226.31 230.99 C 226.03 229.17 225.74 227.36 225.44 225.55 C 224.35 227.19 223.36 228.90 222.46 230.65 M 125.61 228.23 C 126.17 230.43 127.68 231.87 129.85 232.49 C 129.97 230.89 130.09 229.30 130.20 227.72 C 128.67 227.88 127.14 228.05 125.61 228.23 M 204.23 228.22 C 204.19 228.94 204.13 230.38 204.09 231.10 C 205.69 231.43 207.29 231.78 208.92 231.99 C 209.27 230.61 209.40 229.19 209.54 227.78 C 207.76 227.92 206.00 228.07 204.23 228.22 M 213.52 227.97 C 212.77 230.48 214.56 231.65 216.71 232.35 C 216.85 230.94 217.00 229.55 217.14 228.15 C 216.23 228.11 214.42 228.02 213.52 227.97 M 121.04 229.05 C 120.72 230.06 120.41 231.08 120.09 232.10 C 121.33 232.39 122.57 232.68 123.81 232.98 C 123.88 231.66 123.95 230.34 124.03 229.03 C 123.28 229.03 121.79 229.04 121.04 229.05 M 140.89 231.10 C 142.54 232.57 144.22 234.01 145.94 235.42 C 146.46 233.14 146.92 230.85 147.30 228.55 C 145.07 229.14 142.91 229.97 140.89 231.10 M 186.86 229.27 C 186.77 231.17 186.71 233.07 186.67 234.98 C 188.14 234.91 189.61 234.83 191.08 234.76 C 190.71 232.90 190.35 231.03 189.99 229.17 C 189.20 229.19 187.64 229.24 186.86 229.27 M 153.62 231.59 C 153.21 232.61 153.00 233.66 152.98 234.75 C 154.39 236.50 156.82 235.87 158.77 236.15 C 158.79 234.71 158.80 233.28 158.82 231.85 C 157.09 231.69 155.35 231.50 153.62 231.59 M 137.08 231.44 C 137.05 232.96 137.03 234.48 137.02 236.01 C 138.49 235.90 139.96 235.80 141.44 235.69 C 141.07 233.27 139.43 231.89 137.08 231.44 M 163.24 233.11 C 164.25 235.74 166.24 237.64 168.96 238.42 C 169.20 236.20 169.33 233.97 169.30 231.75 C 167.27 232.17 165.25 232.62 163.24 233.11 M 173.72 233.58 C 175.27 235.20 176.85 236.79 178.45 238.35 C 179.40 236.15 180.06 233.84 180.51 231.49 C 178.18 231.96 175.90 232.64 173.72 233.58 M 194.09 231.83 C 194.04 233.25 194.00 234.67 193.96 236.10 C 195.59 236.00 197.22 235.90 198.86 235.80 C 198.90 235.09 198.98 233.67 199.02 232.96 C 197.37 232.58 195.73 232.20 194.09 231.83 M 202.50 233.16 C 203.06 234.70 203.57 236.28 204.31 237.76 C 206.97 238.47 205.93 234.53 206.57 232.95 C 205.55 233.00 203.51 233.11 202.50 233.16 M 131.03 234.92 C 131.07 235.73 131.15 237.35 131.19 238.15 C 132.74 238.17 134.30 238.19 135.86 238.21 C 135.88 237.40 135.93 235.76 135.95 234.94 C 134.30 234.93 132.67 234.92 131.03 234.92 M 147.05 237.81 C 148.91 238.47 150.83 238.88 152.76 239.29 C 152.82 238.51 152.94 236.94 153.00 236.16 C 151.84 235.57 150.69 234.99 149.54 234.41 C 148.68 235.52 147.82 236.63 147.05 237.81 M 183.23 234.51 C 183.06 236.07 182.90 237.64 182.74 239.21 C 184.35 239.12 185.95 239.02 187.56 238.93 C 187.06 236.58 185.63 234.96 183.23 234.51 M 127.53 235.54 C 127.24 237.34 126.97 239.14 126.72 240.95 C 127.66 240.86 129.55 240.68 130.50 240.59 C 129.58 238.86 128.59 237.17 127.53 235.54 M 159.99 236.08 C 159.95 237.77 159.91 239.45 159.88 241.14 C 161.26 241.04 162.64 240.94 164.03 240.84 C 163.70 239.24 163.38 237.65 163.05 236.06 C 162.29 236.07 160.76 236.08 159.99 236.08 M 171.38 235.61 C 171.20 237.43 171.04 239.25 170.89 241.08 C 172.77 240.98 174.65 240.88 176.53 240.76 C 175.67 238.27 173.88 236.44 171.38 235.61 M 143.26 239.09 C 143.32 240.15 143.42 241.20 143.54 242.26 C 144.38 242.17 146.06 241.99 146.89 241.90 C 146.96 241.05 147.09 239.35 147.15 238.50 C 145.85 238.59 144.42 238.36 143.26 239.09 M 191.10 237.34 C 191.07 238.42 190.99 240.57 190.95 241.65 C 192.54 241.38 194.14 241.15 195.68 240.70 C 196.29 238.20 192.58 238.38 191.10 237.34 M 200.91 238.88 C 200.89 239.70 200.87 241.35 200.85 242.18 C 201.60 242.11 203.09 241.96 203.83 241.89 C 203.82 241.21 203.80 239.85 203.79 239.17 C 203.07 239.09 201.63 238.95 200.91 238.88 M 155.73 240.94 C 155.90 242.22 156.07 243.51 156.23 244.79 C 156.86 244.79 158.12 244.80 158.75 244.80 C 158.91 243.51 159.08 242.22 159.25 240.93 C 158.37 240.93 156.61 240.94 155.73 240.94 M 167.00 242.09 C 167.04 242.78 167.14 244.17 167.18 244.86 C 168.45 244.85 169.71 244.83 170.98 244.82 C 170.72 243.48 170.46 242.14 170.19 240.81 C 169.13 241.23 168.06 241.66 167.00 242.09 M 180.30 241.16 C 179.12 242.62 181.66 244.28 182.65 242.79 C 183.82 241.33 181.29 239.67 180.30 241.16 M 150.44 247.95 C 151.42 247.90 153.40 247.80 154.39 247.75 C 153.82 246.25 153.29 244.73 152.59 243.29 C 150.20 243.04 151.07 246.44 150.44 247.95 M 164.33 245.41 C 163.10 246.50 162.90 248.57 165.01 248.54 C 167.73 248.95 166.56 244.45 164.33 245.41 M 175.61 247.85 C 177.19 247.87 178.78 247.87 180.37 247.86 C 179.78 246.97 179.16 246.10 178.52 245.26 C 176.91 244.93 176.52 246.97 175.61 247.85 M 147.18 248.42 C 145.67 249.41 147.36 251.93 148.82 250.76 C 150.32 249.77 148.63 247.25 147.18 248.42 Z" />
<path fill="#ffffff" opacity="1.00" d=" M 3.08 111.10 C 7.80 111.11 12.51 111.15 17.22 111.08 C 17.22 113.42 17.18 115.76 17.11 118.10 C 15.07 117.97 13.02 117.98 10.97 117.98 C 10.96 121.38 10.94 124.78 11.26 128.17 L 11.35 128.94 C 13.30 129.05 15.26 129.09 17.22 129.15 C 17.22 131.03 17.21 132.91 17.20 134.79 C 15.21 134.93 13.22 135.07 11.23 135.28 L 11.13 136.10 C 10.73 140.95 10.91 145.82 11.08 150.68 C 13.79 150.94 16.51 151.22 19.22 151.51 C 19.13 152.78 19.05 154.04 18.99 155.31 C 13.72 156.11 8.38 156.14 3.07 156.00 C 3.05 141.03 3.03 126.07 3.08 111.10 Z" />
<path fill="#ffffff" opacity="1.00" d=" M 23.17 110.98 C 25.74 111.21 28.33 111.17 30.90 111.14 C 30.68 124.52 30.58 137.90 30.94 151.28 C 32.58 151.17 34.21 151.06 35.85 150.95 C 36.24 137.65 35.80 124.36 36.09 111.06 C 38.72 111.26 41.37 111.26 44.01 111.29 C 43.86 125.93 44.09 140.58 43.75 155.22 C 37.46 159.13 28.65 159.91 22.81 154.76 C 23.35 140.17 22.70 125.57 23.17 110.98 Z" />
<path fill="#ffffff" opacity="1.00" d=" M 49.02 111.07 C 54.02 111.10 59.03 110.86 64.03 111.13 C 66.27 111.37 69.49 111.45 69.80 114.33 C 70.78 119.44 70.48 124.74 70.11 129.91 C 70.15 132.20 68.17 133.54 66.48 134.67 C 67.84 135.96 69.82 137.00 70.03 139.07 C 70.75 144.78 70.23 150.57 70.15 156.31 C 67.16 156.29 64.17 156.23 61.19 156.09 C 61.21 150.47 61.69 144.82 61.00 139.22 C 59.79 138.57 58.49 138.14 57.22 137.66 C 56.80 143.86 57.03 150.07 56.97 156.29 C 54.33 156.30 51.68 156.30 49.04 156.28 C 48.96 141.21 49.01 126.14 49.02 111.07 M 57.08 120.00 C 56.76 123.85 56.99 127.73 57.06 131.59 C 58.38 131.38 59.74 131.31 60.97 130.76 C 61.73 125.76 61.56 120.56 59.96 115.73 C 58.90 117.05 57.11 118.12 57.08 120.00 Z" />
<path fill="#ffffff" opacity="1.00" d=" M 76.21 112.04 C 82.63 110.19 89.49 110.24 95.88 112.18 C 97.10 121.74 96.24 131.39 96.51 141.00 C 96.33 145.49 97.14 150.20 95.66 154.53 C 90.80 158.51 83.25 159.51 77.83 156.15 C 74.71 154.72 75.75 150.76 75.44 148.00 C 75.85 136.02 74.74 123.97 76.21 112.04 M 83.30 117.92 C 83.60 128.95 82.72 140.02 83.85 151.01 C 84.68 151.01 86.34 151.01 87.17 151.01 C 87.74 139.90 87.59 128.75 87.28 117.64 C 85.95 117.73 84.63 117.82 83.30 117.92 Z" />
<path fill="#ffffff" opacity="1.00" d=" M 100.98 111.06 C 105.20 111.03 109.42 111.04 113.64 111.11 C 115.20 115.40 116.21 119.84 116.93 124.35 C 117.25 126.04 117.64 127.72 118.05 129.39 C 118.54 126.71 119.03 124.03 119.33 121.32 C 119.97 117.97 119.72 114.29 121.29 111.21 C 125.46 110.80 129.66 111.08 133.84 111.13 C 133.68 126.16 133.66 141.20 133.84 156.23 C 131.42 156.26 129.00 156.28 126.59 156.28 C 126.37 145.60 126.33 134.90 126.70 124.22 C 125.96 124.62 125.23 125.03 124.50 125.43 C 123.84 131.94 123.65 138.55 121.94 144.89 C 120.97 148.64 120.56 152.49 119.97 156.30 C 118.10 156.18 116.23 156.05 114.37 155.90 C 113.57 150.14 114.22 143.82 111.18 138.62 C 111.14 137.29 111.07 135.97 110.99 134.65 C 110.82 131.33 110.24 128.05 109.44 124.84 C 108.88 135.31 109.50 145.80 109.00 156.28 C 106.32 156.30 103.65 156.29 100.97 156.28 C 100.85 141.20 100.83 126.13 100.98 111.06 Z" />
<path fill="#ffffff" opacity="1.00" d=" M 140.38 111.56 C 146.00 110.78 151.89 109.92 157.42 111.61 C 159.81 112.19 160.15 115.08 160.31 117.13 C 160.49 126.42 160.14 135.72 160.37 145.02 C 160.33 148.19 160.60 151.47 159.60 154.53 C 155.94 158.41 150.07 158.61 145.12 157.91 C 142.35 157.14 138.61 155.51 139.02 152.02 C 138.78 145.02 139.06 138.01 138.97 131.00 C 139.10 124.51 138.18 117.82 140.38 111.56 M 147.03 120.97 C 146.96 130.90 146.86 140.84 147.21 150.76 C 148.46 150.85 149.71 150.94 150.95 151.03 C 151.64 142.70 151.16 134.34 151.38 126.00 C 151.49 122.52 151.08 119.03 150.04 115.70 C 148.76 117.26 146.82 118.71 147.03 120.97 Z" />
<path fill="#ffffff" opacity="1.00" d=" M 164.29 111.22 C 167.86 111.24 171.72 110.32 175.07 111.94 C 176.94 118.42 177.88 125.20 180.65 131.43 C 181.04 124.63 180.68 117.81 181.04 111.01 C 183.89 111.04 186.74 111.09 189.60 111.16 C 189.36 126.15 189.39 141.15 189.58 156.14 C 186.24 156.34 182.89 156.35 179.55 156.18 C 179.01 151.31 177.13 146.74 176.20 141.95 C 175.51 138.43 174.28 135.04 173.02 131.68 C 172.87 139.91 173.07 148.14 172.92 156.37 C 170.05 156.31 167.17 156.20 164.30 156.00 C 164.43 141.08 164.46 126.15 164.29 111.22 Z" />
<path fill="#ffffff" opacity="1.00" d=" M 193.44 111.17 C 200.18 110.97 206.92 111.01 213.66 111.12 C 214.75 114.49 215.99 117.84 216.57 121.35 C 216.97 123.69 217.50 126.01 218.05 128.33 C 218.48 126.31 218.93 124.30 219.29 122.27 C 219.99 118.57 220.76 114.89 221.32 111.17 C 223.97 111.13 226.63 111.12 229.29 111.15 C 227.23 117.40 226.29 123.95 224.24 130.21 C 221.85 138.60 222.65 147.39 222.70 155.99 C 219.61 156.20 216.52 156.25 213.43 156.15 C 213.53 150.77 213.82 145.38 213.52 140.01 C 213.30 136.05 211.42 132.49 210.57 128.68 C 210.25 126.06 209.86 123.46 209.36 120.87 C 209.24 120.22 208.99 118.93 208.86 118.29 C 206.83 118.13 204.79 117.98 202.76 117.84 C 202.70 121.66 202.71 125.47 202.82 129.29 C 203.55 129.09 205.03 128.70 205.77 128.50 C 205.86 130.59 205.95 132.69 206.03 134.79 C 204.91 135.21 203.80 135.63 202.69 136.05 C 202.57 140.94 202.56 145.84 202.94 150.72 C 205.00 150.77 207.06 150.81 209.12 150.87 C 209.13 152.66 209.13 154.46 209.13 156.26 C 203.91 156.44 198.67 156.48 193.45 156.08 C 193.66 141.11 193.69 126.14 193.44 111.17 Z" />
<path fill="#ffffff" opacity="1.00" d=" M 19.88 118.83 C 19.96 121.65 20.07 124.47 20.25 127.28 C 18.04 126.72 15.81 126.24 13.58 125.77 C 13.73 124.44 13.88 123.10 14.03 121.76 C 15.99 120.79 17.94 119.82 19.88 118.83 Z" />
<path fill="#ffffff" opacity="1.00" d=" M 13.98 138.05 C 16.08 137.68 18.18 137.27 20.26 136.79 C 20.03 140.58 19.87 144.38 19.51 148.16 C 17.38 148.01 15.25 147.87 13.12 147.72 C 13.40 144.50 13.66 141.27 13.98 138.05 Z" />
<path fill="#ffffff" opacity="1.00" d=" M 53.49 161.69 C 55.89 163.36 60.29 164.21 59.78 167.97 C 60.21 170.84 57.60 172.41 55.96 174.28 C 55.16 174.26 53.55 174.23 52.75 174.22 C 52.68 170.03 52.63 165.81 53.49 161.69 Z" />
<path fill="#ffffff" opacity="1.00" d=" M 88.24 165.26 C 89.92 163.90 91.35 161.12 93.88 161.88 C 96.09 162.68 97.66 164.57 99.56 165.88 C 99.49 167.55 99.41 169.23 99.34 170.91 C 97.42 172.41 95.76 174.83 92.98 174.38 C 90.78 174.94 89.73 172.75 88.45 171.43 C 86.78 169.93 86.38 166.73 88.24 165.26 Z" />
<path fill="#ffffff" opacity="1.00" d=" M 106.21 161.83 C 107.44 163.36 110.44 164.38 109.70 166.73 C 109.80 168.81 107.29 168.63 105.95 169.36 C 105.98 166.84 106.07 164.34 106.21 161.83 Z" />
<path fill="#ffffff" opacity="1.00" d=" M 174.54 184.59 C 177.33 183.20 180.70 183.00 183.58 184.24 C 187.43 185.59 189.97 190.42 188.34 194.28 C 186.49 197.07 184.00 199.67 180.77 200.76 C 176.66 201.50 173.23 198.09 170.96 195.08 C 169.61 191.42 170.20 185.88 174.54 184.59 Z" />
<path fill="#ffffff" opacity="1.00" d=" M 214.09 194.93 C 216.18 194.26 218.67 192.45 220.71 194.28 C 222.77 196.63 220.39 199.24 219.40 201.45 C 217.41 200.57 215.69 199.25 213.90 198.05 C 213.95 197.27 214.04 195.71 214.09 194.93 Z" />
</g>
<g id="#d4d4d4ff">
<path fill="#d4d4d4" opacity="1.00" d=" M 187.21 49.23 C 188.65 48.06 190.38 50.55 188.87 51.56 C 187.42 52.72 185.70 50.24 187.21 49.23 Z" />
<path fill="#d4d4d4" opacity="1.00" d=" M 160.49 58.05 C 161.69 58.39 162.89 58.73 164.10 59.08 C 164.04 60.66 163.98 62.23 163.94 63.81 C 163.14 63.85 161.54 63.91 160.74 63.94 C 160.62 61.98 160.54 60.01 160.49 58.05 Z" />
<path fill="#d4d4d4" opacity="1.00" d=" M 167.10 62.23 C 167.89 62.18 169.46 62.08 170.24 62.03 C 170.56 63.63 170.90 65.22 171.06 66.85 C 169.68 68.31 167.67 67.29 165.97 67.20 C 166.35 65.54 166.73 63.88 167.10 62.23 Z" />
<path fill="#d4d4d4" opacity="1.00" d=" M 243.99 115.63 C 245.65 115.68 247.33 115.68 248.97 116.03 C 249.42 117.69 249.41 119.42 249.47 121.12 C 247.65 121.08 245.84 121.03 244.03 120.98 C 244.01 119.20 244.00 117.41 243.99 115.63 Z" />
<path fill="#d4d4d4" opacity="1.00" d=" M 250.90 118.90 C 251.63 118.96 253.09 119.07 253.81 119.12 C 253.89 120.77 253.98 122.42 254.07 124.07 C 252.64 124.03 251.21 123.99 249.79 123.96 C 250.15 122.27 250.52 120.59 250.90 118.90 Z" />
<path fill="#d4d4d4" opacity="1.00" d=" M 252.58 134.78 C 252.98 132.40 254.52 130.92 256.87 130.43 C 256.93 131.99 256.99 133.56 257.05 135.12 C 255.56 135.01 254.07 134.89 252.58 134.78 Z" />
<path fill="#d4d4d4" opacity="1.00" d=" M 251.29 148.24 C 253.02 148.40 254.70 148.83 256.39 149.20 C 255.71 150.55 255.09 151.94 254.21 153.18 C 252.87 153.77 251.42 154.01 250.02 154.37 C 250.35 152.35 249.55 149.76 251.29 148.24 Z" />
<path fill="#d4d4d4" opacity="1.00" d=" M 250.89 175.93 C 251.61 176.01 253.04 176.15 253.76 176.23 C 253.82 177.82 253.89 179.41 253.96 181.00 C 252.53 181.03 251.09 181.06 249.66 181.09 C 250.06 179.37 250.48 177.65 250.89 175.93 Z" />
<path fill="#d4d4d4" opacity="1.00" d=" M 243.17 182.30 C 244.42 180.19 247.06 181.80 248.97 181.76 C 248.96 182.64 248.94 184.38 248.94 185.25 C 247.03 185.23 244.49 186.70 243.16 184.72 C 243.16 184.12 243.17 182.90 243.17 182.30 Z" />
<path fill="#d4d4d4" opacity="1.00" d=" M 80.97 184.98 C 81.74 184.97 83.28 184.93 84.06 184.91 C 84.09 185.77 84.15 187.50 84.18 188.36 C 82.84 188.33 81.50 188.31 80.15 188.28 C 80.42 187.18 80.70 186.08 80.97 184.98 Z" />
<path fill="#d4d4d4" opacity="1.00" d=" M 245.72 187.73 C 247.30 187.87 248.89 188.02 250.48 188.17 C 249.92 190.42 248.43 191.93 246.18 192.48 C 246.02 190.89 245.86 189.31 245.72 187.73 Z" />
<path fill="#d4d4d4" opacity="1.00" d=" M 224.06 214.99 C 225.66 215.06 227.28 215.13 228.89 215.21 C 228.90 216.40 228.91 217.59 228.92 218.78 C 227.29 218.84 225.66 218.91 224.04 218.97 C 224.04 217.64 224.05 216.31 224.06 214.99 Z" />
<path fill="#d4d4d4" opacity="1.00" d=" M 123.22 221.15 C 124.56 220.93 125.90 220.78 127.25 220.70 C 126.85 222.43 127.06 224.51 125.67 225.85 C 123.22 226.15 120.99 222.67 123.22 221.15 Z" />
<path fill="#d4d4d4" opacity="1.00" d=" M 214.27 221.92 C 216.14 222.23 218.45 221.65 219.84 223.25 C 219.81 224.27 219.47 225.17 218.84 225.97 C 217.26 225.79 215.70 225.43 214.15 225.11 C 214.18 224.31 214.24 222.72 214.27 221.92 Z" />
<path fill="#d4d4d4" opacity="1.00" d=" M 130.53 226.18 C 132.56 226.11 135.34 224.13 136.83 226.24 C 136.79 228.07 136.38 229.87 136.07 231.68 C 133.38 230.82 131.57 228.74 130.53 226.18 Z" />
<path fill="#d4d4d4" opacity="1.00" d=" M 204.23 228.22 C 206.00 228.07 207.76 227.92 209.54 227.78 C 209.40 229.19 209.27 230.61 208.92 231.99 C 207.29 231.78 205.69 231.43 204.09 231.10 C 204.13 230.38 204.19 228.94 204.23 228.22 Z" />
<path fill="#d4d4d4" opacity="1.00" d=" M 137.08 231.44 C 139.43 231.89 141.07 233.27 141.44 235.69 C 139.96 235.80 138.49 235.90 137.02 236.01 C 137.03 234.48 137.05 232.96 137.08 231.44 Z" />
<path fill="#d4d4d4" opacity="1.00" d=" M 163.24 233.11 C 165.25 232.62 167.27 232.17 169.30 231.75 C 169.33 233.97 169.20 236.20 168.96 238.42 C 166.24 237.64 164.25 235.74 163.24 233.11 Z" />
<path fill="#d4d4d4" opacity="1.00" d=" M 183.23 234.51 C 185.63 234.96 187.06 236.58 187.56 238.93 C 185.95 239.02 184.35 239.12 182.74 239.21 C 182.90 237.64 183.06 236.07 183.23 234.51 Z" />
</g>
<g id="#d3d3d3ff">
<path fill="#d3d3d3" opacity="1.00" d=" M 156.76 51.74 C 157.52 51.84 159.04 52.03 159.80 52.13 C 159.80 52.79 159.79 54.11 159.78 54.77 C 159.10 54.79 157.75 54.82 157.07 54.84 C 156.99 54.06 156.83 52.52 156.76 51.74 Z" />
<path fill="#d3d3d3" opacity="1.00" d=" M 144.02 54.02 C 144.75 54.04 146.19 54.08 146.91 54.10 C 146.94 54.84 147.00 56.30 147.03 57.04 C 146.25 57.05 144.70 57.09 143.92 57.10 C 143.95 56.33 144.00 54.79 144.02 54.02 Z" />
<path fill="#d3d3d3" opacity="1.00" d=" M 170.61 59.40 C 172.47 59.18 174.34 58.97 176.20 58.78 C 176.04 60.67 175.87 62.57 175.68 64.46 C 173.34 63.50 171.59 61.73 170.61 59.40 Z" />
<path fill="#d3d3d3" opacity="1.00" d=" M 133.74 68.48 C 135.48 68.55 137.24 68.56 138.92 69.07 C 139.24 70.62 139.23 72.20 139.24 73.77 C 137.56 73.79 135.88 73.81 134.20 73.83 C 134.05 72.04 133.89 70.26 133.74 68.48 Z" />
<path fill="#d3d3d3" opacity="1.00" d=" M 205.89 68.06 C 206.69 68.03 208.28 67.95 209.08 67.91 C 209.39 69.24 209.71 70.56 210.02 71.89 C 208.62 72.00 207.23 72.10 205.83 72.21 C 205.85 70.82 205.87 69.44 205.89 68.06 Z" />
<path fill="#d3d3d3" opacity="1.00" d=" M 199.66 68.92 C 200.58 68.91 202.41 68.91 203.33 68.90 C 203.15 70.75 204.98 73.72 202.58 74.57 C 201.40 75.04 200.16 74.49 199.21 73.80 C 199.24 72.16 199.47 70.54 199.66 68.92 Z" />
<path fill="#d3d3d3" opacity="1.00" d=" M 123.87 73.57 C 125.52 73.72 127.18 73.83 128.81 74.11 C 129.42 75.38 129.40 76.83 129.60 78.19 C 127.67 78.18 125.75 78.16 123.83 78.14 C 123.84 76.62 123.86 75.09 123.87 73.57 Z" />
<path fill="#d3d3d3" opacity="1.00" d=" M 209.00 74.96 C 210.38 74.68 211.76 74.40 213.14 74.12 C 213.26 75.35 213.43 76.58 213.43 77.83 C 212.73 79.41 210.61 78.87 209.25 79.33 C 209.16 77.87 209.08 76.42 209.00 74.96 Z" />
<path fill="#d3d3d3" opacity="1.00" d=" M 216.20 73.52 C 218.42 74.09 219.89 75.60 220.43 77.83 C 218.86 77.98 217.31 78.13 215.75 78.27 C 215.89 76.68 216.04 75.10 216.20 73.52 Z" />
<path fill="#d3d3d3" opacity="1.00" d=" M 236.87 81.90 C 237.67 81.91 239.25 81.92 240.05 81.93 C 240.00 82.66 239.92 84.13 239.87 84.86 C 239.18 84.87 237.79 84.87 237.10 84.87 C 237.04 84.13 236.93 82.65 236.87 81.90 Z" />
<path fill="#d3d3d3" opacity="1.00" d=" M 233.18 89.06 C 234.38 89.07 235.57 89.08 236.77 89.09 C 236.79 90.69 236.82 92.29 236.84 93.89 C 235.56 93.92 234.29 93.95 233.02 93.99 C 233.07 92.34 233.12 90.70 233.18 89.06 Z" />
<path fill="#d3d3d3" opacity="1.00" d=" M 91.23 99.14 C 92.87 98.67 94.52 98.20 96.17 97.74 C 96.22 99.23 96.27 100.73 96.31 102.22 C 94.61 102.07 92.91 101.91 91.22 101.76 C 91.22 101.10 91.22 99.80 91.23 99.14 Z" />
<path fill="#d3d3d3" opacity="1.00" d=" M 260.81 125.81 C 261.56 125.90 263.06 126.07 263.80 126.16 C 263.80 126.81 263.80 128.12 263.79 128.77 C 263.08 128.81 261.66 128.89 260.96 128.93 C 260.92 128.15 260.85 126.59 260.81 125.81 Z" />
<path fill="#d3d3d3" opacity="1.00" d=" M 262.57 153.78 C 263.47 152.83 264.29 151.76 265.46 151.13 C 266.11 152.04 266.73 152.98 267.34 153.93 C 265.75 153.90 264.16 153.85 262.57 153.78 Z" />
<path fill="#d3d3d3" opacity="1.00" d=" M 256.46 174.56 C 254.84 171.68 258.10 170.89 260.31 170.73 C 259.86 172.83 259.35 176.31 256.46 174.56 Z" />
<path fill="#d3d3d3" opacity="1.00" d=" M 86.88 186.12 C 87.61 186.15 89.07 186.21 89.80 186.24 C 89.93 188.00 90.05 189.75 90.17 191.52 C 88.80 191.39 87.40 191.34 86.11 190.83 C 86.27 189.24 86.59 187.68 86.88 186.12 Z" />
<path fill="#d3d3d3" opacity="1.00" d=" M 91.11 189.13 C 92.89 189.03 94.66 188.94 96.44 188.85 C 96.36 190.55 96.34 192.27 95.93 193.94 C 94.34 194.24 92.71 194.26 91.10 194.31 C 91.10 192.58 91.11 190.85 91.11 189.13 Z" />
<path fill="#d3d3d3" opacity="1.00" d=" M 239.48 199.36 C 239.84 197.02 242.73 198.28 244.34 197.85 C 243.81 199.25 243.31 200.66 242.65 202.01 C 241.03 202.32 238.59 201.37 239.48 199.36 Z" />
<path fill="#d3d3d3" opacity="1.00" d=" M 231.22 208.09 C 232.70 207.37 234.18 206.64 235.67 205.92 C 236.11 207.53 236.55 209.14 236.99 210.75 C 236.21 210.91 234.64 211.23 233.86 211.39 C 232.98 210.29 232.10 209.19 231.22 208.09 Z" />
<path fill="#d3d3d3" opacity="1.00" d=" M 96.13 215.13 C 96.84 215.10 98.28 215.06 98.99 215.03 C 99.02 215.80 99.08 217.34 99.10 218.10 C 98.33 218.08 96.77 218.05 95.99 218.03 C 96.03 217.30 96.09 215.85 96.13 215.13 Z" />
<path fill="#d3d3d3" opacity="1.00" d=" M 107.00 214.87 C 108.30 214.90 109.60 214.92 110.91 214.94 C 110.95 215.72 111.04 217.26 111.09 218.04 C 109.81 218.37 108.54 218.70 107.26 219.03 C 107.17 217.64 107.09 216.25 107.00 214.87 Z" />
<path fill="#d3d3d3" opacity="1.00" d=" M 116.19 223.12 C 116.36 221.02 118.94 221.66 120.35 221.46 C 120.17 223.11 119.98 224.77 119.78 226.42 C 118.47 225.45 115.20 225.40 116.19 223.12 Z" />
<path fill="#d3d3d3" opacity="1.00" d=" M 194.09 231.83 C 195.73 232.20 197.37 232.58 199.02 232.96 C 198.98 233.67 198.90 235.09 198.86 235.80 C 197.22 235.90 195.59 236.00 193.96 236.10 C 194.00 234.67 194.04 233.25 194.09 231.83 Z" />
<path fill="#d3d3d3" opacity="1.00" d=" M 159.99 236.08 C 160.76 236.08 162.29 236.07 163.05 236.06 C 163.38 237.65 163.70 239.24 164.03 240.84 C 162.64 240.94 161.26 241.04 159.88 241.14 C 159.91 239.45 159.95 237.77 159.99 236.08 Z" />
<path fill="#d3d3d3" opacity="1.00" d=" M 143.26 239.09 C 144.42 238.36 145.85 238.59 147.15 238.50 C 147.09 239.35 146.96 241.05 146.89 241.90 C 146.06 241.99 144.38 242.17 143.54 242.26 C 143.42 241.20 143.32 240.15 143.26 239.09 Z" />
</g>
<g id="#dfdfdfff">
<path fill="#dfdfdf" opacity="1.00" d=" M 164.18 55.12 C 165.77 55.05 167.35 54.98 168.93 54.91 C 168.96 55.79 169.03 57.53 169.06 58.40 C 167.40 58.36 165.74 58.32 164.08 58.27 C 164.10 57.48 164.16 55.90 164.18 55.12 Z" />
</g>
<g id="#dededeff">
<path fill="#dedede" opacity="1.00" d=" M 177.24 55.20 C 177.89 55.20 179.18 55.21 179.83 55.21 C 179.97 56.48 180.12 57.76 180.27 59.03 C 179.39 59.04 177.64 59.05 176.76 59.06 C 176.92 57.77 177.08 56.49 177.24 55.20 Z" />
<path fill="#dedede" opacity="1.00" d=" M 250.86 184.77 C 252.48 183.68 254.12 182.61 255.77 181.55 C 255.85 183.10 255.92 184.64 255.99 186.20 C 254.28 185.72 252.57 185.25 250.86 184.77 Z" />
<path fill="#dedede" opacity="1.00" d=" M 155.73 240.94 C 156.61 240.94 158.37 240.93 159.25 240.93 C 159.08 242.22 158.91 243.51 158.75 244.80 C 158.12 244.80 156.86 244.79 156.23 244.79 C 156.07 243.51 155.90 242.22 155.73 240.94 Z" />
</g>
<g id="#dadadaff">
<path fill="#dadada" opacity="1.00" d=" M 194.06 55.05 C 194.79 55.05 196.24 55.04 196.97 55.04 C 197.00 55.80 197.05 57.33 197.08 58.09 C 196.30 58.09 194.75 58.08 193.97 58.08 C 193.99 57.32 194.04 55.81 194.06 55.05 Z" />
<path fill="#dadada" opacity="1.00" d=" M 205.48 59.55 C 206.42 59.36 208.30 58.98 209.24 58.79 C 209.11 59.82 208.86 61.87 208.74 62.89 C 207.65 61.78 206.56 60.67 205.48 59.55 Z" />
<path fill="#dadada" opacity="1.00" d=" M 250.75 111.31 C 252.35 111.99 256.26 111.02 255.68 113.64 C 254.22 114.42 252.65 114.98 251.11 115.59 C 251.02 114.52 250.84 112.38 250.75 111.31 Z" />
<path fill="#dadada" opacity="1.00" d=" M 96.37 198.94 C 98.75 198.52 101.18 198.52 103.57 198.95 C 102.48 200.97 101.28 202.93 100.00 204.83 C 98.67 202.94 97.45 200.98 96.37 198.94 Z" />
<path fill="#dadada" opacity="1.00" d=" M 223.01 221.88 C 224.28 221.58 225.56 221.28 226.83 220.99 C 226.90 222.29 226.97 223.59 227.04 224.89 C 226.30 224.89 224.83 224.89 224.10 224.89 C 223.74 223.88 223.37 222.88 223.01 221.88 Z" />
</g>
<g id="#cfcfcfff">
<path fill="#cfcfcf" opacity="1.00" d=" M 153.35 57.18 C 154.34 55.69 156.87 57.36 155.71 58.81 C 154.71 60.30 152.18 58.63 153.35 57.18 Z" />
<path fill="#cfcfcf" opacity="1.00" d=" M 259.24 159.35 C 260.70 158.19 262.36 160.72 260.87 161.72 C 259.41 162.88 257.75 160.34 259.24 159.35 Z" />
</g>
<g id="#d5d5d5ff">
<path fill="#d5d5d5" opacity="1.00" d=" M 140.90 58.87 C 141.98 58.59 143.09 58.47 144.20 58.34 C 144.18 59.28 144.14 61.17 144.11 62.11 C 143.18 62.12 141.31 62.15 140.38 62.16 C 140.53 61.07 140.46 59.91 140.90 58.87 Z" />
<path fill="#d5d5d5" opacity="1.00" d=" M 194.17 64.16 C 195.79 64.08 197.41 64.00 199.03 63.91 C 199.03 65.37 199.03 66.83 199.04 68.29 C 197.36 67.87 195.68 67.45 194.01 67.02 C 194.05 66.31 194.13 64.88 194.17 64.16 Z" />
<path fill="#d5d5d5" opacity="1.00" d=" M 143.70 65.36 C 145.59 65.20 147.49 65.05 149.39 64.91 C 149.33 67.06 149.16 69.21 148.89 71.35 C 146.10 70.38 144.09 68.36 143.70 65.36 Z" />
<path fill="#d5d5d5" opacity="1.00" d=" M 221.12 73.98 C 222.68 74.04 224.24 74.11 225.80 74.17 C 225.79 74.90 225.76 76.35 225.75 77.08 C 224.21 77.15 222.67 77.21 221.13 77.27 C 221.13 76.45 221.12 74.80 221.12 73.98 Z" />
<path fill="#d5d5d5" opacity="1.00" d=" M 114.20 80.09 C 115.83 79.63 117.46 79.16 119.10 78.70 C 119.41 80.41 119.75 82.11 119.89 83.84 C 118.17 85.04 116.02 84.20 114.11 84.14 C 114.14 82.79 114.17 81.44 114.20 80.09 Z" />
<path fill="#d5d5d5" opacity="1.00" d=" M 107.05 81.16 C 108.40 81.09 109.76 81.02 111.12 80.95 C 111.08 82.30 111.05 83.65 111.01 85.01 C 109.73 84.92 108.45 84.85 107.17 84.77 C 107.12 83.56 107.09 82.36 107.05 81.16 Z" />
<path fill="#d5d5d5" opacity="1.00" d=" M 224.15 82.07 C 225.74 81.65 227.34 81.23 228.95 80.81 C 229.01 82.27 229.07 83.73 229.13 85.19 C 227.47 85.06 225.82 84.94 224.17 84.82 C 224.17 84.13 224.15 82.76 224.15 82.07 Z" />
<path fill="#d5d5d5" opacity="1.00" d=" M 227.26 88.07 C 227.89 88.07 229.16 88.06 229.79 88.05 C 232.00 89.33 230.29 91.99 230.16 93.92 C 229.34 93.91 227.68 93.89 226.85 93.88 C 226.82 91.96 225.18 89.39 227.26 88.07 Z" />
<path fill="#d5d5d5" opacity="1.00" d=" M 98.80 95.08 C 100.55 95.08 102.30 95.09 104.05 95.11 C 103.65 96.98 103.24 98.84 102.84 100.71 C 102.16 100.72 100.81 100.74 100.14 100.76 C 99.69 98.87 99.24 96.97 98.80 95.08 Z" />
<path fill="#d5d5d5" opacity="1.00" d=" M 233.98 95.37 C 236.73 96.16 238.65 98.14 239.51 100.85 C 237.74 101.24 235.97 101.69 234.16 101.87 C 232.66 99.98 233.82 97.49 233.98 95.37 Z" />
<path fill="#d5d5d5" opacity="1.00" d=" M 255.98 141.98 C 256.69 142.02 258.12 142.09 258.83 142.12 C 258.87 143.43 258.92 144.74 258.97 146.06 C 257.26 145.96 255.55 145.86 253.84 145.76 C 254.55 144.50 255.26 143.24 255.98 141.98 Z" />
<path fill="#d5d5d5" opacity="1.00" d=" M 254.06 154.92 C 255.63 154.61 257.21 154.30 258.79 153.99 C 258.87 155.36 258.97 156.74 259.06 158.12 C 257.40 158.10 255.74 158.07 254.08 158.05 C 254.08 157.27 254.06 155.71 254.06 154.92 Z" />
<path fill="#d5d5d5" opacity="1.00" d=" M 103.46 210.87 C 104.47 208.33 106.37 206.42 108.92 205.42 C 108.98 207.50 110.98 210.38 108.78 211.88 C 106.97 211.75 105.22 211.27 103.46 210.87 Z" />
<path fill="#d5d5d5" opacity="1.00" d=" M 224.08 208.83 C 225.98 208.84 228.59 207.21 229.83 209.31 C 229.85 209.92 229.90 211.15 229.92 211.76 C 228.60 213.86 225.98 212.26 224.04 212.24 C 224.05 211.38 224.07 209.68 224.08 208.83 Z" />
<path fill="#d5d5d5" opacity="1.00" d=" M 216.76 220.99 C 216.69 219.05 214.98 215.29 218.09 215.13 C 221.93 214.36 220.38 218.71 220.40 221.01 C 219.49 221.01 217.67 220.99 216.76 220.99 Z" />
<path fill="#d5d5d5" opacity="1.00" d=" M 233.10 219.08 C 233.84 219.04 235.32 218.98 236.06 218.94 C 236.07 219.73 236.08 221.30 236.09 222.09 C 235.33 222.05 233.82 221.98 233.06 221.94 C 233.07 221.23 233.09 219.79 233.10 219.08 Z" />
<path fill="#d5d5d5" opacity="1.00" d=" M 207.84 221.82 C 210.26 220.34 211.80 223.36 213.42 224.64 C 211.41 225.29 209.39 226.42 207.20 226.07 C 206.03 224.78 205.84 222.40 207.84 221.82 Z" />
<path fill="#d5d5d5" opacity="1.00" d=" M 111.19 222.49 C 112.19 222.44 113.20 222.44 114.20 222.47 C 114.16 223.36 114.08 225.15 114.04 226.05 C 113.12 226.08 111.27 226.15 110.35 226.18 C 110.57 224.94 110.47 223.57 111.19 222.49 Z" />
<path fill="#d5d5d5" opacity="1.00" d=" M 196.96 226.10 C 198.40 226.09 199.83 226.08 201.27 226.08 C 201.22 227.66 201.21 229.26 201.05 230.85 C 199.74 231.47 198.26 231.36 196.86 231.50 C 196.88 229.69 196.92 227.90 196.96 226.10 Z" />
<path fill="#d5d5d5" opacity="1.00" d=" M 186.86 229.27 C 187.64 229.24 189.20 229.19 189.99 229.17 C 190.35 231.03 190.71 232.90 191.08 234.76 C 189.61 234.83 188.14 234.91 186.67 234.98 C 186.71 233.07 186.77 231.17 186.86 229.27 Z" />
<path fill="#d5d5d5" opacity="1.00" d=" M 153.62 231.59 C 155.35 231.50 157.09 231.69 158.82 231.85 C 158.80 233.28 158.79 234.71 158.77 236.15 C 156.82 235.87 154.39 236.50 152.98 234.75 C 153.00 233.66 153.21 232.61 153.62 231.59 Z" />
<path fill="#d5d5d5" opacity="1.00" d=" M 200.91 238.88 C 201.63 238.95 203.07 239.09 203.79 239.17 C 203.80 239.85 203.82 241.21 203.83 241.89 C 203.09 241.96 201.60 242.11 200.85 242.18 C 200.87 241.35 200.89 239.70 200.91 238.88 Z" />
</g>
<g id="#d9d9d9ff">
<path fill="#d9d9d9" opacity="1.00" d=" M 188.49 58.24 C 189.96 58.18 191.43 58.12 192.91 58.06 C 192.91 58.86 192.92 60.46 192.93 61.27 C 191.97 61.39 191.02 61.49 190.06 61.56 C 189.44 60.50 188.98 59.36 188.49 58.24 Z" />
<path fill="#d9d9d9" opacity="1.00" d=" M 83.91 97.80 C 84.65 97.84 86.13 97.93 86.87 97.97 C 86.85 98.67 86.81 100.08 86.79 100.78 C 86.11 100.82 84.74 100.88 84.06 100.91 C 84.02 100.14 83.94 98.58 83.91 97.80 Z" />
<path fill="#d9d9d9" opacity="1.00" d=" M 101.09 214.30 C 102.61 215.34 105.92 215.30 105.74 217.71 C 104.17 218.14 102.55 218.37 100.94 218.63 C 100.98 217.55 101.05 215.39 101.09 214.30 Z" />
<path fill="#d9d9d9" opacity="1.00" d=" M 121.04 229.05 C 121.79 229.04 123.28 229.03 124.03 229.03 C 123.95 230.34 123.88 231.66 123.81 232.98 C 122.57 232.68 121.33 232.39 120.09 232.10 C 120.41 231.08 120.72 230.06 121.04 229.05 Z" />
<path fill="#d9d9d9" opacity="1.00" d=" M 191.10 237.34 C 192.58 238.38 196.29 238.20 195.68 240.70 C 194.14 241.15 192.54 241.38 190.95 241.65 C 190.99 240.57 191.07 238.42 191.10 237.34 Z" />
</g>
<g id="#d2d2d2ff">
<path fill="#d2d2d2" opacity="1.00" d=" M 148.52 61.18 C 150.08 61.06 151.64 60.94 153.20 60.83 C 153.03 62.35 152.86 63.87 152.69 65.39 C 150.49 64.86 149.09 63.34 148.52 61.18 Z" />
<path fill="#d2d2d2" opacity="1.00" d=" M 182.79 60.73 C 184.99 61.18 188.37 60.83 188.92 63.72 C 187.34 64.25 185.47 65.59 183.88 64.40 C 183.46 63.19 183.10 61.97 182.79 60.73 Z" />
<path fill="#d2d2d2" opacity="1.00" d=" M 223.43 65.14 C 224.42 63.63 226.93 65.34 225.77 66.79 C 224.77 68.29 222.27 66.59 223.43 65.14 Z" />
<path fill="#d2d2d2" opacity="1.00" d=" M 231.01 81.08 C 232.07 81.36 233.14 81.65 234.22 81.93 C 234.18 82.70 234.11 84.24 234.07 85.01 C 233.25 85.00 231.59 84.99 230.76 84.99 C 230.84 83.68 230.92 82.38 231.01 81.08 Z" />
<path fill="#d2d2d2" opacity="1.00" d=" M 239.77 105.39 C 241.11 105.62 242.60 105.51 243.80 106.25 C 244.02 107.82 244.08 109.41 244.18 111.00 C 242.75 111.06 241.32 111.13 239.90 111.19 C 239.85 109.26 239.80 107.32 239.77 105.39 Z" />
<path fill="#d2d2d2" opacity="1.00" d=" M 237.25 191.98 C 239.01 191.68 240.77 191.33 242.56 191.24 C 243.23 192.46 243.74 193.76 244.29 195.05 C 241.97 195.23 239.65 195.28 237.33 195.16 C 237.31 194.37 237.27 192.78 237.25 191.98 Z" />
<path fill="#d2d2d2" opacity="1.00" d=" M 90.67 200.88 C 91.54 198.51 93.34 196.78 95.54 195.61 C 95.70 197.50 95.84 199.40 95.98 201.29 C 94.21 201.17 92.44 201.04 90.67 200.88 Z" />
<path fill="#d2d2d2" opacity="1.00" d=" M 125.61 228.23 C 127.14 228.05 128.67 227.88 130.20 227.72 C 130.09 229.30 129.97 230.89 129.85 232.49 C 127.68 231.87 126.17 230.43 125.61 228.23 Z" />
<path fill="#d2d2d2" opacity="1.00" d=" M 147.18 248.42 C 148.63 247.25 150.32 249.77 148.82 250.76 C 147.36 251.93 145.67 249.41 147.18 248.42 Z" />
</g>
<g id="#d7d7d7ff">
<path fill="#d7d7d7" opacity="1.00" d=" M 199.60 64.72 C 200.33 62.59 201.49 60.77 204.00 61.53 C 203.98 62.45 203.94 64.28 203.91 65.20 C 202.47 65.04 201.03 64.88 199.60 64.72 Z" />
<path fill="#d7d7d7" opacity="1.00" d=" M 177.23 63.84 C 179.22 64.11 181.21 64.39 183.19 64.67 C 183.10 65.56 182.90 67.34 182.81 68.23 C 180.97 68.18 179.13 68.13 177.29 68.08 C 177.27 66.67 177.25 65.25 177.23 63.84 Z" />
<path fill="#d7d7d7" opacity="1.00" d=" M 216.68 82.21 C 218.89 81.68 221.12 81.20 223.36 80.79 C 222.93 83.29 221.82 85.55 220.07 87.39 C 218.91 85.68 217.78 83.95 216.68 82.21 Z" />
<path fill="#d7d7d7" opacity="1.00" d=" M 239.35 98.62 C 240.95 98.64 242.66 98.33 244.13 99.15 C 243.77 100.89 243.78 104.45 241.19 103.87 C 240.41 102.18 239.90 100.39 239.35 98.62 Z" />
<path fill="#d7d7d7" opacity="1.00" d=" M 245.98 100.81 C 247.31 100.92 248.64 101.04 249.97 101.15 C 249.66 102.39 249.36 103.63 249.06 104.88 C 248.04 104.59 247.03 104.30 246.03 104.02 C 246.02 103.21 245.99 101.61 245.98 100.81 Z" />
<path fill="#d7d7d7" opacity="1.00" d=" M 247.22 108.30 C 248.31 108.07 249.27 108.36 250.12 109.17 C 250.04 110.82 249.55 112.43 248.78 113.89 C 246.12 114.34 244.31 108.93 247.22 108.30 Z" />
<path fill="#d7d7d7" opacity="1.00" d=" M 251.42 136.72 C 253.11 134.98 253.52 138.04 254.14 139.17 C 254.92 141.12 253.12 142.74 252.01 144.10 C 250.88 142.90 249.75 141.60 249.25 140.00 C 249.65 138.76 250.22 137.39 251.42 136.72 Z" />
<path fill="#d7d7d7" opacity="1.00" d=" M 254.18 165.02 C 257.96 164.26 257.51 168.78 255.71 170.69 C 253.08 171.19 251.81 166.23 254.18 165.02 Z" />
<path fill="#d7d7d7" opacity="1.00" d=" M 80.87 194.86 C 81.64 194.90 83.19 194.96 83.96 195.00 C 83.93 195.72 83.88 197.16 83.85 197.87 C 83.13 197.91 81.68 197.98 80.96 198.02 C 80.94 197.23 80.89 195.65 80.87 194.86 Z" />
<path fill="#d7d7d7" opacity="1.00" d=" M 87.06 195.05 C 88.09 195.35 89.12 195.65 90.16 195.94 C 90.11 196.75 90.03 198.35 89.99 199.15 C 88.66 199.04 87.33 198.93 86.01 198.83 C 86.35 197.57 86.70 196.31 87.06 195.05 Z" />
<path fill="#d7d7d7" opacity="1.00" d=" M 94.38 205.17 C 96.48 204.80 96.50 207.61 97.44 208.86 C 95.84 208.87 94.24 208.87 92.64 208.86 C 93.20 207.62 93.72 206.36 94.38 205.17 Z" />
<path fill="#d7d7d7" opacity="1.00" d=" M 99.12 206.10 C 100.43 206.04 101.74 205.98 103.05 205.93 C 102.97 207.58 102.90 209.23 102.83 210.88 C 101.62 210.85 100.42 210.83 99.21 210.81 C 99.18 209.24 99.15 207.67 99.12 206.10 Z" />
<path fill="#d7d7d7" opacity="1.00" d=" M 114.19 212.46 C 116.47 213.67 118.30 215.50 119.51 217.78 C 117.27 218.32 115.03 218.80 112.78 219.23 C 113.19 216.96 113.66 214.70 114.19 212.46 Z" />
<path fill="#d7d7d7" opacity="1.00" d=" M 173.72 233.58 C 175.90 232.64 178.18 231.96 180.51 231.49 C 180.06 233.84 179.40 236.15 178.45 238.35 C 176.85 236.79 175.27 235.20 173.72 233.58 Z" />
</g>
<g id="#dbdbdbff">
<path fill="#dbdbdb" opacity="1.00" d=" M 129.88 62.25 C 130.62 62.24 132.08 62.21 132.81 62.20 C 132.89 63.77 132.97 65.34 133.05 66.91 C 132.21 66.92 130.53 66.93 129.69 66.94 C 129.75 65.38 129.81 63.82 129.88 62.25 Z" />
<path fill="#dbdbdb" opacity="1.00" d=" M 118.80 67.64 C 120.41 68.54 121.98 69.52 123.50 70.57 C 122.31 71.00 121.12 71.39 119.91 71.75 C 119.07 70.54 119.07 69.03 118.80 67.64 Z" />
<path fill="#dbdbdb" opacity="1.00" d=" M 108.96 74.51 C 110.41 75.66 111.82 76.87 113.19 78.13 C 111.79 78.16 110.39 78.24 109.01 78.01 C 109.00 77.13 108.97 75.38 108.96 74.51 Z" />
<path fill="#dbdbdb" opacity="1.00" d=" M 99.91 77.91 C 100.69 77.94 102.23 77.98 103.00 78.00 C 102.98 78.74 102.95 80.22 102.94 80.97 C 102.20 80.99 100.71 81.03 99.97 81.05 C 99.96 80.27 99.93 78.70 99.91 77.91 Z" />
<path fill="#dbdbdb" opacity="1.00" d=" M 239.00 91.07 C 240.29 91.05 241.59 91.02 242.89 91.00 C 242.87 91.70 242.82 93.09 242.80 93.79 C 241.83 94.19 240.86 94.58 239.89 94.98 C 239.59 93.68 239.29 92.37 239.00 91.07 Z" />
<path fill="#dbdbdb" opacity="1.00" d=" M 256.55 137.37 C 257.94 136.31 259.34 135.26 260.75 134.23 C 260.88 135.27 261.12 137.35 261.24 138.39 C 259.67 138.05 258.11 137.71 256.55 137.37 Z" />
<path fill="#dbdbdb" opacity="1.00" d=" M 147.05 237.81 C 147.82 236.63 148.68 235.52 149.54 234.41 C 150.69 234.99 151.84 235.57 153.00 236.16 C 152.94 236.94 152.82 238.51 152.76 239.29 C 150.83 238.88 148.91 238.47 147.05 237.81 Z" />
</g>
<g id="#d8d8d8ff">
<path fill="#d8d8d8" opacity="1.00" d=" M 157.20 61.93 C 159.15 62.38 160.32 64.18 160.84 66.00 C 160.58 68.73 157.40 68.03 155.49 68.42 C 155.86 66.21 156.21 63.96 157.20 61.93 Z" />
<path fill="#d8d8d8" opacity="1.00" d=" M 246.04 90.74 C 246.95 91.61 248.62 92.04 248.72 93.51 C 247.81 94.10 246.90 94.66 245.97 95.21 C 245.97 93.72 246.00 92.23 246.04 90.74 Z" />
<path fill="#d8d8d8" opacity="1.00" d=" M 213.52 227.97 C 214.42 228.02 216.23 228.11 217.14 228.15 C 217.00 229.55 216.85 230.94 216.71 232.35 C 214.56 231.65 212.77 230.48 213.52 227.97 Z" />
</g>
<g id="#d6d6d6ff">
<path fill="#d6d6d6" opacity="1.00" d=" M 137.08 64.11 C 138.44 64.02 139.81 63.92 141.18 63.83 C 141.14 65.27 141.10 66.70 141.05 68.14 C 139.71 67.75 138.37 67.36 137.03 66.97 C 137.04 66.25 137.07 64.82 137.08 64.11 Z" />
<path fill="#d6d6d6" opacity="1.00" d=" M 189.83 65.11 C 190.63 65.18 192.23 65.32 193.03 65.39 C 193.10 67.23 193.17 69.08 193.23 70.92 C 191.75 70.89 190.27 70.85 188.80 70.81 C 189.14 68.91 189.48 67.01 189.83 65.11 Z" />
<path fill="#d6d6d6" opacity="1.00" d=" M 127.22 67.43 C 128.53 67.99 129.86 68.53 131.13 69.20 C 131.43 72.36 128.06 71.93 126.00 71.49 C 126.40 70.14 126.81 68.78 127.22 67.43 Z" />
<path fill="#d6d6d6" opacity="1.00" d=" M 117.14 73.89 C 119.34 73.18 121.11 74.56 121.20 76.83 C 119.73 77.53 118.20 78.06 116.69 78.62 C 116.70 77.04 116.36 75.35 117.14 73.89 Z" />
<path fill="#d6d6d6" opacity="1.00" d=" M 12.87 119.18 C 15.21 119.08 17.55 118.97 19.88 118.83 C 17.94 119.82 15.99 120.79 14.03 121.76 C 13.88 123.10 13.73 124.44 13.58 125.77 C 13.30 123.58 13.09 121.38 12.87 119.18 Z" />
<path fill="#d6d6d6" opacity="1.00" d=" M 246.54 130.99 C 247.61 128.97 248.79 127.01 250.04 125.09 C 251.72 126.77 252.89 128.83 253.53 131.11 C 251.20 131.32 248.86 131.28 246.54 130.99 Z" />
<path fill="#d6d6d6" opacity="1.00" d=" M 27.13 158.86 C 31.28 158.96 35.42 159.10 39.57 159.30 C 37.26 160.37 34.85 161.24 32.34 161.66 L 31.60 161.65 C 30.04 161.63 28.48 161.60 26.92 161.58 L 26.99 160.55 C 27.02 160.13 27.09 159.28 27.13 158.86 Z" />
<path fill="#d6d6d6" opacity="1.00" d=" M 249.81 159.15 C 250.69 159.11 252.45 159.03 253.34 158.99 C 253.59 160.58 253.90 162.16 253.97 163.77 C 253.10 165.07 251.54 165.05 250.16 164.99 C 248.96 163.24 249.75 161.08 249.81 159.15 Z" />
<path fill="#d6d6d6" opacity="1.00" d=" M 247.04 170.57 C 249.19 171.13 251.33 171.71 253.46 172.35 C 251.87 174.44 249.64 175.70 246.97 175.52 C 246.98 173.87 247.01 172.22 247.04 170.57 Z" />
<path fill="#d6d6d6" opacity="1.00" d=" M 230.49 203.83 C 231.69 201.57 233.48 199.73 235.73 198.51 C 236.29 200.73 236.79 202.97 237.24 205.22 C 234.97 204.81 232.72 204.35 230.49 203.83 Z" />
<path fill="#d6d6d6" opacity="1.00" d=" M 140.89 231.10 C 142.91 229.97 145.07 229.14 147.30 228.55 C 146.92 230.85 146.46 233.14 145.94 235.42 C 144.22 234.01 142.54 232.57 140.89 231.10 Z" />
<path fill="#d6d6d6" opacity="1.00" d=" M 202.50 233.16 C 203.51 233.11 205.55 233.00 206.57 232.95 C 205.93 234.53 206.97 238.47 204.31 237.76 C 203.57 236.28 203.06 234.70 202.50 233.16 Z" />
<path fill="#d6d6d6" opacity="1.00" d=" M 171.38 235.61 C 173.88 236.44 175.67 238.27 176.53 240.76 C 174.65 240.88 172.77 240.98 170.89 241.08 C 171.04 239.25 171.20 237.43 171.38 235.61 Z" />
<path fill="#d6d6d6" opacity="1.00" d=" M 175.61 247.85 C 176.52 246.97 176.91 244.93 178.52 245.26 C 179.16 246.10 179.78 246.97 180.37 247.86 C 178.78 247.87 177.19 247.87 175.61 247.85 Z" />
</g>
<g id="#ddddddff">
<path fill="#dddddd" opacity="1.00" d=" M 211.08 66.93 C 212.81 67.37 214.54 67.82 216.27 68.27 C 214.63 69.36 212.97 70.41 211.30 71.45 C 211.21 69.94 211.14 68.43 211.08 66.93 Z" />
<path fill="#dddddd" opacity="1.00" d=" M 131.03 234.92 C 132.67 234.92 134.30 234.93 135.95 234.94 C 135.93 235.76 135.88 237.40 135.86 238.21 C 134.30 238.19 132.74 238.17 131.19 238.15 C 131.15 237.35 131.07 235.73 131.03 234.92 Z" />
<path fill="#dddddd" opacity="1.00" d=" M 167.00 242.09 C 168.06 241.66 169.13 241.23 170.19 240.81 C 170.46 242.14 170.72 243.48 170.98 244.82 C 169.71 244.83 168.45 244.85 167.18 244.86 C 167.14 244.17 167.04 242.78 167.00 242.09 Z" />
</g>
<g id="#c8c8c8ff">
<path fill="#c8c8c8" opacity="1.00" d=" M 91.10 82.10 C 92.73 81.58 93.28 82.13 92.77 83.76 C 91.13 84.28 90.58 83.73 91.10 82.10 Z" />
</g>
<g id="#d0d0d0ff">
<path fill="#d0d0d0" opacity="1.00" d=" M 99.87 83.93 C 100.67 83.93 102.28 83.93 103.08 83.93 C 103.08 84.72 103.09 86.31 103.09 87.11 C 102.27 87.11 100.63 87.12 99.82 87.12 C 99.83 86.32 99.86 84.72 99.87 83.93 Z" />
<path fill="#d0d0d0" opacity="1.00" d=" M 180.30 241.16 C 181.29 239.67 183.82 241.33 182.65 242.79 C 181.66 244.28 179.12 242.62 180.30 241.16 Z" />
</g>
<g id="#d1d1d1ff">
<path fill="#d1d1d1" opacity="1.00" d=" M 106.27 89.88 C 105.45 87.70 107.94 86.65 109.72 86.94 C 110.43 88.29 110.97 89.73 111.54 91.14 C 109.78 91.15 106.57 92.63 106.27 89.88 Z" />
</g>
<g id="#cececeff">
<path fill="#cecece" opacity="1.00" d=" M 99.09 88.82 C 100.48 89.25 103.03 88.31 103.35 90.32 C 103.36 91.45 103.20 92.57 103.09 93.68 C 102.37 93.68 100.93 93.67 100.21 93.66 C 99.83 92.05 99.46 90.43 99.09 88.82 Z" />
<path fill="#cecece" opacity="1.00" d=" M 30.98 167.81 C 30.43 164.91 34.59 165.07 33.81 167.92 C 33.11 167.89 31.69 167.84 30.98 167.81 Z" />
<path fill="#cecece" opacity="1.00" d=" M 232.90 212.88 C 233.73 212.88 235.38 212.86 236.21 212.85 C 236.19 213.65 236.16 215.24 236.14 216.03 C 235.34 216.03 233.74 216.03 232.94 216.03 C 232.93 215.24 232.91 213.67 232.90 212.88 Z" />
</g>
<g id="#e0e0e0ff">
<path fill="#e0e0e0" opacity="1.00" d=" M 91.43 91.58 C 93.12 92.61 94.78 93.67 96.42 94.78 C 94.66 95.24 92.89 95.68 91.12 96.12 C 91.22 94.61 91.32 93.09 91.43 91.58 Z" />
<path fill="#e0e0e0" opacity="1.00" d=" M 83.77 104.83 C 85.38 103.76 86.99 102.70 88.61 101.65 C 88.76 103.22 88.91 104.79 89.06 106.36 C 87.30 105.85 85.53 105.34 83.77 104.83 Z" />
<path fill="#e0e0e0" opacity="1.00" d=" M 222.46 230.65 C 223.36 228.90 224.35 227.19 225.44 225.55 C 225.74 227.36 226.03 229.17 226.31 230.99 C 225.35 230.91 223.42 230.74 222.46 230.65 Z" />
</g>
<g id="#aeaeaeff">
<path fill="#aeaeae" opacity="1.00" d=" M 79.48 108.48 C 84.75 107.25 90.20 108.20 95.42 109.21 C 96.46 110.93 97.51 112.64 98.57 114.35 C 98.87 112.50 99.16 110.64 99.45 108.79 C 104.89 108.50 110.34 108.48 115.78 108.71 C 116.55 111.36 117.35 114.01 118.30 116.60 C 118.67 113.99 118.97 111.36 119.25 108.73 C 124.86 108.50 130.48 108.51 136.09 108.72 C 136.57 125.48 136.65 142.27 136.05 159.03 C 132.05 159.03 128.05 159.03 124.04 158.95 C 123.98 156.20 123.94 153.45 123.86 150.70 C 123.29 153.17 122.91 155.70 122.00 158.08 C 119.35 159.45 116.25 158.96 113.38 159.15 C 112.96 156.42 112.53 153.69 111.99 150.98 C 111.43 153.64 110.96 156.32 110.52 159.00 C 106.83 159.02 103.14 159.03 99.45 158.97 C 99.16 157.52 98.88 156.08 98.59 154.64 C 96.44 156.69 94.18 159.11 90.98 159.26 C 84.77 159.89 77.42 160.47 72.75 155.46 C 72.77 156.59 72.79 157.72 72.81 158.85 C 64.12 159.25 55.41 158.94 46.71 159.00 C 46.77 157.42 46.83 155.84 46.90 154.26 C 46.03 155.01 45.17 155.77 44.28 156.49 C 44.15 156.18 43.88 155.54 43.75 155.22 C 44.09 140.58 43.86 125.93 44.01 111.29 C 44.72 110.44 45.44 109.59 46.16 108.74 C 53.76 108.51 61.37 108.43 68.96 108.90 C 69.97 110.73 70.98 112.57 71.96 114.41 C 74.21 112.17 76.21 109.22 79.48 108.48 M 49.02 111.07 C 49.01 126.14 48.96 141.21 49.04 156.28 C 51.68 156.30 54.33 156.30 56.97 156.29 C 57.03 150.07 56.80 143.86 57.22 137.66 C 58.49 138.14 59.79 138.57 61.00 139.22 C 61.69 144.82 61.21 150.47 61.19 156.09 C 64.17 156.23 67.16 156.29 70.15 156.31 C 70.23 150.57 70.75 144.78 70.03 139.07 C 69.82 137.00 67.84 135.96 66.48 134.67 C 68.17 133.54 70.15 132.20 70.11 129.91 C 70.48 124.74 70.78 119.44 69.80 114.33 C 69.49 111.45 66.27 111.37 64.03 111.13 C 59.03 110.86 54.02 111.10 49.02 111.07 M 76.21 112.04 C 74.74 123.97 75.85 136.02 75.44 148.00 C 75.75 150.76 74.71 154.72 77.83 156.15 C 83.25 159.51 90.80 158.51 95.66 154.53 C 97.14 150.20 96.33 145.49 96.51 141.00 C 96.24 131.39 97.10 121.74 95.88 112.18 C 89.49 110.24 82.63 110.19 76.21 112.04 M 100.98 111.06 C 100.83 126.13 100.85 141.20 100.97 156.28 C 103.65 156.29 106.32 156.30 109.00 156.28 C 109.50 145.80 108.88 135.31 109.44 124.84 C 110.24 128.05 110.82 131.33 110.99 134.65 C 109.21 138.03 109.63 141.85 110.44 145.42 C 110.77 143.16 111.12 140.90 111.18 138.62 C 114.22 143.82 113.57 150.14 114.37 155.90 C 116.23 156.05 118.10 156.18 119.97 156.30 C 120.56 152.49 120.97 148.64 121.94 144.89 C 123.65 138.55 123.84 131.94 124.50 125.43 C 125.23 125.03 125.96 124.62 126.70 124.22 C 126.33 134.90 126.37 145.60 126.59 156.28 C 129.00 156.28 131.42 156.26 133.84 156.23 C 133.66 141.20 133.68 126.16 133.84 111.13 C 129.66 111.08 125.46 110.80 121.29 111.21 C 119.72 114.29 119.97 117.97 119.33 121.32 C 119.11 119.91 118.30 118.84 116.90 118.12 C 116.81 120.19 116.59 122.29 116.93 124.35 C 116.21 119.84 115.20 115.40 113.64 111.11 C 109.42 111.04 105.20 111.03 100.98 111.06 M 70.19 134.98 C 70.87 136.21 71.74 137.33 72.57 138.47 C 72.79 136.06 72.88 133.64 72.83 131.23 C 71.87 132.39 70.50 133.41 70.19 134.98 Z" />
</g>
<g id="#a9a9a9ff">
<path fill="#a9a9a9" opacity="1.00" d=" M 142.61 108.63 C 147.93 107.35 153.48 108.05 158.80 109.03 C 159.95 110.93 161.12 112.83 162.32 114.71 C 162.63 112.72 162.89 110.72 163.14 108.72 C 167.67 108.52 172.21 108.51 176.74 108.81 C 176.97 111.10 177.21 113.38 177.47 115.67 C 177.98 115.66 179.00 115.64 179.50 115.63 C 179.50 113.32 179.52 111.01 179.57 108.70 C 191.77 108.61 203.97 108.47 216.17 108.70 C 216.66 111.96 217.14 115.22 217.83 118.44 C 218.98 115.31 219.61 112.03 220.05 108.74 C 223.79 108.59 227.53 108.59 231.27 108.73 C 230.46 117.59 227.83 126.08 225.64 134.65 C 222.71 142.44 224.68 150.89 223.97 158.98 C 208.41 158.70 192.84 159.32 177.28 158.81 C 176.89 154.98 176.27 151.12 174.69 147.58 C 174.22 151.37 174.18 155.19 174.15 159.01 C 170.49 159.01 166.84 159.00 163.19 159.00 C 162.95 157.20 162.71 155.41 162.46 153.62 C 161.35 155.18 160.29 156.76 159.24 158.36 C 155.92 158.95 152.61 159.67 149.31 160.35 C 148.33 160.49 147.36 160.65 146.39 160.82 C 143.19 159.02 138.49 158.65 137.18 154.65 C 136.01 148.15 137.06 141.55 136.92 135.00 C 137.07 127.81 136.05 120.53 137.33 113.40 C 138.47 111.34 140.16 109.13 142.61 108.63 M 140.38 111.56 C 138.18 117.82 139.10 124.51 138.97 131.00 C 139.06 138.01 138.78 145.02 139.02 152.02 C 138.61 155.51 142.35 157.14 145.12 157.91 C 150.07 158.61 155.94 158.41 159.60 154.53 C 160.60 151.47 160.33 148.19 160.37 145.02 C 160.14 135.72 160.49 126.42 160.31 117.13 C 160.15 115.08 159.81 112.19 157.42 111.61 C 151.89 109.92 146.00 110.78 140.38 111.56 M 164.29 111.22 C 164.46 126.15 164.43 141.08 164.30 156.00 C 167.17 156.20 170.05 156.31 172.92 156.37 C 173.07 148.14 172.87 139.91 173.02 131.68 C 174.28 135.04 175.51 138.43 176.20 141.95 C 177.13 146.74 179.01 151.31 179.55 156.18 C 182.89 156.35 186.24 156.34 189.58 156.14 C 189.39 141.15 189.36 126.15 189.60 111.16 C 186.74 111.09 183.89 111.04 181.04 111.01 C 180.68 117.81 181.04 124.63 180.65 131.43 C 177.88 125.20 176.94 118.42 175.07 111.94 C 171.72 110.32 167.86 111.24 164.29 111.22 M 193.44 111.17 C 193.69 126.14 193.66 141.11 193.45 156.08 C 198.67 156.48 203.91 156.44 209.13 156.26 C 209.13 154.46 209.13 152.66 209.12 150.87 C 207.06 150.81 205.00 150.77 202.94 150.72 C 202.56 145.84 202.57 140.94 202.69 136.05 C 203.80 135.63 204.91 135.21 206.03 134.79 C 207.06 134.51 208.10 134.23 209.14 133.95 C 208.87 135.20 208.63 136.45 208.42 137.72 C 206.98 137.88 205.55 138.03 204.11 138.18 C 204.09 141.40 204.08 144.61 204.04 147.82 C 206.37 148.00 208.70 148.21 211.02 148.48 C 211.24 142.61 210.50 136.78 209.94 130.95 C 210.09 130.38 210.41 129.25 210.57 128.68 C 211.42 132.49 213.30 136.05 213.52 140.01 C 213.82 145.38 213.53 150.77 213.43 156.15 C 216.52 156.25 219.61 156.20 222.70 155.99 C 222.65 147.39 221.85 138.60 224.24 130.21 C 226.29 123.95 227.23 117.40 229.29 111.15 C 226.63 111.12 223.97 111.13 221.32 111.17 C 220.76 114.89 219.99 118.57 219.29 122.27 C 219.30 121.28 219.32 119.31 219.33 118.33 C 217.61 118.72 216.69 119.73 216.57 121.35 C 215.99 117.84 214.75 114.49 213.66 111.12 C 206.92 111.01 200.18 110.97 193.44 111.17 Z" />
<path fill="#a9a9a9" opacity="1.00" d=" M 57.08 120.00 C 57.11 118.12 58.90 117.05 59.96 115.73 C 61.56 120.56 61.73 125.76 60.97 130.76 C 59.74 131.31 58.38 131.38 57.06 131.59 C 56.99 127.73 56.76 123.85 57.08 120.00 Z" />
</g>
<g id="#6b6b6bff">
<path fill="#6b6b6b" opacity="1.00" d=" M 0.00 108.79 L 0.69 108.75 C -0.27 119.14 0.45 129.59 0.23 140.00 C 0.25 146.27 -0.02 152.57 0.69 158.82 L 0.00 158.77 L 0.00 108.79 Z" />
<path fill="#6b6b6b" opacity="1.00" d=" M 103.74 160.85 C 105.66 161.03 107.61 161.07 109.50 161.55 C 111.24 163.77 111.26 166.77 110.05 169.25 C 108.87 171.38 109.84 173.69 110.38 175.85 C 108.90 174.67 107.45 173.44 106.14 172.08 C 105.88 173.67 105.48 175.24 103.81 175.87 C 103.56 170.87 103.56 165.86 103.74 160.85 M 106.21 161.83 C 106.07 164.34 105.98 166.84 105.95 169.36 C 107.29 168.63 109.80 168.81 109.70 166.73 C 110.44 164.38 107.44 163.36 106.21 161.83 Z" />
<path fill="#6b6b6b" opacity="1.00" d=" M 173.38 178.49 C 177.59 177.44 182.20 177.14 186.31 178.74 C 192.56 182.44 195.84 190.79 192.57 197.54 C 190.75 200.26 189.43 204.03 185.86 204.79 C 181.10 206.07 175.70 206.22 171.20 204.00 C 167.77 200.96 165.24 196.75 165.57 192.02 C 164.92 186.45 168.52 180.83 173.38 178.49 M 174.54 184.59 C 170.20 185.88 169.61 191.42 170.96 195.08 C 173.23 198.09 176.66 201.50 180.77 200.76 C 184.00 199.67 186.49 197.07 188.34 194.28 C 189.97 190.42 187.43 185.59 183.58 184.24 C 180.70 183.00 177.33 183.20 174.54 184.59 Z" />
</g>
<g id="#c9c9c9ff">
<path fill="#c9c9c9" opacity="1.00" d=" M 0.69 108.75 C 6.79 108.40 12.91 108.46 19.01 108.87 C 18.40 109.59 17.80 110.33 17.22 111.08 C 12.51 111.15 7.80 111.11 3.08 111.10 C 3.03 126.07 3.05 141.03 3.07 156.00 C 8.38 156.14 13.72 156.11 18.99 155.31 L 19.74 155.21 C 19.89 156.47 20.02 157.73 20.16 158.99 C 13.67 159.10 7.17 159.29 0.69 158.82 C -0.02 152.57 0.25 146.27 0.23 140.00 C 0.45 129.59 -0.27 119.14 0.69 108.75 Z" />
<path fill="#c9c9c9" opacity="1.00" d=" M 263.39 139.17 C 264.39 137.65 266.87 139.39 265.71 140.84 C 264.71 142.35 262.23 140.61 263.39 139.17 Z" />
<path fill="#c9c9c9" opacity="1.00" d=" M 131.37 165.95 C 133.76 165.62 133.98 169.37 131.50 169.12 C 131.34 168.56 131.01 167.44 130.85 166.88 L 131.37 165.95 Z" />
</g>
<g id="#b2b2b2ff">
<path fill="#b2b2b2" opacity="1.00" d=" M 19.01 108.87 C 19.39 108.88 20.16 108.91 20.54 108.92 C 21.42 109.61 22.29 110.30 23.17 110.98 C 22.70 125.57 23.35 140.17 22.81 154.76 C 22.22 154.85 21.04 155.04 20.45 155.13 L 19.74 155.21 L 18.99 155.31 C 19.05 154.04 19.13 152.78 19.22 151.51 C 19.30 150.39 19.40 149.28 19.51 148.16 C 19.87 144.38 20.03 140.58 20.26 136.79 C 18.18 137.27 16.08 137.68 13.98 138.05 C 13.03 137.40 12.08 136.75 11.13 136.10 L 11.23 135.28 C 13.22 135.07 15.21 134.93 17.20 134.79 C 17.21 132.91 17.22 131.03 17.22 129.15 C 15.26 129.09 13.30 129.05 11.35 128.94 L 11.26 128.17 C 11.73 127.71 12.66 126.80 13.13 126.34 C 13.24 126.20 13.47 125.92 13.58 125.77 C 15.81 126.24 18.04 126.72 20.25 127.28 C 20.07 124.47 19.96 121.65 19.88 118.83 C 19.19 118.64 17.80 118.28 17.11 118.10 C 17.18 115.76 17.22 113.42 17.22 111.08 C 17.80 110.33 18.40 109.59 19.01 108.87 Z" />
<path fill="#b2b2b2" opacity="1.00" d=" M 147.03 120.97 C 146.82 118.71 148.76 117.26 150.04 115.70 C 151.08 119.03 151.49 122.52 151.38 126.00 C 151.16 134.34 151.64 142.70 150.95 151.03 C 149.71 150.94 148.46 150.85 147.21 150.76 C 146.86 140.84 146.96 130.90 147.03 120.97 Z" />
</g>
<g id="#8d8d8dff">
<path fill="#8d8d8d" opacity="1.00" d=" M 20.54 108.92 C 24.01 108.87 27.48 108.78 30.95 108.83 C 30.94 109.41 30.91 110.56 30.90 111.14 C 28.33 111.17 25.74 111.21 23.17 110.98 C 22.29 110.30 21.42 109.61 20.54 108.92 Z" />
</g>
<g id="#adadadff">
<path fill="#adadad" opacity="1.00" d=" M 30.95 108.83 C 31.61 108.83 32.94 108.84 33.60 108.84 C 34.42 109.60 35.25 110.34 36.09 111.06 C 35.80 124.36 36.24 137.65 35.85 150.95 C 34.21 151.06 32.58 151.17 30.94 151.28 C 30.58 137.90 30.68 124.52 30.90 111.14 C 30.91 110.56 30.94 109.41 30.95 108.83 Z" />
<path fill="#adadad" opacity="1.00" d=" M 203.16 165.29 C 204.48 163.17 206.37 160.87 209.05 160.68 C 211.93 160.27 216.41 160.55 216.52 164.40 C 215.02 163.94 213.54 163.41 212.06 162.89 C 209.74 161.78 207.87 164.38 205.89 165.20 C 205.99 168.17 206.47 171.11 207.26 173.98 C 210.39 174.18 213.43 173.47 216.07 171.76 C 216.06 172.59 216.05 174.26 216.05 175.09 C 211.97 176.62 207.72 175.85 203.92 173.96 C 203.21 171.14 202.45 168.18 203.16 165.29 Z" />
</g>
<g id="#919191ff">
<path fill="#919191" opacity="1.00" d=" M 33.60 108.84 C 37.79 108.80 41.98 108.79 46.16 108.74 C 45.44 109.59 44.72 110.44 44.01 111.29 C 41.37 111.26 38.72 111.26 36.09 111.06 C 35.25 110.34 34.42 109.60 33.60 108.84 Z" />
</g>
<g id="#989898ff">
<path fill="#989898" opacity="1.00" d=" M 10.97 117.98 C 13.02 117.98 15.07 117.97 17.11 118.10 C 17.80 118.28 19.19 118.64 19.88 118.83 C 17.55 118.97 15.21 119.08 12.87 119.18 C 13.09 121.38 13.30 123.58 13.58 125.77 C 13.47 125.92 13.24 126.20 13.13 126.34 C 12.66 126.80 11.73 127.71 11.26 128.17 C 10.94 124.78 10.96 121.38 10.97 117.98 Z" />
</g>
<g id="#a8a8a8ff">
<path fill="#a8a8a8" opacity="1.00" d=" M 83.30 117.92 C 84.63 117.82 85.95 117.73 87.28 117.64 C 87.59 128.75 87.74 139.90 87.17 151.01 C 86.34 151.01 84.68 151.01 83.85 151.01 C 82.72 140.02 83.60 128.95 83.30 117.92 Z" />
</g>
<g id="#959595ff">
<path fill="#959595" opacity="1.00" d=" M 202.76 117.84 C 204.79 117.98 206.83 118.13 208.86 118.29 C 208.99 118.93 209.24 120.22 209.36 120.87 C 208.80 121.20 207.67 121.86 207.11 122.19 C 206.92 121.50 206.54 120.12 206.34 119.43 C 205.79 119.37 204.68 119.24 204.12 119.18 C 204.11 122.05 204.17 124.93 204.29 127.81 C 205.06 127.87 206.60 127.99 207.36 128.05 C 206.96 128.17 206.17 128.39 205.77 128.50 C 205.03 128.70 203.55 129.09 202.82 129.29 C 202.71 125.47 202.70 121.66 202.76 117.84 Z" />
</g>
<g id="#7f7f7fff">
<path fill="#7f7f7f" opacity="1.00" d=" M 116.90 118.12 C 118.30 118.84 119.11 119.91 119.33 121.32 C 119.03 124.03 118.54 126.71 118.05 129.39 C 117.64 127.72 117.25 126.04 116.93 124.35 C 116.59 122.29 116.81 120.19 116.90 118.12 Z" />
<path fill="#7f7f7f" opacity="1.00" d=" M 216.57 121.35 C 216.69 119.73 217.61 118.72 219.33 118.33 C 219.32 119.31 219.30 121.28 219.29 122.27 C 218.93 124.30 218.48 126.31 218.05 128.33 C 217.50 126.01 216.97 123.69 216.57 121.35 Z" />
<path fill="#7f7f7f" opacity="1.00" d=" M 20.45 155.13 C 21.04 155.04 22.22 154.85 22.81 154.76 C 28.65 159.91 37.46 159.13 43.75 155.22 C 43.88 155.54 44.15 156.18 44.28 156.49 C 42.84 157.63 41.25 158.57 39.57 159.30 C 35.42 159.10 31.28 158.96 27.13 158.86 C 24.44 158.61 22.51 156.65 20.45 155.13 Z" />
<path fill="#7f7f7f" opacity="1.00" d=" M 40.18 160.73 L 40.62 161.27 C 41.38 162.21 42.15 163.16 42.92 164.11 C 42.96 165.84 43.00 167.58 43.04 169.32 C 41.84 169.80 41.60 170.86 41.81 172.02 C 42.20 172.80 43.00 174.37 43.39 175.16 C 42.56 175.18 40.88 175.24 40.04 175.27 C 40.26 170.42 39.99 165.57 40.18 160.73 Z" />
</g>
<g id="#f9f9f9ff">
<path fill="#f9f9f9" opacity="1.00" d=" M 204.12 119.18 C 204.68 119.24 205.79 119.37 206.34 119.43 C 206.54 120.12 206.92 121.50 207.11 122.19 C 207.62 124.02 208.20 125.84 208.69 127.69 C 208.36 127.78 207.69 127.96 207.36 128.05 C 206.60 127.99 205.06 127.87 204.29 127.81 C 204.17 124.93 204.11 122.05 204.12 119.18 Z" />
</g>
<g id="#b9b9b9ff">
<path fill="#b9b9b9" opacity="1.00" d=" M 209.36 120.87 C 209.86 123.46 210.25 126.06 210.57 128.68 C 210.41 129.25 210.09 130.38 209.94 130.95 C 209.65 131.94 209.38 132.95 209.14 133.95 C 208.10 134.23 207.06 134.51 206.03 134.79 C 205.95 132.69 205.86 130.59 205.77 128.50 C 206.17 128.39 206.96 128.17 207.36 128.05 C 207.69 127.96 208.36 127.78 208.69 127.69 C 208.20 125.84 207.62 124.02 207.11 122.19 C 207.67 121.86 208.80 121.20 209.36 120.87 Z" />
</g>
<g id="#dcdcdcff">
<path fill="#dcdcdc" opacity="1.00" d=" M 256.21 122.20 C 256.87 122.20 258.18 122.19 258.84 122.18 C 258.97 123.47 259.11 124.75 259.25 126.04 C 258.39 126.03 256.66 126.00 255.80 125.99 C 255.93 124.72 256.07 123.46 256.21 122.20 Z" />
<path fill="#dcdcdc" opacity="1.00" d=" M 246.60 194.21 C 248.07 194.14 249.54 194.08 251.02 194.03 C 250.56 195.35 250.11 196.68 249.66 198.01 C 248.64 196.75 247.61 195.48 246.60 194.21 Z" />
<path fill="#dcdcdc" opacity="1.00" d=" M 239.85 204.83 C 241.19 204.50 242.53 204.18 243.88 203.86 C 243.85 205.20 243.82 206.55 243.79 207.90 C 243.16 207.89 241.89 207.88 241.26 207.87 C 240.78 206.86 240.31 205.84 239.85 204.83 Z" />
</g>
<g id="#fefefeff">
<path fill="#fefefe" opacity="1.00" d=" M 209.14 133.95 C 209.38 132.95 209.65 131.94 209.94 130.95 C 210.50 136.78 211.24 142.61 211.02 148.48 C 208.70 148.21 206.37 148.00 204.04 147.82 C 204.08 144.61 204.09 141.40 204.11 138.18 C 205.55 138.03 206.98 137.88 208.42 137.72 C 208.63 136.45 208.87 135.20 209.14 133.95 Z" />
<path fill="#fefefe" opacity="1.00" d=" M 42.86 161.97 C 44.41 163.19 45.97 164.38 47.53 165.58 C 46.19 166.99 44.69 168.27 43.04 169.32 C 43.00 167.58 42.96 165.84 42.92 164.11 C 42.90 163.57 42.88 162.51 42.86 161.97 Z" />
</g>
<g id="#efefefff">
<path fill="#efefef" opacity="1.00" d=" M 70.19 134.98 C 70.50 133.41 71.87 132.39 72.83 131.23 C 72.88 133.64 72.79 136.06 72.57 138.47 C 71.74 137.33 70.87 136.21 70.19 134.98 Z" />
</g>
<g id="#898989ff">
<path fill="#898989" opacity="1.00" d=" M 110.44 145.42 C 109.63 141.85 109.21 138.03 110.99 134.65 C 111.07 135.97 111.14 137.29 111.18 138.62 C 111.12 140.90 110.77 143.16 110.44 145.42 Z" />
</g>
<g id="#bbbbbbff">
<path fill="#bbbbbb" opacity="1.00" d=" M 11.13 136.10 C 12.08 136.75 13.03 137.40 13.98 138.05 C 13.66 141.27 13.40 144.50 13.12 147.72 C 15.25 147.87 17.38 148.01 19.51 148.16 C 19.40 149.28 19.30 150.39 19.22 151.51 C 16.51 151.22 13.79 150.94 11.08 150.68 C 10.91 145.82 10.73 140.95 11.13 136.10 Z" />
<path fill="#bbbbbb" opacity="1.00" d=" M 4.00 167.85 C 4.08 166.04 4.81 165.49 6.22 166.18 C 6.21 167.84 5.47 168.39 4.00 167.85 Z" />
<path fill="#bbbbbb" opacity="1.00" d=" M 256.23 188.62 C 257.08 188.73 257.92 188.94 258.73 189.26 C 258.73 192.09 255.24 191.46 253.84 190.03 C 254.59 189.49 255.39 189.02 256.23 188.62 Z" />
<path fill="#bbbbbb" opacity="1.00" d=" M 164.33 245.41 C 166.56 244.45 167.73 248.95 165.01 248.54 C 162.90 248.57 163.10 246.50 164.33 245.41 Z" />
</g>
<g id="#ebebebff">
<path fill="#ebebeb" opacity="1.00" d=" M 259.85 145.85 C 260.63 145.90 262.21 146.02 262.99 146.07 C 263.02 147.73 263.05 149.39 263.08 151.05 C 261.64 151.02 260.21 151.00 258.77 150.97 C 259.12 149.26 259.48 147.55 259.85 145.85 Z" />
</g>
<g id="#555555ff">
<path fill="#555555" opacity="1.00" d=" M 10.78 160.30 C 13.47 162.73 14.67 166.23 16.39 169.33 C 16.98 167.76 17.56 166.19 18.17 164.63 C 19.16 165.11 19.96 164.88 20.56 163.94 C 20.78 165.57 20.98 167.20 21.19 168.84 C 21.71 168.78 22.74 168.67 23.26 168.61 C 24.18 165.78 25.54 163.14 26.99 160.55 L 26.92 161.58 C 26.79 166.54 24.49 171.02 22.65 175.51 C 21.26 172.98 20.47 170.19 19.60 167.44 C 18.42 169.91 17.25 172.38 16.31 174.95 C 15.92 174.82 15.14 174.55 14.75 174.42 C 13.94 169.57 11.87 165.07 10.78 160.30 Z" />
<path fill="#555555" opacity="1.00" d=" M 87.34 162.43 C 90.96 160.90 95.17 160.07 98.72 162.31 C 101.70 165.74 100.80 170.43 99.27 174.29 C 95.38 175.65 90.82 176.49 87.33 173.66 C 85.37 170.20 86.04 166.00 87.34 162.43 M 88.24 165.26 C 86.38 166.73 86.78 169.93 88.45 171.43 C 89.73 172.75 90.78 174.94 92.98 174.38 C 95.76 174.83 97.42 172.41 99.34 170.91 C 99.41 169.23 99.49 167.55 99.56 165.88 C 97.66 164.57 96.09 162.68 93.88 161.88 C 91.35 161.12 89.92 163.90 88.24 165.26 Z" />
<path fill="#555555" opacity="1.00" d=" M 141.42 162.43 C 142.96 161.58 144.67 161.12 146.39 160.82 C 147.36 160.65 148.33 160.49 149.31 160.35 C 150.90 161.35 152.40 162.55 153.43 164.15 C 151.23 163.68 149.31 162.22 147.08 162.01 C 144.88 162.94 143.06 164.56 141.00 165.74 C 141.03 167.99 140.89 170.53 142.93 172.01 C 144.23 174.43 147.10 174.04 149.42 174.43 C 149.93 174.51 150.96 174.69 151.47 174.77 C 148.07 176.54 144.35 175.37 141.06 173.99 C 139.66 170.26 138.92 165.89 141.42 162.43 Z" />
<path fill="#555555" opacity="1.00" d=" M 219.05 161.06 C 221.06 161.09 223.06 161.09 225.06 161.29 C 223.50 161.85 221.89 162.26 220.28 162.65 C 220.29 164.20 220.31 165.76 220.35 167.32 C 221.93 167.57 223.49 167.93 225.02 168.40 C 223.38 168.73 221.73 169.01 220.07 169.25 C 220.13 170.78 220.16 172.31 220.19 173.85 C 222.27 174.12 224.35 174.43 226.40 174.89 C 223.99 175.47 221.50 175.44 219.05 175.19 C 219.10 170.48 219.07 165.77 219.05 161.06 Z" />
<path fill="#555555" opacity="1.00" d=" M 31.60 161.65 L 32.34 161.66 C 36.00 165.87 37.34 171.41 38.74 176.67 C 36.41 174.23 34.59 171.23 33.81 167.92 C 34.59 165.07 30.43 164.91 30.98 167.81 C 30.65 170.34 30.07 172.83 29.52 175.32 C 28.87 175.46 27.57 175.76 26.93 175.91 C 29.22 171.42 30.28 166.48 31.60 161.65 Z" />
</g>
<g id="#323232ff">
<path fill="#323232" opacity="1.00" d=" M 40.62 161.27 C 42.35 161.22 44.08 161.24 45.81 161.24 C 46.82 163.20 49.37 164.88 48.58 167.34 C 46.77 169.50 44.56 171.25 41.81 172.02 C 41.60 170.86 41.84 169.80 43.04 169.32 C 44.69 168.27 46.19 166.99 47.53 165.58 C 45.97 164.38 44.41 163.19 42.86 161.97 C 42.88 162.51 42.90 163.57 42.92 164.11 C 42.15 163.16 41.38 162.21 40.62 161.27 Z" />
<path fill="#323232" opacity="1.00" d=" M 51.21 161.17 C 53.74 161.24 56.41 161.06 58.77 162.20 C 61.73 165.68 60.98 170.44 59.34 174.33 C 56.68 174.99 53.97 175.43 51.22 175.37 C 51.27 170.64 51.25 165.90 51.21 161.17 M 53.49 161.69 C 52.63 165.81 52.68 170.03 52.75 174.22 C 53.55 174.23 55.16 174.26 55.96 174.28 C 57.60 172.41 60.21 170.84 59.78 167.97 C 60.29 164.21 55.89 163.36 53.49 161.69 Z" />
<path fill="#323232" opacity="1.00" d=" M 155.71 161.13 C 157.72 161.19 159.73 161.23 161.73 161.46 C 160.10 161.93 158.43 162.21 156.76 162.50 C 156.73 164.14 156.72 165.79 156.73 167.44 C 158.40 167.66 160.08 167.89 161.72 168.31 C 160.04 168.57 158.35 168.77 156.66 168.91 C 156.67 170.63 156.67 172.34 156.66 174.06 C 158.37 174.25 160.06 174.50 161.75 174.82 C 159.77 175.32 157.73 175.38 155.71 175.45 C 155.57 170.68 155.60 165.91 155.71 161.13 Z" />
<path fill="#323232" opacity="1.00" d=" M 173.73 162.36 C 174.17 161.89 175.05 160.95 175.50 160.48 C 175.88 165.00 175.66 169.55 175.67 174.08 C 177.34 174.24 179.00 174.46 180.66 174.74 C 178.39 175.26 176.06 175.28 173.75 175.35 C 173.63 171.02 173.43 166.68 173.73 162.36 Z" />
<path fill="#323232" opacity="1.00" d=" M 199.23 161.16 L 200.30 161.23 C 199.92 165.92 199.54 170.61 200.15 175.30 C 197.99 172.52 196.76 168.89 193.71 166.91 C 193.67 169.87 193.83 172.85 193.42 175.79 C 191.87 171.23 192.99 166.29 192.77 161.56 C 194.71 164.37 196.27 167.58 199.03 169.71 C 199.20 166.86 199.23 164.01 199.23 161.16 Z" />
<path fill="#323232" opacity="1.00" d=" M 166.20 174.75 C 166.20 170.39 166.28 166.01 166.85 161.69 C 167.01 165.81 166.74 169.94 166.72 174.07 C 168.36 174.25 170.00 174.48 171.63 174.76 C 169.85 175.22 168.02 175.41 166.21 175.62 L 166.20 174.75 Z" />
<path fill="#323232" opacity="1.00" d=" M 214.30 178.20 C 216.71 177.24 219.34 177.37 221.76 178.23 C 225.69 179.88 227.82 185.30 224.95 188.89 C 223.59 190.29 226.10 191.19 226.60 192.41 C 227.81 196.04 227.51 200.21 225.51 203.52 C 221.94 205.90 217.15 206.44 213.19 204.78 C 210.31 203.98 209.52 200.59 209.25 197.97 C 208.86 195.17 210.06 192.55 210.82 189.93 C 210.81 187.22 210.00 184.45 210.75 181.77 C 211.66 180.36 212.81 179.01 214.30 178.20 M 217.15 183.93 L 216.20 183.74 C 216.20 184.37 216.20 185.63 216.19 186.25 L 217.15 186.07 C 215.30 188.66 221.39 188.83 219.89 186.14 C 219.89 185.57 219.89 184.43 219.89 183.86 C 221.39 181.16 215.30 181.33 217.15 183.93 M 214.09 194.93 C 214.04 195.71 213.95 197.27 213.90 198.05 C 215.69 199.25 217.41 200.57 219.40 201.45 C 220.39 199.24 222.77 196.63 220.71 194.28 C 218.67 192.45 216.18 194.26 214.09 194.93 Z" />
</g>
<g id="#808080ff">
<path fill="#808080" opacity="1.00" d=" M 63.62 161.84 C 65.27 161.41 66.93 160.98 68.60 160.57 C 67.65 161.99 66.62 163.39 65.96 164.98 C 67.14 167.92 69.29 170.49 69.31 173.82 C 67.15 174.74 64.95 175.62 62.63 176.07 C 63.67 174.99 64.82 174.03 66.06 173.19 C 66.35 169.09 62.16 166.09 63.62 161.84 Z" />
</g>
<g id="#747474ff">
<path fill="#747474" opacity="1.00" d=" M 76.80 160.94 C 79.15 160.88 81.50 160.83 83.86 160.97 C 82.30 161.61 80.71 162.16 79.12 162.69 C 79.15 164.22 79.20 165.75 79.25 167.28 C 80.76 167.64 82.27 168.02 83.76 168.48 C 82.18 168.76 80.59 169.00 79.00 169.22 C 78.99 171.42 78.94 173.62 78.81 175.83 C 77.39 175.33 76.71 174.37 76.75 172.94 C 76.58 168.94 76.75 164.94 76.80 160.94 Z" />
</g>
<g id="#a2a2a2ff">
<path fill="#a2a2a2" opacity="1.00" d=" M 120.02 160.90 C 122.54 160.92 125.06 160.94 127.57 161.13 C 126.15 161.75 124.70 162.32 123.25 162.87 C 123.28 164.26 123.33 165.65 123.40 167.05 C 124.79 167.54 126.18 168.07 127.55 168.63 C 126.03 168.88 124.50 169.12 122.96 169.33 C 122.96 170.79 122.95 172.25 122.94 173.72 C 124.53 173.92 126.11 174.15 127.69 174.42 C 125.70 176.24 122.93 176.15 120.47 175.55 C 119.28 170.80 120.23 165.76 120.02 160.90 Z" />
</g>
<g id="#202020ff">
<path fill="#202020" opacity="1.00" d=" M 129.02 160.69 C 130.59 162.13 131.48 164.67 133.85 164.95 C 136.33 164.43 136.48 160.88 139.27 160.73 C 137.98 163.16 136.25 165.34 134.02 166.98 C 135.58 169.83 137.06 172.76 139.10 175.31 C 138.50 175.14 137.29 174.81 136.69 174.65 C 135.97 173.64 136.13 171.51 134.61 171.38 C 131.75 170.34 130.76 174.25 129.10 175.78 C 129.73 173.50 130.52 171.27 131.50 169.12 C 133.98 169.37 133.76 165.62 131.37 165.95 C 130.05 164.48 129.57 162.53 129.02 160.69 Z" />
<path fill="#202020" opacity="1.00" d=" M 18.17 164.63 C 18.10 162.91 20.60 161.33 20.56 163.94 C 19.96 164.88 19.16 165.11 18.17 164.63 Z" />
<path fill="#202020" opacity="1.00" d=" M 44.23 172.17 C 46.34 171.83 47.02 174.76 48.60 175.80 C 46.98 175.13 45.33 174.53 43.68 173.94 C 43.82 173.50 44.09 172.61 44.23 172.17 Z" />
<path fill="#202020" opacity="1.00" d=" M 199.27 181.30 C 199.43 178.89 201.93 178.30 203.74 177.46 C 203.73 186.76 203.62 196.05 203.80 205.35 C 202.22 205.36 200.64 205.37 199.07 205.37 C 199.36 197.35 198.94 189.31 199.27 181.30 Z" />
</g>
<g id="#9d9d9dff">
<path fill="#9d9d9d" opacity="1.00" d=" M 164.02 161.19 C 164.75 161.12 166.21 160.98 166.94 160.92 L 166.85 161.69 C 166.28 166.01 166.20 170.39 166.20 174.75 C 165.66 174.80 164.59 174.92 164.05 174.98 C 163.95 170.39 163.95 165.79 164.02 161.19 Z" />
</g>
<g id="#616161ff">
<path fill="#616161" opacity="1.00" d=" M 182.76 160.94 C 185.16 160.96 187.56 160.99 189.95 161.28 C 188.12 162.19 186.09 162.32 184.09 162.48 C 184.13 164.13 184.17 165.78 184.23 167.43 C 186.20 167.54 188.19 167.63 189.99 168.56 C 187.97 168.86 185.95 169.02 183.92 169.14 C 183.93 170.71 183.93 172.27 183.93 173.84 C 185.95 174.02 187.97 174.19 189.97 174.54 C 187.77 175.77 185.21 175.45 182.80 175.42 C 182.59 170.60 182.65 165.76 182.76 160.94 Z" />
</g>
<g id="#7d7d7dff">
<path fill="#7d7d7d" opacity="1.00" d=" M 0.00 174.70 C 1.55 170.00 2.87 164.96 5.95 161.02 C 9.11 165.36 10.69 170.63 11.02 175.95 C 8.88 172.98 7.56 169.56 6.22 166.18 C 4.81 165.49 4.08 166.04 4.00 167.85 C 3.78 170.07 3.36 172.27 2.95 174.46 C 2.21 174.80 0.74 175.47 0.00 175.80 L 0.00 174.70 Z" />
</g>
<g id="#a3a3a3ff">
<path fill="#a3a3a3" opacity="1.00" d=" M 149.42 174.43 C 150.34 173.21 151.50 172.23 152.74 171.36 C 152.85 172.28 153.06 174.14 153.17 175.07 C 152.74 175.00 151.90 174.85 151.47 174.77 C 150.96 174.69 149.93 174.51 149.42 174.43 Z" />
</g>
<g id="#6c6c6cff">
<path fill="#6c6c6c" opacity="1.00" d=" M 150.19 177.59 C 153.38 177.80 156.76 178.43 158.64 181.31 C 162.63 186.94 159.60 194.10 156.39 199.33 C 158.48 199.41 160.57 199.45 162.66 199.49 C 162.72 201.46 162.77 203.44 162.81 205.42 C 157.75 205.38 152.68 205.22 147.62 205.58 C 149.47 202.79 150.14 199.46 151.51 196.45 C 153.21 193.01 155.23 189.64 155.99 185.83 C 154.18 184.97 152.39 184.08 150.58 183.25 C 150.42 181.37 150.29 179.48 150.19 177.59 Z" />
</g>
<g id="#9f9f9fff">
<path fill="#9f9f9f" opacity="1.00" d=" M 217.15 183.93 C 215.30 181.33 221.39 181.16 219.89 183.86 C 219.20 183.88 217.83 183.91 217.15 183.93 Z" />
<path fill="#9f9f9f" opacity="1.00" d=" M 217.15 186.07 C 217.83 186.08 219.21 186.12 219.89 186.14 C 221.39 188.83 215.30 188.66 217.15 186.07 Z" />
</g>
<g id="#f5f5f5ff">
<path fill="#f5f5f5" opacity="1.00" d=" M 216.20 183.74 L 217.15 183.93 C 217.83 183.91 219.20 183.88 219.89 183.86 C 219.89 184.43 219.89 185.57 219.89 186.14 C 219.21 186.12 217.83 186.08 217.15 186.07 L 216.19 186.25 C 216.20 185.63 216.20 184.37 216.20 183.74 Z" />
</g>
<g id="#e1e1e1ff">
<path fill="#e1e1e1" opacity="1.00" d=" M 127.53 235.54 C 128.59 237.17 129.58 238.86 130.50 240.59 C 129.55 240.68 127.66 240.86 126.72 240.95 C 126.97 239.14 127.24 237.34 127.53 235.54 Z" />
<path fill="#e1e1e1" opacity="1.00" d=" M 150.44 247.95 C 151.07 246.44 150.20 243.04 152.59 243.29 C 153.29 244.73 153.82 246.25 154.39 247.75 C 153.40 247.80 151.42 247.90 150.44 247.95 Z" />
</g>
</svg>
