<?xml version="1.0" encoding="UTF-8" ?>
<!DOCTYPE svg PUBLIC "-//W3C//DTD SVG 1.1//EN" "http://www.w3.org/Graphics/SVG/1.1/DTD/svg11.dtd">
<svg width="256pt" height="256pt" viewBox="0 0 256 256" version="1.1" xmlns="http://www.w3.org/2000/svg">
<g id="#ffffffff">
<path fill="#ffffff" opacity="1.00" d=" M 0.00 0.00 L 252.91 0.00 C 253.40 1.18 254.30 2.24 255.62 2.48 L 256.00 2.15 L 256.00 256.00 L 249.53 256.00 L 247.45 255.46 C 247.50 247.17 247.40 238.88 247.54 230.60 C 243.27 230.20 238.98 230.51 234.71 230.38 C 234.63 227.55 234.62 224.72 234.70 221.89 C 238.92 221.87 243.14 221.84 247.36 221.92 C 247.58 211.95 247.46 201.96 247.43 191.98 C 243.18 192.01 238.93 192.00 234.69 192.00 C 234.68 189.22 234.62 186.43 234.61 183.65 C 238.87 183.26 243.14 183.57 247.41 183.45 C 247.51 174.93 247.51 166.40 247.41 157.88 C 243.18 157.88 238.95 157.87 234.72 157.89 C 234.65 155.00 234.46 152.11 234.92 149.25 C 239.09 149.42 243.26 149.34 247.42 149.30 C 247.49 140.78 247.53 132.25 247.40 123.73 C 243.23 123.74 239.06 123.65 234.89 123.80 C 234.48 120.92 234.63 118.04 234.76 115.15 C 238.97 115.21 243.19 115.18 247.41 115.18 C 247.53 106.66 247.47 98.14 247.44 89.63 C 243.15 89.43 238.84 89.91 234.58 89.33 C 234.61 86.57 234.71 83.81 234.70 81.05 C 238.94 81.06 243.17 81.05 247.41 81.07 C 247.52 72.54 247.48 64.01 247.43 55.48 C 243.31 55.48 239.19 55.37 235.08 55.59 C 234.32 52.76 234.70 49.83 234.69 46.95 C 238.93 46.93 243.17 46.92 247.40 46.97 C 247.54 34.16 247.47 21.35 247.44 8.55 C 234.64 8.54 221.84 8.49 209.05 8.57 C 209.07 12.82 209.07 17.07 209.05 21.32 C 206.24 21.34 203.44 21.37 200.63 21.35 C 200.42 17.09 200.58 12.83 200.52 8.57 C 190.57 8.50 180.62 8.51 170.68 8.57 C 170.48 12.86 171.03 17.19 170.36 21.44 C 167.61 21.40 164.86 21.28 162.11 21.29 C 162.13 17.05 162.13 12.81 162.10 8.57 C 153.60 8.50 145.09 8.53 136.58 8.55 C 136.41 12.83 136.75 17.12 136.35 21.39 C 133.57 21.39 130.78 21.31 128.00 21.31 C 128.00 17.06 127.99 12.82 128.01 8.57 C 119.56 8.44 111.10 8.65 102.65 8.45 C 102.13 12.72 102.55 17.01 102.38 21.30 C 99.55 21.37 96.72 21.37 93.88 21.29 C 93.88 17.07 93.84 12.86 93.92 8.64 C 85.48 8.32 77.02 8.76 68.58 8.40 C 67.94 12.66 68.43 16.98 68.28 21.27 C 65.43 21.38 62.58 21.39 59.73 21.29 C 59.74 17.12 59.63 12.95 59.82 8.79 C 51.26 8.30 42.63 8.48 34.05 8.70 C 34.18 12.89 34.12 17.09 34.11 21.29 C 31.28 21.36 28.45 21.39 25.62 21.30 C 25.47 17.01 25.84 12.72 25.37 8.45 C 17.06 8.66 8.74 8.45 0.42 8.53 L 0.00 10.06 L 0.00 0.00 Z" />
<path fill="#ffffff" opacity="1.00" d=" M 211.53 51.61 C 214.73 49.94 218.77 53.57 217.26 56.91 C 211.76 71.10 206.01 85.21 200.34 99.33 C 199.56 102.12 195.77 103.40 193.60 101.37 C 190.22 98.24 186.95 94.97 183.85 91.55 C 182.23 92.23 181.18 93.70 179.97 94.89 C 163.80 111.02 147.69 127.20 131.50 143.31 C 129.81 145.49 126.29 145.58 124.59 143.36 C 115.79 133.45 107.16 123.36 98.35 113.44 C 98.10 113.41 97.59 113.33 97.34 113.29 C 73.27 136.22 49.19 159.15 25.12 182.09 C 20.46 186.35 16.13 191.00 11.28 195.03 C 9.75 193.09 7.85 191.50 6.28 189.60 C 5.46 188.34 7.16 187.51 7.83 186.72 C 36.91 159.17 65.84 131.45 94.90 103.87 C 96.74 101.83 100.10 102.05 101.70 104.27 C 109.95 113.69 118.23 123.10 126.43 132.58 C 127.03 133.36 127.79 133.94 128.70 134.32 C 144.02 118.47 159.82 103.07 175.37 87.45 C 176.05 86.67 177.89 85.49 176.49 84.45 C 173.54 81.18 170.10 78.37 167.28 74.98 C 165.45 72.79 166.78 69.25 169.42 68.46 C 183.44 62.82 197.48 57.20 211.53 51.61 M 179.29 73.68 C 179.21 73.94 179.05 74.47 178.97 74.74 C 184.25 79.90 189.17 85.54 194.87 90.21 C 198.33 81.27 202.09 72.44 205.46 63.46 C 196.60 66.44 188.04 70.35 179.29 73.68 Z" />
<path fill="#ffffff" opacity="1.00" d=" M 170.71 140.83 C 173.49 140.79 176.28 140.80 179.06 140.83 C 179.26 143.56 179.23 146.30 179.11 149.03 C 182.01 149.68 186.50 148.51 187.51 152.40 C 187.92 161.56 187.75 170.79 187.60 179.97 C 186.95 184.05 182.15 183.43 179.12 183.64 C 179.03 189.29 179.65 195.03 178.79 200.63 C 176.06 200.39 173.30 200.81 170.61 200.28 C 170.70 194.67 170.65 189.06 170.63 183.45 C 167.61 183.63 162.89 183.90 162.26 179.96 C 161.92 172.32 162.24 164.66 162.10 157.01 C 162.20 154.81 161.71 152.15 163.53 150.48 C 165.39 148.83 168.05 149.43 170.30 149.42 C 171.09 146.63 170.43 143.69 170.71 140.83 M 170.72 157.89 C 170.61 163.57 170.63 169.26 170.70 174.95 C 173.52 174.94 176.33 174.93 179.15 174.94 C 179.23 169.29 179.17 163.64 179.18 157.99 C 176.36 157.82 173.54 157.87 170.72 157.89 Z" />
<path fill="#ffffff" opacity="1.00" d=" M 72.61 157.87 C 75.43 157.87 78.24 157.87 81.05 157.89 C 81.12 162.18 80.93 166.46 81.19 170.74 C 84.26 170.41 88.99 170.31 89.49 174.34 C 89.74 186.91 89.52 199.49 89.60 212.06 C 89.85 214.28 88.81 216.81 86.48 217.40 C 84.67 217.64 82.85 217.64 81.04 217.67 C 81.07 221.90 81.10 226.13 81.00 230.36 C 78.19 230.44 75.38 230.44 72.56 230.35 C 72.39 226.09 72.75 221.82 72.37 217.57 C 70.05 217.43 67.24 218.18 65.38 216.39 C 63.80 215.08 64.04 212.85 63.97 211.02 C 64.18 198.66 63.76 186.28 64.16 173.93 C 65.05 170.13 69.55 170.59 72.56 170.61 C 72.55 166.36 72.42 162.12 72.61 157.87 M 72.65 179.14 C 72.39 189.08 72.57 199.04 72.56 208.98 C 75.39 209.06 78.22 209.09 81.05 209.04 C 81.05 199.09 81.10 189.13 81.00 179.18 C 78.22 179.20 75.44 179.19 72.65 179.14 Z" />
<path fill="#ffffff" opacity="1.00" d=" M 123.82 170.67 C 126.63 170.64 129.45 170.62 132.27 170.70 C 132.49 174.99 131.87 179.33 132.59 183.57 C 135.55 183.18 140.10 183.17 140.69 187.00 C 140.92 197.31 140.86 207.65 140.72 217.97 C 140.37 222.26 135.38 221.98 132.22 222.06 C 132.29 227.69 132.37 233.33 132.20 238.96 C 129.38 238.93 126.56 238.94 123.75 238.94 C 123.70 233.30 123.68 227.66 123.77 222.02 C 120.81 221.84 116.26 222.47 115.40 218.66 C 114.88 209.46 115.35 200.21 115.16 191.00 C 115.26 188.83 114.78 186.19 116.63 184.59 C 118.48 182.94 121.15 183.57 123.39 183.57 C 124.21 179.33 123.38 174.96 123.82 170.67 M 123.76 192.01 C 123.70 199.11 123.69 206.22 123.77 213.32 C 126.58 213.36 129.40 213.35 132.21 213.32 C 132.33 206.21 132.29 199.10 132.23 192.00 C 129.41 192.02 126.59 192.02 123.76 192.01 Z" />
</g>
</svg>
