<?xml version="1.0" encoding="UTF-8" ?>
<!DOCTYPE svg PUBLIC "-//W3C//DTD SVG 1.1//EN" "http://www.w3.org/Graphics/SVG/1.1/DTD/svg11.dtd">
<svg width="280pt" height="300pt" viewBox="0 0 280 300" version="1.1" xmlns="http://www.w3.org/2000/svg">
<g id="#22478bf8">
<path fill="#22478b" opacity="0.97" d=" M 135.80 69.02 C 137.35 66.74 138.69 64.33 139.81 61.82 C 142.46 63.46 143.15 66.78 144.98 69.15 C 146.17 74.16 145.50 79.50 145.21 84.62 C 143.29 80.46 145.63 75.57 143.21 71.61 C 142.54 70.27 141.85 68.93 141.17 67.60 C 140.79 67.53 140.05 67.41 139.68 67.34 C 139.03 68.87 138.38 70.40 137.66 71.90 C 135.59 74.29 136.11 70.32 135.80 69.02 Z" />
<path fill="#22478b" opacity="0.97" d=" M 129.97 80.85 C 130.73 80.73 131.50 80.61 132.27 80.49 C 132.42 82.73 133.04 84.88 133.66 87.02 C 133.09 113.30 133.66 139.61 133.39 165.88 C 133.51 167.56 131.72 168.17 130.68 169.11 C 130.64 168.73 130.58 167.99 130.54 167.62 C 130.71 141.11 130.42 114.59 130.70 88.08 C 130.26 88.23 129.39 88.55 128.95 88.70 C 128.24 90.91 127.33 93.05 126.21 95.08 C 123.16 99.82 125.36 105.75 124.56 111.03 C 124.10 105.39 124.21 99.71 124.44 94.06 C 125.73 89.44 129.64 85.85 129.97 80.85 Z" />
<path fill="#22478b" opacity="0.97" d=" M 62.23 81.38 C 67.44 82.44 72.78 80.35 77.87 81.99 C 75.51 81.88 73.15 81.91 70.79 81.89 C 70.38 83.06 69.97 84.24 69.55 85.41 C 68.83 84.81 67.38 83.61 66.66 83.01 C 65.41 81.98 63.66 82.05 62.23 81.38 Z" />
<path fill="#22478b" opacity="0.97" d=" M 148.45 81.20 C 148.94 81.27 149.93 81.41 150.43 81.48 C 151.96 86.39 155.78 90.42 156.73 95.46 C 156.73 100.02 156.75 104.57 156.53 109.12 C 155.86 104.71 157.29 99.93 155.19 95.83 C 153.13 93.43 153.09 88.55 149.43 88.19 C 149.86 94.45 150.43 100.73 150.22 107.01 C 149.31 114.01 150.96 121.03 149.95 128.04 C 150.74 141.09 149.88 154.16 150.14 167.22 C 150.24 167.60 150.45 168.38 150.55 168.77 C 149.92 168.73 148.65 168.64 148.02 168.60 L 147.58 168.57 C 147.54 168.18 147.45 167.39 147.40 166.99 C 147.25 165.67 147.14 164.34 147.08 163.01 C 147.37 142.01 147.14 121.00 147.24 100.00 C 147.21 96.10 147.28 92.17 146.66 88.31 C 147.81 86.11 148.09 83.62 148.45 81.20 Z" />
<path fill="#22478b" opacity="0.97" d=" M 48.34 85.58 C 51.43 84.54 54.83 83.24 58.10 83.85 C 58.18 84.62 58.34 86.14 58.41 86.91 C 57.21 86.76 56.02 86.61 54.82 86.47 C 53.45 89.72 48.50 89.17 48.34 85.58 Z" />
<path fill="#22478b" opacity="0.97" d=" M 225.05 85.77 C 225.11 82.95 228.40 83.87 230.13 84.51 C 228.56 85.36 226.83 85.78 225.05 85.77 Z" />
<path fill="#22478b" opacity="0.97" d=" M 63.03 85.35 C 64.71 84.80 65.30 85.32 64.81 86.91 C 63.14 87.45 62.55 86.93 63.03 85.35 Z" />
<path fill="#22478b" opacity="0.97" d=" M 203.21 87.99 C 205.44 86.36 208.07 85.44 210.80 85.11 C 210.71 85.58 210.54 86.54 210.46 87.02 C 208.53 87.58 206.86 88.71 205.62 90.30 C 206.22 90.56 207.42 91.08 208.02 91.34 C 210.25 92.10 211.06 88.81 213.10 88.65 C 215.03 88.35 216.96 87.98 218.81 87.34 C 219.38 87.40 220.52 87.52 221.08 87.58 C 220.74 87.95 220.05 88.70 219.71 89.07 C 218.58 89.66 217.45 90.25 216.32 90.83 C 215.93 92.10 215.54 93.37 215.16 94.64 C 214.24 93.53 213.31 92.44 212.36 91.38 C 211.19 91.82 210.01 92.22 208.81 92.58 C 207.15 92.48 205.50 92.35 203.86 92.22 C 203.64 90.81 203.42 89.40 203.21 87.99 Z" />
<path fill="#22478b" opacity="0.97" d=" M 233.22 85.87 C 235.08 86.40 236.96 86.90 238.83 87.44 C 248.68 92.17 256.95 100.30 262.23 109.86 C 267.77 120.27 268.79 132.70 266.23 144.11 C 261.76 161.63 247.00 175.78 229.74 180.59 C 229.62 180.00 229.39 178.83 229.28 178.24 C 234.79 176.84 239.74 173.85 244.43 170.72 C 245.41 169.70 246.30 168.60 247.29 167.58 C 250.57 164.73 253.65 161.62 256.08 157.99 C 257.62 155.69 259.40 153.47 260.34 150.84 C 262.33 143.74 265.11 136.56 264.11 129.04 C 263.17 122.44 261.97 115.50 258.05 109.93 C 255.93 106.80 254.70 102.59 250.96 100.99 C 249.70 97.83 246.86 95.85 244.28 93.85 C 241.14 91.46 237.74 89.36 234.01 88.03 C 233.82 87.49 233.42 86.41 233.22 85.87 Z" />
<path fill="#22478b" opacity="0.97" d=" M 13.59 123.02 C 16.88 106.84 28.78 92.49 44.13 86.46 C 44.54 86.95 45.35 87.91 45.76 88.40 C 39.85 90.92 34.70 94.73 30.03 99.11 C 29.28 100.21 28.62 101.37 27.95 102.53 C 25.88 106.45 22.26 109.39 20.80 113.66 C 16.87 122.45 16.86 132.32 17.80 141.72 C 18.73 143.98 19.39 146.34 19.69 148.77 C 19.84 149.12 20.12 149.82 20.26 150.17 C 20.86 151.29 21.51 152.38 22.14 153.48 C 23.03 155.07 23.79 156.72 24.61 158.34 L 24.83 158.74 C 27.29 161.78 29.74 164.85 32.53 167.59 C 33.44 168.42 34.37 169.21 35.32 169.98 C 36.99 171.42 38.86 172.70 41.15 172.72 C 43.05 169.78 45.42 166.82 44.69 163.05 C 46.40 163.71 49.21 164.51 48.50 166.96 C 47.04 169.81 43.90 171.66 43.31 174.97 C 42.68 175.40 41.43 176.26 40.81 176.69 C 29.53 170.46 19.68 160.57 15.54 148.15 C 12.31 140.21 13.13 131.38 13.59 123.02 Z" />
<path fill="#22478b" opacity="0.97" d=" M 168.25 104.82 C 172.76 97.08 180.42 91.63 188.05 87.19 C 189.35 87.50 190.64 87.86 191.92 88.24 C 191.44 88.39 190.49 88.69 190.01 88.84 C 186.89 89.66 184.32 91.67 182.08 93.91 C 179.53 96.33 177.07 98.84 174.49 101.22 C 172.91 102.87 171.23 104.70 171.11 107.12 C 172.93 107.47 173.94 104.78 175.96 105.63 C 175.09 106.94 174.20 108.24 173.31 109.54 C 171.77 109.47 170.23 109.33 168.70 109.26 C 167.64 110.96 166.82 112.86 167.37 114.89 C 167.64 115.35 168.18 116.25 168.46 116.70 C 169.30 119.22 169.74 122.15 172.03 123.86 C 172.93 123.12 173.67 122.24 174.27 121.21 C 174.48 121.02 174.90 120.64 175.11 120.45 L 176.31 120.19 C 176.67 119.69 177.40 118.68 177.76 118.18 C 177.49 119.78 177.39 121.51 176.25 122.77 C 174.84 123.76 173.23 124.65 172.35 126.20 C 171.71 127.36 171.23 128.63 171.26 129.98 C 171.16 134.12 170.85 138.40 172.23 142.39 C 170.80 146.08 171.26 150.10 171.21 153.97 C 171.18 155.92 171.34 157.92 172.33 159.66 C 176.17 165.49 181.51 170.35 187.62 173.74 C 186.97 174.21 185.68 175.15 185.04 175.61 C 181.26 172.61 176.63 170.40 173.99 166.21 C 173.28 165.73 172.54 165.31 171.81 164.88 C 171.23 166.47 170.63 168.08 169.57 169.43 C 170.66 158.98 170.00 148.46 170.18 137.97 C 169.99 132.94 170.80 127.75 169.31 122.86 C 168.98 122.46 168.32 121.67 167.98 121.27 C 167.00 118.84 166.14 116.37 165.33 113.88 C 164.80 112.90 164.53 110.97 162.93 111.38 C 161.32 113.11 162.42 115.86 162.24 118.01 C 162.55 134.92 162.24 151.84 162.41 168.75 C 161.76 168.13 160.45 166.89 159.79 166.26 C 159.03 161.54 159.46 156.75 159.41 152.00 C 159.38 140.32 159.44 128.65 159.34 116.97 C 159.38 113.43 160.23 109.83 162.07 106.78 C 163.50 106.99 164.25 108.56 165.37 109.34 C 166.56 108.00 167.56 106.49 168.25 104.82 Z" />
<path fill="#22478b" opacity="0.97" d=" M 98.28 94.43 C 98.68 93.81 99.49 92.57 99.89 91.96 C 105.94 96.43 111.49 101.92 114.66 108.86 C 115.37 108.61 116.08 108.32 116.76 108.00 C 117.27 107.75 118.27 107.24 118.77 106.99 C 120.12 110.16 121.63 113.42 121.41 116.96 C 121.28 128.98 121.39 140.99 121.34 153.01 C 121.27 158.30 122.13 163.84 119.73 168.78 L 119.15 168.71 C 117.15 168.46 115.16 168.07 113.26 167.39 C 114.66 167.46 116.06 167.56 117.46 167.69 C 117.72 149.03 117.57 130.36 117.56 111.70 C 116.13 113.15 115.22 114.98 114.50 116.87 C 113.34 119.85 111.14 122.58 111.49 125.96 C 111.58 139.46 111.51 152.96 111.46 166.46 L 112.83 167.28 C 111.65 167.89 110.51 168.57 109.41 169.31 C 109.05 167.86 108.69 166.41 108.33 164.97 C 102.24 171.03 95.36 176.50 87.15 179.36 C 86.17 179.58 85.19 179.79 84.20 179.99 C 83.19 179.66 82.36 179.08 81.69 178.25 C 83.33 177.94 84.98 177.70 86.61 177.38 L 87.23 176.64 C 88.38 171.77 91.47 167.89 94.63 164.16 C 94.62 162.96 94.62 161.77 94.62 160.58 C 96.35 158.77 98.08 156.95 99.78 155.11 C 100.09 155.78 100.42 156.44 100.77 157.10 C 99.44 158.40 98.08 159.66 96.78 160.99 C 96.13 166.42 92.02 170.44 88.79 174.54 C 90.44 174.62 92.22 174.69 93.59 173.60 C 98.90 170.02 103.91 165.81 107.60 160.53 C 108.89 158.97 108.60 156.83 108.69 154.96 C 108.61 145.30 108.67 135.64 108.62 125.97 C 108.24 120.87 114.15 117.17 112.35 111.96 C 109.03 105.21 104.50 98.81 98.28 94.43 Z" />
<path fill="#22478b" opacity="0.97" d=" M 187.27 97.15 C 188.91 97.32 188.26 100.01 186.88 100.11 C 185.23 99.91 185.88 97.26 187.27 97.15 Z" />
<path fill="#22478b" opacity="0.97" d=" M 180.15 104.02 C 181.43 104.25 182.85 104.24 183.92 105.11 C 183.74 106.73 181.91 106.72 180.77 107.32 C 180.56 106.22 180.35 105.12 180.15 104.02 Z" />
<path fill="#22478b" opacity="0.97" d=" M 250.32 103.54 C 251.40 104.50 252.45 105.48 253.53 106.45 C 253.53 107.60 253.55 108.76 253.57 109.91 C 255.12 111.12 255.71 112.79 254.95 114.65 C 253.65 112.50 252.11 110.28 249.33 110.18 C 251.58 108.60 250.48 105.77 250.32 103.54 Z" />
<path fill="#22478b" opacity="0.97" d=" M 33.69 106.89 C 34.10 105.96 34.79 105.35 35.75 105.06 C 36.98 106.37 38.13 107.76 39.49 108.93 C 39.49 109.79 39.49 110.66 39.51 111.52 C 39.25 111.30 38.73 110.86 38.47 110.63 C 36.91 109.33 35.16 108.28 33.69 106.89 Z" />
<path fill="#22478b" opacity="0.97" d=" M 58.96 104.96 C 60.94 105.42 62.92 105.91 64.90 106.40 C 64.63 107.31 64.36 108.22 64.07 109.12 C 63.62 109.39 62.72 109.91 62.27 110.18 C 59.73 109.63 59.26 107.18 58.96 104.96 Z" />
<path fill="#22478b" opacity="0.97" d=" M 240.51 114.88 C 242.50 114.62 244.44 114.11 246.23 113.18 C 245.71 114.13 245.17 115.07 244.63 116.01 C 245.12 116.33 246.10 116.96 246.60 117.28 C 245.24 117.57 243.88 117.85 242.53 118.14 C 242.52 118.81 242.50 120.14 242.49 120.81 C 242.16 120.55 241.50 120.01 241.17 119.74 C 240.54 118.20 240.63 116.50 240.51 114.88 Z" />
<path fill="#22478b" opacity="0.97" d=" M 181.40 115.25 C 182.99 115.20 184.58 115.14 186.18 115.07 C 186.83 115.88 187.48 116.71 188.12 117.55 C 188.30 117.21 188.68 116.55 188.86 116.21 C 189.27 115.96 190.08 115.45 190.49 115.20 C 190.84 115.87 191.17 116.55 191.49 117.25 L 191.44 118.54 C 193.17 119.74 195.03 120.74 196.87 121.78 C 196.50 122.12 195.78 122.81 195.41 123.16 C 194.46 123.18 193.49 123.16 192.55 123.01 C 192.49 122.39 192.38 121.15 192.32 120.53 C 191.15 120.51 189.97 120.47 188.80 120.43 C 186.94 118.76 184.66 119.68 183.22 121.41 C 182.77 121.80 182.34 122.20 181.92 122.61 C 181.29 122.00 180.68 121.39 180.06 120.79 C 181.27 120.63 182.49 120.48 183.71 120.33 C 183.86 118.28 182.66 116.70 181.40 115.25 Z" />
<path fill="#22478b" opacity="0.97" d=" M 66.08 120.31 C 67.62 120.10 68.34 122.29 67.69 123.43 C 66.29 124.05 64.24 121.00 66.08 120.31 Z" />
<path fill="#22478b" opacity="0.97" d=" M 201.36 125.58 C 199.88 123.45 202.00 121.26 203.19 119.60 C 204.21 121.63 204.62 123.86 204.60 126.12 C 205.31 125.67 206.73 124.76 207.44 124.31 C 208.24 123.85 209.05 123.42 209.89 123.03 C 210.08 125.01 209.69 126.89 207.27 127.04 C 207.77 128.81 208.32 130.56 208.93 132.30 C 207.61 133.39 206.28 134.46 205.01 135.60 C 204.78 135.16 204.33 134.28 204.11 133.84 C 206.07 133.33 206.96 131.49 207.98 129.93 C 205.38 129.26 202.42 128.36 201.36 125.58 Z" />
<path fill="#22478b" opacity="0.97" d=" M 45.80 125.05 C 46.12 124.48 46.76 123.32 47.08 122.74 C 48.93 124.13 50.85 125.46 52.47 127.13 C 52.03 127.80 51.59 128.46 51.14 129.13 C 50.06 128.80 48.99 128.46 47.91 128.12 C 47.20 127.10 46.53 126.06 45.80 125.05 Z" />
<path fill="#22478b" opacity="0.97" d=" M 241.42 127.11 C 242.40 126.13 243.01 124.50 244.52 124.24 C 244.84 125.48 245.12 126.73 245.37 127.99 L 244.23 128.23 C 243.52 127.95 242.12 127.39 241.42 127.11 Z" />
<path fill="#22478b" opacity="0.97" d=" M 63.11 128.12 C 64.74 127.61 65.30 128.17 64.81 129.79 C 63.18 130.29 62.62 129.74 63.11 128.12 Z" />
<path fill="#22478b" opacity="0.97" d=" M 221.13 136.89 C 223.47 133.99 225.46 130.16 229.35 129.15 C 229.43 129.87 229.60 131.29 229.68 132.00 C 231.93 134.29 233.45 138.28 237.33 137.71 C 237.73 137.58 238.55 137.31 238.96 137.17 C 238.80 137.67 238.48 138.68 238.32 139.18 C 237.38 139.71 236.45 140.25 235.52 140.79 C 235.46 142.35 235.38 143.91 235.30 145.48 C 237.76 148.09 241.68 147.24 244.66 148.89 C 244.59 147.74 244.52 146.60 244.45 145.46 C 243.10 145.50 241.75 145.54 240.41 145.59 C 238.78 144.12 237.87 142.32 240.02 140.66 C 240.67 142.23 241.32 143.80 241.97 145.37 C 242.64 144.14 243.31 142.90 243.96 141.66 C 243.29 141.30 241.97 140.60 241.31 140.24 C 242.10 139.22 242.89 138.20 243.68 137.18 C 243.57 134.91 243.44 132.64 243.30 130.37 C 243.82 130.41 244.85 130.48 245.36 130.52 C 248.81 135.30 247.25 141.11 247.55 146.54 C 248.95 146.50 250.35 146.45 251.75 146.41 C 251.72 146.77 251.64 147.48 251.61 147.84 C 249.74 147.34 247.87 146.80 246.01 146.28 C 246.37 147.88 247.11 149.29 248.24 150.50 C 247.17 150.58 246.09 150.65 245.02 150.71 C 244.02 150.30 243.02 149.89 242.02 149.48 C 240.63 150.30 239.23 151.10 237.84 151.91 C 235.20 149.08 232.62 146.15 230.50 142.92 C 230.85 141.26 232.02 139.73 231.72 137.99 C 230.73 136.69 229.57 135.52 228.96 133.99 C 228.51 133.55 227.60 132.67 227.15 132.23 C 225.86 133.67 224.41 135.01 223.42 136.68 C 222.63 139.26 223.63 141.92 224.42 144.37 C 223.62 144.27 222.83 144.16 222.05 144.04 C 221.87 143.83 221.51 143.40 221.33 143.18 L 222.48 143.94 C 222.67 141.71 222.81 139.48 222.91 137.25 C 222.23 137.12 220.88 136.85 220.20 136.72 C 219.88 135.88 219.56 135.05 219.24 134.22 C 219.86 135.11 220.49 136.00 221.13 136.89 Z" />
<path fill="#22478b" opacity="0.97" d=" M 238.21 130.31 C 240.39 130.50 239.27 134.77 237.25 133.65 C 236.17 132.68 236.87 130.64 238.21 130.31 Z" />
<path fill="#22478b" opacity="0.97" d=" M 160.96 194.01 C 164.01 189.09 170.47 186.54 176.03 188.12 C 177.48 188.46 178.97 188.57 180.45 188.66 C 180.55 189.72 180.73 191.84 180.82 192.90 C 177.15 192.21 173.63 190.77 169.82 191.32 C 167.88 193.19 164.94 194.92 165.33 198.03 C 165.38 201.50 164.46 205.89 167.65 208.30 C 170.23 211.18 174.82 211.05 177.83 208.95 C 179.04 208.05 180.60 208.49 181.98 208.44 C 180.66 213.67 174.38 213.97 169.99 213.51 C 166.02 213.33 163.12 210.35 160.64 207.59 C 159.82 203.18 158.21 198.06 160.96 194.01 Z" />
<path fill="#22478b" opacity="0.97" d=" M 90.93 189.10 C 94.32 188.95 97.72 188.62 101.11 188.91 C 102.32 188.89 103.07 189.51 103.34 190.77 C 100.59 190.88 97.84 190.93 95.11 191.20 C 95.00 191.54 94.77 192.22 94.66 192.57 C 94.45 194.24 94.38 195.92 94.44 197.61 C 95.99 200.69 100.38 196.84 102.11 199.03 C 101.85 202.80 96.33 199.86 94.20 201.97 C 93.97 205.69 94.19 209.44 93.80 213.17 C 92.37 212.62 90.41 212.03 90.79 210.06 C 90.80 203.07 90.68 196.08 90.93 189.10 Z" />
<path fill="#22478b" opacity="0.97" d=" M 108.59 211.05 C 110.47 203.56 108.02 195.61 109.47 188.23 C 110.51 188.29 112.59 188.42 113.63 188.48 C 113.52 195.99 113.69 203.52 113.54 211.03 C 114.40 214.44 107.36 214.47 108.59 211.05 Z" />
<path fill="#22478b" opacity="0.97" d=" M 125.35 190.08 C 125.39 187.89 128.87 187.75 129.26 189.86 C 132.24 197.00 135.55 204.02 138.44 211.19 C 138.47 211.76 138.55 212.90 138.59 213.47 C 137.63 213.47 135.73 213.49 134.78 213.49 C 132.31 211.00 131.85 207.44 130.18 204.49 C 127.97 204.47 125.76 204.42 123.56 204.30 C 121.44 206.41 121.06 209.41 119.96 212.05 C 119.02 213.95 116.44 213.87 115.19 212.33 C 118.83 205.04 121.99 197.50 125.35 190.08 M 126.30 195.50 C 124.83 197.13 124.34 199.21 124.36 201.37 C 126.06 201.33 127.76 201.30 129.46 201.26 C 129.01 199.43 128.54 197.60 128.11 195.77 C 127.66 195.70 126.75 195.56 126.30 195.50 Z" />
<path fill="#22478b" opacity="0.97" d=" M 140.61 188.47 C 145.98 188.50 152.46 186.98 156.49 191.52 C 157.01 194.33 155.62 196.65 154.26 198.96 C 154.93 201.15 157.73 202.36 157.40 204.95 C 157.85 207.97 155.51 210.24 153.59 212.20 C 149.49 213.39 145.15 214.11 140.92 213.11 C 140.23 204.97 140.75 196.67 140.61 188.47 M 144.56 190.57 C 143.73 193.69 143.90 196.93 144.79 200.02 C 143.94 203.42 143.58 207.06 144.47 210.49 C 148.29 213.58 154.73 208.87 153.58 204.33 C 152.53 201.67 149.55 200.96 147.15 200.08 C 149.49 198.78 153.59 197.58 152.82 194.08 C 151.59 190.72 147.76 189.79 144.56 190.57 Z" />
<path fill="#22478b" opacity="0.97" d=" M 185.59 189.84 C 186.54 187.80 188.92 188.53 190.68 188.32 C 190.51 196.70 190.87 205.09 190.49 213.46 C 189.60 213.45 187.81 213.42 186.92 213.40 C 186.58 212.84 185.90 211.71 185.55 211.15 C 186.98 207.59 186.13 203.69 186.34 199.97 C 186.18 196.60 186.92 193.05 185.59 189.84 Z" />
<path fill="#22478b" opacity="0.97" d=" M 242.87 226.63 C 243.95 226.64 245.03 226.60 246.12 226.64 C 246.32 230.28 249.29 233.16 248.53 236.99 C 247.76 234.23 245.55 232.71 242.65 233.38 C 242.27 233.39 241.51 233.42 241.13 233.43 C 242.01 231.25 242.64 228.97 242.87 226.63 Z" />
<path fill="#22478b" opacity="0.97" d=" M 174.27 228.23 C 175.00 227.82 175.74 227.43 176.48 227.05 C 176.94 228.83 177.41 230.61 177.78 232.41 C 177.34 232.57 176.48 232.89 176.04 233.05 C 174.58 233.43 173.33 234.24 172.10 235.07 C 172.50 232.72 172.77 230.18 174.27 228.23 Z" />
<path fill="#22478b" opacity="0.97" d=" M 51.51 230.56 C 52.33 229.44 53.21 228.37 54.08 227.30 C 54.47 227.82 55.26 228.88 55.66 229.40 C 56.56 230.97 57.05 232.75 57.83 234.39 C 57.04 234.15 56.24 233.90 55.44 233.69 C 54.12 233.32 52.73 233.43 51.38 233.38 C 51.38 234.28 51.40 236.10 51.41 237.01 C 48.45 235.52 50.41 232.60 51.51 230.56 Z" />
</g>
<g id="#13284f8e">
<path fill="#13284f" opacity="0.56" d=" M 135.17 84.12 C 135.12 79.14 133.58 73.72 135.80 69.02 C 136.11 70.32 135.59 74.29 137.66 71.90 C 138.20 77.58 138.15 83.28 137.78 88.97 C 137.73 110.30 137.80 131.62 137.76 152.95 C 137.66 156.44 137.61 159.96 138.31 163.41 C 139.67 163.35 141.03 163.32 142.39 163.27 C 142.52 161.20 142.62 159.13 142.63 157.06 C 142.53 131.04 142.68 105.02 142.54 79.00 C 142.51 76.52 142.79 74.05 143.21 71.61 C 145.63 75.57 143.29 80.46 145.21 84.62 C 145.62 85.89 146.13 87.09 146.66 88.31 C 147.28 92.17 147.21 96.10 147.24 100.00 C 147.14 121.00 147.37 142.01 147.08 163.01 C 147.14 164.34 147.25 165.67 147.40 166.99 C 146.85 166.63 145.74 165.91 145.19 165.56 C 141.79 166.83 138.07 166.45 134.68 165.39 C 134.58 167.61 133.06 169.11 131.49 170.46 C 129.14 170.44 126.77 170.67 124.46 170.28 C 123.18 169.72 122.86 168.04 121.99 167.07 C 121.42 167.50 120.30 168.35 119.73 168.78 C 122.13 163.84 121.27 158.30 121.34 153.01 C 121.39 140.99 121.28 128.98 121.41 116.96 C 121.63 113.42 120.12 110.16 118.77 106.99 C 118.27 107.24 117.27 107.75 116.76 108.00 C 116.87 107.33 117.07 105.97 117.18 105.29 C 117.73 105.30 118.85 105.32 119.41 105.33 C 120.11 107.74 121.00 110.12 122.39 112.24 C 123.35 106.55 121.98 100.68 123.03 95.03 C 123.38 94.79 124.09 94.30 124.44 94.06 C 124.21 99.71 124.10 105.39 124.56 111.03 C 125.36 105.75 123.16 99.82 126.21 95.08 C 126.55 119.16 126.13 143.24 126.43 167.32 C 127.46 167.39 129.51 167.55 130.54 167.62 C 130.58 167.99 130.64 168.73 130.68 169.11 C 131.72 168.17 133.51 167.56 133.39 165.88 C 133.66 139.61 133.09 113.30 133.66 87.02 C 134.04 86.30 134.79 84.85 135.17 84.12 Z" />
<path fill="#13284f" opacity="0.56" d=" M 43.57 85.79 C 49.37 83.31 55.65 82.12 61.87 81.23 L 62.23 81.38 C 63.66 82.05 65.41 81.98 66.66 83.01 C 66.22 85.68 67.99 88.25 67.06 90.86 C 66.07 94.56 66.85 98.48 65.69 102.17 C 61.29 100.52 56.96 98.61 52.99 96.07 C 54.61 93.26 56.99 91.04 59.40 88.91 C 58.27 88.61 57.13 88.31 56.00 88.02 C 53.75 89.42 51.27 90.40 48.65 90.81 C 48.49 90.12 48.18 88.74 48.03 88.06 C 47.46 88.14 46.33 88.31 45.76 88.40 C 45.35 87.91 44.54 86.95 44.13 86.46 L 43.57 85.79 M 48.34 85.58 C 48.50 89.17 53.45 89.72 54.82 86.47 C 56.02 86.61 57.21 86.76 58.41 86.91 C 58.34 86.14 58.18 84.62 58.10 83.85 C 54.83 83.24 51.43 84.54 48.34 85.58 M 60.07 84.22 C 59.55 85.83 60.12 86.34 61.78 85.75 C 62.29 84.14 61.72 83.63 60.07 84.22 M 63.03 85.35 C 62.55 86.93 63.14 87.45 64.81 86.91 C 65.30 85.32 64.71 84.80 63.03 85.35 M 57.05 95.55 C 59.18 96.39 61.33 97.15 63.52 97.82 C 63.86 95.85 63.14 93.97 62.54 92.13 C 60.49 92.82 57.78 93.13 57.05 95.55 Z" />
<path fill="#13284f" opacity="0.56" d=" M 188.05 87.19 C 192.63 83.82 198.49 82.81 203.92 81.54 C 212.28 81.40 220.94 80.34 229.02 83.10 C 232.37 84.19 236.34 84.76 238.83 87.44 C 236.96 86.90 235.08 86.40 233.22 85.87 C 233.42 86.41 233.82 87.49 234.01 88.03 C 230.86 86.88 227.49 86.50 224.15 86.75 C 222.70 87.59 221.22 88.35 219.71 89.07 C 220.05 88.70 220.74 87.95 221.08 87.58 C 220.52 87.52 219.38 87.40 218.81 87.34 C 219.72 86.46 220.63 85.57 221.52 84.67 C 211.60 81.52 201.38 85.22 191.92 88.24 C 190.64 87.86 189.35 87.50 188.05 87.19 M 225.05 85.77 C 226.83 85.78 228.56 85.36 230.13 84.51 C 228.40 83.87 225.11 82.95 225.05 85.77 Z" />
<path fill="#13284f" opacity="0.56" d=" M 70.79 81.89 C 73.15 81.91 75.51 81.88 77.87 81.99 C 85.01 83.02 91.73 86.03 97.73 89.97 C 98.46 90.59 99.59 90.95 99.89 91.96 C 99.49 92.57 98.68 93.81 98.28 94.43 C 95.10 92.34 92.02 89.89 88.26 88.95 C 86.79 90.02 85.19 91.99 83.23 90.67 C 80.09 89.88 78.42 87.02 76.43 84.77 C 74.96 84.44 73.46 84.41 71.97 84.28 C 72.73 84.70 74.25 85.52 75.00 85.94 C 74.25 87.55 73.48 89.15 72.69 90.75 C 75.93 93.07 79.24 95.56 80.83 99.35 C 81.94 100.34 84.05 100.99 83.45 102.88 C 79.47 104.90 75.89 107.64 72.50 110.51 C 70.90 113.22 69.69 116.16 68.68 119.14 C 68.57 121.25 69.32 123.30 69.71 125.35 C 72.93 126.22 76.23 126.73 79.50 127.38 C 79.51 127.93 79.52 129.02 79.53 129.57 C 75.08 131.96 70.38 129.80 66.13 128.12 C 66.18 128.75 66.29 130.01 66.35 130.64 C 67.35 131.10 68.36 131.56 69.37 132.01 C 69.49 133.61 69.55 135.21 69.68 136.81 C 73.78 134.59 78.05 132.55 82.87 133.20 C 86.94 135.14 91.02 137.16 94.31 140.33 C 97.74 140.49 101.91 141.38 103.40 144.90 C 101.75 148.81 101.73 153.06 100.77 157.10 C 100.42 156.44 100.09 155.78 99.78 155.11 C 97.41 151.73 99.44 147.97 99.94 144.39 C 96.34 143.26 92.55 142.31 88.78 143.28 C 88.68 141.77 88.53 140.28 88.41 138.79 C 84.24 137.91 80.21 134.67 75.84 136.79 C 74.11 138.71 74.77 141.67 74.52 144.06 C 74.12 150.09 79.70 153.81 83.01 158.06 C 84.44 164.03 84.52 170.27 84.55 176.39 C 85.22 176.45 86.56 176.58 87.23 176.64 L 86.61 177.38 C 84.98 177.70 83.33 177.94 81.69 178.25 C 81.85 172.80 81.61 167.35 81.33 161.91 C 81.43 160.00 80.01 158.64 78.79 157.38 C 76.11 154.69 73.68 151.72 71.68 148.49 C 70.43 145.98 71.78 143.20 72.57 140.77 C 69.35 139.92 66.49 138.22 63.97 136.06 C 61.54 133.83 57.92 135.18 55.15 133.80 C 53.04 132.24 51.03 130.53 48.75 129.19 C 48.54 128.92 48.12 128.39 47.91 128.12 C 48.99 128.46 50.06 128.80 51.14 129.13 C 51.59 128.46 52.03 127.80 52.47 127.13 C 54.16 129.13 55.97 131.05 58.21 132.44 C 57.51 129.69 56.00 126.94 56.62 124.03 C 58.18 120.72 62.22 120.26 65.35 119.34 C 66.70 116.88 67.57 114.22 68.51 111.59 C 69.41 108.96 71.71 107.23 73.71 105.45 C 73.72 104.18 73.62 102.91 73.62 101.65 C 74.71 100.47 75.82 99.31 76.92 98.13 C 75.63 96.91 74.35 95.68 73.07 94.45 C 71.76 94.49 70.44 94.52 69.13 94.56 C 67.64 91.50 70.07 88.56 69.55 85.41 C 69.97 84.24 70.38 83.06 70.79 81.89 M 66.08 120.31 C 64.24 121.00 66.29 124.05 67.69 123.43 C 68.34 122.29 67.62 120.10 66.08 120.31 M 59.67 124.68 C 57.95 125.89 59.18 127.97 59.51 129.55 C 60.03 129.59 61.07 129.66 61.59 129.70 C 61.79 129.14 62.20 128.02 62.40 127.46 C 63.87 126.84 67.85 126.56 66.22 124.10 C 64.71 121.18 61.52 123.43 59.67 124.68 M 63.11 128.12 C 62.62 129.74 63.18 130.29 64.81 129.79 C 65.30 128.17 64.74 127.61 63.11 128.12 Z" />
<path fill="#13284f" opacity="0.56" d=" M 202.45 88.61 L 203.21 87.99 C 203.42 89.40 203.64 90.81 203.86 92.22 C 205.50 92.35 207.15 92.48 208.81 92.58 C 208.72 92.99 208.54 93.83 208.45 94.24 C 203.50 93.90 198.94 96.14 194.76 98.52 C 194.23 96.99 193.96 95.33 193.07 93.97 C 191.44 92.93 189.43 93.50 187.63 93.52 C 187.55 93.98 187.39 94.90 187.31 95.36 C 187.85 95.56 188.93 95.96 189.47 96.16 C 189.53 96.79 189.64 98.05 189.70 98.68 C 190.82 99.27 192.32 99.88 191.73 101.45 C 189.64 104.46 186.87 107.39 183.10 108.04 C 180.25 108.54 178.44 110.92 176.53 112.85 C 176.75 113.64 177.20 115.23 177.43 116.02 C 180.11 114.87 183.73 112.05 186.18 115.07 C 184.58 115.14 182.99 115.20 181.40 115.25 C 182.66 116.70 183.86 118.28 183.71 120.33 C 182.49 120.48 181.27 120.63 180.06 120.79 C 180.68 121.39 181.29 122.00 181.92 122.61 C 182.34 122.20 182.77 121.80 183.22 121.41 C 185.95 123.27 189.51 121.99 192.55 123.01 C 193.49 123.16 194.46 123.18 195.41 123.16 C 197.20 126.81 199.56 130.12 201.93 133.42 C 202.47 133.52 203.56 133.74 204.11 133.84 C 204.33 134.28 204.78 135.16 205.01 135.60 C 205.11 137.42 205.26 139.25 205.18 141.08 C 204.17 143.81 201.98 145.88 200.18 148.11 C 200.45 150.52 200.97 152.89 201.71 155.19 C 202.49 154.50 203.28 153.81 204.07 153.12 C 204.69 153.23 205.94 153.45 206.57 153.56 C 206.91 157.08 205.97 160.48 204.42 163.61 C 203.47 163.64 202.52 163.66 201.58 163.69 C 201.03 161.77 200.49 159.85 199.88 157.95 C 197.85 160.13 198.85 163.53 196.95 165.80 C 195.55 168.31 192.12 170.95 189.45 168.55 C 185.91 164.61 183.44 159.35 183.62 153.98 C 183.87 150.34 180.53 147.84 180.28 144.27 C 177.66 144.35 175.03 144.48 172.41 144.63 C 172.65 149.64 172.58 154.65 172.33 159.66 C 171.34 157.92 171.18 155.92 171.21 153.97 C 171.26 150.10 170.80 146.08 172.23 142.39 C 170.85 138.40 171.16 134.12 171.26 129.98 C 171.23 128.63 171.71 127.36 172.35 126.20 C 172.74 131.13 172.18 136.11 172.82 141.02 C 174.91 142.85 177.69 141.14 179.94 140.54 C 181.08 141.19 182.23 141.86 183.37 142.53 C 183.14 146.97 187.38 150.21 186.56 154.66 C 186.09 158.24 187.92 161.55 189.64 164.54 C 190.68 166.63 194.18 166.04 194.89 163.91 C 195.94 161.23 196.17 158.25 197.81 155.81 C 199.69 152.91 196.22 149.22 198.38 146.41 C 199.86 144.11 201.55 141.95 202.96 139.61 C 201.18 138.64 199.06 137.87 198.10 135.94 C 196.01 132.11 194.24 128.12 192.09 124.33 C 189.76 124.78 187.46 125.44 185.10 125.62 C 182.17 124.53 179.68 121.60 176.25 122.77 C 177.39 121.51 177.49 119.78 177.76 118.18 C 177.40 118.68 176.67 119.69 176.31 120.19 C 176.29 119.39 176.26 117.78 176.24 116.97 C 175.55 117.15 174.16 117.49 173.46 117.67 C 173.42 118.23 173.34 119.37 173.30 119.94 C 173.75 120.07 174.66 120.32 175.11 120.45 C 174.90 120.64 174.48 121.02 174.27 121.21 C 173.67 122.24 172.93 123.12 172.03 123.86 C 169.74 122.15 169.30 119.22 168.46 116.70 C 168.93 117.29 169.87 118.47 170.34 119.06 C 171.48 117.33 172.64 115.61 173.87 113.94 C 172.99 112.13 171.58 110.76 169.79 109.85 C 168.95 111.52 168.15 113.20 167.37 114.89 C 166.82 112.86 167.64 110.96 168.70 109.26 C 170.23 109.33 171.77 109.47 173.31 109.54 C 174.20 108.24 175.09 106.94 175.96 105.63 C 173.94 104.78 172.93 107.47 171.11 107.12 C 171.23 104.70 172.91 102.87 174.49 101.22 C 175.29 103.73 176.53 106.06 178.08 108.19 C 179.98 106.27 178.73 103.92 177.75 101.94 C 179.85 99.35 182.09 96.87 184.10 94.19 C 183.59 94.12 182.58 93.98 182.08 93.91 C 184.32 91.67 186.89 89.66 190.01 88.84 C 189.75 89.17 189.25 89.83 188.99 90.17 C 193.26 90.99 197.32 93.48 201.77 92.01 C 201.97 90.87 202.20 89.74 202.45 88.61 M 187.27 97.15 C 185.88 97.26 185.23 99.91 186.88 100.11 C 188.26 100.01 188.91 97.32 187.27 97.15 M 180.67 102.08 C 182.84 105.30 185.10 100.20 185.00 98.03 C 183.41 99.21 181.86 100.48 180.67 102.08 M 180.15 104.02 C 180.35 105.12 180.56 106.22 180.77 107.32 C 181.91 106.72 183.74 106.73 183.92 105.11 C 182.85 104.24 181.43 104.25 180.15 104.02 Z" />
<path fill="#13284f" opacity="0.56" d=" M 155.19 95.83 C 157.29 99.93 155.86 104.71 156.53 109.12 C 156.75 104.57 156.73 100.02 156.73 95.46 C 157.14 95.73 157.96 96.27 158.37 96.53 C 158.67 101.00 158.27 105.48 158.24 109.95 C 160.84 110.21 160.19 107.26 160.82 105.73 C 161.78 105.58 162.74 105.44 163.71 105.30 C 164.02 105.91 164.65 107.14 164.97 107.75 C 166.09 106.80 167.18 105.83 168.25 104.82 C 167.56 106.49 166.56 108.00 165.37 109.34 C 164.25 108.56 163.50 106.99 162.07 106.78 C 160.23 109.83 159.38 113.43 159.34 116.97 C 159.44 128.65 159.38 140.32 159.41 152.00 C 159.46 156.75 159.03 161.54 159.79 166.26 C 158.40 167.39 157.39 168.86 156.58 170.44 C 153.81 170.02 149.43 171.89 148.02 168.60 C 148.65 168.64 149.92 168.73 150.55 168.77 C 150.45 168.38 150.24 167.60 150.14 167.22 C 151.56 167.38 152.99 167.55 154.42 167.71 C 155.20 161.85 154.67 155.92 154.82 150.03 C 154.94 131.96 154.45 113.89 155.19 95.83 Z" />
<path fill="#13284f" opacity="0.56" d=" M 27.95 102.53 C 28.62 101.37 29.28 100.21 30.03 99.11 C 31.85 101.17 33.86 103.07 35.75 105.06 C 34.79 105.35 34.10 105.96 33.69 106.89 C 32.04 105.11 30.21 103.48 27.95 102.53 Z" />
<path fill="#13284f" opacity="0.56" d=" M 57.07 105.26 C 58.35 104.57 59.50 103.48 60.97 103.27 C 62.58 104.01 64.08 104.96 65.64 105.78 C 65.86 107.35 66.31 109.19 64.07 109.12 C 64.36 108.22 64.63 107.31 64.90 106.40 C 62.92 105.91 60.94 105.42 58.96 104.96 C 59.26 107.18 59.73 109.63 62.27 110.18 C 62.42 110.53 62.72 111.23 62.87 111.58 C 61.83 111.56 60.79 111.55 59.75 111.53 C 58.75 109.49 57.74 107.44 57.07 105.26 Z" />
<path fill="#13284f" opacity="0.56" d=" M 39.49 108.93 C 39.87 109.24 40.64 109.87 41.02 110.19 C 41.40 112.38 41.23 114.69 42.04 116.78 C 43.27 119.10 45.10 121.04 47.08 122.74 C 46.76 123.32 46.12 124.48 45.80 125.05 C 43.63 123.01 40.99 121.28 39.65 118.52 C 38.50 116.06 38.68 113.27 38.47 110.63 C 38.73 110.86 39.25 111.30 39.51 111.52 C 39.49 110.66 39.49 109.79 39.49 108.93 Z" />
<path fill="#13284f" opacity="0.56" d=" M 198.36 113.73 C 200.33 111.99 202.15 108.54 205.28 109.65 C 207.32 112.20 207.85 115.51 208.67 118.57 C 206.82 118.96 204.83 120.39 202.95 119.45 C 202.12 118.34 201.46 117.11 200.76 115.92 C 199.88 116.48 199.01 117.04 198.14 117.60 C 195.92 117.45 193.70 117.31 191.49 117.25 C 191.17 116.55 190.84 115.87 190.49 115.20 C 190.08 115.45 189.27 115.96 188.86 116.21 C 189.56 114.11 190.46 112.08 191.63 110.20 C 194.06 110.98 196.37 112.10 198.36 113.73 Z" />
<path fill="#13284f" opacity="0.56" d=" M 258.05 109.93 C 261.97 115.50 263.17 122.44 264.11 129.04 C 265.11 136.56 262.33 143.74 260.34 150.84 C 259.40 153.47 257.62 155.69 256.08 157.99 C 256.24 157.23 256.55 155.70 256.71 154.94 C 255.84 154.05 254.97 153.15 254.11 152.25 C 249.93 153.72 246.71 156.87 243.02 159.19 C 241.97 161.57 244.03 163.97 244.73 166.21 C 245.37 166.55 246.65 167.24 247.29 167.58 C 246.30 168.60 245.41 169.70 244.43 170.72 C 241.85 166.66 238.53 161.84 240.59 156.85 C 242.47 155.97 244.49 155.23 246.08 153.85 C 247.57 152.79 245.57 151.68 245.02 150.71 C 246.09 150.65 247.17 150.58 248.24 150.50 C 250.70 151.43 252.54 149.55 254.31 148.14 C 254.30 147.39 254.28 145.89 254.26 145.14 C 255.96 145.28 257.66 145.44 259.36 145.62 C 260.32 144.48 261.73 143.51 261.95 141.92 C 262.83 137.00 262.73 131.96 262.49 127.00 C 262.18 121.04 259.53 115.62 258.05 109.93 M 256.46 150.01 C 255.60 151.32 257.78 152.75 258.76 151.64 C 259.74 150.31 257.41 148.73 256.46 150.01 Z" />
<path fill="#13284f" opacity="0.56" d=" M 246.23 113.18 C 247.25 112.17 248.29 111.18 249.33 110.18 C 252.11 110.28 253.65 112.50 254.95 114.65 C 254.55 116.94 254.54 119.26 254.57 121.57 C 252.07 122.71 249.53 123.79 246.98 124.80 C 246.44 125.86 245.90 126.92 245.37 127.99 C 245.12 126.73 244.84 125.48 244.52 124.24 C 243.01 124.50 242.40 126.13 241.42 127.11 C 242.12 127.39 243.52 127.95 244.23 128.23 C 243.03 128.84 241.65 129.28 240.73 130.31 C 240.00 132.56 239.70 134.92 238.96 137.17 C 238.55 137.31 237.73 137.58 237.33 137.71 C 236.64 135.81 235.65 133.95 235.54 131.90 C 237.38 128.90 240.91 127.30 242.40 124.06 C 242.31 122.54 241.62 121.16 241.17 119.74 C 241.50 120.01 242.16 120.55 242.49 120.81 C 242.50 120.14 242.52 118.81 242.53 118.14 C 243.88 117.85 245.24 117.57 246.60 117.28 C 246.10 116.96 245.12 116.33 244.63 116.01 C 245.17 115.07 245.71 114.13 246.23 113.18 M 247.36 117.37 C 247.15 118.90 245.60 119.69 244.19 119.74 C 244.39 120.92 244.57 122.10 244.76 123.28 C 246.45 121.70 248.01 119.74 250.33 119.09 C 251.08 116.74 251.55 114.32 251.85 111.87 C 249.74 113.09 247.64 114.76 247.36 117.37 M 238.21 130.31 C 236.87 130.64 236.17 132.68 237.25 133.65 C 239.27 134.77 240.39 130.50 238.21 130.31 Z" />
<path fill="#13284f" opacity="0.56" d=" M 162.24 118.01 C 162.42 115.86 161.32 113.11 162.93 111.38 C 164.53 110.97 164.80 112.90 165.33 113.88 C 163.90 114.92 163.30 116.30 163.55 118.03 C 163.85 134.49 163.47 150.96 163.74 167.41 C 165.28 167.04 168.82 168.55 168.81 165.98 C 168.77 153.64 168.76 141.30 168.74 128.96 C 168.76 126.91 169.02 124.88 169.31 122.86 C 170.80 127.75 169.99 132.94 170.18 137.97 C 170.00 148.46 170.66 158.98 169.57 169.43 C 170.63 168.08 171.23 166.47 171.81 164.88 C 172.54 165.31 173.28 165.73 173.99 166.21 C 172.89 167.57 172.07 169.31 170.55 170.27 C 167.85 170.70 165.10 170.42 162.38 170.46 C 161.19 169.28 160.15 167.95 159.79 166.26 C 160.45 166.89 161.76 168.13 162.41 168.75 C 162.24 151.84 162.55 134.92 162.24 118.01 Z" />
<path fill="#13284f" opacity="0.56" d=" M 207.44 124.31 C 207.44 122.49 208.23 121.31 210.12 121.41 C 210.49 122.76 210.87 124.11 211.26 125.46 C 215.45 126.61 217.55 130.57 219.24 134.22 C 219.56 135.05 219.88 135.88 220.20 136.72 C 220.88 136.85 222.23 137.12 222.91 137.25 C 222.81 139.48 222.67 141.71 222.48 143.94 L 221.33 143.18 C 218.69 140.01 216.59 136.43 215.13 132.57 C 214.40 130.37 212.55 128.94 210.58 127.89 C 210.49 128.72 210.30 130.37 210.21 131.19 C 209.89 131.47 209.25 132.02 208.93 132.30 C 208.32 130.56 207.77 128.81 207.27 127.04 C 209.69 126.89 210.08 125.01 209.89 123.03 C 209.05 123.42 208.24 123.85 207.44 124.31 Z" />
<path fill="#13284f" opacity="0.56" d=" M 28.53 128.55 C 29.57 128.49 30.61 128.43 31.65 128.37 C 31.68 129.48 31.71 130.60 31.74 131.71 C 30.61 131.69 29.48 131.67 28.35 131.65 C 28.41 130.61 28.47 129.58 28.53 128.55 Z" />
<path fill="#13284f" opacity="0.56" d=" M 17.80 141.72 C 20.38 142.14 23.02 142.15 25.58 142.74 C 28.36 144.18 31.41 146.22 31.92 149.58 C 29.97 149.45 28.02 149.30 26.06 149.15 C 29.30 152.85 33.13 155.96 36.45 159.58 C 39.09 162.76 36.39 166.75 35.32 169.98 C 34.37 169.21 33.44 168.42 32.53 167.59 C 35.28 166.05 35.07 162.03 32.94 160.05 C 30.98 157.97 29.16 155.59 26.60 154.23 C 25.90 155.69 25.37 157.22 24.83 158.74 L 24.61 158.34 C 23.79 156.72 23.03 155.07 22.14 153.48 C 22.82 153.49 24.18 153.51 24.87 153.52 C 25.10 150.71 23.10 149.15 20.74 148.20 C 20.62 148.69 20.38 149.68 20.26 150.17 C 20.12 149.82 19.84 149.12 19.69 148.77 C 19.39 146.34 18.73 143.98 17.80 141.72 M 20.97 144.20 C 21.22 146.57 23.47 147.65 25.67 147.48 C 25.78 144.60 23.22 144.13 20.97 144.20 Z" />
<path fill="#13284f" opacity="0.56" d=" M 112.83 167.28 L 113.26 167.39 C 115.16 168.07 117.15 168.46 119.15 168.71 C 118.23 171.34 115.09 170.36 112.98 170.53 C 111.89 170.29 109.68 170.77 109.41 169.31 C 110.51 168.57 111.65 167.89 112.83 167.28 Z" />
<path fill="#13284f" opacity="0.56" d=" M 187.62 173.74 C 193.83 176.74 200.29 179.53 207.23 180.23 C 214.66 181.41 222.06 179.89 229.28 178.24 C 229.39 178.83 229.62 180.00 229.74 180.59 C 229.78 180.81 229.86 181.25 229.91 181.47 C 225.81 181.59 222.11 183.86 217.97 183.49 C 213.69 183.35 209.37 183.74 205.10 183.25 C 198.12 181.66 190.96 179.84 185.04 175.61 C 185.68 175.15 186.97 174.21 187.62 173.74 Z" />
<path fill="#13284f" opacity="0.56" d=" M 43.31 174.97 C 55.22 180.45 69.07 182.54 81.69 178.25 C 82.36 179.08 83.19 179.66 84.20 179.99 C 77.12 184.38 68.04 183.52 60.00 183.26 C 53.47 181.71 46.37 180.65 40.81 176.69 C 41.43 176.26 42.68 175.40 43.31 174.97 Z" />
<path fill="#13284f" opacity="0.56" d=" M 89.66 187.64 C 94.56 187.48 99.46 187.44 104.36 187.65 C 104.38 189.21 104.37 190.77 104.34 192.34 C 101.11 192.39 97.88 192.45 94.66 192.57 C 94.77 192.22 95.00 191.54 95.11 191.20 C 97.84 190.93 100.59 190.88 103.34 190.77 C 103.07 189.51 102.32 188.89 101.11 188.91 C 97.72 188.62 94.32 188.95 90.93 189.10 C 90.68 196.08 90.80 203.07 90.79 210.06 C 90.41 212.03 92.37 212.62 93.80 213.17 C 94.19 209.44 93.97 205.69 94.20 201.97 C 96.33 199.86 101.85 202.80 102.11 199.03 C 100.38 196.84 95.99 200.69 94.44 197.61 C 97.40 197.40 100.37 197.34 103.33 197.55 C 103.40 198.87 103.46 200.20 103.54 201.53 C 100.84 201.68 98.14 201.75 95.44 201.74 C 95.18 205.62 95.41 209.51 95.31 213.40 C 93.45 213.49 89.55 214.78 89.46 211.94 C 89.48 203.84 89.19 195.72 89.66 187.64 Z" />
<path fill="#13284f" opacity="0.56" d=" M 144.56 190.57 C 147.76 189.79 151.59 190.72 152.82 194.08 C 153.59 197.58 149.49 198.78 147.15 200.08 C 149.55 200.96 152.53 201.67 153.58 204.33 C 154.73 208.87 148.29 213.58 144.47 210.49 C 143.58 207.06 143.94 203.42 144.79 200.02 C 143.90 196.93 143.73 193.69 144.56 190.57 M 145.45 191.51 C 145.29 193.64 145.23 195.77 145.24 197.91 C 147.28 197.74 149.32 197.51 151.35 197.23 C 151.40 196.39 151.50 194.71 151.55 193.87 C 150.44 191.63 147.63 191.48 145.45 191.51 M 145.41 201.53 C 145.27 204.29 145.24 207.06 145.27 209.83 C 147.66 209.77 150.73 210.37 151.77 207.56 C 154.47 203.60 148.69 200.99 145.41 201.53 Z" />
<path fill="#13284f" opacity="0.56" d=" M 10.80 225.80 C 16.16 225.00 21.81 226.71 26.92 224.53 C 27.27 225.30 27.63 226.07 27.99 226.83 C 27.37 227.56 26.76 228.28 26.15 229.01 C 26.64 229.59 27.13 230.17 27.62 230.76 C 27.12 231.48 26.62 232.21 26.13 232.94 C 27.21 234.23 28.19 235.60 28.88 237.14 C 26.77 237.01 24.68 236.81 22.59 236.52 C 22.66 233.27 22.60 230.01 22.28 226.77 C 18.64 228.84 19.69 233.18 19.54 236.63 C 18.50 236.63 17.47 236.62 16.43 236.62 C 16.46 233.98 16.51 231.35 16.58 228.72 C 15.83 228.50 14.34 228.07 13.60 227.85 C 13.44 230.78 13.38 233.72 13.44 236.66 C 12.43 236.69 11.43 236.72 10.43 236.75 C 9.65 234.93 8.84 233.11 7.98 231.33 C 6.59 232.71 6.54 234.65 6.40 236.48 C 4.26 236.49 2.13 236.52 0.00 236.56 L 0.00 225.22 C 0.91 225.66 1.83 226.09 2.75 226.51 C 3.98 226.13 5.21 225.65 6.50 225.52 C 7.80 227.02 8.95 228.64 10.25 230.14 C 10.44 228.69 10.62 227.25 10.80 225.80 Z" />
<path fill="#13284f" opacity="0.56" d=" M 123.89 224.86 C 125.15 224.22 126.39 225.32 127.60 225.60 C 126.64 228.46 125.78 231.40 125.44 234.40 C 128.34 236.01 129.07 231.63 130.05 229.84 C 130.94 228.26 131.43 224.47 134.01 225.85 C 135.56 228.79 136.70 231.96 137.72 235.12 C 136.36 237.30 134.09 234.12 132.88 233.09 C 131.83 234.09 130.95 235.24 130.19 236.47 C 126.34 237.11 122.44 236.82 118.58 236.49 C 117.84 235.43 117.16 234.26 115.92 233.69 C 115.57 234.68 115.21 235.68 114.87 236.67 C 114.24 236.67 112.98 236.66 112.35 236.66 C 112.30 232.99 112.24 229.31 112.57 225.65 C 114.58 225.66 117.07 224.62 118.69 226.27 C 120.77 227.81 119.14 230.38 118.50 232.21 C 119.39 232.90 120.30 233.58 121.20 234.27 C 122.12 231.18 119.72 226.04 123.89 224.86 Z" />
<path fill="#13284f" opacity="0.56" d=" M 231.74 227.99 C 231.63 226.00 233.55 225.21 234.97 224.38 C 236.60 225.35 238.58 226.08 239.47 227.91 C 239.07 229.78 237.83 231.63 238.65 233.57 C 239.27 233.53 240.51 233.47 241.13 233.43 C 241.51 233.42 242.27 233.39 242.65 233.38 C 242.59 234.15 242.47 235.69 242.40 236.45 C 240.79 236.57 239.17 236.67 237.56 236.75 C 237.35 236.09 236.93 234.77 236.72 234.11 C 234.85 233.96 233.67 235.19 232.77 236.67 C 231.02 234.13 231.63 230.88 231.74 227.99 Z" />
<path fill="#13284f" opacity="0.56" d=" M 30.78 225.83 C 33.24 224.83 36.57 225.08 37.63 227.92 C 37.23 229.25 36.67 230.55 36.33 231.90 C 36.96 233.52 39.93 235.65 37.16 236.91 C 35.85 235.83 34.87 234.44 33.80 233.14 C 33.27 234.33 32.75 235.53 32.25 236.74 C 31.80 236.66 30.90 236.52 30.45 236.44 C 30.49 232.92 29.77 229.25 30.78 225.83 Z" />
<path fill="#13284f" opacity="0.56" d=" M 52.55 225.48 C 53.48 225.55 54.42 225.62 55.36 225.69 C 55.47 226.92 55.57 228.16 55.66 229.40 C 55.26 228.88 54.47 227.82 54.08 227.30 C 53.21 228.37 52.33 229.44 51.51 230.56 C 51.43 228.79 51.88 227.10 52.55 225.48 Z" />
<path fill="#13284f" opacity="0.56" d=" M 58.55 225.44 C 62.50 225.08 66.47 225.92 70.03 227.64 C 71.56 226.60 73.03 225.04 75.05 225.25 C 77.50 225.18 79.13 227.38 80.99 228.65 C 81.19 227.91 81.58 226.44 81.78 225.71 C 82.23 225.61 83.14 225.41 83.59 225.31 C 84.65 227.12 85.48 229.30 87.58 230.12 C 87.89 228.86 88.19 227.60 88.49 226.34 C 89.07 226.32 90.23 226.29 90.81 226.27 C 90.66 228.65 90.59 231.05 90.81 233.44 C 93.87 231.63 93.15 227.03 96.06 225.32 C 96.39 225.63 97.04 226.25 97.37 226.56 C 98.60 229.72 101.07 232.81 100.37 236.37 C 98.82 235.48 97.37 234.44 95.96 233.34 C 95.19 234.39 94.43 235.45 93.66 236.51 C 91.63 236.56 89.60 236.60 87.56 236.62 C 86.81 234.73 85.93 232.90 84.85 231.18 C 83.81 232.86 83.63 234.83 83.55 236.76 C 83.08 236.72 82.13 236.64 81.66 236.60 C 81.32 235.91 80.63 234.54 80.29 233.85 C 78.43 236.65 75.43 237.67 72.20 236.78 C 71.44 235.80 70.67 234.82 69.89 233.86 C 69.50 234.53 68.71 235.87 68.31 236.54 C 67.83 236.55 66.88 236.59 66.41 236.60 C 66.24 233.33 66.77 229.87 65.27 226.83 C 61.21 228.68 63.45 233.34 62.68 236.77 C 62.13 236.70 61.02 236.56 60.46 236.49 C 60.40 233.97 60.35 231.44 60.32 228.92 C 59.84 228.53 58.89 227.76 58.41 227.38 C 58.44 226.89 58.51 225.93 58.55 225.44 M 74.19 228.24 C 72.94 228.83 72.32 230.19 71.39 231.15 C 72.45 232.40 73.61 233.58 74.85 234.67 C 75.72 233.91 76.59 233.15 77.47 232.39 C 77.50 231.37 77.52 230.36 77.56 229.35 C 76.48 228.89 75.43 228.06 74.19 228.24 Z" />
<path fill="#13284f" opacity="0.56" d=" M 149.64 225.62 C 151.37 225.51 153.11 225.40 154.85 225.29 C 153.93 227.86 153.87 230.60 153.16 233.22 C 154.00 234.23 154.85 235.21 155.71 236.22 C 153.78 237.39 151.54 236.94 149.45 236.69 C 149.39 233.00 149.34 229.30 149.64 225.62 Z" />
<path fill="#13284f" opacity="0.56" d=" M 156.38 227.83 C 157.66 226.20 160.39 224.23 162.33 225.96 C 162.98 227.41 160.84 227.91 160.23 228.94 C 161.32 230.11 162.62 231.07 163.73 232.23 C 165.09 233.70 163.54 235.38 162.51 236.48 C 160.90 237.42 158.97 236.79 157.23 236.77 C 157.24 236.23 157.26 235.14 157.27 234.59 C 158.67 234.49 159.90 234.02 160.96 233.17 C 159.35 231.56 156.35 230.49 156.38 227.83 Z" />
<path fill="#13284f" opacity="0.56" d=" M 165.12 225.60 C 167.16 225.44 169.31 225.06 171.30 225.79 C 171.92 227.07 170.15 227.74 169.60 228.68 C 169.66 231.43 169.63 234.19 169.39 236.94 C 166.30 236.60 166.85 233.08 166.70 230.91 C 166.80 228.99 165.77 227.31 165.12 225.60 Z" />
<path fill="#13284f" opacity="0.56" d=" M 174.45 225.41 C 175.34 225.54 176.24 225.69 177.13 225.83 C 178.21 229.43 179.66 232.90 180.77 236.48 C 178.10 237.65 177.23 234.78 176.04 233.05 C 176.48 232.89 177.34 232.57 177.78 232.41 C 177.41 230.61 176.94 228.83 176.48 227.05 C 175.74 227.43 175.00 227.82 174.27 228.23 C 174.31 227.53 174.40 226.11 174.45 225.41 Z" />
<path fill="#13284f" opacity="0.56" d=" M 207.22 225.41 C 208.70 225.41 210.18 225.40 211.66 225.39 C 211.63 225.90 211.57 226.92 211.54 227.43 C 210.99 227.77 209.89 228.43 209.34 228.76 C 209.86 229.60 210.61 230.26 211.35 230.93 C 210.95 231.46 210.17 232.51 209.77 233.04 C 210.83 234.04 211.89 235.05 212.94 236.08 C 211.18 237.09 208.04 237.87 206.68 235.99 C 206.31 232.49 206.04 228.79 207.22 225.41 Z" />
<path fill="#13284f" opacity="0.56" d=" M 214.80 225.79 C 216.59 225.04 218.62 225.50 220.51 225.45 C 221.77 226.91 223.04 228.35 224.28 229.83 C 223.18 226.13 227.58 223.42 229.92 226.84 C 229.04 227.48 228.16 228.13 227.28 228.78 C 228.03 229.47 228.78 230.18 229.52 230.88 C 228.66 231.59 227.80 232.30 226.95 233.02 C 228.28 234.00 229.59 235.01 230.88 236.07 C 229.10 237.37 226.85 236.92 224.80 236.98 C 224.52 235.35 224.24 233.72 223.92 232.10 C 222.25 233.99 221.14 237.31 218.10 237.04 C 216.50 237.13 214.22 237.21 214.07 235.08 C 213.73 232.05 213.03 228.50 214.80 225.79 M 216.41 228.33 C 216.43 230.11 216.44 231.89 216.46 233.67 C 217.77 233.57 219.09 233.49 220.41 233.40 C 220.63 231.81 220.64 230.20 220.42 228.62 C 219.08 228.52 217.75 228.42 216.41 228.33 Z" />
<path fill="#13284f" opacity="0.56" d=" M 264.62 225.36 C 267.14 224.73 269.19 226.65 271.17 227.86 C 271.77 226.97 272.37 226.08 272.98 225.20 C 273.46 225.38 274.43 225.74 274.91 225.92 C 275.89 227.28 276.88 228.63 277.86 229.99 C 278.35 228.36 278.97 226.78 280.00 225.42 L 280.00 237.69 C 278.22 236.00 276.88 233.94 275.88 231.70 C 274.29 233.00 274.62 235.17 274.24 236.96 C 272.96 236.50 271.75 235.90 270.73 235.01 C 268.98 236.12 267.11 237.42 264.92 237.02 C 262.70 237.06 261.65 234.79 260.74 233.14 C 259.13 230.08 261.47 226.16 264.62 225.36 M 263.59 228.56 C 263.09 231.00 263.23 233.58 265.85 234.69 C 266.80 233.95 267.75 233.22 268.71 232.50 C 268.49 230.93 268.43 228.99 266.69 228.31 C 265.65 228.35 264.62 228.43 263.59 228.56 Z" />
<path fill="#13284f" opacity="0.56" d=" M 38.88 226.92 C 39.13 226.56 39.64 225.84 39.90 225.48 C 43.53 225.03 42.66 230.05 45.56 231.09 C 45.38 229.10 45.39 224.61 48.41 226.78 C 48.51 230.01 48.33 233.25 48.53 236.48 C 47.42 236.60 46.31 236.71 45.21 236.83 C 44.53 235.14 43.85 233.44 43.18 231.76 C 42.76 231.62 41.93 231.34 41.51 231.20 C 41.48 233.19 41.77 235.42 39.94 236.79 C 37.52 234.02 39.34 230.20 38.88 226.92 Z" />
<path fill="#13284f" opacity="0.56" d=" M 180.29 225.47 C 182.10 225.43 183.91 225.39 185.73 225.36 C 184.88 229.14 184.33 232.96 184.63 236.84 C 183.63 236.45 181.19 236.95 181.68 235.14 C 181.89 231.83 181.64 228.54 180.29 225.47 Z" />
<path fill="#13284f" opacity="0.56" d=" M 187.59 227.85 C 188.10 225.56 190.79 225.15 192.75 225.29 C 192.54 226.64 192.07 227.89 191.34 229.06 C 191.65 229.53 192.26 230.48 192.57 230.96 C 192.13 231.52 191.25 232.64 190.81 233.20 C 191.89 233.82 192.98 234.45 194.07 235.07 C 194.24 235.44 194.59 236.17 194.76 236.54 C 192.49 236.93 190.20 237.05 187.91 236.81 C 187.56 233.84 187.25 230.83 187.59 227.85 Z" />
<path fill="#13284f" opacity="0.56" d=" M 199.81 225.93 C 201.38 225.39 203.01 225.24 204.71 225.48 C 204.31 226.71 203.81 227.90 203.19 229.05 C 203.47 229.53 204.04 230.49 204.32 230.98 C 202.69 232.91 202.16 236.02 199.57 236.91 C 199.48 233.27 198.92 229.50 199.81 225.93 Z" />
<path fill="#13284f" opacity="0.56" d=" M 249.26 225.47 C 251.10 225.44 252.94 225.41 254.78 225.39 C 253.71 229.08 253.29 232.90 253.62 236.74 C 253.09 236.69 252.01 236.58 251.48 236.53 C 250.69 232.84 250.91 228.95 249.26 225.47 Z" />
<path fill="#13284f" opacity="0.56" d=" M 256.45 226.61 C 257.08 226.51 258.34 226.30 258.98 226.20 C 259.50 229.83 260.17 233.94 258.04 237.20 C 255.51 234.25 257.03 230.12 256.45 226.61 Z" />
<path fill="#13284f" opacity="0.56" d=" M 101.57 226.57 C 105.99 224.94 104.13 230.82 104.50 233.31 C 105.48 233.75 106.46 234.19 107.45 234.63 C 107.52 235.16 107.66 236.23 107.73 236.76 C 105.58 237.05 103.41 237.05 101.32 236.44 C 101.65 233.16 101.48 229.86 101.57 226.57 Z" />
<path fill="#13284f" opacity="0.56" d=" M 138.81 226.76 L 140.02 226.12 C 142.52 227.57 141.07 231.07 141.35 233.45 C 142.40 233.82 143.46 234.20 144.52 234.58 C 144.55 235.13 144.61 236.23 144.64 236.78 C 142.56 237.04 140.45 237.11 138.46 236.38 C 138.73 233.18 138.21 229.93 138.81 226.76 Z" />
<path fill="#13284f" opacity="0.56" d=" M 55.44 233.69 C 56.24 233.90 57.04 234.15 57.83 234.39 L 58.69 234.65 C 58.68 235.17 58.66 236.21 58.65 236.73 C 57.64 236.61 56.62 236.49 55.61 236.38 C 55.57 235.71 55.48 234.36 55.44 233.69 Z" />
</g>
</svg>
