<?xml version="1.0" encoding="UTF-8" ?>
<!DOCTYPE svg PUBLIC "-//W3C//DTD SVG 1.1//EN" "http://www.w3.org/Graphics/SVG/1.1/DTD/svg11.dtd">
<svg width="280pt" height="300pt" viewBox="0 0 280 300" version="1.1" xmlns="http://www.w3.org/2000/svg">
<g id="#ffffffff">
<path fill="#ffffff" opacity="1.00" d=" M 0.00 0.00 L 280.00 0.00 L 280.00 300.00 L 0.00 300.00 L 0.00 0.00 M 3.48 130.22 C 5.02 130.21 6.56 130.19 8.09 130.18 C 8.34 128.17 8.59 126.16 8.85 124.15 C 10.54 124.17 12.24 124.19 13.93 124.22 C 14.20 126.21 14.45 128.20 14.70 130.18 C 16.23 130.20 17.76 130.21 19.29 130.22 C 17.50 121.12 15.99 111.97 14.21 102.86 C 12.33 102.85 10.46 102.84 8.58 102.83 C 6.74 111.93 5.25 121.10 3.48 130.22 M 20.85 108.97 C 20.50 114.81 26.40 117.52 29.50 121.48 C 31.03 123.03 30.45 126.30 28.06 126.42 C 25.57 126.97 25.53 123.92 24.66 122.44 C 23.17 122.57 21.69 122.72 20.21 122.89 C 20.56 127.25 24.19 131.68 28.96 130.46 C 34.79 129.96 36.51 122.14 32.83 118.26 C 30.61 114.86 25.13 113.06 25.37 108.45 C 26.45 105.13 29.94 107.17 30.55 109.65 C 31.97 109.52 33.39 109.39 34.82 109.24 C 34.02 107.24 33.52 104.85 31.60 103.59 C 27.48 100.73 20.62 103.60 20.85 108.97 M 37.81 102.83 C 37.81 111.98 37.82 121.13 37.80 130.28 C 39.31 130.08 41.06 130.51 42.45 129.84 C 42.70 120.89 42.42 111.93 42.56 102.97 C 40.98 102.92 39.39 102.88 37.81 102.83 M 46.31 130.21 C 47.86 130.20 49.41 130.19 50.96 130.18 C 51.18 128.19 51.39 126.20 51.62 124.22 C 53.32 124.19 55.03 124.17 56.73 124.16 C 57.00 126.17 57.26 128.18 57.51 130.19 C 59.02 130.19 60.54 130.19 62.05 130.19 C 60.42 121.10 58.73 112.02 57.11 102.93 C 55.23 102.89 53.36 102.84 51.49 102.79 C 49.46 111.87 48.15 121.09 46.31 130.21 M 79.66 102.87 C 79.62 111.98 79.70 121.09 79.62 130.20 C 81.20 130.19 82.79 130.19 84.37 130.19 C 84.36 126.50 84.35 122.82 84.33 119.14 C 87.42 118.80 91.39 119.32 93.37 116.35 C 95.28 112.97 95.29 108.21 92.93 105.04 C 89.35 101.81 84.04 103.21 79.66 102.87 M 99.01 102.83 C 97.39 111.96 95.70 121.08 94.02 130.20 C 95.53 130.20 97.05 130.20 98.56 130.21 C 98.83 128.20 99.10 126.19 99.38 124.18 C 101.06 124.18 102.75 124.18 104.43 124.19 C 104.69 126.19 104.95 128.20 105.22 130.20 C 106.75 130.20 108.27 130.19 109.80 130.19 C 108.04 121.14 106.48 112.06 104.82 102.99 C 102.88 102.93 100.95 102.87 99.01 102.83 M 112.37 107.89 C 112.07 113.62 112.16 119.40 112.34 125.14 C 112.90 131.03 121.77 132.48 124.94 127.92 C 126.40 125.72 126.08 122.93 126.35 120.44 C 124.74 120.40 123.13 120.38 121.53 120.36 C 121.17 122.38 122.29 125.25 120.04 126.45 C 118.47 126.85 116.75 125.75 116.88 124.04 C 116.70 119.35 116.78 114.66 116.82 109.97 C 116.47 108.19 117.91 107.12 119.00 106.01 C 121.31 107.30 121.62 109.79 121.66 112.17 C 123.22 112.16 124.79 112.15 126.35 112.13 C 126.05 109.60 126.21 106.72 124.39 104.69 C 120.99 100.69 112.99 102.39 112.37 107.89 M 130.52 130.26 C 132.09 130.22 133.65 130.19 135.21 130.15 C 135.16 121.07 135.19 111.99 135.20 102.91 C 133.65 102.88 132.11 102.85 130.56 102.82 C 130.41 111.96 130.48 121.11 130.52 130.26 M 140.73 102.87 C 140.72 111.98 140.75 121.08 140.72 130.19 C 142.29 130.20 143.87 130.20 145.45 130.22 C 145.42 126.19 145.42 122.17 145.40 118.15 C 147.47 118.16 149.54 118.18 151.62 118.20 C 151.62 116.81 151.61 115.42 151.59 114.04 C 149.56 114.09 147.54 114.14 145.51 114.19 C 145.43 111.84 145.42 109.49 145.36 107.14 C 148.12 107.14 150.88 107.16 153.65 107.18 C 153.67 105.74 153.68 104.30 153.67 102.86 C 149.35 102.90 145.04 102.90 140.73 102.87 M 156.76 102.90 C 156.77 112.00 156.78 121.09 156.78 130.19 C 158.34 130.19 159.90 130.19 161.47 130.19 C 161.43 121.07 161.47 111.96 161.44 102.84 C 159.88 102.86 158.32 102.88 156.76 102.90 M 167.27 107.88 C 166.95 113.60 167.00 119.38 167.24 125.11 C 167.73 131.07 176.78 132.51 179.87 127.83 C 181.32 125.64 180.95 122.88 181.13 120.40 C 179.55 120.39 177.98 120.38 176.40 120.39 C 176.37 121.92 176.39 123.46 176.23 124.99 C 175.44 127.52 171.41 126.60 171.76 124.00 C 171.70 118.69 171.43 113.35 171.93 108.06 C 172.47 107.56 173.53 106.54 174.06 106.03 C 176.23 107.40 176.50 109.83 176.55 112.16 C 178.12 112.15 179.69 112.14 181.27 112.13 C 180.88 109.63 181.09 106.77 179.31 104.75 C 175.96 100.70 167.83 102.32 167.27 107.88 M 64.56 118.27 C 64.57 119.43 64.58 120.60 64.60 121.76 C 67.67 121.74 70.74 121.74 73.81 121.73 C 73.82 120.56 73.81 119.40 73.80 118.24 C 70.72 118.27 67.64 118.28 64.56 118.27 M 33.43 140.11 C 33.30 145.69 33.24 151.28 33.47 156.86 C 34.02 162.36 41.82 164.15 45.42 160.45 C 47.63 158.31 47.24 154.98 47.39 152.20 C 45.82 152.19 44.26 152.17 42.69 152.15 C 42.31 154.12 43.50 157.23 41.06 158.24 C 38.97 158.86 37.78 156.90 37.91 155.07 C 37.89 150.34 37.77 145.60 37.99 140.88 C 37.90 138.78 40.25 137.69 41.89 138.91 C 42.71 140.44 42.56 142.22 42.78 143.88 C 44.34 143.84 45.89 143.81 47.45 143.79 C 47.23 141.33 47.35 138.52 45.57 136.56 C 42.13 132.30 33.71 134.33 33.43 140.11 M 126.95 134.75 C 127.11 141.86 127.24 148.99 126.94 156.10 C 126.95 158.97 122.15 158.89 122.24 156.07 C 122.07 148.96 122.22 141.84 122.20 134.72 C 120.62 134.71 119.04 134.71 117.47 134.70 C 117.63 142.11 117.24 149.53 117.65 156.93 C 118.42 163.99 130.24 164.20 131.43 157.29 C 131.95 149.78 131.46 142.22 131.68 134.68 C 130.10 134.70 128.53 134.72 126.95 134.75 M 262.45 141.00 C 262.22 146.34 267.40 149.08 270.54 152.52 C 272.10 154.02 272.67 157.31 270.14 158.14 C 267.48 159.09 266.84 155.85 266.16 154.08 C 264.67 154.34 263.19 154.61 261.70 154.88 C 262.46 157.27 263.17 160.01 265.48 161.37 C 269.61 164.03 276.26 161.26 276.30 156.05 C 276.82 150.70 271.80 147.66 268.54 144.35 C 267.02 143.01 265.82 140.09 268.06 138.80 C 269.82 137.20 271.35 140.10 272.03 141.45 C 273.42 141.31 274.81 141.16 276.21 141.02 C 275.71 137.83 273.62 134.25 269.97 134.34 C 266.11 133.82 262.13 136.93 262.45 141.00 M 54.21 135.23 C 52.12 136.32 50.98 138.66 51.10 140.98 C 51.11 146.35 50.93 151.73 51.21 157.09 C 51.97 163.15 61.44 164.24 64.25 159.18 C 65.62 156.68 65.12 153.73 65.22 151.01 C 65.06 147.05 65.55 143.05 64.93 139.13 C 63.88 134.54 57.98 133.16 54.21 135.23 M 69.87 134.72 C 69.88 143.76 69.87 152.81 69.87 161.86 C 70.86 161.88 72.86 161.92 73.86 161.94 C 74.00 154.88 73.68 147.82 73.88 140.77 C 75.59 147.76 76.67 154.89 78.20 161.92 C 78.77 161.90 79.89 161.87 80.46 161.85 C 81.89 155.00 82.99 148.10 84.32 141.24 C 85.16 148.14 84.36 155.10 84.65 162.04 C 86.01 161.98 87.37 161.91 88.72 161.83 C 88.67 152.79 88.65 143.76 88.73 134.73 C 86.69 134.71 84.66 134.70 82.62 134.68 C 81.38 139.90 80.73 145.26 79.12 150.38 C 78.13 145.16 77.09 139.94 76.01 134.73 C 73.96 134.72 71.91 134.72 69.87 134.72 M 93.86 134.71 C 93.89 143.76 93.87 152.81 93.87 161.86 C 95.26 161.89 96.66 161.89 98.05 161.86 C 98.21 154.87 97.75 147.89 97.92 140.90 C 99.70 147.83 100.67 154.93 102.23 161.91 C 102.79 161.90 103.92 161.88 104.48 161.87 C 105.92 155.00 107.08 148.07 108.32 141.16 C 109.19 148.06 108.43 155.02 108.67 161.96 C 110.03 161.93 111.39 161.90 112.74 161.85 C 112.70 152.81 112.67 143.77 112.75 134.73 C 110.71 134.72 108.68 134.71 106.64 134.70 C 105.49 139.92 104.64 145.22 103.23 150.38 C 102.11 145.18 101.14 139.94 100.06 134.73 C 97.99 134.72 95.93 134.71 93.86 134.71 M 136.62 134.68 C 136.66 143.77 136.62 152.85 136.63 161.93 C 137.69 161.92 139.80 161.88 140.85 161.86 C 140.86 156.23 140.72 150.59 140.82 144.95 C 143.03 150.57 144.70 156.39 146.87 162.02 C 148.18 161.96 149.50 161.90 150.82 161.84 C 150.78 152.80 150.74 143.76 150.83 134.73 C 149.41 134.71 148.00 134.70 146.59 134.70 C 146.49 139.83 146.92 144.99 146.42 150.12 C 144.58 145.00 142.88 139.83 140.96 134.74 C 139.51 134.71 138.06 134.70 136.62 134.68 M 156.78 134.72 C 156.81 143.77 156.80 152.82 156.79 161.87 C 158.35 161.89 159.92 161.91 161.49 161.94 C 161.48 152.86 161.46 143.78 161.49 134.70 C 159.92 134.71 158.35 134.71 156.78 134.72 M 166.98 138.06 C 166.04 140.25 166.43 142.71 166.33 145.03 C 166.48 149.21 166.05 153.43 166.60 157.59 C 167.86 162.86 175.77 164.03 178.94 159.88 C 180.63 157.69 180.23 154.77 180.38 152.19 C 178.82 152.18 177.26 152.17 175.70 152.15 C 175.29 154.12 176.54 157.30 174.03 158.24 C 171.96 158.86 170.77 156.85 170.92 155.05 C 170.88 150.36 170.76 145.65 170.99 140.96 C 170.85 138.82 173.22 137.69 174.91 138.91 C 175.71 140.43 175.56 142.20 175.78 143.86 C 177.33 143.84 178.89 143.82 180.45 143.80 C 180.22 141.53 180.40 139.01 178.97 137.07 C 176.27 132.95 168.95 133.51 166.98 138.06 M 187.17 134.71 C 185.52 143.76 183.93 152.82 182.19 161.85 C 183.68 161.89 185.17 161.92 186.66 161.94 C 187.01 159.88 187.31 157.81 187.63 155.75 C 189.18 155.77 190.73 155.83 192.27 155.92 C 193.07 157.80 193.06 159.91 193.44 161.90 C 194.92 161.91 196.40 161.91 197.89 161.89 C 196.27 152.84 194.51 143.81 193.00 134.74 C 191.05 134.72 189.11 134.71 187.17 134.71 M 197.87 134.72 C 197.87 135.74 197.87 137.78 197.87 138.80 C 199.38 138.79 200.89 138.79 202.41 138.78 C 202.38 146.49 202.42 154.19 202.37 161.90 C 203.95 161.90 205.53 161.87 207.12 161.84 C 207.09 154.15 207.15 146.47 207.08 138.78 C 208.55 138.80 210.04 138.83 211.53 138.85 C 211.54 137.46 211.54 136.08 211.53 134.70 C 206.98 134.74 202.42 134.73 197.87 134.72 M 215.37 161.89 C 216.95 161.89 218.53 161.87 220.11 161.85 C 220.10 152.82 220.11 143.78 220.11 134.74 C 218.54 134.72 216.97 134.70 215.40 134.68 C 215.40 143.75 215.45 152.82 215.37 161.89 M 228.24 135.15 C 226.21 136.17 225.06 138.37 224.93 140.59 C 224.73 144.37 224.93 148.17 224.85 151.95 C 224.90 154.38 224.59 157.00 225.83 159.21 C 228.71 164.21 238.03 163.16 238.89 157.13 C 239.34 151.43 239.22 145.66 238.97 139.96 C 238.57 134.92 232.25 133.01 228.24 135.15 M 244.05 134.74 C 244.15 143.78 244.10 152.82 244.08 161.87 C 245.47 161.90 246.87 161.93 248.27 161.95 C 248.51 156.49 247.80 150.98 248.60 145.56 C 250.50 150.98 252.20 156.46 254.18 161.85 C 255.54 161.89 256.90 161.92 258.26 161.94 C 258.27 152.86 258.25 143.79 258.28 134.71 C 257.22 134.71 255.11 134.72 254.05 134.72 C 254.10 139.86 254.11 145.00 254.19 150.13 C 251.81 145.15 250.36 139.80 248.32 134.68 C 246.89 134.69 245.47 134.71 244.05 134.74 M 3.71 174.02 C 4.28 179.94 11.40 181.70 13.11 186.95 C 13.57 189.22 11.16 190.45 9.26 189.79 C 8.40 188.66 7.94 187.30 7.36 186.03 C 5.90 186.16 4.44 186.31 2.99 186.49 C 3.62 188.77 4.11 191.39 6.20 192.84 C 10.20 195.94 17.32 193.37 17.51 188.02 C 18.21 181.99 12.10 179.04 8.88 175.01 C 7.54 173.64 7.95 170.36 10.11 170.27 C 11.95 169.87 12.35 172.15 13.26 173.20 C 14.69 173.05 16.12 172.90 17.55 172.73 C 16.75 169.63 14.83 165.91 11.07 166.14 C 6.65 165.46 2.73 169.65 3.71 174.02 M 30.24 166.50 C 30.35 172.69 30.29 178.88 30.34 185.08 C 30.17 186.74 30.75 189.06 28.82 189.88 C 27.39 190.16 25.55 189.66 25.54 187.93 C 25.22 180.78 25.52 173.61 25.45 166.45 C 23.86 166.46 22.27 166.48 20.68 166.50 C 20.83 173.33 20.62 180.17 20.74 187.01 C 20.67 189.83 22.21 192.85 25.06 193.69 C 28.83 195.25 34.12 193.28 34.72 188.93 C 35.20 181.46 34.70 173.95 34.95 166.47 C 33.38 166.47 31.81 166.48 30.24 166.50 M 63.61 166.51 C 63.75 175.61 63.58 184.70 63.70 193.79 C 65.07 193.74 66.44 193.69 67.81 193.63 C 67.79 187.27 67.52 180.89 67.87 174.53 C 69.92 180.82 70.46 187.47 72.05 193.88 C 72.61 193.80 73.75 193.63 74.32 193.54 C 75.68 186.66 76.92 179.75 78.15 172.84 C 78.93 179.75 78.30 186.71 78.34 193.64 C 79.75 193.67 81.16 193.66 82.58 193.68 C 82.46 184.61 82.48 175.53 82.57 166.46 C 80.51 166.57 78.36 166.21 76.36 166.80 C 75.02 171.89 74.43 177.13 73.13 182.23 C 71.77 177.03 71.02 171.70 69.81 166.46 C 67.74 166.48 65.68 166.49 63.61 166.51 M 87.75 166.57 C 88.09 175.59 87.48 184.64 88.05 193.64 C 89.56 193.74 91.07 193.73 92.59 193.74 C 92.52 184.65 92.50 175.55 92.59 166.45 C 90.98 166.49 89.36 166.52 87.75 166.57 M 96.28 166.50 C 96.31 167.88 96.33 169.27 96.38 170.66 C 97.86 170.64 99.35 170.63 100.84 170.62 C 100.79 178.34 100.80 186.06 100.81 193.77 C 102.41 193.70 104.01 193.65 105.61 193.58 C 105.36 185.91 105.54 178.23 105.48 170.55 C 106.97 170.59 108.46 170.63 109.96 170.66 C 109.96 169.27 109.97 167.88 109.99 166.49 C 105.42 166.50 100.85 166.50 96.28 166.50 M 123.83 167.75 C 121.80 169.38 121.62 172.13 121.31 174.51 C 122.82 174.53 124.34 174.53 125.85 174.53 C 125.87 172.47 126.30 170.49 128.05 169.21 C 129.65 170.33 130.87 172.04 130.23 174.09 C 128.79 180.10 124.64 184.94 121.38 190.04 C 121.37 191.26 121.37 192.49 121.38 193.72 C 125.69 193.69 130.00 193.67 134.32 193.73 C 134.32 192.41 134.32 191.09 134.31 189.77 C 131.60 189.80 128.89 189.83 126.19 189.91 C 129.69 184.08 135.28 178.42 134.62 171.11 C 133.96 166.23 127.21 164.52 123.83 167.75 M 142.35 166.48 C 139.94 167.15 138.70 169.74 138.64 172.08 C 138.46 176.38 138.62 180.69 138.55 184.99 C 138.56 187.58 138.41 190.62 140.44 192.59 C 143.97 195.73 151.34 194.20 151.55 188.85 C 151.70 182.71 151.96 176.51 151.39 170.40 C 150.61 166.32 145.75 165.42 142.35 166.48 M 165.39 166.49 C 165.39 167.80 165.40 169.10 165.41 170.41 C 168.01 170.40 170.60 170.38 173.20 170.39 C 171.21 178.11 169.68 185.94 167.65 193.65 C 169.14 193.69 170.62 193.73 172.11 193.77 C 173.94 184.68 176.53 175.72 177.83 166.54 C 173.68 166.48 169.54 166.52 165.39 166.49 M 39.96 166.52 C 40.25 175.58 40.06 184.64 40.08 193.70 C 41.43 193.71 42.78 193.71 44.12 193.71 C 44.32 186.77 43.99 179.84 43.92 172.91 C 45.94 179.75 46.75 186.85 48.36 193.79 C 48.91 193.77 50.01 193.74 50.57 193.73 C 52.05 187.00 53.02 180.18 54.46 173.45 C 55.16 180.21 54.51 187.01 54.78 193.79 C 56.13 193.75 57.49 193.72 58.84 193.68 C 58.82 184.63 58.69 175.57 58.91 166.53 C 56.85 166.50 54.80 166.49 52.74 166.47 C 51.55 171.72 50.79 177.07 49.19 182.22 C 48.36 176.94 47.21 171.72 46.21 166.48 C 44.12 166.49 42.04 166.50 39.96 166.52 M 156.77 166.49 C 156.74 175.53 156.88 184.58 156.69 193.62 C 158.32 193.64 159.95 193.65 161.58 193.67 C 161.34 184.61 161.45 175.54 161.51 166.49 C 159.93 166.48 158.35 166.48 156.77 166.49 Z" />
<path fill="#ffffff" opacity="1.00" d=" M 84.36 106.57 C 86.08 106.99 88.57 106.51 89.61 108.34 C 90.10 110.07 90.20 112.04 89.53 113.73 C 88.40 115.41 86.08 115.00 84.38 115.44 C 84.34 112.48 84.35 109.52 84.36 106.57 Z" />
<path fill="#ffffff" opacity="1.00" d=" M 11.14 108.74 C 12.11 112.48 12.66 116.30 13.23 120.12 C 12.31 120.12 10.47 120.13 9.55 120.14 C 10.14 116.34 10.63 112.54 11.14 108.74 Z" />
<path fill="#ffffff" opacity="1.00" d=" M 52.38 119.96 C 52.95 116.25 53.40 112.52 54.11 108.83 C 55.03 112.55 55.51 116.36 55.97 120.17 C 54.77 120.12 53.57 120.05 52.38 119.96 Z" />
<path fill="#ffffff" opacity="1.00" d=" M 101.94 108.75 C 102.73 112.50 103.18 116.30 103.73 120.09 C 102.53 120.08 101.34 120.06 100.14 120.03 C 100.61 116.25 101.09 112.47 101.94 108.75 Z" />
<path fill="#ffffff" opacity="1.00" d=" M 231.43 138.47 C 232.53 138.31 234.29 138.62 234.28 140.08 C 234.63 145.36 234.47 150.68 234.37 155.98 C 234.61 158.96 229.47 159.04 229.63 156.06 C 229.69 150.43 229.00 144.63 230.02 139.09 C 230.38 138.94 231.08 138.63 231.43 138.47 Z" />
<path fill="#ffffff" opacity="1.00" d=" M 56.19 139.08 C 57.32 138.03 60.27 138.11 60.38 140.06 C 60.69 145.34 60.53 150.65 60.47 155.94 C 60.72 157.60 58.39 158.94 57.08 158.04 C 55.03 157.33 55.83 154.69 55.61 153.06 C 55.96 148.42 54.94 143.57 56.19 139.08 Z" />
<path fill="#ffffff" opacity="1.00" d=" M 188.20 151.77 C 188.85 148.05 189.07 144.26 190.09 140.61 C 190.98 144.28 191.28 148.04 191.90 151.75 C 190.66 151.77 189.43 151.77 188.20 151.77 Z" />
<path fill="#ffffff" opacity="1.00" d=" M 144.19 170.05 C 145.27 168.85 147.36 170.58 147.23 171.91 C 147.40 177.28 147.35 182.67 147.26 188.05 C 147.54 190.46 143.78 191.47 143.17 188.96 C 142.52 184.68 143.41 180.31 142.94 175.99 C 143.11 174.07 142.21 171.25 144.19 170.05 Z" />
</g>
<g id="#e40479ff">
<path fill="#e40479" opacity="1.00" d=" M 3.48 130.22 C 5.25 121.10 6.74 111.93 8.58 102.83 C 10.46 102.84 12.33 102.85 14.21 102.86 C 15.99 111.97 17.50 121.12 19.29 130.22 C 17.76 130.21 16.23 130.20 14.70 130.18 C 14.45 128.20 14.20 126.21 13.93 124.22 C 12.24 124.19 10.54 124.17 8.85 124.15 C 8.59 126.16 8.34 128.17 8.09 130.18 C 6.56 130.19 5.02 130.21 3.48 130.22 M 11.14 108.74 C 10.63 112.54 10.14 116.34 9.55 120.14 C 10.47 120.13 12.31 120.12 13.23 120.12 C 12.66 116.30 12.11 112.48 11.14 108.74 Z" />
<path fill="#e40479" opacity="1.00" d=" M 20.85 108.97 C 20.62 103.60 27.48 100.73 31.60 103.59 C 33.52 104.85 34.02 107.24 34.82 109.24 C 33.39 109.39 31.97 109.52 30.55 109.65 C 29.94 107.17 26.45 105.13 25.37 108.45 C 25.13 113.06 30.61 114.86 32.83 118.26 C 36.51 122.14 34.79 129.96 28.96 130.46 C 24.19 131.68 20.56 127.25 20.21 122.89 C 21.69 122.72 23.17 122.57 24.66 122.44 C 25.53 123.92 25.57 126.97 28.06 126.42 C 30.45 126.30 31.03 123.03 29.50 121.48 C 26.40 117.52 20.50 114.81 20.85 108.97 Z" />
<path fill="#e40479" opacity="1.00" d=" M 37.81 102.83 C 39.39 102.88 40.98 102.92 42.56 102.97 C 42.42 111.93 42.70 120.89 42.45 129.84 C 41.06 130.51 39.31 130.08 37.80 130.28 C 37.82 121.13 37.81 111.98 37.81 102.83 Z" />
<path fill="#e40479" opacity="1.00" d=" M 46.31 130.21 C 48.15 121.09 49.46 111.87 51.49 102.79 C 53.36 102.84 55.23 102.89 57.11 102.93 C 58.73 112.02 60.42 121.10 62.05 130.19 C 60.54 130.19 59.02 130.19 57.51 130.19 C 57.26 128.18 57.00 126.17 56.73 124.16 C 55.03 124.17 53.32 124.19 51.62 124.22 C 51.39 126.20 51.18 128.19 50.96 130.18 C 49.41 130.19 47.86 130.20 46.31 130.21 M 52.38 119.96 C 53.57 120.05 54.77 120.12 55.97 120.17 C 55.51 116.36 55.03 112.55 54.11 108.83 C 53.40 112.52 52.95 116.25 52.38 119.96 Z" />
<path fill="#e40479" opacity="1.00" d=" M 79.66 102.87 C 84.04 103.21 89.35 101.81 92.93 105.04 C 95.29 108.21 95.28 112.97 93.37 116.35 C 91.39 119.32 87.42 118.80 84.33 119.14 C 84.35 122.82 84.36 126.50 84.37 130.19 C 82.79 130.19 81.20 130.19 79.62 130.20 C 79.70 121.09 79.62 111.98 79.66 102.87 M 84.36 106.57 C 84.35 109.52 84.34 112.48 84.38 115.44 C 86.08 115.00 88.40 115.41 89.53 113.73 C 90.20 112.04 90.10 110.07 89.61 108.34 C 88.57 106.51 86.08 106.99 84.36 106.57 Z" />
<path fill="#e40479" opacity="1.00" d=" M 99.01 102.83 C 100.95 102.87 102.88 102.93 104.82 102.99 C 106.48 112.06 108.04 121.14 109.80 130.19 C 108.27 130.19 106.75 130.20 105.22 130.20 C 104.95 128.20 104.69 126.19 104.43 124.19 C 102.75 124.18 101.06 124.18 99.38 124.18 C 99.10 126.19 98.83 128.20 98.56 130.21 C 97.05 130.20 95.53 130.20 94.02 130.20 C 95.70 121.08 97.39 111.96 99.01 102.83 M 101.94 108.75 C 101.09 112.47 100.61 116.25 100.14 120.03 C 101.34 120.06 102.53 120.08 103.73 120.09 C 103.18 116.30 102.73 112.50 101.94 108.75 Z" />
<path fill="#e40479" opacity="1.00" d=" M 112.37 107.89 C 112.99 102.39 120.99 100.69 124.39 104.69 C 126.21 106.72 126.05 109.60 126.35 112.13 C 124.79 112.15 123.22 112.16 121.66 112.17 C 121.62 109.79 121.31 107.30 119.00 106.01 C 117.91 107.12 116.47 108.19 116.82 109.97 C 116.78 114.66 116.70 119.35 116.88 124.04 C 116.75 125.75 118.47 126.85 120.04 126.45 C 122.29 125.25 121.17 122.38 121.53 120.36 C 123.13 120.38 124.74 120.40 126.35 120.44 C 126.08 122.93 126.40 125.72 124.94 127.92 C 121.77 132.48 112.90 131.03 112.34 125.14 C 112.16 119.40 112.07 113.62 112.37 107.89 Z" />
<path fill="#e40479" opacity="1.00" d=" M 130.52 130.26 C 130.48 121.11 130.41 111.96 130.56 102.82 C 132.11 102.85 133.65 102.88 135.20 102.91 C 135.19 111.99 135.16 121.07 135.21 130.15 C 133.65 130.19 132.09 130.22 130.52 130.26 Z" />
<path fill="#e40479" opacity="1.00" d=" M 140.73 102.87 C 145.04 102.90 149.35 102.90 153.67 102.86 C 153.68 104.30 153.67 105.74 153.65 107.18 C 150.88 107.16 148.12 107.14 145.36 107.14 C 145.42 109.49 145.43 111.84 145.51 114.19 C 147.54 114.14 149.56 114.09 151.59 114.04 C 151.61 115.42 151.62 116.81 151.62 118.20 C 149.54 118.18 147.47 118.16 145.40 118.15 C 145.42 122.17 145.42 126.19 145.45 130.22 C 143.87 130.20 142.29 130.20 140.72 130.19 C 140.75 121.08 140.72 111.98 140.73 102.87 Z" />
<path fill="#e40479" opacity="1.00" d=" M 156.76 102.90 C 158.32 102.88 159.88 102.86 161.44 102.84 C 161.47 111.96 161.43 121.07 161.47 130.19 C 159.90 130.19 158.34 130.19 156.78 130.19 C 156.78 121.09 156.77 112.00 156.76 102.90 Z" />
<path fill="#e40479" opacity="1.00" d=" M 167.27 107.88 C 167.83 102.32 175.96 100.70 179.31 104.75 C 181.09 106.77 180.88 109.63 181.27 112.13 C 179.69 112.14 178.12 112.15 176.55 112.16 C 176.50 109.83 176.23 107.40 174.06 106.03 C 173.53 106.54 172.47 107.56 171.93 108.06 C 171.43 113.35 171.70 118.69 171.76 124.00 C 171.41 126.60 175.44 127.52 176.23 124.99 C 176.39 123.46 176.37 121.92 176.40 120.39 C 177.98 120.38 179.55 120.39 181.13 120.40 C 180.95 122.88 181.32 125.64 179.87 127.83 C 176.78 132.51 167.73 131.07 167.24 125.11 C 167.00 119.38 166.95 113.60 167.27 107.88 Z" />
<path fill="#e40479" opacity="1.00" d=" M 64.56 118.27 C 67.64 118.28 70.72 118.27 73.80 118.24 C 73.81 119.40 73.82 120.56 73.81 121.73 C 70.74 121.74 67.67 121.74 64.60 121.76 C 64.58 120.60 64.57 119.43 64.56 118.27 Z" />
<path fill="#e40479" opacity="1.00" d=" M 156.78 134.72 C 158.35 134.71 159.92 134.71 161.49 134.70 C 161.46 143.78 161.48 152.86 161.49 161.94 C 159.92 161.91 158.35 161.89 156.79 161.87 C 156.80 152.82 156.81 143.77 156.78 134.72 Z" />
<path fill="#e40479" opacity="1.00" d=" M 3.71 174.02 C 2.73 169.65 6.65 165.46 11.07 166.14 C 14.83 165.91 16.75 169.63 17.55 172.73 C 16.12 172.90 14.69 173.05 13.26 173.20 C 12.35 172.15 11.95 169.87 10.11 170.27 C 7.95 170.36 7.54 173.64 8.88 175.01 C 12.10 179.04 18.21 181.99 17.51 188.02 C 17.32 193.37 10.20 195.94 6.20 192.84 C 4.11 191.39 3.62 188.77 2.99 186.49 C 4.44 186.31 5.90 186.16 7.36 186.03 C 7.94 187.30 8.40 188.66 9.26 189.79 C 11.16 190.45 13.57 189.22 13.11 186.95 C 11.40 181.70 4.28 179.94 3.71 174.02 Z" />
<path fill="#e40479" opacity="1.00" d=" M 30.24 166.50 C 31.81 166.48 33.38 166.47 34.95 166.47 C 34.70 173.95 35.20 181.46 34.72 188.93 C 34.12 193.28 28.83 195.25 25.06 193.69 C 22.21 192.85 20.67 189.83 20.74 187.01 C 20.62 180.17 20.83 173.33 20.68 166.50 C 22.27 166.48 23.86 166.46 25.45 166.45 C 25.52 173.61 25.22 180.78 25.54 187.93 C 25.55 189.66 27.39 190.16 28.82 189.88 C 30.75 189.06 30.17 186.74 30.34 185.08 C 30.29 178.88 30.35 172.69 30.24 166.50 Z" />
<path fill="#e40479" opacity="1.00" d=" M 63.61 166.51 C 65.68 166.49 67.74 166.48 69.81 166.46 C 71.02 171.70 71.77 177.03 73.13 182.23 C 74.43 177.13 75.02 171.89 76.36 166.80 C 78.36 166.21 80.51 166.57 82.57 166.46 C 82.48 175.53 82.46 184.61 82.58 193.68 C 81.16 193.66 79.75 193.67 78.34 193.64 C 78.30 186.71 78.93 179.75 78.15 172.84 C 76.92 179.75 75.68 186.66 74.32 193.54 C 73.75 193.63 72.61 193.80 72.05 193.88 C 70.46 187.47 69.92 180.82 67.87 174.53 C 67.52 180.89 67.79 187.27 67.81 193.63 C 66.44 193.69 65.07 193.74 63.70 193.79 C 63.58 184.70 63.75 175.61 63.61 166.51 Z" />
<path fill="#e40479" opacity="1.00" d=" M 87.75 166.57 C 89.36 166.52 90.98 166.49 92.59 166.45 C 92.50 175.55 92.52 184.65 92.59 193.74 C 91.07 193.73 89.56 193.74 88.05 193.64 C 87.48 184.64 88.09 175.59 87.75 166.57 Z" />
<path fill="#e40479" opacity="1.00" d=" M 96.28 166.50 C 100.85 166.50 105.42 166.50 109.99 166.49 C 109.97 167.88 109.96 169.27 109.96 170.66 C 108.46 170.63 106.97 170.59 105.48 170.55 C 105.54 178.23 105.36 185.91 105.61 193.58 C 104.01 193.65 102.41 193.70 100.81 193.77 C 100.80 186.06 100.79 178.34 100.84 170.62 C 99.35 170.63 97.86 170.64 96.38 170.66 C 96.33 169.27 96.31 167.88 96.28 166.50 Z" />
<path fill="#e40479" opacity="1.00" d=" M 39.96 166.52 C 42.04 166.50 44.12 166.49 46.21 166.48 C 47.21 171.72 48.36 176.94 49.19 182.22 C 50.79 177.07 51.55 171.72 52.74 166.47 C 54.80 166.49 56.85 166.50 58.91 166.53 C 58.69 175.57 58.82 184.63 58.84 193.68 C 57.49 193.72 56.13 193.75 54.78 193.79 C 54.51 187.01 55.16 180.21 54.46 173.45 C 53.02 180.18 52.05 187.00 50.57 193.73 C 50.01 193.74 48.91 193.77 48.36 193.79 C 46.75 186.85 45.94 179.75 43.92 172.91 C 43.99 179.84 44.32 186.77 44.12 193.71 C 42.78 193.71 41.43 193.71 40.08 193.70 C 40.06 184.64 40.25 175.58 39.96 166.52 Z" />
<path fill="#e40479" opacity="1.00" d=" M 156.77 166.49 C 158.35 166.48 159.93 166.48 161.51 166.49 C 161.45 175.54 161.34 184.61 161.58 193.67 C 159.95 193.65 158.32 193.64 156.69 193.62 C 156.88 184.58 156.74 175.53 156.77 166.49 Z" />
</g>
<g id="#171614ff">
<path fill="#171614" opacity="1.00" d=" M 33.43 140.11 C 33.71 134.33 42.13 132.30 45.57 136.56 C 47.35 138.52 47.23 141.33 47.45 143.79 C 45.89 143.81 44.34 143.84 42.78 143.88 C 42.56 142.22 42.71 140.44 41.89 138.91 C 40.25 137.69 37.90 138.78 37.99 140.88 C 37.77 145.60 37.89 150.34 37.91 155.07 C 37.78 156.90 38.97 158.86 41.06 158.24 C 43.50 157.23 42.31 154.12 42.69 152.15 C 44.26 152.17 45.82 152.19 47.39 152.20 C 47.24 154.98 47.63 158.31 45.42 160.45 C 41.82 164.15 34.02 162.36 33.47 156.86 C 33.24 151.28 33.30 145.69 33.43 140.11 Z" />
<path fill="#171614" opacity="1.00" d=" M 126.95 134.75 C 128.53 134.72 130.10 134.70 131.68 134.68 C 131.46 142.22 131.95 149.78 131.43 157.29 C 130.24 164.20 118.42 163.99 117.65 156.93 C 117.24 149.53 117.63 142.11 117.47 134.70 C 119.04 134.71 120.62 134.71 122.20 134.72 C 122.22 141.84 122.07 148.96 122.24 156.07 C 122.15 158.89 126.95 158.97 126.94 156.10 C 127.24 148.99 127.11 141.86 126.95 134.75 Z" />
<path fill="#171614" opacity="1.00" d=" M 262.45 141.00 C 262.13 136.93 266.11 133.82 269.97 134.34 C 273.62 134.25 275.71 137.83 276.21 141.02 C 274.81 141.16 273.42 141.31 272.03 141.45 C 271.35 140.10 269.82 137.20 268.06 138.80 C 265.82 140.09 267.02 143.01 268.54 144.35 C 271.80 147.66 276.82 150.70 276.30 156.05 C 276.26 161.26 269.61 164.03 265.48 161.37 C 263.17 160.01 262.46 157.27 261.70 154.88 C 263.19 154.61 264.67 154.34 266.16 154.08 C 266.84 155.85 267.48 159.09 270.14 158.14 C 272.67 157.31 272.10 154.02 270.54 152.52 C 267.40 149.08 262.22 146.34 262.45 141.00 Z" />
<path fill="#171614" opacity="1.00" d=" M 54.21 135.23 C 57.98 133.16 63.88 134.54 64.93 139.13 C 65.55 143.05 65.06 147.05 65.22 151.01 C 65.12 153.73 65.62 156.68 64.25 159.18 C 61.44 164.24 51.97 163.15 51.21 157.09 C 50.93 151.73 51.11 146.35 51.10 140.98 C 50.98 138.66 52.12 136.32 54.21 135.23 M 56.19 139.08 C 54.94 143.57 55.96 148.42 55.61 153.06 C 55.83 154.69 55.03 157.33 57.08 158.04 C 58.39 158.94 60.72 157.60 60.47 155.94 C 60.53 150.65 60.69 145.34 60.38 140.06 C 60.27 138.11 57.32 138.03 56.19 139.08 Z" />
<path fill="#171614" opacity="1.00" d=" M 69.87 134.72 C 71.91 134.72 73.96 134.72 76.01 134.73 C 77.09 139.94 78.13 145.16 79.12 150.38 C 80.73 145.26 81.38 139.90 82.62 134.68 C 84.66 134.70 86.69 134.71 88.73 134.73 C 88.65 143.76 88.67 152.79 88.72 161.83 C 87.37 161.91 86.01 161.98 84.65 162.04 C 84.36 155.10 85.16 148.14 84.32 141.24 C 82.99 148.10 81.89 155.00 80.46 161.85 C 79.89 161.87 78.77 161.90 78.20 161.92 C 76.67 154.89 75.59 147.76 73.88 140.77 C 73.68 147.82 74.00 154.88 73.86 161.94 C 72.86 161.92 70.86 161.88 69.87 161.86 C 69.87 152.81 69.88 143.76 69.87 134.72 Z" />
<path fill="#171614" opacity="1.00" d=" M 93.86 134.71 C 95.93 134.71 97.99 134.72 100.06 134.73 C 101.14 139.94 102.11 145.18 103.23 150.38 C 104.64 145.22 105.49 139.92 106.64 134.70 C 108.68 134.71 110.71 134.72 112.75 134.73 C 112.67 143.77 112.70 152.81 112.74 161.85 C 111.39 161.90 110.03 161.93 108.67 161.96 C 108.43 155.02 109.19 148.06 108.32 141.16 C 107.08 148.07 105.92 155.00 104.48 161.87 C 103.92 161.88 102.79 161.90 102.23 161.91 C 100.67 154.93 99.70 147.83 97.92 140.90 C 97.75 147.89 98.21 154.87 98.05 161.86 C 96.66 161.89 95.26 161.89 93.87 161.86 C 93.87 152.81 93.89 143.76 93.86 134.71 Z" />
<path fill="#171614" opacity="1.00" d=" M 136.62 134.68 C 138.06 134.70 139.51 134.71 140.96 134.74 C 142.88 139.83 144.58 145.00 146.42 150.12 C 146.92 144.99 146.49 139.83 146.59 134.70 C 148.00 134.70 149.41 134.71 150.83 134.73 C 150.74 143.76 150.78 152.80 150.82 161.84 C 149.50 161.90 148.18 161.96 146.87 162.02 C 144.70 156.39 143.03 150.57 140.82 144.95 C 140.72 150.59 140.86 156.23 140.85 161.86 C 139.80 161.88 137.69 161.92 136.63 161.93 C 136.62 152.85 136.66 143.77 136.62 134.68 Z" />
<path fill="#171614" opacity="1.00" d=" M 166.98 138.06 C 168.95 133.51 176.27 132.95 178.97 137.07 C 180.40 139.01 180.22 141.53 180.45 143.80 C 178.89 143.82 177.33 143.84 175.78 143.86 C 175.56 142.20 175.71 140.43 174.91 138.91 C 173.22 137.69 170.85 138.82 170.99 140.96 C 170.76 145.65 170.88 150.36 170.92 155.05 C 170.77 156.85 171.96 158.86 174.03 158.24 C 176.54 157.30 175.29 154.12 175.70 152.15 C 177.26 152.17 178.82 152.18 180.38 152.19 C 180.23 154.77 180.63 157.69 178.94 159.88 C 175.77 164.03 167.86 162.86 166.60 157.59 C 166.05 153.43 166.48 149.21 166.33 145.03 C 166.43 142.71 166.04 140.25 166.98 138.06 Z" />
<path fill="#171614" opacity="1.00" d=" M 187.17 134.71 C 189.11 134.71 191.05 134.72 193.00 134.74 C 194.51 143.81 196.27 152.84 197.89 161.89 C 196.40 161.91 194.92 161.91 193.44 161.90 C 193.06 159.91 193.07 157.80 192.27 155.92 C 190.73 155.83 189.18 155.77 187.63 155.75 C 187.31 157.81 187.01 159.88 186.66 161.94 C 185.17 161.92 183.68 161.89 182.19 161.85 C 183.93 152.82 185.52 143.76 187.17 134.71 M 188.20 151.77 C 189.43 151.77 190.66 151.77 191.90 151.75 C 191.28 148.04 190.98 144.28 190.09 140.61 C 189.07 144.26 188.85 148.05 188.20 151.77 Z" />
<path fill="#171614" opacity="1.00" d=" M 197.87 134.72 C 202.42 134.73 206.98 134.74 211.53 134.70 C 211.54 136.08 211.54 137.46 211.53 138.85 C 210.04 138.83 208.55 138.80 207.08 138.78 C 207.15 146.47 207.09 154.15 207.12 161.84 C 205.53 161.87 203.95 161.90 202.37 161.90 C 202.42 154.19 202.38 146.49 202.41 138.78 C 200.89 138.79 199.38 138.79 197.87 138.80 C 197.87 137.78 197.87 135.74 197.87 134.72 Z" />
<path fill="#171614" opacity="1.00" d=" M 215.37 161.89 C 215.45 152.82 215.40 143.75 215.40 134.68 C 216.97 134.70 218.54 134.72 220.11 134.74 C 220.11 143.78 220.10 152.82 220.11 161.85 C 218.53 161.87 216.95 161.89 215.37 161.89 Z" />
<path fill="#171614" opacity="1.00" d=" M 228.24 135.15 C 232.25 133.01 238.57 134.92 238.97 139.96 C 239.22 145.66 239.34 151.43 238.89 157.13 C 238.03 163.16 228.71 164.21 225.83 159.21 C 224.59 157.00 224.90 154.38 224.85 151.95 C 224.93 148.17 224.73 144.37 224.93 140.59 C 225.06 138.37 226.21 136.17 228.24 135.15 M 231.43 138.47 C 231.08 138.63 230.38 138.94 230.02 139.09 C 229.00 144.63 229.69 150.43 229.63 156.06 C 229.47 159.04 234.61 158.96 234.37 155.98 C 234.47 150.68 234.63 145.36 234.28 140.08 C 234.29 138.62 232.53 138.31 231.43 138.47 Z" />
<path fill="#171614" opacity="1.00" d=" M 244.05 134.74 C 245.47 134.71 246.89 134.69 248.32 134.68 C 250.36 139.80 251.81 145.15 254.19 150.13 C 254.11 145.00 254.10 139.86 254.05 134.72 C 255.11 134.72 257.22 134.71 258.28 134.71 C 258.25 143.79 258.27 152.86 258.26 161.94 C 256.90 161.92 255.54 161.89 254.18 161.85 C 252.20 156.46 250.50 150.98 248.60 145.56 C 247.80 150.98 248.51 156.49 248.27 161.95 C 246.87 161.93 245.47 161.90 244.08 161.87 C 244.10 152.82 244.15 143.78 244.05 134.74 Z" />
<path fill="#171614" opacity="1.00" d=" M 123.83 167.75 C 127.21 164.52 133.96 166.23 134.62 171.11 C 135.28 178.42 129.69 184.08 126.19 189.91 C 128.89 189.83 131.60 189.80 134.31 189.77 C 134.32 191.09 134.32 192.41 134.32 193.73 C 130.00 193.67 125.69 193.69 121.38 193.72 C 121.37 192.49 121.37 191.26 121.38 190.04 C 124.64 184.94 128.79 180.10 130.23 174.09 C 130.87 172.04 129.65 170.33 128.05 169.21 C 126.30 170.49 125.87 172.47 125.85 174.53 C 124.34 174.53 122.82 174.53 121.31 174.51 C 121.62 172.13 121.80 169.38 123.83 167.75 Z" />
<path fill="#171614" opacity="1.00" d=" M 142.35 166.48 C 145.75 165.42 150.61 166.32 151.39 170.40 C 151.96 176.51 151.70 182.71 151.55 188.85 C 151.34 194.20 143.97 195.73 140.44 192.59 C 138.41 190.62 138.56 187.58 138.55 184.99 C 138.62 180.69 138.46 176.38 138.64 172.08 C 138.70 169.74 139.94 167.15 142.35 166.48 M 144.19 170.05 C 142.21 171.25 143.11 174.07 142.94 175.99 C 143.41 180.31 142.52 184.68 143.17 188.96 C 143.78 191.47 147.54 190.46 147.26 188.05 C 147.35 182.67 147.40 177.28 147.23 171.91 C 147.36 170.58 145.27 168.85 144.19 170.05 Z" />
<path fill="#171614" opacity="1.00" d=" M 165.39 166.49 C 169.54 166.52 173.68 166.48 177.83 166.54 C 176.53 175.72 173.94 184.68 172.11 193.77 C 170.62 193.73 169.14 193.69 167.65 193.65 C 169.68 185.94 171.21 178.11 173.20 170.39 C 170.60 170.38 168.01 170.40 165.41 170.41 C 165.40 169.10 165.39 167.80 165.39 166.49 Z" />
</g>
</svg>
