<?xml version="1.0" encoding="UTF-8" ?>
<!DOCTYPE svg PUBLIC "-//W3C//DTD SVG 1.1//EN" "http://www.w3.org/Graphics/SVG/1.1/DTD/svg11.dtd">
<svg width="280pt" height="300pt" viewBox="0 0 280 300" version="1.1" xmlns="http://www.w3.org/2000/svg">
<g id="#fdfdfdff">
<path fill="#fdfdfd" opacity="1.00" d=" M 29.07 0.00 L 248.91 0.00 C 248.97 100.00 248.91 200.00 248.93 300.00 L 29.09 300.00 C 29.04 200.00 29.08 100.00 29.07 0.00 M 140.58 56.20 C 140.57 74.19 140.64 92.17 140.54 110.15 C 149.59 119.19 158.74 128.11 167.87 137.06 C 158.86 146.04 149.54 154.71 140.54 163.71 C 140.65 179.82 140.55 195.94 140.59 212.05 C 155.69 197.01 170.89 182.10 186.02 167.10 C 187.06 165.86 189.04 164.95 188.72 163.05 C 188.67 145.14 188.75 127.22 188.68 109.31 C 179.67 100.73 170.86 91.94 161.96 83.25 C 170.87 74.48 179.98 65.86 188.66 56.87 C 188.71 41.09 188.81 25.29 188.61 9.51 C 172.53 25.00 156.50 40.55 140.58 56.20 M 85.89 109.07 C 85.90 127.36 85.89 145.66 85.90 163.95 C 101.94 179.97 118.07 195.90 134.22 211.82 C 134.24 195.75 134.14 179.68 134.26 163.62 C 125.30 154.50 115.93 145.78 106.82 136.82 C 115.33 128.33 123.92 119.94 132.44 111.46 C 133.23 110.53 134.54 109.64 134.22 108.20 C 134.20 92.79 134.21 77.38 134.21 61.97 C 118.20 77.77 101.94 93.31 85.89 109.07 M 196.46 107.44 C 195.63 108.43 194.13 109.29 194.48 110.81 C 194.48 128.37 194.56 145.92 194.45 163.47 C 210.47 179.39 226.42 195.40 242.66 211.08 C 242.43 194.94 242.92 178.73 242.42 162.65 C 233.70 153.90 224.69 145.42 215.84 136.79 C 224.61 127.80 233.69 119.10 242.63 110.27 C 242.61 94.33 242.62 78.40 242.62 62.46 C 227.35 77.57 211.80 92.40 196.46 107.44 M 32.49 160.42 C 32.53 176.52 32.52 192.62 32.49 208.73 C 48.35 192.72 64.65 177.17 80.54 161.20 C 80.57 145.27 80.68 129.34 80.59 113.41 C 64.72 129.24 48.38 144.60 32.49 160.42 M 205.07 223.11 C 196.01 226.90 189.66 235.59 187.48 245.01 C 184.34 257.76 187.25 272.62 197.30 281.62 C 204.88 288.60 215.99 290.94 225.94 288.83 C 234.57 286.80 241.43 280.37 245.81 272.87 C 241.49 270.67 237.04 268.75 232.81 266.40 C 230.93 269.53 228.49 272.46 225.15 274.07 C 218.77 277.63 209.95 275.03 206.24 268.82 C 202.23 262.19 201.99 253.83 203.82 246.47 C 205.15 240.99 209.37 236.05 215.05 234.93 C 222.17 232.94 229.76 237.66 232.23 244.39 C 236.66 242.21 241.05 239.95 245.49 237.77 C 242.06 231.73 237.33 226.11 230.88 223.19 C 222.79 219.61 213.20 219.73 205.07 223.11 M 74.95 223.86 C 67.28 227.65 61.81 235.04 59.44 243.15 C 55.57 255.83 58.07 270.85 67.53 280.48 C 75.05 288.20 86.66 291.03 97.07 288.91 C 105.81 286.93 112.87 280.50 117.26 272.89 C 112.90 270.65 108.43 268.66 104.07 266.43 C 100.67 274.15 90.59 278.28 83.06 273.89 C 77.29 270.85 74.75 264.06 74.39 257.88 C 74.10 252.07 74.43 245.78 77.83 240.82 C 81.51 235.20 89.50 232.84 95.59 235.75 C 99.41 237.37 102.15 240.77 103.81 244.49 C 108.08 242.14 112.45 239.97 116.87 237.94 C 113.54 231.42 108.24 225.61 101.38 222.77 C 92.93 219.48 83.09 219.86 74.95 223.86 M 138.80 222.86 C 132.81 225.09 127.76 230.00 126.11 236.26 C 124.59 242.15 124.83 249.11 129.07 253.87 C 134.03 259.57 141.91 260.84 149.00 261.80 C 153.43 262.79 158.24 262.65 162.35 264.76 C 165.14 266.14 165.49 270.27 163.36 272.38 C 160.45 275.36 156.05 276.24 152.04 276.27 C 145.13 276.21 138.83 272.65 133.93 268.02 C 129.65 270.67 125.52 273.55 121.18 276.09 C 126.79 282.56 134.37 287.49 142.89 288.97 C 148.21 289.79 153.69 289.69 159.02 289.04 C 167.09 287.90 175.73 283.89 178.92 275.87 C 181.64 268.92 181.83 259.54 175.54 254.41 C 167.59 247.94 156.76 248.07 147.23 245.83 C 144.44 245.21 141.24 243.09 141.72 239.83 C 142.68 236.28 146.46 234.34 149.91 234.13 C 156.96 233.56 163.85 236.99 168.36 242.31 C 172.55 239.23 176.82 236.26 180.98 233.14 C 170.52 221.87 153.26 217.42 138.80 222.86 M 34.34 287.78 C 39.85 287.76 45.36 287.77 50.87 287.76 C 50.81 270.17 50.85 252.58 50.84 234.99 C 50.90 230.83 50.62 226.67 51.15 222.53 C 45.56 222.40 39.97 222.62 34.38 222.39 C 34.30 244.18 34.39 265.98 34.34 287.78 Z" />
</g>
<g id="#df1d38ff">
<path fill="#df1d38" opacity="1.00" d=" M 140.58 56.20 C 156.50 40.55 172.53 25.00 188.61 9.51 C 188.81 25.29 188.71 41.09 188.66 56.87 C 179.98 65.86 170.87 74.48 161.96 83.25 C 170.86 91.94 179.67 100.73 188.68 109.31 C 188.75 127.22 188.67 145.14 188.72 163.05 C 189.04 164.95 187.06 165.86 186.02 167.10 C 170.89 182.10 155.69 197.01 140.59 212.05 C 140.55 195.94 140.65 179.82 140.54 163.71 C 149.54 154.71 158.86 146.04 167.87 137.06 C 158.74 128.11 149.59 119.19 140.54 110.15 C 140.64 92.17 140.57 74.19 140.58 56.20 Z" />
<path fill="#df1d38" opacity="1.00" d=" M 85.89 109.07 C 101.94 93.31 118.20 77.77 134.21 61.97 C 134.21 77.38 134.20 92.79 134.22 108.20 C 134.54 109.64 133.23 110.53 132.44 111.46 C 123.92 119.94 115.33 128.33 106.82 136.82 C 115.93 145.78 125.30 154.50 134.26 163.62 C 134.14 179.68 134.24 195.75 134.22 211.82 C 118.07 195.90 101.94 179.97 85.90 163.95 C 85.89 145.66 85.90 127.36 85.89 109.07 Z" />
<path fill="#df1d38" opacity="1.00" d=" M 196.46 107.44 C 211.80 92.40 227.35 77.57 242.62 62.46 C 242.62 78.40 242.61 94.33 242.63 110.27 C 233.69 119.10 224.61 127.80 215.84 136.79 C 224.69 145.42 233.70 153.90 242.42 162.65 C 242.92 178.73 242.43 194.94 242.66 211.08 C 226.42 195.40 210.47 179.39 194.45 163.47 C 194.56 145.92 194.48 128.37 194.48 110.81 C 194.13 109.29 195.63 108.43 196.46 107.44 Z" />
<path fill="#df1d38" opacity="1.00" d=" M 32.49 160.42 C 48.38 144.60 64.72 129.24 80.59 113.41 C 80.68 129.34 80.57 145.27 80.54 161.20 C 64.65 177.17 48.35 192.72 32.49 208.73 C 32.52 192.62 32.53 176.52 32.49 160.42 Z" />
</g>
<g id="#221e1fff">
<path fill="#221e1f" opacity="1.00" d=" M 205.07 223.11 C 213.20 219.73 222.79 219.61 230.88 223.19 C 237.33 226.11 242.06 231.73 245.49 237.77 C 241.05 239.95 236.66 242.21 232.23 244.39 C 229.76 237.66 222.17 232.94 215.05 234.93 C 209.37 236.05 205.15 240.99 203.82 246.47 C 201.99 253.83 202.23 262.19 206.24 268.82 C 209.95 275.03 218.77 277.63 225.15 274.07 C 228.49 272.46 230.93 269.53 232.81 266.40 C 237.04 268.75 241.49 270.67 245.81 272.87 C 241.43 280.37 234.57 286.80 225.94 288.83 C 215.99 290.94 204.88 288.60 197.30 281.62 C 187.25 272.62 184.34 257.76 187.48 245.01 C 189.66 235.59 196.01 226.90 205.07 223.11 Z" />
<path fill="#221e1f" opacity="1.00" d=" M 74.95 223.86 C 83.09 219.86 92.93 219.48 101.38 222.77 C 108.24 225.61 113.54 231.42 116.87 237.94 C 112.45 239.97 108.08 242.14 103.81 244.49 C 102.15 240.77 99.41 237.37 95.59 235.75 C 89.50 232.84 81.51 235.20 77.83 240.82 C 74.43 245.78 74.10 252.07 74.39 257.88 C 74.75 264.06 77.29 270.85 83.06 273.89 C 90.59 278.28 100.67 274.15 104.07 266.43 C 108.43 268.66 112.90 270.65 117.26 272.89 C 112.87 280.50 105.81 286.93 97.07 288.91 C 86.66 291.03 75.05 288.20 67.53 280.48 C 58.07 270.85 55.57 255.83 59.44 243.15 C 61.81 235.04 67.28 227.65 74.95 223.86 Z" />
<path fill="#221e1f" opacity="1.00" d=" M 138.80 222.86 C 153.26 217.42 170.52 221.87 180.98 233.14 C 176.82 236.26 172.55 239.23 168.36 242.31 C 163.85 236.99 156.96 233.56 149.91 234.13 C 146.46 234.34 142.68 236.28 141.72 239.83 C 141.24 243.09 144.44 245.21 147.23 245.83 C 156.76 248.07 167.59 247.94 175.54 254.41 C 181.83 259.54 181.64 268.92 178.92 275.87 C 175.73 283.89 167.09 287.90 159.02 289.04 C 153.69 289.69 148.21 289.79 142.89 288.97 C 134.37 287.49 126.79 282.56 121.18 276.09 C 125.52 273.55 129.65 270.67 133.93 268.02 C 138.83 272.65 145.13 276.21 152.04 276.27 C 156.05 276.24 160.45 275.36 163.36 272.38 C 165.49 270.27 165.14 266.14 162.35 264.76 C 158.24 262.65 153.43 262.79 149.00 261.80 C 141.91 260.84 134.03 259.57 129.07 253.87 C 124.83 249.11 124.59 242.15 126.11 236.26 C 127.76 230.00 132.81 225.09 138.80 222.86 Z" />
<path fill="#221e1f" opacity="1.00" d=" M 34.34 287.78 C 34.39 265.98 34.30 244.18 34.38 222.39 C 39.97 222.62 45.56 222.40 51.15 222.53 C 50.62 226.67 50.90 230.83 50.84 234.99 C 50.85 252.58 50.81 270.17 50.87 287.76 C 45.36 287.77 39.85 287.76 34.34 287.78 Z" />
</g>
</svg>
