<?xml version="1.0" encoding="UTF-8" ?>
<!DOCTYPE svg PUBLIC "-//W3C//DTD SVG 1.1//EN" "http://www.w3.org/Graphics/SVG/1.1/DTD/svg11.dtd">
<svg width="280pt" height="300pt" viewBox="0 0 280 300" version="1.1" xmlns="http://www.w3.org/2000/svg">
<g id="#ffffffff">
<path fill="#ffffff" opacity="1.00" d=" M 42.45 31.06 C 106.83 31.14 171.20 31.05 235.57 31.10 C 235.55 110.03 235.55 188.97 235.57 267.90 C 171.20 267.95 106.83 267.86 42.45 267.94 C 42.46 188.98 42.46 110.02 42.45 31.06 M 50.31 149.04 C 58.85 160.35 67.16 171.83 75.77 183.10 C 63.19 192.54 53.74 205.41 46.19 219.06 C 59.49 228.00 72.93 236.74 86.20 245.73 C 90.65 236.57 95.97 227.60 104.03 221.14 C 114.94 235.98 125.99 250.72 136.99 265.50 C 147.96 250.54 159.18 235.76 170.15 220.79 C 178.63 227.10 183.93 236.45 188.58 245.72 C 201.85 236.72 215.30 227.99 228.60 219.04 C 220.83 205.28 211.36 192.13 198.46 182.73 C 206.91 171.55 215.16 160.23 223.61 149.05 C 194.65 110.31 165.84 71.47 136.99 32.65 C 108.04 71.41 79.30 110.32 50.31 149.04 Z" />
</g>
<g id="#1f1200ff">
<path fill="#1f1200" opacity="1.00" d=" M 50.31 149.04 C 79.30 110.32 108.04 71.41 136.99 32.65 C 165.84 71.47 194.65 110.31 223.61 149.05 C 215.16 160.23 206.91 171.55 198.46 182.73 C 211.36 192.13 220.83 205.28 228.60 219.04 C 215.30 227.99 201.85 236.72 188.58 245.72 C 183.93 236.45 178.63 227.10 170.15 220.79 C 159.18 235.76 147.96 250.54 136.99 265.50 C 125.99 250.72 114.94 235.98 104.03 221.14 C 95.97 227.60 90.65 236.57 86.20 245.73 C 72.93 236.74 59.49 228.00 46.19 219.06 C 53.74 205.41 63.19 192.54 75.77 183.10 C 67.16 171.83 58.85 160.35 50.31 149.04 M 55.31 148.97 C 64.82 160.51 73.16 172.97 82.39 184.73 C 70.37 193.14 60.49 204.38 53.27 217.11 C 63.75 223.43 73.65 230.68 84.03 237.16 C 87.76 229.03 93.82 222.25 100.57 216.50 C 101.79 215.46 103.25 214.80 104.67 214.10 C 107.20 218.83 110.78 222.84 113.88 227.18 C 121.53 237.60 129.42 247.83 136.93 258.35 C 147.09 244.13 157.81 230.32 168.08 216.17 C 168.80 215.16 169.96 213.43 171.36 214.56 C 179.76 220.29 186.29 228.47 190.78 237.55 C 200.52 230.37 210.75 223.82 220.98 217.36 C 214.17 204.18 203.78 193.06 191.79 184.41 C 198.84 174.91 205.91 165.42 212.98 155.94 C 214.62 153.66 216.57 151.57 217.82 149.03 C 217.46 148.15 217.00 147.32 216.45 146.55 C 191.25 112.73 166.10 78.87 140.90 45.05 C 139.51 43.18 138.22 41.25 136.94 39.32 C 109.70 75.84 82.54 112.43 55.31 148.97 Z" />
<path fill="#1f1200" opacity="1.00" d=" M 136.29 48.06 C 138.23 49.71 139.76 51.75 141.20 53.83 C 164.61 85.58 188.44 117.03 211.70 148.89 C 203.51 159.75 195.45 170.71 187.32 181.61 C 179.11 176.49 170.09 172.68 160.71 170.31 C 156.95 169.34 153.06 168.92 149.35 167.76 C 147.65 167.51 145.96 167.26 144.27 166.99 C 144.78 166.89 145.80 166.68 146.31 166.58 C 146.77 164.08 147.36 161.60 147.83 159.10 C 148.78 159.64 150.69 160.72 151.65 161.25 C 150.98 159.84 149.64 157.00 148.97 155.58 C 149.48 155.56 150.50 155.51 151.01 155.49 C 150.74 154.98 150.20 153.97 149.93 153.46 L 151.61 153.77 C 151.55 152.91 151.44 151.20 151.39 150.34 L 152.66 150.79 C 152.60 149.97 152.47 148.33 152.41 147.51 C 152.73 147.55 153.37 147.64 153.69 147.68 C 153.61 146.87 153.46 145.24 153.38 144.42 L 154.57 144.76 C 154.53 143.26 154.50 141.76 154.46 140.26 L 155.53 140.80 C 155.51 138.63 155.51 136.46 155.50 134.29 L 156.56 134.83 C 156.53 132.99 156.51 131.16 156.48 129.33 L 157.62 129.81 C 157.54 128.34 157.46 126.87 157.38 125.40 L 158.60 125.73 C 158.54 123.95 158.49 122.17 158.45 120.39 L 159.52 120.84 C 159.54 118.08 159.60 115.32 159.61 112.56 C 159.76 112.58 160.06 112.61 160.21 112.62 C 161.45 110.52 162.12 107.30 165.09 107.18 C 164.84 106.75 164.34 105.89 164.09 105.46 C 164.66 105.50 165.80 105.58 166.37 105.62 C 166.60 103.87 166.84 102.13 167.08 100.38 C 165.62 101.10 164.19 101.87 162.77 102.66 C 154.45 89.54 145.02 77.14 136.92 63.88 C 128.18 76.68 119.45 89.50 110.77 102.34 C 109.43 101.65 108.08 100.99 106.71 100.35 C 105.48 105.50 110.80 108.57 111.46 113.32 C 112.92 121.18 114.32 129.06 115.20 137.01 C 115.53 148.04 121.05 157.89 123.92 168.33 C 110.57 170.15 97.84 175.11 86.30 181.98 C 81.45 174.79 76.02 168.03 70.93 161.02 C 68.01 157.12 65.27 153.08 61.93 149.51 C 63.85 146.01 66.36 142.90 68.76 139.74 C 89.23 112.22 109.70 84.70 130.17 57.19 C 132.40 54.28 134.76 51.42 136.29 48.06 Z" />
<path fill="#1f1200" opacity="1.00" d=" M 113.85 105.38 C 129.15 105.38 144.45 105.61 159.74 105.26 C 158.50 106.51 157.09 107.61 156.08 109.05 C 156.75 117.02 152.61 124.24 151.12 131.89 C 149.68 139.74 147.25 147.51 143.03 154.33 C 142.52 150.85 141.50 143.87 140.99 140.39 C 142.10 145.38 141.30 149.77 138.59 153.56 C 138.40 149.48 138.49 145.39 138.48 141.31 L 139.93 141.66 L 139.16 139.14 C 139.81 139.78 141.11 141.06 141.76 141.70 C 141.49 139.76 142.25 137.07 140.00 136.07 C 136.36 133.32 130.98 136.76 130.74 140.98 C 130.47 145.44 132.86 149.87 131.04 154.27 C 128.83 151.39 126.88 148.21 126.28 144.56 C 126.32 146.60 126.39 150.68 126.43 152.72 C 126.00 152.56 125.14 152.24 124.72 152.07 C 124.67 150.76 124.63 149.44 124.59 148.12 L 123.40 148.70 C 123.48 147.82 123.64 146.05 123.71 145.17 L 122.45 145.74 C 122.48 144.70 122.53 142.63 122.56 141.59 L 121.10 142.91 C 121.52 141.25 121.93 139.59 122.41 137.95 L 120.76 138.86 C 120.59 134.57 119.56 130.39 119.33 126.11 L 118.33 126.79 C 118.45 125.64 118.57 124.50 118.69 123.36 L 117.55 123.37 C 117.55 121.24 117.55 119.11 117.57 116.98 L 116.26 117.84 C 116.41 116.81 116.72 114.75 116.87 113.72 L 114.99 115.99 L 115.94 113.19 L 114.47 113.81 C 114.55 112.38 114.63 110.96 114.71 109.54 C 115.58 109.53 117.33 109.51 118.20 109.51 C 116.76 108.12 115.31 106.75 113.85 105.38 Z" />
<path fill="#1f1200" opacity="1.00" d=" M 90.50 182.42 C 101.66 175.97 114.16 171.75 126.99 170.45 C 137.43 169.94 148.09 169.61 158.30 172.23 C 183.13 177.74 205.11 194.19 217.88 216.13 C 209.12 222.12 200.30 228.02 191.36 233.74 C 184.59 221.18 173.45 210.99 160.15 205.74 C 143.43 198.91 123.70 200.10 107.89 208.81 C 97.37 214.46 88.77 223.32 82.94 233.70 C 74.06 227.87 65.31 221.86 56.35 216.15 C 65.06 202.58 76.42 190.48 90.50 182.42 M 132.29 178.93 C 131.99 180.25 131.69 181.57 131.39 182.89 C 132.96 181.53 134.69 180.32 136.86 180.43 C 136.83 183.82 136.77 187.21 136.68 190.60 C 135.64 191.22 134.59 191.84 133.56 192.48 C 136.58 192.61 139.60 192.66 142.63 192.66 C 141.92 192.18 140.51 191.23 139.80 190.75 C 139.77 187.21 139.82 183.66 140.04 180.13 C 141.99 180.70 143.78 181.66 145.47 182.78 C 145.18 181.60 144.85 180.42 144.50 179.26 C 140.45 178.86 136.36 179.13 132.29 178.93 M 121.11 181.11 C 119.46 182.60 119.62 185.35 121.16 186.85 C 122.91 187.88 124.94 188.26 126.81 189.02 C 128.44 189.07 128.46 191.96 126.95 192.16 C 124.36 193.81 122.30 190.63 120.22 189.49 C 120.86 190.98 121.51 192.46 122.18 193.94 C 124.33 193.78 126.93 194.36 128.58 192.59 C 131.01 190.49 129.76 185.88 126.54 185.40 C 124.87 184.47 121.14 184.81 122.00 182.00 C 124.41 179.58 126.77 182.68 128.65 184.14 C 128.33 182.78 128.01 181.42 127.70 180.06 C 125.51 180.15 122.77 179.19 121.11 181.11 M 148.59 179.47 C 149.22 180.92 150.14 182.40 149.60 184.04 C 149.01 187.22 148.73 190.78 146.15 193.08 C 149.24 193.47 152.27 194.25 155.27 195.11 C 156.26 193.86 157.21 192.59 158.14 191.30 C 155.93 192.19 153.64 193.55 151.19 192.69 C 150.90 190.10 152.08 187.69 153.36 185.53 L 151.94 185.96 C 152.49 184.54 153.08 183.15 153.72 181.78 C 155.73 182.07 156.97 183.62 158.16 185.11 C 158.35 183.97 158.55 182.83 158.74 181.69 C 155.35 181.01 151.92 180.45 148.59 179.47 M 161.96 182.51 C 163.42 187.75 162.63 193.23 163.23 198.57 C 167.42 195.26 170.97 191.21 175.22 187.97 C 173.59 187.25 171.96 186.52 170.33 185.79 C 170.87 186.78 171.41 187.77 171.96 188.77 C 169.99 190.77 168.01 192.76 165.96 194.68 C 166.17 191.33 164.85 187.41 167.38 184.65 C 165.56 183.98 163.75 183.26 161.96 182.51 M 96.82 189.14 C 98.01 189.87 99.59 190.28 100.15 191.72 C 101.63 194.74 103.71 197.87 103.06 201.40 C 105.73 199.90 108.72 198.99 111.24 197.24 C 112.36 196.04 111.61 194.36 111.55 192.95 C 110.28 195.05 108.85 197.06 106.81 198.48 C 105.98 196.86 105.16 195.22 104.49 193.53 C 105.81 191.89 107.54 192.92 109.11 193.48 C 108.33 192.03 107.58 190.57 106.84 189.09 C 106.10 190.18 105.32 191.24 104.50 192.27 C 103.10 191.35 102.61 189.62 101.72 188.28 C 103.80 187.20 106.04 186.88 108.18 188.05 C 107.45 186.96 106.73 185.87 106.01 184.78 C 103.01 186.36 99.98 187.89 96.82 189.14 M 153.49 188.00 C 154.12 188.49 155.36 189.46 155.99 189.95 C 156.15 188.26 156.35 186.57 156.54 184.88 C 155.52 185.91 154.51 186.96 153.49 188.00 M 177.54 189.53 C 177.64 190.82 178.34 192.27 177.49 193.48 C 175.80 196.44 174.23 199.83 170.98 201.37 C 172.84 202.49 174.64 203.69 176.39 204.97 C 175.47 200.08 179.36 195.66 182.90 192.76 C 181.08 191.74 179.29 190.66 177.54 189.53 M 87.72 195.40 C 89.73 195.89 91.35 197.12 92.72 198.63 C 91.08 199.90 89.43 201.14 87.76 202.36 C 86.83 200.64 86.00 198.87 85.40 197.01 C 83.74 198.47 82.03 199.87 80.34 201.30 C 81.05 201.23 82.47 201.07 83.18 201.00 C 85.47 204.27 89.14 207.07 89.21 211.39 C 90.88 209.99 92.63 208.70 94.44 207.49 C 91.79 207.30 90.17 205.34 88.74 203.36 C 90.24 202.20 91.75 201.06 93.26 199.92 C 94.19 201.07 95.12 202.23 96.05 203.38 C 96.04 204.10 96.02 205.54 96.01 206.25 C 97.80 204.82 99.62 203.41 101.49 202.06 C 100.16 201.71 98.43 201.93 97.64 200.54 C 95.50 197.91 93.14 195.25 92.42 191.82 C 90.91 193.08 89.33 194.26 87.72 195.40 M 187.13 195.48 C 187.17 197.06 187.32 198.83 186.00 199.99 C 183.84 202.41 181.87 205.48 178.44 206.12 C 181.11 208.01 183.11 210.80 186.04 212.29 C 187.26 211.85 188.44 211.33 189.60 210.75 C 187.13 210.35 184.67 209.77 182.62 208.27 C 184.00 206.79 185.40 205.35 186.83 203.92 C 187.43 205.35 187.98 206.79 188.53 208.24 C 189.50 206.90 190.49 205.57 191.46 204.23 C 190.85 204.36 189.65 204.64 189.05 204.77 C 188.57 204.39 187.60 203.61 187.12 203.23 C 188.20 202.08 189.28 200.94 190.37 199.80 C 191.86 201.35 193.15 203.09 192.76 205.39 C 193.51 204.43 194.26 203.49 195.02 202.55 C 192.34 200.24 189.63 197.97 187.13 195.48 M 78.18 203.13 C 75.55 206.47 72.82 209.73 69.98 212.90 C 70.98 213.90 71.98 214.90 72.97 215.92 C 72.25 213.80 72.57 211.79 73.96 210.04 C 76.82 213.12 83.04 215.00 81.71 220.19 C 83.57 217.80 85.54 215.50 87.45 213.16 C 86.32 213.55 85.20 213.95 84.07 214.35 C 81.38 212.20 78.75 209.98 76.11 207.77 C 76.64 207.19 77.70 206.03 78.22 205.45 C 79.01 205.50 80.57 205.61 81.35 205.67 C 80.31 204.81 79.24 203.96 78.18 203.13 M 194.17 211.01 C 194.31 213.31 195.15 215.49 195.76 217.70 C 194.73 217.94 193.43 219.80 192.54 218.51 C 189.91 216.92 191.56 213.82 191.81 211.45 C 190.72 212.65 189.66 213.86 188.60 215.07 C 189.72 216.75 190.55 218.79 192.34 219.89 C 194.71 221.21 197.66 219.37 198.50 217.04 C 198.80 214.10 196.19 210.87 198.91 208.41 C 201.46 210.29 201.40 213.16 200.28 215.80 C 201.41 214.90 202.53 213.98 203.66 213.08 C 202.53 211.32 201.72 209.22 199.94 207.99 C 197.56 207.11 195.02 208.78 194.17 211.01 M 204.17 215.55 C 203.25 215.85 201.63 218.07 203.42 218.25 C 205.35 218.53 207.00 214.44 204.17 215.55 M 204.39 219.53 C 204.91 220.45 205.42 221.36 205.94 222.28 C 206.65 221.69 208.08 220.53 208.79 219.95 C 208.07 220.09 206.61 220.37 205.88 220.50 C 206.23 219.63 206.91 217.88 207.26 217.01 C 206.29 217.84 205.35 218.69 204.39 219.53 Z" />
<path fill="#1f1200" opacity="1.00" d=" M 129.56 203.85 C 133.84 203.40 138.15 203.65 142.45 203.60 L 142.11 204.50 C 150.46 203.99 158.29 207.46 165.76 210.73 C 159.05 219.37 152.67 228.26 146.10 237.01 C 145.22 238.19 144.05 239.07 142.90 239.98 C 141.39 242.46 139.94 244.99 138.13 247.28 C 138.53 246.16 138.96 245.05 139.39 243.94 C 139.50 240.94 139.55 237.93 139.64 234.93 L 142.30 237.09 C 139.87 234.24 140.62 230.53 140.48 227.15 L 141.52 228.01 C 141.44 220.05 141.87 212.09 141.86 204.13 C 136.81 204.05 131.75 204.05 126.72 204.56 C 126.68 216.53 128.94 228.32 129.79 240.23 C 122.68 230.44 115.34 220.82 108.19 211.06 C 115.04 207.92 122.15 205.26 129.56 203.85 Z" />
</g>
<g id="#dfba19ff">
<path fill="#dfba19" opacity="1.00" d=" M 55.31 148.97 C 82.54 112.43 109.70 75.84 136.94 39.32 C 138.22 41.25 139.51 43.18 140.90 45.05 C 166.10 78.87 191.25 112.73 216.45 146.55 C 217.00 147.32 217.46 148.15 217.82 149.03 C 216.57 151.57 214.62 153.66 212.98 155.94 C 205.91 165.42 198.84 174.91 191.79 184.41 C 203.78 193.06 214.17 204.18 220.98 217.36 C 210.75 223.82 200.52 230.37 190.78 237.55 C 186.29 228.47 179.76 220.29 171.36 214.56 C 169.96 213.43 168.80 215.16 168.08 216.17 C 157.81 230.32 147.09 244.13 136.93 258.35 C 129.42 247.83 121.53 237.60 113.88 227.18 C 110.78 222.84 107.20 218.83 104.67 214.10 C 103.25 214.80 101.79 215.46 100.57 216.50 C 93.82 222.25 87.76 229.03 84.03 237.16 C 73.65 230.68 63.75 223.43 53.27 217.11 C 60.49 204.38 70.37 193.14 82.39 184.73 C 73.16 172.97 64.82 160.51 55.31 148.97 M 136.29 48.06 C 134.76 51.42 132.40 54.28 130.17 57.19 C 109.70 84.70 89.23 112.22 68.76 139.74 C 66.36 142.90 63.85 146.01 61.93 149.51 C 65.27 153.08 68.01 157.12 70.93 161.02 C 76.02 168.03 81.45 174.79 86.30 181.98 C 97.84 175.11 110.57 170.15 123.92 168.33 C 121.05 157.89 115.53 148.04 115.20 137.01 C 114.32 129.06 112.92 121.18 111.46 113.32 C 110.80 108.57 105.48 105.50 106.71 100.35 C 108.08 100.99 109.43 101.65 110.77 102.34 C 119.45 89.50 128.18 76.68 136.92 63.88 C 145.02 77.14 154.45 89.54 162.77 102.66 C 164.19 101.87 165.62 101.10 167.08 100.38 C 166.84 102.13 166.60 103.87 166.37 105.62 C 165.80 105.58 164.66 105.50 164.09 105.46 C 164.34 105.89 164.84 106.75 165.09 107.18 C 162.12 107.30 161.45 110.52 160.21 112.62 C 160.06 112.61 159.76 112.58 159.61 112.56 C 159.60 115.32 159.54 118.08 159.52 120.84 L 158.45 120.39 C 158.49 122.17 158.54 123.95 158.60 125.73 L 157.38 125.40 C 157.46 126.87 157.54 128.34 157.62 129.81 L 156.48 129.33 C 156.51 131.16 156.53 132.99 156.56 134.83 L 155.50 134.29 C 155.51 136.46 155.51 138.63 155.53 140.80 L 154.46 140.26 C 154.50 141.76 154.53 143.26 154.57 144.76 L 153.38 144.42 C 153.46 145.24 153.61 146.87 153.69 147.68 C 153.37 147.64 152.73 147.55 152.41 147.51 C 152.47 148.33 152.60 149.97 152.66 150.79 L 151.39 150.34 C 151.44 151.20 151.55 152.91 151.61 153.77 L 149.93 153.46 C 150.20 153.97 150.74 154.98 151.01 155.49 C 150.50 155.51 149.48 155.56 148.97 155.58 C 149.64 157.00 150.98 159.84 151.65 161.25 C 150.69 160.72 148.78 159.64 147.83 159.10 C 147.36 161.60 146.77 164.08 146.31 166.58 C 145.80 166.68 144.78 166.89 144.27 166.99 C 145.96 167.26 147.65 167.51 149.35 167.76 C 153.06 168.92 156.95 169.34 160.71 170.31 C 170.09 172.68 179.11 176.49 187.32 181.61 C 195.45 170.71 203.51 159.75 211.70 148.89 C 188.44 117.03 164.61 85.58 141.20 53.83 C 139.76 51.75 138.23 49.71 136.29 48.06 M 113.85 105.38 C 115.31 106.75 116.76 108.12 118.20 109.51 C 117.33 109.51 115.58 109.53 114.71 109.54 C 114.63 110.96 114.55 112.38 114.47 113.81 L 115.94 113.19 L 114.99 115.99 L 116.87 113.72 C 116.72 114.75 116.41 116.81 116.26 117.84 L 117.57 116.98 C 117.55 119.11 117.55 121.24 117.55 123.37 L 118.69 123.36 C 118.57 124.50 118.45 125.64 118.33 126.79 L 119.33 126.11 C 119.56 130.39 120.59 134.57 120.76 138.86 L 122.41 137.95 C 121.93 139.59 121.52 141.25 121.10 142.91 L 122.56 141.59 C 122.53 142.63 122.48 144.70 122.45 145.74 L 123.71 145.17 C 123.64 146.05 123.48 147.82 123.40 148.70 L 124.59 148.12 C 124.63 149.44 124.67 150.76 124.72 152.07 C 125.14 152.24 126.00 152.56 126.43 152.72 C 126.39 150.68 126.32 146.60 126.28 144.56 C 126.88 148.21 128.83 151.39 131.04 154.27 C 132.86 149.87 130.47 145.44 130.74 140.98 C 130.98 136.76 136.36 133.32 140.00 136.07 C 142.25 137.07 141.49 139.76 141.76 141.70 C 141.11 141.06 139.81 139.78 139.16 139.14 L 139.93 141.66 L 138.48 141.31 C 138.49 145.39 138.40 149.48 138.59 153.56 C 141.30 149.77 142.10 145.38 140.99 140.39 C 141.50 143.87 142.52 150.85 143.03 154.33 C 147.25 147.51 149.68 139.74 151.12 131.89 C 152.61 124.24 156.75 117.02 156.08 109.05 C 157.09 107.61 158.50 106.51 159.74 105.26 C 144.45 105.61 129.15 105.38 113.85 105.38 M 90.50 182.42 C 76.42 190.48 65.06 202.58 56.35 216.15 C 65.31 221.86 74.06 227.87 82.94 233.70 C 88.77 223.32 97.37 214.46 107.89 208.81 C 123.70 200.10 143.43 198.91 160.15 205.74 C 173.45 210.99 184.59 221.18 191.36 233.74 C 200.30 228.02 209.12 222.12 217.88 216.13 C 205.11 194.19 183.13 177.74 158.30 172.23 C 148.09 169.61 137.43 169.94 126.99 170.45 C 114.16 171.75 101.66 175.97 90.50 182.42 M 129.56 203.85 C 122.15 205.26 115.04 207.92 108.19 211.06 C 115.34 220.82 122.68 230.44 129.79 240.23 C 128.94 228.32 126.68 216.53 126.72 204.56 C 131.75 204.05 136.81 204.05 141.86 204.13 C 141.87 212.09 141.44 220.05 141.52 228.01 L 140.48 227.15 C 140.62 230.53 139.87 234.24 142.30 237.09 L 139.64 234.93 C 139.55 237.93 139.50 240.94 139.39 243.94 C 138.96 245.05 138.53 246.16 138.13 247.28 C 139.94 244.99 141.39 242.46 142.90 239.98 C 144.05 239.07 145.22 238.19 146.10 237.01 C 152.67 228.26 159.05 219.37 165.76 210.73 C 158.29 207.46 150.46 203.99 142.11 204.50 L 142.45 203.60 C 138.15 203.65 133.84 203.40 129.56 203.85 Z" />
<path fill="#dfba19" opacity="1.00" d=" M 132.29 178.93 C 136.36 179.13 140.45 178.86 144.50 179.26 C 144.85 180.42 145.18 181.60 145.47 182.78 C 143.78 181.66 141.99 180.70 140.04 180.13 C 139.82 183.66 139.77 187.21 139.80 190.75 C 140.51 191.23 141.92 192.18 142.63 192.66 C 139.60 192.66 136.58 192.61 133.56 192.48 C 134.59 191.84 135.64 191.22 136.68 190.60 C 136.77 187.21 136.83 183.82 136.86 180.43 C 134.69 180.32 132.96 181.53 131.39 182.89 C 131.69 181.57 131.99 180.25 132.29 178.93 Z" />
<path fill="#dfba19" opacity="1.00" d=" M 121.11 181.11 C 122.77 179.19 125.51 180.15 127.70 180.06 C 128.01 181.42 128.33 182.78 128.65 184.14 C 126.77 182.68 124.41 179.58 122.00 182.00 C 121.14 184.81 124.87 184.47 126.54 185.40 C 129.76 185.88 131.01 190.49 128.58 192.59 C 126.93 194.36 124.33 193.78 122.18 193.94 C 121.51 192.46 120.86 190.98 120.22 189.49 C 122.30 190.63 124.36 193.81 126.95 192.16 C 128.46 191.96 128.44 189.07 126.81 189.02 C 124.94 188.26 122.91 187.88 121.16 186.85 C 119.62 185.35 119.46 182.60 121.11 181.11 Z" />
<path fill="#dfba19" opacity="1.00" d=" M 148.59 179.47 C 151.92 180.45 155.35 181.01 158.74 181.69 C 158.55 182.83 158.35 183.97 158.16 185.11 C 156.97 183.62 155.73 182.07 153.72 181.78 C 153.08 183.15 152.49 184.54 151.94 185.96 L 153.36 185.53 C 152.08 187.69 150.90 190.10 151.19 192.69 C 153.64 193.55 155.93 192.19 158.14 191.30 C 157.21 192.59 156.26 193.86 155.27 195.11 C 152.27 194.25 149.24 193.47 146.15 193.08 C 148.73 190.78 149.01 187.22 149.60 184.04 C 150.14 182.40 149.22 180.92 148.59 179.47 Z" />
<path fill="#dfba19" opacity="1.00" d=" M 161.96 182.51 C 163.75 183.26 165.56 183.98 167.38 184.65 C 164.85 187.41 166.17 191.33 165.96 194.68 C 168.01 192.76 169.99 190.77 171.96 188.77 C 171.41 187.77 170.87 186.78 170.33 185.79 C 171.96 186.52 173.59 187.25 175.22 187.97 C 170.97 191.21 167.42 195.26 163.23 198.57 C 162.63 193.23 163.42 187.75 161.96 182.51 Z" />
<path fill="#dfba19" opacity="1.00" d=" M 96.82 189.14 C 99.98 187.89 103.01 186.36 106.01 184.78 C 106.73 185.87 107.45 186.96 108.18 188.05 C 106.04 186.88 103.80 187.20 101.72 188.28 C 102.61 189.62 103.10 191.35 104.50 192.27 C 105.32 191.24 106.10 190.18 106.84 189.09 C 107.58 190.57 108.33 192.03 109.11 193.48 C 107.54 192.92 105.81 191.89 104.49 193.53 C 105.16 195.22 105.98 196.86 106.81 198.48 C 108.85 197.06 110.28 195.05 111.55 192.95 C 111.61 194.36 112.36 196.04 111.24 197.24 C 108.72 198.99 105.73 199.90 103.06 201.40 C 103.71 197.87 101.63 194.74 100.15 191.72 C 99.59 190.28 98.01 189.87 96.82 189.14 Z" />
<path fill="#dfba19" opacity="1.00" d=" M 153.49 188.00 C 154.51 186.96 155.52 185.91 156.54 184.88 C 156.35 186.57 156.15 188.26 155.99 189.95 C 155.36 189.46 154.12 188.49 153.49 188.00 Z" />
<path fill="#dfba19" opacity="1.00" d=" M 177.54 189.53 C 179.29 190.66 181.08 191.74 182.90 192.76 C 179.36 195.66 175.47 200.08 176.39 204.97 C 174.64 203.69 172.84 202.49 170.98 201.37 C 174.23 199.83 175.80 196.44 177.49 193.48 C 178.34 192.27 177.64 190.82 177.54 189.53 Z" />
<path fill="#dfba19" opacity="1.00" d=" M 87.72 195.40 C 89.33 194.26 90.91 193.08 92.42 191.82 C 93.14 195.25 95.50 197.91 97.64 200.54 C 98.43 201.93 100.16 201.71 101.49 202.06 C 99.62 203.41 97.80 204.82 96.01 206.25 C 96.02 205.54 96.04 204.10 96.05 203.38 C 95.12 202.23 94.19 201.07 93.26 199.92 C 91.75 201.06 90.24 202.20 88.74 203.36 C 90.17 205.34 91.79 207.30 94.44 207.49 C 92.63 208.70 90.88 209.99 89.21 211.39 C 89.14 207.07 85.47 204.27 83.18 201.00 C 82.47 201.07 81.05 201.23 80.34 201.30 C 82.03 199.87 83.74 198.47 85.40 197.01 C 86.00 198.87 86.83 200.64 87.76 202.36 C 89.43 201.14 91.08 199.90 92.72 198.63 C 91.35 197.12 89.73 195.89 87.72 195.40 Z" />
<path fill="#dfba19" opacity="1.00" d=" M 187.13 195.48 C 189.63 197.97 192.34 200.24 195.02 202.55 C 194.26 203.49 193.51 204.43 192.76 205.39 C 193.15 203.09 191.86 201.35 190.37 199.80 C 189.28 200.94 188.20 202.08 187.12 203.23 C 187.60 203.61 188.57 204.39 189.05 204.77 C 189.65 204.64 190.85 204.36 191.46 204.23 C 190.49 205.57 189.50 206.90 188.53 208.24 C 187.98 206.79 187.43 205.35 186.83 203.92 C 185.40 205.35 184.00 206.79 182.62 208.27 C 184.67 209.77 187.13 210.35 189.60 210.75 C 188.44 211.33 187.26 211.85 186.04 212.29 C 183.11 210.80 181.11 208.01 178.44 206.12 C 181.87 205.48 183.84 202.41 186.00 199.99 C 187.32 198.83 187.17 197.06 187.13 195.48 Z" />
<path fill="#dfba19" opacity="1.00" d=" M 78.18 203.13 C 79.24 203.96 80.31 204.81 81.35 205.67 C 80.57 205.61 79.01 205.50 78.22 205.45 C 77.70 206.03 76.64 207.19 76.11 207.77 C 78.75 209.98 81.38 212.20 84.07 214.35 C 85.20 213.95 86.32 213.55 87.45 213.16 C 85.54 215.50 83.57 217.80 81.71 220.19 C 83.04 215.00 76.82 213.12 73.96 210.04 C 72.57 211.79 72.25 213.80 72.97 215.92 C 71.98 214.90 70.98 213.90 69.98 212.90 C 72.82 209.73 75.55 206.47 78.18 203.13 Z" />
<path fill="#dfba19" opacity="1.00" d=" M 194.17 211.01 C 195.02 208.78 197.56 207.11 199.94 207.99 C 201.72 209.22 202.53 211.32 203.66 213.08 C 202.53 213.98 201.41 214.90 200.28 215.80 C 201.40 213.16 201.46 210.29 198.91 208.41 C 196.19 210.87 198.80 214.10 198.50 217.04 C 197.66 219.37 194.71 221.21 192.34 219.89 C 190.55 218.79 189.72 216.75 188.60 215.07 C 189.66 213.86 190.72 212.65 191.81 211.45 C 191.56 213.82 189.91 216.92 192.54 218.51 C 193.43 219.80 194.73 217.94 195.76 217.70 C 195.15 215.49 194.31 213.31 194.17 211.01 Z" />
<path fill="#dfba19" opacity="1.00" d=" M 204.17 215.55 C 207.00 214.44 205.35 218.53 203.42 218.25 C 201.63 218.07 203.25 215.85 204.17 215.55 Z" />
<path fill="#dfba19" opacity="1.00" d=" M 204.39 219.53 C 205.35 218.69 206.29 217.84 207.26 217.01 C 206.91 217.88 206.23 219.63 205.88 220.50 C 206.61 220.37 208.07 220.09 208.79 219.95 C 208.08 220.53 206.65 221.69 205.94 222.28 C 205.42 221.36 204.91 220.45 204.39 219.53 Z" />
</g>
</svg>
