<?xml version="1.0" encoding="UTF-8" ?>
<!DOCTYPE svg PUBLIC "-//W3C//DTD SVG 1.1//EN" "http://www.w3.org/Graphics/SVG/1.1/DTD/svg11.dtd">
<svg width="280pt" height="300pt" viewBox="0 0 280 300" version="1.1" xmlns="http://www.w3.org/2000/svg">
<g id="#002045ff">
<path fill="#002045" opacity="1.00" d=" M 25.08 110.48 C 27.68 110.14 30.30 110.15 32.89 110.50 C 34.60 112.86 37.91 114.60 37.68 117.91 C 37.77 134.61 37.73 151.32 37.70 168.02 C 38.05 172.65 33.15 175.59 29.02 175.48 C 24.95 175.63 19.74 172.70 20.36 168.01 C 20.38 151.32 20.37 134.62 20.36 117.93 C 19.99 114.59 23.39 112.86 25.08 110.48 Z" />
<path fill="#002045" opacity="1.00" d=" M 60.76 122.78 C 62.32 115.67 73.00 114.41 77.09 119.98 C 78.86 121.89 78.47 124.64 78.56 127.02 C 78.43 142.71 78.65 158.40 78.46 174.08 C 78.42 178.59 73.78 180.64 69.99 181.41 C 65.88 180.92 60.76 178.94 60.71 174.04 C 60.71 156.96 60.61 139.86 60.76 122.78 Z" />
<path fill="#002045" opacity="1.00" d=" M 0.00 124.43 C 3.10 116.95 16.34 117.68 17.50 125.98 C 17.76 141.64 17.44 157.32 17.65 172.99 C 17.55 175.47 17.98 178.33 16.17 180.34 C 12.13 185.53 3.20 184.72 0.00 178.96 L 0.00 124.43 Z" />
<path fill="#002045" opacity="1.00" d=" M 85.60 121.73 C 87.99 121.71 90.36 122.00 92.71 122.44 C 94.03 122.43 95.35 122.43 96.67 122.45 C 99.24 125.73 101.84 128.98 104.63 132.08 C 104.39 128.71 105.66 124.68 103.20 121.84 C 104.75 122.09 107.85 122.58 109.40 122.83 L 107.51 120.61 C 108.85 121.38 110.12 122.69 111.82 122.38 C 118.22 122.24 124.65 123.03 130.98 121.75 C 133.21 121.25 137.39 122.79 135.68 125.79 C 133.61 124.01 131.05 123.65 128.45 123.61 C 128.43 125.67 128.45 127.72 128.51 129.78 C 130.49 129.12 132.47 128.49 134.46 127.88 C 134.49 128.86 134.56 130.82 134.60 131.80 C 132.63 130.89 130.56 130.30 128.41 130.15 C 128.37 132.01 128.36 133.87 128.36 135.73 C 131.49 135.99 134.73 135.73 136.72 132.98 C 136.37 134.53 136.01 136.08 135.63 137.63 C 131.52 137.64 127.40 137.63 123.28 137.42 C 123.84 137.12 124.96 136.52 125.52 136.22 C 125.53 132.08 125.84 127.91 125.37 123.77 C 124.69 123.48 123.33 122.88 122.65 122.59 C 122.56 123.47 122.40 125.22 122.32 126.10 C 121.11 125.07 119.89 124.05 118.67 123.04 C 116.53 126.78 117.53 131.40 117.69 135.49 C 118.10 136.03 118.93 137.11 119.35 137.66 C 118.03 137.65 115.40 137.63 114.09 137.62 C 115.57 133.33 115.23 128.79 115.27 124.34 C 113.35 124.12 111.49 124.39 109.95 125.62 C 109.83 124.39 109.26 123.59 108.24 123.21 C 106.37 127.84 107.40 132.95 107.16 137.81 C 102.28 135.97 100.38 130.27 96.66 126.91 C 96.58 129.71 96.57 132.52 96.52 135.32 C 97.10 136.07 97.67 136.82 98.26 137.57 C 93.79 137.64 89.33 137.51 84.87 137.51 C 89.07 134.69 86.85 129.11 87.36 124.91 C 86.89 124.53 85.95 123.77 85.49 123.39 C 85.51 122.98 85.57 122.15 85.60 121.73 M 90.25 123.18 C 90.18 127.61 89.91 132.05 90.35 136.47 C 91.45 137.55 92.75 137.77 94.25 137.12 C 95.00 132.69 94.64 128.16 94.55 123.69 C 93.47 123.56 91.33 123.31 90.25 123.18 Z" />
<path fill="#002045" opacity="1.00" d=" M 152.44 122.03 C 154.00 122.21 155.57 122.38 157.12 122.61 C 159.90 125.84 162.49 129.22 165.38 132.36 C 165.32 129.00 166.46 125.04 163.80 122.32 C 164.80 122.34 166.81 122.38 167.81 122.40 C 166.96 127.57 167.46 132.83 167.21 138.04 C 162.90 134.75 159.88 130.15 156.58 125.92 C 157.65 129.58 157.31 133.43 157.50 137.19 C 157.85 137.39 158.57 137.78 158.92 137.98 C 155.30 139.28 151.74 137.93 148.16 137.28 C 146.57 134.83 144.99 132.25 142.40 130.71 C 142.25 133.20 142.33 135.80 144.26 137.61 C 142.59 137.60 140.92 137.62 139.24 137.64 C 139.51 132.64 141.26 126.67 138.19 122.28 C 141.78 122.77 146.24 121.23 149.13 124.08 C 150.51 126.33 149.43 129.33 147.00 130.37 C 148.08 133.17 150.11 135.44 152.38 137.33 C 152.73 137.21 153.44 136.95 153.79 136.83 C 156.92 133.74 154.85 128.70 155.49 124.76 C 154.64 124.20 153.79 123.65 152.94 123.10 C 152.81 122.83 152.56 122.30 152.44 122.03 M 142.54 123.47 C 142.50 125.51 142.49 127.55 142.52 129.60 C 143.86 129.18 145.19 128.76 146.53 128.33 C 146.51 127.44 146.47 125.66 146.45 124.78 C 145.14 124.33 143.84 123.90 142.54 123.47 Z" />
<path fill="#002045" opacity="1.00" d=" M 184.63 122.63 C 185.77 122.38 186.90 122.12 188.04 121.83 C 191.15 121.74 194.25 122.11 197.33 122.54 C 197.37 123.64 197.43 124.73 197.48 125.83 C 195.85 124.99 194.11 124.38 192.42 123.70 C 192.28 127.91 192.32 132.13 192.38 136.34 C 193.22 136.66 194.06 136.98 194.91 137.30 C 192.47 137.48 190.02 137.58 187.59 137.67 C 188.18 136.88 188.77 136.08 189.36 135.29 C 189.16 131.20 189.95 126.92 188.30 123.04 C 187.16 123.98 186.05 124.94 184.94 125.91 C 184.73 126.09 184.31 126.45 184.10 126.63 C 184.30 125.30 184.46 123.97 184.63 122.63 Z" />
<path fill="#002045" opacity="1.00" d=" M 40.67 128.85 C 42.98 120.86 56.85 121.64 58.24 129.90 C 58.52 146.26 58.25 162.63 58.38 179.00 C 58.72 182.11 56.89 185.00 54.31 186.59 C 51.52 186.83 48.75 186.02 45.95 186.23 C 48.61 186.85 51.32 187.27 53.97 187.97 C 51.40 188.62 48.76 188.80 46.14 188.42 C 43.72 186.05 39.89 183.98 40.50 179.97 C 40.65 162.93 40.34 145.88 40.67 128.85 Z" />
<path fill="#002045" opacity="1.00" d=" M 176.93 122.53 C 177.27 122.47 177.96 122.36 178.31 122.30 C 180.73 127.40 181.91 133.25 185.83 137.50 C 184.05 137.55 182.28 137.61 180.51 137.69 C 180.49 135.87 180.26 134.07 179.73 132.34 C 177.93 132.41 176.14 132.49 174.36 132.58 C 174.32 134.26 174.30 135.94 174.30 137.63 C 172.85 137.60 171.39 137.58 169.95 137.57 C 172.70 132.76 174.71 127.59 176.93 122.53 M 176.48 128.54 C 175.31 129.54 176.52 132.38 178.07 131.13 C 179.30 130.14 178.00 127.33 176.48 128.54 Z" />
<path fill="#002045" opacity="1.00" d=" M 198.71 122.40 C 200.95 122.41 203.18 122.45 205.42 122.54 C 204.91 122.88 203.90 123.58 203.40 123.92 C 203.18 128.02 203.19 132.12 203.41 136.22 C 204.00 136.51 205.19 137.11 205.79 137.40 C 203.34 137.52 200.90 137.58 198.46 137.64 C 199.13 136.89 199.80 136.13 200.46 135.37 C 200.39 131.82 200.38 128.27 200.44 124.72 C 199.86 123.95 199.29 123.17 198.71 122.40 Z" />
<path fill="#002045" opacity="1.00" d=" M 208.99 123.99 C 210.61 122.40 212.98 122.12 215.02 121.35 C 218.27 123.11 222.24 125.67 221.61 129.98 C 222.27 135.82 214.92 139.99 210.11 136.82 C 205.68 134.26 205.23 127.32 208.99 123.99 M 212.82 136.47 C 216.00 137.42 218.68 133.96 218.57 131.02 C 219.03 128.29 217.60 125.88 216.26 123.65 C 215.35 123.59 213.51 123.49 212.60 123.43 C 208.54 126.53 208.25 133.72 212.82 136.47 Z" />
<path fill="#002045" opacity="1.00" d=" M 233.82 122.44 C 235.09 122.38 236.37 122.32 237.64 122.27 C 236.92 127.30 237.19 132.39 237.18 137.46 C 236.73 137.47 235.84 137.48 235.40 137.49 C 232.67 133.83 229.74 130.33 226.71 126.93 C 226.66 129.62 226.66 132.33 226.66 135.03 C 227.11 135.91 227.57 136.79 228.02 137.67 C 226.31 137.59 224.61 137.51 222.91 137.42 C 223.37 137.14 224.29 136.59 224.75 136.32 C 224.78 132.43 225.09 128.53 224.71 124.66 C 223.81 123.83 222.85 123.05 221.86 122.33 C 223.10 122.46 225.60 122.73 226.85 122.86 C 229.98 125.68 231.88 129.63 235.29 132.19 C 235.34 129.79 235.37 127.39 235.37 125.00 C 234.84 124.15 234.32 123.30 233.82 122.44 Z" />
<path fill="#002045" opacity="1.00" d=" M 246.70 122.32 C 247.07 122.36 247.80 122.45 248.17 122.49 C 250.06 127.71 252.11 132.91 255.08 137.63 C 252.98 137.57 250.89 137.51 248.80 137.42 C 249.28 137.11 250.23 136.48 250.71 136.17 C 250.23 134.94 249.76 133.71 249.28 132.48 C 247.63 132.44 245.98 132.40 244.34 132.36 C 243.65 134.06 243.40 135.87 243.44 137.69 C 242.05 137.63 240.67 137.57 239.29 137.52 C 242.80 133.02 244.34 127.43 246.70 122.32 M 245.71 127.83 C 245.61 129.10 245.51 130.37 245.42 131.64 C 246.55 131.58 247.68 131.53 248.82 131.48 C 248.67 129.51 247.60 128.26 245.71 127.83 Z" />
<path fill="#002045" opacity="1.00" d=" M 258.80 122.72 C 260.05 122.62 262.55 122.41 263.80 122.30 C 260.74 122.95 261.46 125.89 261.28 128.00 C 261.27 130.84 261.35 133.67 261.50 136.51 C 264.72 136.55 267.57 135.14 269.91 132.89 C 269.46 134.01 268.58 136.25 268.14 137.38 C 264.59 137.83 261.01 137.54 257.45 137.67 C 258.18 133.20 256.93 128.70 257.46 124.25 C 258.07 128.49 257.43 132.86 258.29 137.11 C 258.29 132.31 258.28 127.50 258.80 122.72 Z" />
<path fill="#002045" opacity="1.00" d=" M 85.29 142.49 C 92.28 142.76 99.28 142.38 106.27 142.73 C 106.36 144.96 106.43 147.19 106.47 149.43 C 106.13 149.34 105.45 149.17 105.11 149.09 C 104.44 147.94 103.79 146.78 103.02 145.71 C 100.05 144.25 96.67 144.63 93.48 144.52 C 93.44 147.94 93.44 151.37 93.41 154.80 C 95.67 154.79 97.93 154.75 100.19 154.68 C 100.71 153.53 101.23 152.37 101.73 151.21 C 102.11 151.31 102.87 151.51 103.25 151.61 C 103.19 154.55 103.19 157.48 103.26 160.42 C 102.88 160.51 102.13 160.69 101.76 160.78 C 101.24 159.66 100.71 158.56 100.17 157.46 C 97.92 157.46 95.67 157.46 93.42 157.48 C 93.44 160.99 93.44 164.50 93.47 168.01 C 94.59 168.62 96.83 169.84 97.95 170.45 C 93.63 170.66 89.31 170.61 84.99 170.71 L 87.68 168.29 C 86.40 168.84 85.13 169.47 84.29 170.63 C 84.24 170.15 84.15 169.19 84.10 168.71 C 85.65 168.39 87.20 168.08 88.76 167.78 C 88.54 160.07 88.89 152.34 88.53 144.63 C 87.79 144.53 86.32 144.33 85.58 144.22 C 85.51 143.79 85.37 142.93 85.29 142.49 Z" />
<path fill="#002045" opacity="1.00" d=" M 109.47 142.57 C 116.54 142.61 123.60 142.73 130.67 142.58 C 136.44 148.90 141.37 155.94 147.20 162.19 C 147.33 156.76 147.51 151.31 147.20 145.88 C 146.44 145.12 145.63 144.42 144.77 143.79 C 144.60 143.47 144.28 142.84 144.12 142.52 C 147.29 142.59 150.45 142.60 153.61 142.58 C 153.49 142.98 153.25 143.78 153.13 144.18 C 152.47 144.24 151.14 144.38 150.48 144.45 C 149.94 146.25 149.46 148.09 149.50 149.99 C 149.50 157.06 149.57 164.14 149.39 171.21 C 146.22 169.25 144.37 165.89 141.97 163.16 C 138.14 158.74 134.68 154.00 130.66 149.75 C 130.53 155.86 130.55 161.97 130.73 168.08 C 132.01 168.65 133.28 169.24 134.56 169.81 C 134.46 170.16 134.26 170.84 134.16 171.18 C 130.99 171.13 127.82 171.13 124.66 171.20 C 124.69 170.45 124.71 169.71 124.74 168.97 C 125.94 168.76 127.14 168.54 128.33 168.33 C 128.46 161.13 128.30 153.93 128.48 146.73 C 126.99 145.61 125.48 144.52 123.97 143.43 C 123.17 143.36 121.57 143.23 120.77 143.17 C 119.81 144.34 118.10 145.24 118.33 147.00 C 118.24 154.00 118.28 161.01 118.36 168.01 C 119.60 168.58 120.64 169.47 121.43 170.58 C 117.20 170.72 112.96 170.68 108.75 170.33 C 110.32 169.59 111.89 168.86 113.46 168.14 C 113.53 161.05 113.57 153.96 113.50 146.88 C 113.96 144.59 111.30 144.49 109.84 143.91 C 109.75 143.58 109.56 142.91 109.47 142.57 Z" />
<path fill="#002045" opacity="1.00" d=" M 169.02 142.56 C 169.69 142.51 170.37 142.47 171.05 142.44 C 174.06 151.27 177.94 159.82 181.95 168.25 C 182.54 168.39 183.73 168.68 184.32 168.82 C 184.43 169.28 184.64 170.19 184.75 170.65 C 180.77 170.60 176.78 170.70 172.80 170.46 C 173.89 169.62 174.98 168.80 176.08 167.99 C 175.49 165.81 174.81 163.66 174.19 161.49 C 170.73 161.35 167.26 161.35 163.80 161.30 C 162.73 163.49 161.82 165.74 161.05 168.04 C 162.45 168.47 163.59 169.34 164.37 170.56 C 161.32 170.67 158.28 170.63 155.24 170.64 C 155.35 170.28 155.59 169.56 155.71 169.20 C 158.97 167.57 159.78 163.79 161.24 160.78 C 163.72 154.65 166.67 148.73 169.02 142.56 M 164.87 159.36 C 167.54 159.39 170.22 159.40 172.91 159.38 C 171.45 156.41 171.14 152.51 168.20 150.55 C 167.04 153.47 165.89 156.39 164.87 159.36 Z" />
<path fill="#002045" opacity="1.00" d=" M 185.00 142.72 C 187.72 142.60 190.44 142.59 193.16 142.61 C 198.77 149.15 204.23 155.83 209.60 162.58 C 209.75 156.59 209.84 150.60 209.51 144.62 C 208.79 144.52 207.35 144.31 206.63 144.21 C 206.56 143.78 206.42 142.94 206.34 142.52 C 209.46 142.60 212.57 142.60 215.69 142.54 C 215.59 142.96 215.40 143.81 215.31 144.23 C 214.61 144.32 213.20 144.51 212.49 144.61 C 212.20 153.28 212.33 161.96 212.37 170.64 C 211.88 170.63 210.89 170.62 210.39 170.61 C 204.89 163.63 199.14 156.84 193.42 150.02 C 193.32 156.08 193.38 162.14 193.38 168.19 C 194.75 168.85 196.12 169.52 197.50 170.19 C 193.79 170.87 190.01 170.71 186.28 170.36 C 187.71 169.61 189.15 168.87 190.58 168.14 C 190.71 160.92 191.01 153.65 190.52 146.46 C 189.03 144.80 186.85 143.93 185.00 142.72 Z" />
<path fill="#002045" opacity="1.00" d=" M 218.63 153.97 C 220.08 148.86 223.45 143.92 228.88 142.60 C 232.94 140.76 237.08 142.94 241.08 143.80 C 241.38 143.17 241.99 141.93 242.30 141.31 C 243.21 144.89 243.65 148.57 243.50 152.26 C 240.98 150.36 240.66 146.51 237.61 145.22 C 233.79 143.52 228.43 143.99 226.15 147.91 C 222.81 153.45 222.50 161.76 227.38 166.51 C 229.94 169.30 233.95 168.47 237.32 168.59 C 239.23 166.99 241.06 165.30 242.78 163.50 C 243.29 163.57 244.30 163.70 244.81 163.76 C 242.10 167.29 238.84 171.16 234.02 171.36 C 226.81 172.36 220.19 167.00 218.58 160.11 C 218.62 158.06 218.63 156.02 218.63 153.97 Z" />
<path fill="#002045" opacity="1.00" d=" M 247.34 142.54 C 254.38 142.66 261.43 142.51 268.48 142.58 C 268.73 144.56 269.15 146.50 269.50 148.46 C 269.03 148.54 268.09 148.69 267.62 148.77 C 267.20 147.66 266.78 146.55 266.37 145.45 C 262.83 144.50 259.16 144.46 255.53 144.57 C 255.47 147.42 255.38 150.28 255.47 153.14 C 254.88 155.30 257.57 155.50 258.99 155.34 C 260.81 155.26 262.58 154.75 264.36 154.37 C 264.48 153.69 264.70 152.33 264.82 151.66 C 265.27 151.58 266.17 151.41 266.62 151.33 C 266.54 154.45 266.54 157.57 266.64 160.68 C 266.17 160.65 265.24 160.57 264.78 160.53 C 264.67 159.77 264.45 158.24 264.34 157.48 C 261.38 157.32 258.42 157.27 255.45 157.24 C 255.47 160.95 255.46 164.66 255.51 168.37 C 258.91 168.37 262.30 168.39 265.70 168.43 C 267.43 166.50 269.07 164.50 270.85 162.61 C 270.58 165.28 269.85 167.87 269.10 170.44 C 261.82 170.87 254.51 170.56 247.22 170.59 C 247.39 170.17 247.74 169.31 247.92 168.88 C 248.58 168.78 249.91 168.58 250.57 168.48 C 250.77 160.54 250.81 152.59 250.54 144.65 C 249.87 144.53 248.51 144.29 247.84 144.17 C 247.71 143.76 247.46 142.95 247.34 142.54 Z" />
</g>
</svg>
