<?xml version="1.0" encoding="UTF-8" ?>
<!DOCTYPE svg PUBLIC "-//W3C//DTD SVG 1.1//EN" "http://www.w3.org/Graphics/SVG/1.1/DTD/svg11.dtd">
<svg width="256pt" height="256pt" viewBox="0 0 256 256" version="1.1" xmlns="http://www.w3.org/2000/svg">
<g id="#ffffffff">
<path fill="#ffffff" opacity="1.00" d=" M 224.61 0.00 L 226.08 0.00 C 230.52 0.10 234.92 1.80 238.08 4.96 C 244.16 10.76 244.84 21.15 239.42 27.62 C 238.41 28.63 239.44 30.00 240.51 30.40 C 247.22 34.69 251.22 42.52 251.59 50.38 C 251.88 57.58 251.65 64.79 251.71 72.00 C 251.97 74.63 249.73 77.03 247.07 76.83 C 233.01 76.85 218.95 76.88 204.89 76.81 C 202.30 76.93 200.25 74.48 200.53 71.95 C 200.78 63.28 199.90 54.52 201.23 45.91 C 202.64 38.78 207.49 32.82 213.52 28.96 C 211.47 25.67 209.08 22.18 209.13 18.05 C 208.34 9.09 215.78 0.83 224.61 0.00 M 222.35 9.51 C 218.97 11.23 216.95 15.29 217.94 18.99 C 218.70 23.38 223.63 26.49 227.93 25.32 C 232.42 24.56 235.58 19.44 234.25 15.09 C 233.26 9.94 226.94 7.18 222.35 9.51 M 220.21 35.30 C 213.75 37.57 209.15 44.09 209.10 50.93 C 209.01 56.65 209.09 62.37 209.06 68.09 C 220.27 68.49 231.69 68.38 242.93 68.15 C 243.52 63.16 243.01 58.05 243.19 53.01 C 243.46 47.66 241.54 42.12 237.44 38.56 C 232.90 34.39 225.97 33.08 220.21 35.30 Z" />
<path fill="#ffffff" opacity="1.00" d=" M 153.81 16.09 C 154.35 13.16 158.02 12.13 160.37 13.61 C 168.61 17.74 176.87 21.80 185.08 25.98 C 188.11 27.35 188.65 31.93 185.59 33.58 C 177.22 37.90 168.74 42.02 160.33 46.25 C 158.03 47.73 154.51 46.72 153.83 43.94 C 153.34 40.79 153.64 37.57 153.67 34.39 C 148.09 33.89 142.41 34.36 136.80 34.16 L 136.51 34.99 C 136.52 64.38 136.61 93.77 136.46 123.16 L 137.09 123.80 C 142.61 123.69 148.14 123.93 153.65 123.67 C 153.76 120.19 153.08 116.57 154.13 113.19 C 155.33 111.03 158.24 110.39 160.31 111.68 C 168.73 115.97 177.28 120.03 185.63 124.45 C 188.28 126.02 188.37 130.21 185.58 131.69 C 177.22 136.00 168.75 140.13 160.35 144.37 C 158.01 145.80 154.49 144.80 153.81 141.99 C 153.33 138.82 153.70 135.57 153.62 132.37 C 148.13 132.23 142.64 132.36 137.16 132.30 L 136.47 132.79 C 136.60 162.20 136.52 191.61 136.52 221.01 L 136.74 221.90 C 142.37 221.75 148.03 222.08 153.65 221.73 C 153.69 218.54 153.29 215.30 153.86 212.15 C 154.42 209.41 157.99 208.36 160.23 209.76 C 168.49 213.89 176.77 217.98 185.01 222.16 C 188.03 223.51 188.71 228.07 185.62 229.77 C 177.08 234.18 168.44 238.43 159.82 242.69 C 157.54 243.94 154.43 242.63 153.80 240.10 C 153.34 236.90 153.72 233.64 153.59 230.42 C 146.41 230.35 139.23 230.49 132.06 230.36 C 129.84 230.31 128.01 228.29 128.03 226.11 C 127.97 196.39 128.02 166.67 128.00 136.95 C 127.92 135.37 128.24 133.73 127.73 132.19 C 117.89 132.48 108.03 132.23 98.18 132.32 C 97.18 134.32 97.29 136.70 96.71 138.85 C 93.53 152.69 83.59 164.80 70.59 170.57 C 59.99 175.47 47.47 176.23 36.39 172.39 C 22.74 167.97 11.47 156.79 6.95 143.16 C 2.99 131.51 3.77 118.28 9.32 107.26 C 15.87 93.83 29.26 83.90 44.11 81.86 C 58.93 79.37 74.87 84.80 85.07 95.87 C 90.38 101.09 93.84 107.89 96.21 114.89 C 96.97 117.80 97.05 120.94 98.11 123.74 C 108.03 123.87 117.96 123.69 127.89 123.83 C 128.18 92.51 127.88 61.17 128.04 29.85 C 128.04 27.70 129.86 25.78 132.03 25.71 C 139.21 25.56 146.40 25.72 153.59 25.64 C 153.73 22.46 153.32 19.24 153.81 16.09 M 162.15 24.14 C 162.04 27.83 162.24 31.52 162.04 35.20 L 162.82 35.59 C 166.03 33.76 169.39 32.20 172.72 30.59 C 172.75 30.28 172.80 29.65 172.83 29.34 C 169.21 27.72 165.78 25.70 162.15 24.14 M 42.50 90.72 C 33.94 92.79 26.10 97.80 20.82 104.87 C 12.98 114.84 10.83 128.91 15.17 140.81 C 19.63 154.07 32.11 164.24 46.00 165.92 C 56.88 167.55 68.40 164.06 76.56 156.69 C 87.36 147.41 92.08 131.71 88.14 118.02 C 86.00 109.95 81.11 102.62 74.42 97.61 C 65.54 90.62 53.48 88.25 42.50 90.72 M 162.18 133.86 C 165.75 132.19 169.20 130.27 172.79 128.64 C 172.77 128.33 172.74 127.70 172.72 127.39 C 169.30 125.64 165.70 124.18 162.49 122.07 C 161.66 125.88 162.30 129.96 162.18 133.86 M 162.04 220.71 C 162.23 224.44 162.07 228.18 162.12 231.91 C 165.79 230.39 169.24 228.36 172.87 226.73 C 172.83 226.42 172.75 225.82 172.71 225.52 C 169.11 224.10 165.70 221.37 162.04 220.71 Z" />
<path fill="#ffffff" opacity="1.00" d=" M 209.79 101.81 C 211.88 94.46 219.37 89.05 227.05 89.67 C 235.16 89.93 242.42 96.85 243.03 104.95 C 243.61 109.74 241.81 114.57 238.67 118.15 C 239.66 119.80 241.65 120.61 243.11 121.85 C 246.89 125.33 249.63 129.94 250.91 134.93 C 252.32 142.53 251.51 150.29 251.72 157.98 C 251.55 160.41 252.37 163.46 250.29 165.30 C 248.86 166.62 246.80 166.39 245.02 166.41 C 231.33 166.32 217.62 166.57 203.93 166.29 C 199.60 165.43 200.60 160.24 200.53 157.00 C 200.91 146.31 198.57 133.97 206.16 125.15 C 207.86 122.03 211.45 120.73 213.60 118.18 C 209.61 113.86 208.05 107.46 209.79 101.81 M 223.46 98.68 C 219.66 99.90 216.99 104.07 217.84 108.04 C 218.36 112.74 223.60 116.26 228.15 114.86 C 231.42 114.18 234.05 111.23 234.43 107.91 C 235.63 101.98 229.11 96.58 223.46 98.68 M 209.20 139.40 C 208.93 145.57 209.06 151.76 209.13 157.93 C 220.44 157.86 231.75 157.95 243.06 157.88 C 243.29 151.93 243.23 145.93 243.09 139.96 C 242.86 131.52 235.46 124.08 227.01 123.86 C 218.15 123.12 209.64 130.53 209.20 139.40 Z" />
<path fill="#ffffff" opacity="1.00" d=" M 41.72 112.00 C 47.42 112.19 53.20 111.62 58.84 112.30 C 63.58 112.86 67.09 117.00 67.47 121.66 C 68.96 121.75 70.47 121.49 71.95 121.80 C 71.96 122.43 71.99 123.69 72.00 124.32 C 70.52 124.65 68.99 124.41 67.50 124.39 C 66.87 128.08 64.65 131.69 60.93 132.87 C 55.75 134.39 50.28 133.96 44.92 133.98 C 44.80 138.96 44.89 143.95 44.89 148.93 C 44.09 148.96 42.51 149.00 41.71 149.02 C 41.43 140.85 41.70 132.65 41.59 124.47 C 40.23 124.09 37.26 125.54 37.52 123.07 C 37.22 120.57 40.23 122.07 41.58 121.64 C 41.72 118.43 41.41 115.20 41.72 112.00 M 44.91 115.05 C 44.90 120.36 44.87 125.66 44.92 130.96 C 49.91 130.72 55.08 131.72 59.92 130.27 C 66.42 127.60 65.40 115.75 58.06 114.98 C 53.67 115.06 49.29 114.92 44.91 115.05 Z" />
<path fill="#ffffff" opacity="1.00" d=" M 216.96 181.88 C 221.94 178.63 228.67 178.32 233.93 181.11 C 240.03 184.17 243.84 191.18 243.03 197.98 C 242.80 201.70 240.79 204.92 238.76 207.92 C 239.94 209.54 241.89 210.35 243.37 211.65 C 246.92 215.04 249.46 219.38 250.83 224.08 C 252.46 233.23 251.48 242.59 251.68 251.83 C 252.25 253.66 249.26 254.64 249.99 256.00 L 204.00 256.00 C 202.23 255.42 200.64 254.02 200.59 252.04 C 200.45 245.36 200.57 238.69 200.53 232.01 C 200.56 225.75 202.16 219.24 206.40 214.47 C 208.10 211.59 211.26 210.20 213.60 207.96 C 211.44 205.04 209.42 201.80 209.21 198.06 C 208.41 191.75 211.58 185.23 216.96 181.88 M 222.40 188.63 C 219.07 190.34 216.96 194.32 217.91 198.02 C 218.64 202.47 223.55 205.63 227.92 204.50 C 232.49 203.70 235.68 198.43 234.19 194.01 C 233.07 189.00 226.93 186.39 222.40 188.63 M 220.50 214.35 C 213.95 216.51 209.20 223.04 209.11 229.93 C 208.98 235.72 209.13 241.52 209.03 247.31 C 220.36 247.61 231.77 247.50 243.12 247.37 C 243.27 241.93 243.15 236.48 243.18 231.04 C 243.17 226.97 241.98 222.83 239.31 219.69 C 235.01 214.16 227.07 211.94 220.50 214.35 Z" />
</g>
</svg>
