<?xml version="1.0" encoding="UTF-8" ?>
<!DOCTYPE svg PUBLIC "-//W3C//DTD SVG 1.1//EN" "http://www.w3.org/Graphics/SVG/1.1/DTD/svg11.dtd">
<svg width="256pt" height="256pt" viewBox="0 0 256 256" version="1.1" xmlns="http://www.w3.org/2000/svg">
<g id="#fdfdfdff">
<path fill="#fdfdfd" opacity="1.00" d=" M 72.95 2.23 C 92.09 -1.41 112.42 1.36 129.81 10.19 C 150.10 20.34 166.26 38.48 173.83 59.88 C 181.03 79.77 180.83 102.23 173.26 121.98 C 165.51 142.66 149.70 160.07 130.02 170.03 C 112.28 179.04 91.46 181.90 71.97 177.85 C 47.11 173.08 24.85 156.91 12.20 135.03 C 4.82 122.57 1.00 108.26 0.00 93.87 L 0.00 88.04 C 0.65 70.60 6.05 53.26 16.18 38.99 C 29.36 19.97 50.16 6.38 72.95 2.23 M 79.62 9.76 C 50.90 12.99 24.98 33.08 14.42 59.94 C 7.63 76.65 6.71 95.69 11.84 112.98 C 17.91 134.12 33.11 152.38 52.71 162.32 C 70.36 171.40 91.42 173.65 110.58 168.43 C 130.89 163.13 148.79 149.42 159.39 131.32 C 169.40 114.63 172.87 94.24 169.25 75.15 C 165.21 52.94 151.25 32.87 132.03 21.10 C 116.53 11.48 97.70 7.44 79.62 9.76 Z" />
<path fill="#fdfdfd" opacity="1.00" d=" M 234.70 0.66 C 237.52 0.56 240.34 0.55 243.15 0.64 C 243.17 4.91 243.06 9.18 243.27 13.44 C 247.29 13.22 251.31 13.49 255.33 13.34 L 256.00 11.49 L 256.00 19.98 L 255.62 21.99 C 251.48 21.79 247.35 21.87 243.21 21.79 C 243.06 26.06 242.95 30.34 243.36 34.60 C 240.44 34.60 237.53 34.75 234.62 34.58 C 234.75 30.32 234.78 26.07 234.65 21.82 C 230.43 21.87 226.21 21.83 221.99 21.88 C 221.94 19.05 221.81 16.22 221.93 13.38 C 226.16 13.33 230.39 13.29 234.62 13.46 C 234.72 9.19 234.69 4.92 234.70 0.66 Z" />
<path fill="#fdfdfd" opacity="1.00" d=" M 55.67 40.99 C 69.46 41.10 83.26 40.98 97.06 41.05 C 106.41 41.23 116.44 43.78 122.91 50.96 C 126.92 55.18 128.80 60.89 129.69 66.53 C 133.70 66.57 137.71 66.40 141.72 66.55 C 143.26 68.60 142.00 71.94 142.34 74.48 C 138.13 74.62 133.93 74.36 129.73 74.60 C 129.26 81.33 126.81 88.15 121.86 92.89 C 115.36 99.34 105.93 101.70 97.01 101.86 C 86.29 101.98 75.57 101.87 64.84 101.92 C 64.88 116.59 64.80 131.26 64.89 145.94 C 61.81 145.97 58.73 145.97 55.65 146.01 C 55.43 122.16 55.80 98.28 55.46 74.44 C 51.42 74.52 47.39 74.44 43.36 74.53 C 43.31 71.84 43.31 69.15 43.38 66.46 C 47.39 66.57 51.40 66.46 55.41 66.58 C 55.89 58.06 55.36 49.51 55.67 40.99 M 64.86 48.91 C 64.87 63.94 64.86 78.96 64.86 93.99 C 74.59 94.01 84.32 94.06 94.04 94.02 C 100.21 93.97 106.73 93.32 112.04 89.88 C 116.88 86.94 119.60 81.44 120.29 75.95 C 121.20 68.98 120.37 61.07 115.39 55.71 C 110.43 50.49 102.86 49.09 95.96 48.93 C 85.59 48.88 75.22 48.92 64.86 48.91 Z" />
<path fill="#fdfdfd" opacity="1.00" d=" M 204.85 60.35 C 207.67 60.22 210.48 60.26 213.31 60.33 C 213.30 64.53 213.38 68.72 213.22 72.92 C 217.45 73.34 221.70 73.04 225.94 73.09 C 226.09 75.89 226.14 78.70 226.10 81.51 C 221.86 81.74 217.61 81.60 213.37 81.54 C 213.10 85.81 213.67 90.12 213.04 94.36 C 210.34 94.37 207.66 94.44 204.97 94.34 C 204.74 90.14 204.84 85.93 204.91 81.73 C 200.66 81.42 196.39 81.60 192.14 81.69 C 191.99 78.82 192.00 75.96 192.04 73.10 C 196.32 73.11 200.59 73.19 204.87 73.06 C 204.82 68.83 204.85 64.59 204.85 60.35 Z" />
<path fill="#fdfdfd" opacity="1.00" d=" M 209.96 144.95 C 223.35 139.70 236.65 134.21 250.06 129.01 C 252.19 127.88 254.22 129.46 255.74 130.83 L 256.00 129.96 L 256.00 132.53 C 255.59 134.78 254.71 136.90 253.83 138.99 C 248.71 151.57 243.82 164.24 238.63 176.78 C 237.84 179.30 234.32 180.70 232.25 178.80 C 228.75 176.01 226.01 172.40 222.62 169.49 C 221.63 168.28 220.52 170.11 219.76 170.68 C 211.62 178.94 203.41 187.15 195.15 195.28 C 193.54 197.21 190.41 197.18 188.81 195.26 C 182.39 189.01 176.11 182.61 169.77 176.27 C 168.57 175.22 167.65 173.56 166.06 173.12 C 163.43 175.07 161.20 177.49 158.73 179.62 C 131.07 204.86 103.23 229.92 75.67 255.27 C 73.62 253.36 71.21 251.56 70.07 248.95 C 100.54 220.90 131.39 193.22 161.97 165.27 C 163.85 162.95 167.47 161.64 169.68 164.31 C 177.17 171.67 184.48 179.21 192.00 186.53 C 199.95 178.49 208.29 170.78 215.84 162.38 C 212.93 159.89 210.35 157.06 207.60 154.41 C 206.18 152.97 204.39 151.29 204.97 149.04 C 205.35 146.56 207.98 145.81 209.96 144.95 M 216.87 151.23 C 218.47 153.83 221.01 155.64 223.04 157.88 C 226.48 161.10 229.48 164.81 233.20 167.70 C 236.61 158.65 240.85 149.82 243.67 140.60 C 234.71 144.08 225.86 147.85 216.87 151.23 Z" />
<path fill="#fdfdfd" opacity="1.00" d=" M 21.40 175.50 C 24.19 175.58 26.97 175.57 29.76 175.47 C 29.95 179.74 29.80 184.02 29.86 188.29 C 34.12 188.33 38.39 188.29 42.65 188.34 C 42.60 191.14 42.61 193.94 42.66 196.74 C 38.39 196.84 34.12 196.75 29.85 196.82 C 29.83 201.09 29.90 205.37 29.78 209.64 C 26.98 209.59 24.18 209.55 21.38 209.60 C 21.36 205.33 21.44 201.05 21.32 196.78 C 17.04 196.77 12.77 196.86 8.50 196.70 C 8.61 193.92 8.61 191.13 8.52 188.35 C 12.81 188.26 17.09 188.35 21.37 188.28 C 21.40 184.02 21.36 179.76 21.40 175.50 Z" />
</g>
</svg>
