<?xml version="1.0" encoding="UTF-8" ?>
<!DOCTYPE svg PUBLIC "-//W3C//DTD SVG 1.1//EN" "http://www.w3.org/Graphics/SVG/1.1/DTD/svg11.dtd">
<svg width="280pt" height="300pt" viewBox="0 0 280 300" version="1.1" xmlns="http://www.w3.org/2000/svg">
<g id="#ffffffff">
<path fill="#ffffff" opacity="1.00" d=" M 0.00 0.00 L 280.00 0.00 L 280.00 300.00 L 0.00 300.00 L 0.00 0.00 M 92.97 99.47 C 82.42 101.35 72.10 105.71 64.20 113.10 C 61.11 114.82 58.98 117.70 56.75 120.36 C 54.11 123.79 51.18 127.00 48.93 130.71 C 47.59 130.60 46.25 130.48 44.95 130.15 C 40.54 130.83 36.00 131.62 32.19 134.09 C 25.19 137.98 20.41 145.20 18.76 152.94 C 18.15 159.49 17.43 166.51 20.51 172.60 C 24.43 182.24 34.67 188.70 45.00 188.57 C 47.29 188.61 49.73 188.64 51.69 187.27 L 52.89 187.19 C 54.57 187.10 56.23 186.58 57.93 186.72 C 63.86 189.25 68.79 194.30 75.25 195.38 C 76.87 197.71 79.80 198.35 82.25 199.45 C 93.64 204.21 106.86 203.45 118.16 198.82 C 119.84 198.40 120.45 196.82 120.91 195.33 C 111.82 199.24 101.47 199.62 91.99 196.94 C 81.31 193.84 71.59 188.17 62.06 182.57 C 65.20 179.81 68.57 176.97 69.92 172.86 L 70.46 172.26 C 70.53 171.96 70.66 171.37 70.72 171.07 C 71.85 169.36 72.93 167.55 73.26 165.50 C 74.22 156.85 73.76 147.14 67.86 140.20 C 67.08 139.19 65.07 137.14 67.19 136.33 C 75.26 131.72 83.52 127.36 91.15 122.02 C 94.75 120.95 97.48 118.29 100.76 116.60 C 102.69 115.62 104.54 114.44 106.09 112.91 C 109.32 112.05 111.93 109.93 114.80 108.34 C 120.93 105.19 126.81 101.51 133.23 98.94 C 133.25 98.65 133.27 98.06 133.29 97.77 C 123.52 97.97 113.76 97.73 104.00 97.78 C 100.23 97.52 96.57 98.52 92.97 99.47 M 117.56 115.65 C 117.55 116.11 117.53 117.02 117.53 117.47 C 118.08 117.41 119.19 117.30 119.74 117.24 C 119.75 119.66 119.75 122.07 119.74 124.48 C 120.22 124.55 121.17 124.68 121.65 124.74 C 121.66 122.27 121.66 119.80 121.66 117.33 C 122.34 117.35 123.69 117.41 124.37 117.44 C 124.36 116.99 124.34 116.11 124.33 115.67 C 122.07 115.69 119.82 115.69 117.56 115.65 M 137.94 115.27 C 137.66 116.84 137.38 118.41 137.13 119.98 C 134.66 120.23 133.49 118.48 133.11 116.32 C 132.73 116.32 131.97 116.34 131.59 116.34 C 131.73 119.52 131.04 123.02 132.90 125.83 C 133.36 123.94 133.68 121.99 134.54 120.23 C 137.74 119.48 137.42 122.50 137.73 124.66 C 138.16 124.64 139.03 124.60 139.46 124.58 C 139.42 121.85 139.42 119.12 139.42 116.39 C 139.05 116.11 138.31 115.55 137.94 115.27 M 148.94 125.84 C 150.79 122.77 150.91 119.22 150.54 115.77 C 146.28 116.88 147.89 122.79 148.94 125.84 M 83.44 130.55 C 83.48 135.86 83.42 141.18 83.55 146.49 C 84.52 146.49 85.49 146.49 86.46 146.50 C 86.58 141.21 86.34 135.91 86.70 130.63 C 88.05 131.96 89.33 133.38 90.52 134.85 C 89.58 136.74 88.71 138.67 87.98 140.65 C 89.55 139.57 91.10 138.45 92.65 137.33 C 92.96 134.78 92.48 132.30 90.54 130.49 C 88.17 130.53 85.81 130.55 83.44 130.55 M 96.61 130.60 C 96.72 135.84 96.66 141.09 96.67 146.33 C 97.63 146.43 98.59 146.54 99.56 146.65 C 99.67 143.97 99.76 141.30 99.93 138.63 C 102.20 138.62 104.48 138.60 106.75 138.53 C 107.34 141.29 107.46 144.11 107.57 146.93 C 108.15 146.71 109.30 146.28 109.87 146.07 C 110.32 140.92 109.83 135.75 110.25 130.60 C 109.10 130.61 107.95 130.63 106.81 130.65 C 106.82 132.68 106.83 134.71 106.81 136.74 C 104.47 136.71 102.14 136.69 99.80 136.69 C 99.73 134.64 99.69 132.59 99.62 130.54 C 98.62 130.56 97.61 130.58 96.61 130.60 M 137.82 131.03 C 137.22 136.13 137.68 141.28 137.63 146.40 C 138.34 146.44 139.78 146.52 140.49 146.57 C 140.69 141.14 140.66 135.71 140.50 130.28 C 139.59 130.50 138.70 130.75 137.82 131.03 M 160.63 130.63 C 160.42 131.16 160.01 132.23 159.81 132.77 C 159.95 137.39 159.48 142.05 160.33 146.62 C 160.90 146.60 162.04 146.56 162.61 146.54 C 163.20 141.81 161.90 136.70 163.29 132.21 C 165.53 130.31 165.95 134.56 166.92 135.85 C 165.94 137.07 164.98 138.31 164.01 139.55 C 164.69 139.56 166.06 139.59 166.74 139.61 C 167.70 138.30 168.74 137.02 169.40 135.53 C 169.84 133.46 167.87 132.04 166.74 130.61 C 164.71 130.51 162.65 130.25 160.63 130.63 M 202.24 130.67 C 201.39 135.75 201.58 140.95 201.89 146.08 C 202.60 146.30 204.02 146.75 204.73 146.97 C 204.71 144.70 204.65 142.44 204.59 140.18 C 206.12 140.17 207.65 140.18 209.18 140.20 C 209.21 139.27 209.25 138.35 209.29 137.43 C 207.84 137.23 206.22 137.66 204.89 137.01 C 204.71 135.29 204.62 133.56 204.60 131.84 C 206.19 132.34 207.78 132.87 209.35 133.45 C 209.29 132.55 209.23 131.64 209.18 130.74 C 206.86 130.72 204.55 130.71 202.24 130.67 M 116.51 130.53 C 116.64 135.82 116.61 141.11 116.59 146.40 C 117.27 146.48 118.62 146.62 119.30 146.69 C 119.14 141.33 119.09 135.96 119.36 130.60 C 118.64 130.58 117.22 130.55 116.51 130.53 M 125.59 130.23 C 125.67 135.60 125.69 140.98 125.65 146.35 C 126.67 146.46 127.70 146.58 128.73 146.70 C 128.20 141.48 128.79 136.22 128.24 131.01 C 127.58 130.82 126.25 130.43 125.59 130.23 M 146.70 131.60 C 146.56 135.76 146.60 139.92 146.68 144.08 C 146.68 145.73 147.59 146.70 149.41 147.01 C 149.64 141.38 149.57 135.74 149.45 130.10 C 148.77 130.48 147.39 131.23 146.70 131.60 M 151.26 130.01 C 152.44 132.82 154.44 136.11 151.68 138.67 C 151.65 139.19 151.59 140.23 151.56 140.75 C 153.65 139.18 155.43 137.25 156.78 135.01 C 155.63 132.65 153.93 130.65 151.26 130.01 M 173.45 146.49 C 174.03 146.53 175.20 146.60 175.78 146.63 C 175.86 141.26 176.81 135.69 175.38 130.43 L 173.69 130.67 C 173.03 135.91 173.54 141.22 173.45 146.49 M 193.42 131.32 C 193.57 134.95 193.65 138.57 193.66 142.20 C 189.64 138.54 186.97 132.92 181.74 130.91 C 181.52 136.23 181.40 141.55 181.60 146.88 C 182.21 146.65 183.42 146.20 184.03 145.97 C 184.87 142.32 184.02 138.58 183.25 134.99 C 186.80 138.70 190.28 142.48 193.77 146.25 C 194.20 146.33 195.08 146.48 195.52 146.56 C 195.80 141.45 196.41 136.35 196.03 131.24 C 195.37 131.26 194.07 131.30 193.42 131.32 M 214.75 132.44 C 215.68 133.38 216.62 134.32 217.57 135.26 C 217.77 150.53 217.65 165.80 217.22 181.06 C 217.48 183.88 215.19 185.26 212.89 186.09 C 212.76 186.42 212.49 187.08 212.36 187.41 C 222.95 187.18 233.56 188.12 244.13 187.31 C 244.97 184.08 245.54 180.78 245.67 177.43 C 245.24 177.46 244.38 177.53 243.95 177.56 C 242.92 179.62 242.52 182.57 240.09 183.46 C 236.10 184.12 232.00 184.02 227.99 183.63 C 226.01 183.71 224.61 181.89 224.56 180.04 C 223.07 166.08 223.58 152.01 223.60 138.01 C 223.41 135.81 224.87 134.07 225.88 132.29 C 222.21 131.46 218.35 131.12 214.75 132.44 M 96.44 151.39 C 98.99 154.22 98.49 158.09 98.42 161.60 L 98.54 161.63 C 98.24 167.11 98.45 172.60 98.55 178.08 C 100.08 181.03 101.47 184.44 104.57 186.08 C 109.44 188.66 115.52 187.95 120.14 185.17 C 122.55 182.64 124.68 179.62 124.81 176.00 C 126.54 168.09 123.66 160.19 124.71 152.26 C 124.15 152.27 123.01 152.30 122.45 152.31 C 122.92 159.21 122.29 166.11 122.43 173.01 C 122.62 177.92 120.28 182.57 116.42 185.55 C 113.85 185.56 111.29 185.57 108.73 185.58 C 107.01 184.24 105.19 182.99 103.76 181.33 C 101.87 171.47 102.28 161.33 102.63 151.35 C 100.56 151.38 98.50 151.40 96.44 151.39 M 176.26 151.36 C 177.11 154.73 177.51 158.19 177.42 161.66 C 176.98 169.26 178.01 176.94 176.58 184.46 C 175.51 185.34 174.46 186.23 173.41 187.13 C 180.32 187.27 187.37 188.35 194.20 187.10 C 194.53 185.36 194.79 183.62 194.98 181.86 C 192.85 183.20 190.78 185.11 188.06 184.81 C 185.78 184.67 181.47 185.43 181.44 182.04 C 181.32 171.84 180.98 161.62 181.54 151.43 C 179.78 151.41 178.02 151.39 176.26 151.36 M 147.23 151.41 C 147.88 154.63 148.35 157.88 148.43 161.17 C 146.98 168.81 148.05 176.64 147.61 184.36 C 147.07 185.08 146.53 185.81 145.99 186.53 C 148.25 186.60 150.52 186.65 152.79 186.70 C 150.28 178.74 152.13 170.23 151.49 162.03 C 151.49 158.49 151.55 154.94 151.69 151.40 C 150.58 151.40 148.34 151.41 147.23 151.41 M 141.15 190.66 C 141.48 190.89 142.13 191.34 142.46 191.56 C 144.33 197.47 146.02 203.43 147.99 209.31 C 148.64 209.25 149.29 209.18 149.94 209.12 C 151.39 204.98 153.23 200.99 154.45 196.77 C 155.95 200.66 157.50 204.53 158.87 208.47 C 159.38 208.60 160.39 208.87 160.90 209.00 C 163.41 202.94 165.15 196.61 167.67 190.56 C 166.40 190.60 165.13 190.63 163.87 190.67 C 163.61 195.42 161.58 199.78 160.55 204.38 C 158.93 200.16 157.35 195.92 156.16 191.56 C 155.45 191.63 154.74 191.69 154.04 191.76 C 152.68 195.95 150.89 199.99 149.82 204.26 C 147.81 200.01 146.77 195.32 146.23 190.64 C 144.54 190.65 142.84 190.65 141.15 190.66 M 130.70 191.26 C 128.56 197.38 125.81 203.28 124.01 209.52 C 124.61 209.50 125.80 209.46 126.40 209.44 C 127.27 207.39 128.12 205.34 129.02 203.30 C 130.63 203.31 132.25 203.31 133.86 203.31 C 134.83 205.33 135.80 207.36 136.77 209.39 C 137.79 209.43 138.81 209.48 139.83 209.53 C 137.47 203.59 134.90 197.73 132.93 191.65 C 132.18 191.52 131.44 191.39 130.70 191.26 M 176.03 191.68 C 174.07 197.69 171.66 203.53 169.36 209.42 C 170.30 209.41 171.24 209.42 172.18 209.42 C 172.93 207.37 173.72 205.33 174.55 203.30 C 176.27 203.33 177.98 203.36 179.70 203.40 C 180.79 206.11 181.62 209.46 184.96 210.08 C 183.80 203.45 180.28 197.55 178.21 191.20 C 177.48 191.36 176.75 191.52 176.03 191.68 M 190.43 190.68 C 190.76 196.90 190.65 203.14 190.55 209.37 C 191.31 209.41 192.83 209.50 193.60 209.55 C 193.58 207.15 193.50 204.75 193.70 202.36 C 194.31 202.36 195.54 202.35 196.15 202.35 C 198.44 204.59 200.25 207.26 202.50 209.54 C 203.62 209.48 204.74 209.42 205.87 209.36 C 203.55 206.68 201.27 203.96 199.20 201.09 C 200.47 199.32 202.73 197.44 201.95 195.01 C 201.32 192.16 198.40 190.96 196.07 189.82 C 196.65 193.12 199.51 195.61 198.79 199.20 C 197.34 199.80 195.90 200.40 194.46 200.99 C 193.07 197.57 193.47 193.89 194.73 190.52 C 193.65 190.56 191.51 190.64 190.43 190.68 M 209.59 190.62 C 210.75 196.77 209.56 203.07 210.48 209.23 C 211.29 209.35 212.90 209.59 213.70 209.71 C 213.29 203.35 213.21 196.95 213.74 190.59 C 212.70 190.60 210.62 190.61 209.59 190.62 M 218.48 192.47 C 221.09 194.42 224.33 196.33 224.20 200.09 C 225.23 204.31 220.23 206.28 220.23 210.18 C 224.17 208.32 227.83 204.78 227.38 200.05 C 227.67 194.73 222.75 191.26 218.18 189.95 C 218.26 190.58 218.41 191.84 218.48 192.47 M 231.19 195.00 C 231.59 199.65 236.83 201.19 238.94 204.85 C 238.48 206.46 237.82 208.01 237.21 209.57 C 237.75 209.53 238.85 209.45 239.40 209.41 C 240.50 207.77 242.35 206.16 241.73 203.96 C 241.00 200.54 237.45 198.92 235.22 196.54 C 233.13 195.08 234.45 192.68 236.53 192.04 C 235.88 191.46 235.24 190.89 234.59 190.33 C 233.38 191.78 231.50 192.98 231.19 195.00 M 237.76 192.83 C 238.95 193.40 240.13 194.00 241.31 194.61 C 241.33 193.59 241.35 192.58 241.38 191.56 C 240.56 191.19 238.93 190.44 238.11 190.07 C 238.02 190.76 237.85 192.14 237.76 192.83 M 230.71 205.59 C 230.77 206.80 230.84 208.02 230.90 209.24 C 232.23 209.33 233.56 209.42 234.90 209.52 C 233.96 208.26 233.02 207.00 232.09 205.75 C 231.75 205.71 231.06 205.63 230.71 205.59 M 149.44 215.04 C 147.57 215.80 145.05 216.52 144.63 218.83 C 144.52 220.74 146.20 222.01 147.20 223.44 C 148.67 223.40 150.14 223.37 151.61 223.35 C 151.97 222.75 152.32 222.15 152.68 221.56 C 151.13 221.66 149.59 221.75 148.05 221.83 C 147.82 219.90 147.69 217.96 147.59 216.02 C 149.25 216.49 150.89 217.00 152.53 217.52 C 152.46 217.08 152.32 216.20 152.25 215.76 C 151.31 215.52 150.38 215.28 149.44 215.04 M 123.31 215.43 C 123.24 217.85 123.20 220.27 123.19 222.69 C 123.83 222.71 125.12 222.73 125.76 222.75 C 125.76 220.32 125.73 217.90 125.67 215.49 C 125.08 215.47 123.90 215.45 123.31 215.43 M 130.69 215.61 C 129.65 218.20 128.65 220.83 128.33 223.62 C 129.01 222.78 130.37 221.09 131.04 220.25 C 132.15 221.50 133.27 222.74 134.39 223.97 C 134.50 223.27 134.73 221.85 134.84 221.15 C 133.94 219.34 133.08 217.51 132.22 215.69 C 131.84 215.67 131.07 215.63 130.69 215.61 M 159.51 215.40 C 159.49 218.05 159.52 220.71 159.60 223.37 C 160.47 223.31 161.34 223.25 162.21 223.20 C 162.30 221.90 162.40 220.60 162.50 219.30 C 163.19 219.32 164.57 219.35 165.26 219.37 C 165.34 218.34 165.43 217.31 165.52 216.28 C 163.56 215.74 161.53 215.52 159.51 215.40 M 167.66 215.13 C 167.63 217.63 167.63 220.14 167.61 222.65 C 168.15 222.70 169.22 222.81 169.75 222.86 C 170.00 221.47 170.24 220.09 170.47 218.70 C 170.98 218.81 172.01 219.03 172.52 219.14 C 172.54 220.03 172.56 221.82 172.57 222.72 C 173.53 222.67 174.49 222.63 175.45 222.59 C 175.42 220.13 175.40 217.67 175.36 215.21 C 173.40 215.26 172.42 216.26 172.42 218.21 C 171.52 218.10 170.62 217.99 169.73 217.88 C 170.51 215.91 168.92 215.54 167.66 215.13 M 178.48 215.48 C 178.45 218.12 178.47 220.77 178.56 223.41 C 179.46 223.33 180.36 223.25 181.27 223.18 C 181.31 220.65 181.32 218.12 181.34 215.59 C 180.39 215.55 179.43 215.51 178.48 215.48 M 184.33 215.48 C 184.28 218.50 183.48 221.99 186.08 224.28 C 187.99 221.60 186.78 218.34 186.53 215.38 C 185.98 215.41 184.88 215.45 184.33 215.48 M 191.61 215.57 C 191.59 217.94 191.57 220.31 191.58 222.68 C 192.55 222.67 193.52 222.66 194.49 222.65 C 194.47 220.26 194.45 217.87 194.42 215.49 C 193.48 215.51 192.55 215.54 191.61 215.57 M 197.52 215.34 C 197.49 218.02 197.51 220.70 197.59 223.38 C 198.46 223.32 199.33 223.26 200.20 223.21 C 200.30 221.90 200.40 220.60 200.50 219.30 C 201.20 219.31 202.60 219.34 203.29 219.35 C 203.36 218.30 203.43 217.25 203.50 216.20 C 201.54 215.73 199.53 215.51 197.52 215.34 M 213.53 215.46 C 213.50 218.08 213.51 220.70 213.59 223.32 C 214.48 223.28 215.37 223.24 216.27 223.21 C 216.33 220.68 216.36 218.14 216.38 215.62 C 215.42 215.56 214.47 215.51 213.53 215.46 M 219.52 214.99 C 219.67 217.82 218.58 221.09 220.41 223.57 C 220.49 222.46 220.66 220.24 220.75 219.13 C 222.43 220.80 224.24 222.39 226.49 223.24 C 226.57 220.63 226.63 218.02 226.68 215.41 C 226.14 215.45 225.08 215.52 224.55 215.56 C 224.91 216.99 225.24 218.40 225.58 219.85 C 223.55 218.24 221.63 216.50 219.52 214.99 M 229.75 215.66 C 229.75 217.90 229.76 220.15 229.75 222.40 C 230.70 222.60 231.65 222.80 232.61 223.00 C 232.98 220.89 233.40 218.75 232.87 216.63 C 233.14 216.30 233.69 215.63 233.96 215.30 C 232.55 215.42 231.15 215.54 229.75 215.66 M 236.79 216.57 C 237.67 218.61 239.67 220.22 240.11 222.35 C 238.95 222.51 237.91 222.17 236.99 221.33 C 237.21 221.88 237.65 222.96 237.87 223.50 C 239.48 223.08 241.10 222.70 242.71 222.26 C 242.60 221.47 242.49 220.68 242.38 219.89 C 241.36 218.73 240.41 217.53 239.52 216.28 C 240.43 216.20 242.24 216.04 243.15 215.96 C 241.00 215.47 238.84 215.78 236.79 216.57 M 137.49 215.27 C 137.94 217.94 136.08 222.01 139.26 223.43 C 139.40 222.51 139.68 220.66 139.82 219.74 C 140.25 220.75 140.54 221.80 140.70 222.90 C 141.35 222.71 142.67 222.33 143.33 222.14 C 142.98 220.28 142.48 218.46 142.07 216.62 C 140.54 216.20 139.01 215.73 137.49 215.27 M 205.57 215.67 C 205.64 218.59 205.17 221.78 207.06 224.30 C 208.14 221.39 208.42 218.29 208.68 215.23 C 207.90 215.34 206.35 215.56 205.57 215.67 M 209.97 219.30 C 211.62 219.03 211.53 216.13 209.96 215.79 C 208.40 216.10 208.47 218.94 209.97 219.30 Z" />
<path fill="#ffffff" opacity="1.00" d=" M 67.19 123.74 C 75.12 118.60 83.21 113.52 92.13 110.28 C 82.19 114.86 72.97 120.76 64.35 127.48 C 64.08 127.66 63.55 128.01 63.28 128.19 C 62.75 128.35 61.69 128.67 61.16 128.82 C 63.03 126.97 64.95 125.14 67.19 123.74 Z" />
<path fill="#ffffff" opacity="1.00" d=" M 33.78 136.58 C 37.69 133.45 42.90 133.07 47.71 133.37 C 47.56 134.03 47.25 135.35 47.10 136.01 C 44.46 139.91 40.88 143.18 39.18 147.69 C 39.80 149.58 41.85 151.04 43.84 150.04 C 49.55 147.84 54.18 143.67 59.19 140.26 C 59.85 140.55 61.18 141.13 61.84 141.42 C 63.71 145.10 65.76 148.81 66.42 152.93 C 67.47 160.43 66.35 168.07 64.08 175.25 C 61.80 179.00 58.54 182.26 54.41 183.92 C 48.41 185.14 41.58 185.47 36.35 181.74 C 28.66 176.92 25.82 167.56 24.64 159.06 C 24.07 150.79 26.55 141.44 33.78 136.58 M 30.60 160.85 C 30.49 163.08 30.55 165.61 33.40 165.74 C 33.48 163.79 33.53 161.84 33.57 159.90 C 32.83 160.13 31.35 160.61 30.60 160.85 Z" />
<path fill="#ffffff" opacity="1.00" d=" M 130.61 195.74 C 132.00 197.34 133.06 199.28 132.92 201.47 C 129.14 202.55 130.68 197.88 130.61 195.74 Z" />
<path fill="#ffffff" opacity="1.00" d=" M 176.49 201.77 C 174.93 199.97 175.92 197.61 177.62 196.36 C 177.79 198.04 179.25 201.54 176.49 201.77 Z" />
</g>
<g id="#fbc953ff">
<path fill="#fbc953" opacity="1.00" d=" M 92.97 99.47 C 96.57 98.52 100.23 97.52 104.00 97.78 C 113.76 97.73 123.52 97.97 133.29 97.77 C 133.27 98.06 133.25 98.65 133.23 98.94 C 126.81 101.51 120.93 105.19 114.80 108.34 C 111.93 109.93 109.32 112.05 106.09 112.91 C 104.54 114.44 102.69 115.62 100.76 116.60 C 97.48 118.29 94.75 120.95 91.15 122.02 C 83.52 127.36 75.26 131.72 67.19 136.33 C 65.07 137.14 67.08 139.19 67.86 140.20 C 73.76 147.14 74.22 156.85 73.26 165.50 C 72.93 167.55 71.85 169.36 70.72 171.07 C 71.35 168.16 72.11 165.29 72.89 162.43 C 71.30 162.28 69.71 162.13 68.12 161.98 C 67.53 166.58 66.81 171.35 64.08 175.25 C 66.35 168.07 67.47 160.43 66.42 152.93 C 65.76 148.81 63.71 145.10 61.84 141.42 C 61.18 141.13 59.85 140.55 59.19 140.26 C 61.84 139.09 64.15 137.29 66.47 135.58 C 70.32 132.69 75.20 131.38 78.52 127.76 C 73.81 127.36 69.07 127.24 64.35 127.48 C 72.97 120.76 82.19 114.86 92.13 110.28 C 83.21 113.52 75.12 118.60 67.19 123.74 C 64.95 125.14 63.03 126.97 61.16 128.82 C 61.69 128.67 62.75 128.35 63.28 128.19 C 56.99 135.12 49.12 140.55 43.66 148.28 C 49.66 147.03 52.93 140.70 59.19 140.26 C 54.18 143.67 49.55 147.84 43.84 150.04 C 41.85 151.04 39.80 149.58 39.18 147.69 C 39.89 147.51 40.76 147.60 41.23 146.93 C 44.14 143.60 46.69 139.95 50.05 137.05 C 53.60 133.99 57.19 130.98 60.26 127.43 C 57.48 127.41 54.69 127.42 51.90 127.45 C 50.40 130.36 48.89 133.26 47.10 136.01 C 47.25 135.35 47.56 134.03 47.71 133.37 C 42.90 133.07 37.69 133.45 33.78 136.58 C 26.55 141.44 24.07 150.79 24.64 159.06 C 25.82 167.56 28.66 176.92 36.35 181.74 C 41.58 185.47 48.41 185.14 54.41 183.92 C 61.71 187.04 68.56 191.14 75.25 195.38 C 68.79 194.30 63.86 189.25 57.93 186.72 C 56.23 186.58 54.57 187.10 52.89 187.19 C 47.28 185.96 41.09 186.22 36.13 182.97 C 32.02 180.39 28.91 176.41 26.95 172.02 C 25.56 168.91 25.05 165.48 23.55 162.41 C 22.23 161.49 20.40 162.16 18.88 161.95 C 19.83 169.93 23.12 178.18 30.12 182.70 C 36.33 187.25 44.30 187.55 51.69 187.27 C 49.73 188.64 47.29 188.61 45.00 188.57 C 34.67 188.70 24.43 182.24 20.51 172.60 C 17.43 166.51 18.15 159.49 18.76 152.94 C 20.41 145.20 25.19 137.98 32.19 134.09 C 36.00 131.62 40.54 130.83 44.95 130.15 C 46.25 130.48 47.59 130.60 48.93 130.71 C 51.18 127.00 54.11 123.79 56.75 120.36 C 58.98 117.70 61.11 114.82 64.20 113.10 C 72.10 105.71 82.42 101.35 92.97 99.47 Z" />
<path fill="#fbc953" opacity="1.00" d=" M 214.75 132.44 C 218.35 131.12 222.21 131.46 225.88 132.29 C 224.87 134.07 223.41 135.81 223.60 138.01 C 223.58 152.01 223.07 166.08 224.56 180.04 C 224.61 181.89 226.01 183.71 227.99 183.63 C 232.00 184.02 236.10 184.12 240.09 183.46 C 242.52 182.57 242.92 179.62 243.95 177.56 C 244.38 177.53 245.24 177.46 245.67 177.43 C 245.54 180.78 244.97 184.08 244.13 187.31 C 233.56 188.12 222.95 187.18 212.36 187.41 C 212.49 187.08 212.76 186.42 212.89 186.09 C 215.19 185.26 217.48 183.88 217.22 181.06 C 217.65 165.80 217.77 150.53 217.57 135.26 C 216.62 134.32 215.68 133.38 214.75 132.44 M 218.64 162.97 C 217.80 170.54 219.47 178.35 217.39 185.79 C 225.79 185.66 234.22 187.57 242.61 186.26 C 243.85 184.96 243.60 182.89 244.12 181.26 C 242.16 183.26 239.99 185.47 236.93 185.27 C 232.59 185.34 226.56 186.34 223.89 182.04 C 221.93 175.86 224.04 169.30 223.06 163.00 C 221.98 161.42 219.44 160.67 218.64 162.97 Z" />
<path fill="#fbc953" opacity="1.00" d=" M 96.44 151.39 C 98.50 151.40 100.56 151.38 102.63 151.35 C 102.28 161.33 101.87 171.47 103.76 181.33 C 100.31 175.68 101.88 168.74 101.52 162.47 C 100.77 162.26 99.28 161.84 98.54 161.63 L 98.42 161.60 C 98.49 158.09 98.99 154.22 96.44 151.39 Z" />
<path fill="#fbc953" opacity="1.00" d=" M 176.26 151.36 C 178.02 151.39 179.78 151.41 181.54 151.43 C 180.98 161.62 181.32 171.84 181.44 182.04 C 181.47 185.43 185.78 184.67 188.06 184.81 C 190.78 185.11 192.85 183.20 194.98 181.86 C 194.79 183.62 194.53 185.36 194.20 187.10 C 187.37 188.35 180.32 187.27 173.41 187.13 C 174.46 186.23 175.51 185.34 176.58 184.46 C 178.25 185.22 179.99 185.84 181.71 186.51 C 178.96 178.69 180.35 170.36 179.97 162.27 C 179.33 162.12 178.06 161.81 177.42 161.66 C 177.51 158.19 177.11 154.73 176.26 151.36 Z" />
<path fill="#fbc953" opacity="1.00" d=" M 147.23 151.41 C 148.34 151.41 150.58 151.40 151.69 151.40 C 151.55 154.94 151.49 158.49 151.49 162.03 C 150.73 161.82 149.19 161.39 148.43 161.17 C 148.35 157.88 147.88 154.63 147.23 151.41 Z" />
<path fill="#fbc953" opacity="1.00" d=" M 30.60 160.85 C 31.35 160.61 32.83 160.13 33.57 159.90 C 33.53 161.84 33.48 163.79 33.40 165.74 C 30.55 165.61 30.49 163.08 30.60 160.85 Z" />
<path fill="#fbc953" opacity="1.00" d=" M 61.05 183.11 C 63.62 179.37 66.97 176.28 69.92 172.86 C 68.57 176.97 65.20 179.81 62.06 182.57 C 71.59 188.17 81.31 193.84 91.99 196.94 C 101.47 199.62 111.82 199.24 120.91 195.33 C 120.45 196.82 119.84 198.40 118.16 198.82 C 106.86 203.45 93.64 204.21 82.25 199.45 C 79.80 198.35 76.87 197.71 75.25 195.38 C 81.48 197.51 87.50 200.48 94.11 201.24 C 98.52 201.89 102.98 201.34 107.35 200.67 C 100.38 199.58 93.20 199.19 86.57 196.59 C 79.50 194.09 73.13 190.09 66.47 186.71 C 64.54 185.71 62.66 184.58 61.05 183.11 Z" />
</g>
<g id="#777777ff">
<path fill="#777777" opacity="1.00" d=" M 117.56 115.65 C 119.82 115.69 122.07 115.69 124.33 115.67 C 124.34 116.11 124.36 116.99 124.37 117.44 C 123.69 117.41 122.34 117.35 121.66 117.33 C 121.66 119.80 121.66 122.27 121.65 124.74 C 121.17 124.68 120.22 124.55 119.74 124.48 C 119.75 122.07 119.75 119.66 119.74 117.24 C 119.19 117.30 118.08 117.41 117.53 117.47 C 117.53 117.02 117.55 116.11 117.56 115.65 Z" />
<path fill="#777777" opacity="1.00" d=" M 137.94 115.27 C 138.31 115.55 139.05 116.11 139.42 116.39 C 139.42 119.12 139.42 121.85 139.46 124.58 C 139.03 124.60 138.16 124.64 137.73 124.66 C 137.42 122.50 137.74 119.48 134.54 120.23 C 133.68 121.99 133.36 123.94 132.90 125.83 C 131.04 123.02 131.73 119.52 131.59 116.34 C 131.97 116.34 132.73 116.32 133.11 116.32 C 133.49 118.48 134.66 120.23 137.13 119.98 C 137.38 118.41 137.66 116.84 137.94 115.27 Z" />
<path fill="#777777" opacity="1.00" d=" M 148.94 125.84 C 147.89 122.79 146.28 116.88 150.54 115.77 C 150.91 119.22 150.79 122.77 148.94 125.84 Z" />
<path fill="#777777" opacity="1.00" d=" M 83.44 130.55 C 85.81 130.55 88.17 130.53 90.54 130.49 C 92.48 132.30 92.96 134.78 92.65 137.33 C 91.10 138.45 89.55 139.57 87.98 140.65 C 88.71 138.67 89.58 136.74 90.52 134.85 C 89.33 133.38 88.05 131.96 86.70 130.63 C 86.34 135.91 86.58 141.21 86.46 146.50 C 85.49 146.49 84.52 146.49 83.55 146.49 C 83.42 141.18 83.48 135.86 83.44 130.55 Z" />
<path fill="#777777" opacity="1.00" d=" M 96.61 130.60 C 97.61 130.58 98.62 130.56 99.62 130.54 C 99.69 132.59 99.73 134.64 99.80 136.69 C 102.14 136.69 104.47 136.71 106.81 136.74 C 106.83 134.71 106.82 132.68 106.81 130.65 C 107.95 130.63 109.10 130.61 110.25 130.60 C 109.83 135.75 110.32 140.92 109.87 146.07 C 109.30 146.28 108.15 146.71 107.57 146.93 C 107.46 144.11 107.34 141.29 106.75 138.53 C 104.48 138.60 102.20 138.62 99.93 138.63 C 99.76 141.30 99.67 143.97 99.56 146.65 C 98.59 146.54 97.63 146.43 96.67 146.33 C 96.66 141.09 96.72 135.84 96.61 130.60 Z" />
<path fill="#777777" opacity="1.00" d=" M 137.82 131.03 C 138.70 130.75 139.59 130.50 140.50 130.28 C 140.66 135.71 140.69 141.14 140.49 146.57 C 139.78 146.52 138.34 146.44 137.63 146.40 C 137.68 141.28 137.22 136.13 137.82 131.03 Z" />
<path fill="#777777" opacity="1.00" d=" M 160.63 130.63 C 162.65 130.25 164.71 130.51 166.74 130.61 C 167.87 132.04 169.84 133.46 169.40 135.53 C 168.74 137.02 167.70 138.30 166.74 139.61 C 166.06 139.59 164.69 139.56 164.01 139.55 C 164.98 138.31 165.94 137.07 166.92 135.85 C 165.95 134.56 165.53 130.31 163.29 132.21 C 161.90 136.70 163.20 141.81 162.61 146.54 C 162.04 146.56 160.90 146.60 160.33 146.62 C 159.48 142.05 159.95 137.39 159.81 132.77 C 160.01 132.23 160.42 131.16 160.63 130.63 Z" />
<path fill="#777777" opacity="1.00" d=" M 202.24 130.67 C 204.55 130.71 206.86 130.72 209.18 130.74 C 209.23 131.64 209.29 132.55 209.35 133.45 C 207.78 132.87 206.19 132.34 204.60 131.84 C 204.62 133.56 204.71 135.29 204.89 137.01 C 206.22 137.66 207.84 137.23 209.29 137.43 C 209.25 138.35 209.21 139.27 209.18 140.20 C 207.65 140.18 206.12 140.17 204.59 140.18 C 204.65 142.44 204.71 144.70 204.73 146.97 C 204.02 146.75 202.60 146.30 201.89 146.08 C 201.58 140.95 201.39 135.75 202.24 130.67 Z" />
<path fill="#777777" opacity="1.00" d=" M 116.51 130.53 C 117.22 130.55 118.64 130.58 119.36 130.60 C 119.09 135.96 119.14 141.33 119.30 146.69 C 118.62 146.62 117.27 146.48 116.59 146.40 C 116.61 141.11 116.64 135.82 116.51 130.53 Z" />
<path fill="#777777" opacity="1.00" d=" M 125.59 130.23 C 126.25 130.43 127.58 130.82 128.24 131.01 C 128.79 136.22 128.20 141.48 128.73 146.70 C 127.70 146.58 126.67 146.46 125.65 146.35 C 125.69 140.98 125.67 135.60 125.59 130.23 Z" />
<path fill="#777777" opacity="1.00" d=" M 146.70 131.60 C 147.39 131.23 148.77 130.48 149.45 130.10 C 149.57 135.74 149.64 141.38 149.41 147.01 C 147.59 146.70 146.68 145.73 146.68 144.08 C 146.60 139.92 146.56 135.76 146.70 131.60 Z" />
<path fill="#777777" opacity="1.00" d=" M 151.26 130.01 C 153.93 130.65 155.63 132.65 156.78 135.01 C 155.43 137.25 153.65 139.18 151.56 140.75 C 151.59 140.23 151.65 139.19 151.68 138.67 C 154.44 136.11 152.44 132.82 151.26 130.01 Z" />
<path fill="#777777" opacity="1.00" d=" M 173.45 146.49 C 173.54 141.22 173.03 135.91 173.69 130.67 L 175.38 130.43 C 176.81 135.69 175.86 141.26 175.78 146.63 C 175.20 146.60 174.03 146.53 173.45 146.49 Z" />
<path fill="#777777" opacity="1.00" d=" M 193.42 131.32 C 194.07 131.30 195.37 131.26 196.03 131.24 C 196.41 136.35 195.80 141.45 195.52 146.56 C 195.08 146.48 194.20 146.33 193.77 146.25 C 190.28 142.48 186.80 138.70 183.25 134.99 C 184.02 138.58 184.87 142.32 184.03 145.97 C 183.42 146.20 182.21 146.65 181.60 146.88 C 181.40 141.55 181.52 136.23 181.74 130.91 C 186.97 132.92 189.64 138.54 193.66 142.20 C 193.65 138.57 193.57 134.95 193.42 131.32 Z" />
<path fill="#777777" opacity="1.00" d=" M 141.15 190.66 C 142.84 190.65 144.54 190.65 146.23 190.64 C 146.77 195.32 147.81 200.01 149.82 204.26 C 150.89 199.99 152.68 195.95 154.04 191.76 C 154.74 191.69 155.45 191.63 156.16 191.56 C 157.35 195.92 158.93 200.16 160.55 204.38 C 161.58 199.78 163.61 195.42 163.87 190.67 C 165.13 190.63 166.40 190.60 167.67 190.56 C 165.15 196.61 163.41 202.94 160.90 209.00 C 160.39 208.87 159.38 208.60 158.87 208.47 C 157.50 204.53 155.95 200.66 154.45 196.77 C 153.23 200.99 151.39 204.98 149.94 209.12 C 149.29 209.18 148.64 209.25 147.99 209.31 C 146.02 203.43 144.33 197.47 142.46 191.56 C 142.13 191.34 141.48 190.89 141.15 190.66 Z" />
<path fill="#777777" opacity="1.00" d=" M 130.70 191.26 C 131.44 191.39 132.18 191.52 132.93 191.65 C 134.90 197.73 137.47 203.59 139.83 209.53 C 138.81 209.48 137.79 209.43 136.77 209.39 C 135.80 207.36 134.83 205.33 133.86 203.31 C 132.25 203.31 130.63 203.31 129.02 203.30 C 128.12 205.34 127.27 207.39 126.40 209.44 C 125.80 209.46 124.61 209.50 124.01 209.52 C 125.81 203.28 128.56 197.38 130.70 191.26 M 130.61 195.74 C 130.68 197.88 129.14 202.55 132.92 201.47 C 133.06 199.28 132.00 197.34 130.61 195.74 Z" />
<path fill="#777777" opacity="1.00" d=" M 176.03 191.68 C 176.75 191.52 177.48 191.36 178.21 191.20 C 180.28 197.55 183.80 203.45 184.96 210.08 C 181.62 209.46 180.79 206.11 179.70 203.40 C 177.98 203.36 176.27 203.33 174.55 203.30 C 173.72 205.33 172.93 207.37 172.18 209.42 C 171.24 209.42 170.30 209.41 169.36 209.42 C 171.66 203.53 174.07 197.69 176.03 191.68 M 176.49 201.77 C 179.25 201.54 177.79 198.04 177.62 196.36 C 175.92 197.61 174.93 199.97 176.49 201.77 Z" />
<path fill="#777777" opacity="1.00" d=" M 190.43 190.68 C 191.51 190.64 193.65 190.56 194.73 190.52 C 193.47 193.89 193.07 197.57 194.46 200.99 C 195.90 200.40 197.34 199.80 198.79 199.20 C 199.51 195.61 196.65 193.12 196.07 189.82 C 198.40 190.96 201.32 192.16 201.95 195.01 C 202.73 197.44 200.47 199.32 199.20 201.09 C 201.27 203.96 203.55 206.68 205.87 209.36 C 204.74 209.42 203.62 209.48 202.50 209.54 C 200.25 207.26 198.44 204.59 196.15 202.35 C 195.54 202.35 194.31 202.36 193.70 202.36 C 193.50 204.75 193.58 207.15 193.60 209.55 C 192.83 209.50 191.31 209.41 190.55 209.37 C 190.65 203.14 190.76 196.90 190.43 190.68 Z" />
<path fill="#777777" opacity="1.00" d=" M 209.59 190.62 C 210.62 190.61 212.70 190.60 213.74 190.59 C 213.21 196.95 213.29 203.35 213.70 209.71 C 212.90 209.59 211.29 209.35 210.48 209.23 C 209.56 203.07 210.75 196.77 209.59 190.62 Z" />
<path fill="#777777" opacity="1.00" d=" M 218.48 192.47 C 218.41 191.84 218.26 190.58 218.18 189.95 C 222.75 191.26 227.67 194.73 227.38 200.05 C 227.83 204.78 224.17 208.32 220.23 210.18 C 220.23 206.28 225.23 204.31 224.20 200.09 C 224.33 196.33 221.09 194.42 218.48 192.47 Z" />
<path fill="#777777" opacity="1.00" d=" M 231.19 195.00 C 231.50 192.98 233.38 191.78 234.59 190.33 C 235.24 190.89 235.88 191.46 236.53 192.04 C 234.45 192.68 233.13 195.08 235.22 196.54 C 237.45 198.92 241.00 200.54 241.73 203.96 C 242.35 206.16 240.50 207.77 239.40 209.41 C 238.85 209.45 237.75 209.53 237.21 209.57 C 237.82 208.01 238.48 206.46 238.94 204.85 C 236.83 201.19 231.59 199.65 231.19 195.00 Z" />
<path fill="#777777" opacity="1.00" d=" M 237.76 192.83 C 237.85 192.14 238.02 190.76 238.11 190.07 C 238.93 190.44 240.56 191.19 241.38 191.56 C 241.35 192.58 241.33 193.59 241.31 194.61 C 240.13 194.00 238.95 193.40 237.76 192.83 Z" />
<path fill="#777777" opacity="1.00" d=" M 230.71 205.59 C 231.06 205.63 231.75 205.71 232.09 205.75 C 233.02 207.00 233.96 208.26 234.90 209.52 C 233.56 209.42 232.23 209.33 230.90 209.24 C 230.84 208.02 230.77 206.80 230.71 205.59 Z" />
<path fill="#777777" opacity="1.00" d=" M 149.44 215.04 C 150.38 215.28 151.31 215.52 152.25 215.76 C 152.32 216.20 152.46 217.08 152.53 217.52 C 150.89 217.00 149.25 216.49 147.59 216.02 C 147.69 217.96 147.82 219.90 148.05 221.83 C 149.59 221.75 151.13 221.66 152.68 221.56 C 152.32 222.15 151.97 222.75 151.61 223.35 C 150.14 223.37 148.67 223.40 147.20 223.44 C 146.20 222.01 144.52 220.74 144.63 218.83 C 145.05 216.52 147.57 215.80 149.44 215.04 Z" />
<path fill="#777777" opacity="1.00" d=" M 123.31 215.43 C 123.90 215.45 125.08 215.47 125.67 215.49 C 125.73 217.90 125.76 220.32 125.76 222.75 C 125.12 222.73 123.83 222.71 123.19 222.69 C 123.20 220.27 123.24 217.85 123.31 215.43 Z" />
<path fill="#777777" opacity="1.00" d=" M 130.69 215.61 C 131.07 215.63 131.84 215.67 132.22 215.69 C 133.08 217.51 133.94 219.34 134.84 221.15 C 134.73 221.85 134.50 223.27 134.39 223.97 C 133.27 222.74 132.15 221.50 131.04 220.25 C 130.37 221.09 129.01 222.78 128.33 223.62 C 128.65 220.83 129.65 218.20 130.69 215.61 Z" />
<path fill="#777777" opacity="1.00" d=" M 159.51 215.40 C 161.53 215.52 163.56 215.74 165.52 216.28 C 165.43 217.31 165.34 218.34 165.26 219.37 C 164.57 219.35 163.19 219.32 162.50 219.30 C 162.40 220.60 162.30 221.90 162.21 223.20 C 161.34 223.25 160.47 223.31 159.60 223.37 C 159.52 220.71 159.49 218.05 159.51 215.40 Z" />
<path fill="#777777" opacity="1.00" d=" M 167.66 215.13 C 168.92 215.54 170.51 215.91 169.73 217.88 C 170.62 217.99 171.52 218.10 172.42 218.21 C 172.42 216.26 173.40 215.26 175.36 215.21 C 175.40 217.67 175.42 220.13 175.45 222.59 C 174.49 222.63 173.53 222.67 172.57 222.72 C 172.56 221.82 172.54 220.03 172.52 219.14 C 172.01 219.03 170.98 218.81 170.47 218.70 C 170.24 220.09 170.00 221.47 169.75 222.86 C 169.22 222.81 168.15 222.70 167.61 222.65 C 167.63 220.14 167.63 217.63 167.66 215.13 Z" />
<path fill="#777777" opacity="1.00" d=" M 178.48 215.48 C 179.43 215.51 180.39 215.55 181.34 215.59 C 181.32 218.12 181.31 220.65 181.27 223.18 C 180.36 223.25 179.46 223.33 178.56 223.41 C 178.47 220.77 178.45 218.12 178.48 215.48 Z" />
<path fill="#777777" opacity="1.00" d=" M 184.33 215.48 C 184.88 215.45 185.98 215.41 186.53 215.38 C 186.78 218.34 187.99 221.60 186.08 224.28 C 183.48 221.99 184.28 218.50 184.33 215.48 Z" />
<path fill="#777777" opacity="1.00" d=" M 191.61 215.57 C 192.55 215.54 193.48 215.51 194.42 215.49 C 194.45 217.87 194.47 220.26 194.49 222.65 C 193.52 222.66 192.55 222.67 191.58 222.68 C 191.57 220.31 191.59 217.94 191.61 215.57 Z" />
<path fill="#777777" opacity="1.00" d=" M 197.52 215.34 C 199.53 215.51 201.54 215.73 203.50 216.20 C 203.43 217.25 203.36 218.30 203.29 219.35 C 202.60 219.34 201.20 219.31 200.50 219.30 C 200.40 220.60 200.30 221.90 200.20 223.21 C 199.33 223.26 198.46 223.32 197.59 223.38 C 197.51 220.70 197.49 218.02 197.52 215.34 Z" />
<path fill="#777777" opacity="1.00" d=" M 213.53 215.46 C 214.47 215.51 215.42 215.56 216.38 215.62 C 216.36 218.14 216.33 220.68 216.27 223.21 C 215.37 223.24 214.48 223.28 213.59 223.32 C 213.51 220.70 213.50 218.08 213.53 215.46 Z" />
<path fill="#777777" opacity="1.00" d=" M 219.52 214.99 C 221.63 216.50 223.55 218.24 225.58 219.85 C 225.24 218.40 224.91 216.99 224.55 215.56 C 225.08 215.52 226.14 215.45 226.68 215.41 C 226.63 218.02 226.57 220.63 226.49 223.24 C 224.24 222.39 222.43 220.80 220.75 219.13 C 220.66 220.24 220.49 222.46 220.41 223.57 C 218.58 221.09 219.67 217.82 219.52 214.99 Z" />
<path fill="#777777" opacity="1.00" d=" M 229.75 215.66 C 231.15 215.54 232.55 215.42 233.96 215.30 C 233.69 215.63 233.14 216.30 232.87 216.63 C 233.40 218.75 232.98 220.89 232.61 223.00 C 231.65 222.80 230.70 222.60 229.75 222.40 C 229.76 220.15 229.75 217.90 229.75 215.66 Z" />
<path fill="#777777" opacity="1.00" d=" M 236.79 216.57 C 238.84 215.78 241.00 215.47 243.15 215.96 C 242.24 216.04 240.43 216.20 239.52 216.28 C 240.41 217.53 241.36 218.73 242.38 219.89 C 242.49 220.68 242.60 221.47 242.71 222.26 C 241.10 222.70 239.48 223.08 237.87 223.50 C 237.65 222.96 237.21 221.88 236.99 221.33 C 237.91 222.17 238.95 222.51 240.11 222.35 C 239.67 220.22 237.67 218.61 236.79 216.57 Z" />
<path fill="#777777" opacity="1.00" d=" M 137.49 215.27 C 139.01 215.73 140.54 216.20 142.07 216.62 C 142.48 218.46 142.98 220.28 143.33 222.14 C 142.67 222.33 141.35 222.71 140.70 222.90 C 140.54 221.80 140.25 220.75 139.82 219.74 C 139.68 220.66 139.40 222.51 139.26 223.43 C 136.08 222.01 137.94 217.94 137.49 215.27 Z" />
<path fill="#777777" opacity="1.00" d=" M 205.57 215.67 C 206.35 215.56 207.90 215.34 208.68 215.23 C 208.42 218.29 208.14 221.39 207.06 224.30 C 205.17 221.78 205.64 218.59 205.57 215.67 Z" />
<path fill="#777777" opacity="1.00" d=" M 209.97 219.30 C 208.47 218.94 208.40 216.10 209.96 215.79 C 211.53 216.13 211.62 219.03 209.97 219.30 Z" />
</g>
<g id="#fb8902ff">
<path fill="#fb8902" opacity="1.00" d=" M 47.10 136.01 C 48.89 133.26 50.40 130.36 51.90 127.45 C 54.69 127.42 57.48 127.41 60.26 127.43 C 57.19 130.98 53.60 133.99 50.05 137.05 C 46.69 139.95 44.14 143.60 41.23 146.93 C 40.76 147.60 39.89 147.51 39.18 147.69 C 40.88 143.18 44.46 139.91 47.10 136.01 Z" />
<path fill="#fb8902" opacity="1.00" d=" M 63.28 128.19 C 63.55 128.01 64.08 127.66 64.35 127.48 C 69.07 127.24 73.81 127.36 78.52 127.76 C 75.20 131.38 70.32 132.69 66.47 135.58 C 64.15 137.29 61.84 139.09 59.19 140.26 C 52.93 140.70 49.66 147.03 43.66 148.28 C 49.12 140.55 56.99 135.12 63.28 128.19 Z" />
<path fill="#fb8902" opacity="1.00" d=" M 122.45 152.31 C 123.01 152.30 124.15 152.27 124.71 152.26 C 123.66 160.19 126.54 168.09 124.81 176.00 C 124.68 179.62 122.55 182.64 120.14 185.17 C 115.52 187.95 109.44 188.66 104.57 186.08 C 101.47 184.44 100.08 181.03 98.55 178.08 C 98.45 172.60 98.24 167.11 98.54 161.63 C 99.28 161.84 100.77 162.26 101.52 162.47 C 101.88 168.74 100.31 175.68 103.76 181.33 C 105.19 182.99 107.01 184.24 108.73 185.58 C 111.29 185.57 113.85 185.56 116.42 185.55 C 120.28 182.57 122.62 177.92 122.43 173.01 C 122.29 166.11 122.92 159.21 122.45 152.31 Z" />
<path fill="#fb8902" opacity="1.00" d=" M 148.43 161.17 C 149.19 161.39 150.73 161.82 151.49 162.03 C 152.13 170.23 150.28 178.74 152.79 186.70 C 150.52 186.65 148.25 186.60 145.99 186.53 C 146.53 185.81 147.07 185.08 147.61 184.36 C 148.05 176.64 146.98 168.81 148.43 161.17 Z" />
<path fill="#fb8902" opacity="1.00" d=" M 218.64 162.97 C 219.44 160.67 221.98 161.42 223.06 163.00 C 224.04 169.30 221.93 175.86 223.89 182.04 C 226.56 186.34 232.59 185.34 236.93 185.27 C 239.99 185.47 242.16 183.26 244.12 181.26 C 243.60 182.89 243.85 184.96 242.61 186.26 C 234.22 187.57 225.79 185.66 217.39 185.79 C 219.47 178.35 217.80 170.54 218.64 162.97 Z" />
<path fill="#fb8902" opacity="1.00" d=" M 18.88 161.95 C 20.40 162.16 22.23 161.49 23.55 162.41 C 25.05 165.48 25.56 168.91 26.95 172.02 C 28.91 176.41 32.02 180.39 36.13 182.97 C 41.09 186.22 47.28 185.96 52.89 187.19 L 51.69 187.27 C 44.30 187.55 36.33 187.25 30.12 182.70 C 23.12 178.18 19.83 169.93 18.88 161.95 Z" />
<path fill="#fb8902" opacity="1.00" d=" M 68.12 161.98 C 69.71 162.13 71.30 162.28 72.89 162.43 C 72.11 165.29 71.35 168.16 70.72 171.07 C 70.66 171.37 70.53 171.96 70.46 172.26 L 69.92 172.86 C 66.97 176.28 63.62 179.37 61.05 183.11 C 62.66 184.58 64.54 185.71 66.47 186.71 C 73.13 190.09 79.50 194.09 86.57 196.59 C 93.20 199.19 100.38 199.58 107.35 200.67 C 102.98 201.34 98.52 201.89 94.11 201.24 C 87.50 200.48 81.48 197.51 75.25 195.38 C 68.56 191.14 61.71 187.04 54.41 183.92 C 58.54 182.26 61.80 179.00 64.08 175.25 C 66.81 171.35 67.53 166.58 68.12 161.98 Z" />
<path fill="#fb8902" opacity="1.00" d=" M 177.42 161.66 C 178.06 161.81 179.33 162.12 179.97 162.27 C 180.35 170.36 178.96 178.69 181.71 186.51 C 179.99 185.84 178.25 185.22 176.58 184.46 C 178.01 176.94 176.98 169.26 177.42 161.66 Z" />
</g>
</svg>
