<?xml version="1.0" encoding="UTF-8" ?>
<!DOCTYPE svg PUBLIC "-//W3C//DTD SVG 1.1//EN" "http://www.w3.org/Graphics/SVG/1.1/DTD/svg11.dtd">
<svg width="280pt" height="300pt" viewBox="0 0 280 300" version="1.1" xmlns="http://www.w3.org/2000/svg">
<g id="#000000fe">
<path fill="#000000" opacity="1.00" d=" M 98.17 30.77 C 99.36 30.82 100.56 30.86 101.75 30.91 C 101.76 31.80 101.78 33.59 101.79 34.48 C 104.37 32.15 107.06 29.86 110.85 30.71 C 109.03 33.19 107.13 35.61 105.22 38.01 C 107.33 40.43 109.88 42.54 111.29 45.50 C 109.55 45.49 107.82 45.47 106.09 45.44 C 105.11 44.15 104.14 42.87 103.17 41.58 C 102.79 41.50 102.02 41.34 101.64 41.25 C 101.70 42.68 101.75 44.12 101.81 45.55 C 100.82 45.51 98.84 45.44 97.85 45.41 C 97.87 40.53 97.72 35.64 98.17 30.77 Z" />
<path fill="#000000" opacity="1.00" d=" M 108.55 36.99 C 109.62 32.98 113.65 29.31 118.03 30.62 C 123.14 31.92 125.76 38.95 121.96 42.93 C 119.52 46.36 114.88 46.02 111.42 44.57 C 110.12 42.23 108.01 39.86 108.55 36.99 M 112.22 37.99 C 113.35 39.32 113.98 41.84 116.14 41.68 C 119.43 41.64 120.76 36.70 117.80 35.03 C 115.37 32.96 113.46 36.22 112.22 37.99 Z" />
<path fill="#000000" opacity="1.00" d=" M 124.30 30.77 C 125.29 30.79 127.27 30.82 128.26 30.84 C 128.25 32.51 128.24 34.18 128.23 35.85 C 129.57 35.76 130.92 35.66 132.26 35.56 C 132.21 34.07 132.15 32.59 132.11 31.10 C 133.16 31.11 135.26 31.14 136.31 31.15 C 136.18 35.93 136.19 40.71 136.25 45.49 C 134.74 45.46 133.24 45.42 131.74 45.39 C 131.74 43.66 131.75 41.93 131.76 40.21 C 130.58 40.22 129.40 40.24 128.23 40.27 C 128.25 41.98 128.28 43.70 128.32 45.42 C 126.94 45.44 125.56 45.45 124.19 45.46 C 124.40 40.57 124.33 35.67 124.30 30.77 Z" />
<path fill="#000000" opacity="1.00" d=" M 136.80 31.10 C 138.33 31.01 139.86 31.10 141.38 31.33 C 141.25 34.77 141.24 38.20 141.25 41.64 C 142.67 41.63 144.08 41.63 145.51 41.62 C 145.52 42.58 145.54 44.52 145.55 45.48 C 142.62 45.50 139.70 45.49 136.77 45.42 C 136.75 40.65 136.78 35.87 136.80 31.10 Z" />
<path fill="#000000" opacity="1.00" d=" M 146.28 30.79 C 148.97 31.03 152.01 30.13 154.46 31.53 C 154.51 32.24 154.60 33.66 154.64 34.37 C 153.21 34.38 151.77 34.39 150.34 34.41 C 150.35 34.95 150.38 36.04 150.39 36.58 C 151.67 36.63 152.96 36.68 154.24 36.74 C 154.22 37.46 154.16 38.92 154.14 39.64 C 152.83 39.84 151.53 40.04 150.23 40.24 C 150.31 40.73 150.48 41.71 150.56 42.20 C 151.89 42.22 153.23 42.24 154.56 42.26 C 154.54 43.07 154.51 44.67 154.49 45.47 C 151.75 45.49 149.01 45.49 146.27 45.47 C 146.26 40.58 146.21 35.68 146.28 30.79 Z" />
<path fill="#000000" opacity="1.00" d=" M 155.33 30.75 C 158.46 30.85 162.67 30.15 164.50 33.41 C 166.26 35.70 163.93 37.95 163.10 40.06 C 163.91 41.70 165.02 43.17 166.03 44.69 C 167.18 44.10 168.34 43.51 169.53 42.99 C 169.55 43.66 169.60 45.00 169.62 45.66 C 167.19 45.55 164.77 45.49 162.34 45.49 C 161.34 44.26 160.36 43.03 159.36 41.80 C 159.32 42.70 159.23 44.51 159.19 45.42 C 158.21 45.44 156.25 45.48 155.27 45.51 C 155.20 40.59 155.17 35.67 155.33 30.75 M 159.29 34.27 C 159.25 34.93 159.18 36.24 159.15 36.90 C 159.75 36.82 160.96 36.66 161.57 36.58 C 161.51 36.10 161.39 35.15 161.33 34.67 C 160.82 34.57 159.80 34.37 159.29 34.27 Z" />
<path fill="#000000" opacity="1.00" d=" M 138.94 52.57 C 140.12 51.31 141.28 50.02 142.46 48.75 C 142.87 49.61 143.27 50.47 143.67 51.33 C 143.14 52.97 142.81 54.66 142.61 56.37 C 144.75 56.44 146.88 56.47 149.02 56.47 C 148.36 54.66 145.01 54.25 145.45 52.15 C 145.97 51.63 147.00 50.58 147.52 50.06 C 148.61 50.73 149.69 51.40 150.78 52.08 C 149.73 52.16 147.64 52.33 146.59 52.42 C 148.10 53.32 149.61 54.22 151.11 55.15 C 149.86 59.32 144.81 57.49 141.64 57.41 C 141.43 55.65 141.28 53.88 141.20 52.11 C 139.63 53.50 139.06 55.40 139.12 57.45 C 138.69 57.49 137.84 57.55 137.41 57.59 C 137.46 55.87 137.50 54.16 137.55 52.44 C 136.92 52.40 135.66 52.30 135.03 52.25 C 134.36 53.93 134.52 55.78 134.40 57.55 L 133.32 57.64 C 133.18 55.58 132.99 53.52 132.76 51.46 C 135.06 50.80 137.75 49.49 138.94 52.57 Z" />
<path fill="#000000" opacity="1.00" d=" M 106.41 51.48 C 107.76 51.03 109.12 50.58 110.47 50.12 C 111.00 50.54 111.54 50.96 112.08 51.38 C 114.74 49.12 117.28 51.59 117.99 54.24 L 116.27 54.66 C 116.40 55.43 116.64 56.99 116.76 57.77 C 113.51 58.81 109.36 56.51 110.81 52.64 C 110.12 52.71 108.76 52.85 108.08 52.92 C 108.12 54.38 108.17 55.84 108.22 57.30 C 107.79 57.43 106.93 57.68 106.49 57.80 C 106.48 55.69 106.46 53.58 106.41 51.48 M 113.30 52.38 C 113.28 55.75 116.37 50.95 113.30 52.38 M 113.43 55.17 C 113.65 56.59 114.33 56.80 115.46 55.81 C 115.24 54.42 114.57 54.20 113.43 55.17 Z" />
<path fill="#000000" opacity="1.00" d=" M 125.53 56.64 C 123.20 54.29 125.66 49.95 128.83 50.47 C 130.70 50.92 131.35 52.85 131.87 54.47 C 129.87 54.55 127.86 54.60 125.86 54.70 C 126.92 57.09 129.30 56.48 131.34 56.39 C 129.99 58.20 126.89 58.67 125.53 56.64 M 127.32 52.37 C 127.38 55.74 130.35 50.89 127.32 52.37 Z" />
<path fill="#000000" opacity="1.00" d=" M 97.66 51.45 C 99.63 51.16 101.96 49.56 103.62 51.39 C 105.25 52.50 105.24 54.83 104.47 56.45 C 103.27 58.23 101.02 57.72 99.21 57.75 C 99.18 58.66 99.12 60.50 99.09 61.41 C 96.29 59.03 98.26 54.67 97.66 51.45 M 99.34 52.27 C 99.40 53.71 99.46 55.15 99.54 56.60 C 101.35 56.69 102.86 55.89 104.06 54.58 C 103.23 52.59 101.36 52.06 99.34 52.27 Z" />
<path fill="#000000" opacity="1.00" d=" M 118.10 52.90 C 119.47 50.51 122.26 49.57 124.10 52.15 C 123.06 52.18 120.99 52.24 119.95 52.27 C 121.38 53.27 122.81 54.27 124.23 55.29 C 123.57 58.19 119.46 59.01 118.09 56.17 C 119.48 56.32 120.87 56.47 122.27 56.61 C 121.29 54.97 119.63 53.96 118.10 52.90 Z" />
<path fill="#000000" opacity="1.00" d=" M 62.38 58.36 C 63.67 58.38 65.08 58.04 66.28 58.70 C 67.29 59.80 66.87 61.22 66.33 62.43 C 65.02 62.66 63.69 62.68 62.36 62.74 C 62.35 61.28 62.36 59.82 62.38 58.36 Z" />
<path fill="#000000" opacity="1.00" d=" M 55.37 68.59 C 56.73 68.16 58.45 66.83 59.64 68.36 C 61.37 69.46 60.17 72.92 58.06 72.49 C 55.70 73.11 55.58 70.12 55.37 68.59 Z" />
<path fill="#000000" opacity="1.00" d=" M 43.47 91.65 C 45.33 90.59 47.73 93.19 46.66 94.92 C 46.30 96.92 43.97 96.26 42.53 96.50 C 42.51 94.96 41.46 92.24 43.47 91.65 Z" />
<path fill="#000000" opacity="1.00" d=" M 37.91 100.93 C 39.05 100.64 40.22 100.56 41.38 100.43 C 41.63 102.07 41.63 103.73 41.35 105.37 C 40.13 105.35 38.92 105.33 37.70 105.31 C 37.60 103.84 36.83 102.20 37.91 100.93 Z" />
<path fill="#000000" opacity="1.00" d=" M 32.48 111.56 C 34.19 111.43 37.74 110.37 37.51 113.22 C 37.75 115.79 34.60 116.41 32.89 115.04 C 32.66 113.89 32.59 112.72 32.48 111.56 Z" />
<path fill="#000000" opacity="1.00" d=" M 39.27 113.31 C 40.72 113.32 42.18 113.34 43.63 113.37 C 43.59 114.74 43.55 116.12 43.49 117.50 C 42.12 117.53 40.75 117.55 39.38 117.55 C 39.34 116.14 39.31 114.72 39.27 113.31 Z" />
<path fill="#000000" opacity="1.00" d=" M 29.17 124.99 C 28.41 123.17 30.52 120.78 32.40 121.80 C 34.42 122.50 33.39 124.98 33.51 126.55 C 32.01 126.31 29.54 127.10 29.17 124.99 Z" />
<path fill="#000000" opacity="1.00" d=" M 36.91 123.55 C 38.08 123.58 39.25 123.62 40.42 123.66 C 40.23 125.13 41.35 127.56 39.41 128.13 C 37.69 129.15 36.41 127.24 35.33 126.22 C 35.73 125.55 36.52 124.21 36.91 123.55 Z" />
<path fill="#000000" opacity="1.00" d=" M 98.14 133.04 C 99.89 129.18 105.07 130.83 108.40 130.86 C 113.25 131.42 115.05 136.83 113.32 140.93 C 110.97 144.60 106.06 144.07 102.29 144.50 C 102.32 147.45 102.34 150.39 102.37 153.34 C 100.97 153.46 99.57 153.59 98.17 153.71 C 97.75 146.84 97.58 139.89 98.14 133.04 M 102.31 134.40 C 102.32 136.49 102.33 138.58 102.36 140.68 C 104.93 140.48 110.01 141.04 109.57 137.08 C 109.21 133.66 104.72 134.65 102.31 134.40 Z" />
<path fill="#000000" opacity="1.00" d=" M 130.37 130.58 C 131.51 130.57 132.66 130.56 133.80 130.55 C 134.76 138.14 133.96 145.82 134.28 153.45 C 132.77 153.46 131.25 153.46 129.74 153.47 C 129.76 150.15 129.78 146.84 129.77 143.52 C 126.35 143.53 122.93 143.54 119.51 143.57 C 119.53 146.90 119.54 150.24 119.51 153.57 C 118.15 153.56 116.80 153.55 115.44 153.54 C 115.42 145.90 115.49 138.27 115.53 130.63 C 116.51 130.62 118.46 130.61 119.44 130.61 C 119.54 133.59 119.54 136.58 119.47 139.56 C 122.96 139.64 126.45 139.66 129.94 139.66 C 129.66 136.63 129.72 133.56 130.37 130.58 Z" />
<path fill="#000000" opacity="1.00" d=" M 165.02 133.06 C 166.08 130.13 169.58 130.58 172.05 130.60 C 175.34 130.41 179.28 131.55 180.55 134.93 C 180.77 136.93 180.92 139.04 180.23 140.97 C 177.86 144.58 173.01 144.05 169.25 144.51 C 169.28 147.49 169.30 150.47 169.31 153.45 C 167.80 153.44 166.28 153.45 164.77 153.47 C 164.98 146.67 164.45 139.84 165.02 133.06 M 169.27 134.40 C 169.27 136.50 169.28 138.60 169.30 140.70 C 171.87 140.50 176.76 141.04 176.55 137.16 C 176.05 133.73 171.75 134.58 169.27 134.40 Z" />
<path fill="#000000" opacity="1.00" d=" M 184.43 130.61 C 188.06 130.81 191.96 130.05 195.33 131.79 C 199.10 133.73 199.44 139.64 196.50 142.43 C 193.62 144.54 189.81 144.25 186.44 144.54 C 186.49 147.53 186.50 150.53 186.49 153.53 C 185.09 153.54 183.70 153.55 182.32 153.56 C 182.24 147.08 182.26 140.60 182.38 134.12 C 182.24 132.59 183.59 131.67 184.43 130.61 M 186.46 134.48 C 186.45 136.51 186.45 138.53 186.44 140.55 C 188.34 140.50 190.27 140.64 192.14 140.20 C 193.51 139.61 194.93 137.51 193.75 136.19 C 192.26 133.58 188.90 134.73 186.46 134.48 Z" />
<path fill="#000000" opacity="1.00" d=" M 200.30 130.62 C 201.47 130.61 202.63 130.59 203.80 130.57 C 204.53 138.21 204.16 145.91 204.03 153.57 C 202.78 153.58 201.54 153.59 200.30 153.60 C 199.78 145.95 200.29 138.29 200.30 130.62 Z" />
<path fill="#000000" opacity="1.00" d=" M 231.41 130.77 C 235.48 130.46 239.57 130.77 243.65 130.63 C 243.68 131.96 243.71 133.29 243.74 134.62 C 240.11 134.61 236.48 134.59 232.85 134.65 C 232.84 136.34 232.83 138.02 232.82 139.71 C 236.20 139.78 239.59 139.76 242.98 139.88 C 239.66 140.29 236.32 140.34 232.99 140.42 C 236.42 140.56 239.86 140.38 243.30 140.17 C 243.30 141.04 243.31 142.78 243.31 143.65 C 239.94 143.67 236.57 143.67 233.20 143.61 C 233.02 145.59 232.85 147.58 232.69 149.57 C 236.47 149.75 240.28 149.31 244.04 149.83 C 244.18 150.76 244.45 152.61 244.59 153.54 C 239.27 153.56 233.95 153.56 228.63 153.53 C 228.60 146.62 228.71 139.71 228.57 132.80 C 229.49 132.10 230.35 131.27 231.41 130.77 Z" />
<path fill="#000000" opacity="1.00" d=" M 246.65 133.79 C 249.61 129.42 256.19 129.20 260.38 131.80 C 261.30 133.47 259.09 134.39 258.31 135.57 C 255.96 134.02 253.20 134.16 250.56 134.66 C 250.57 135.83 250.54 137.01 250.71 138.18 C 253.98 140.38 258.80 140.41 260.84 144.23 C 262.81 147.30 260.47 151.08 257.86 152.91 C 253.74 155.36 248.40 154.27 244.97 151.12 C 245.96 150.14 246.95 149.17 247.95 148.20 C 250.60 150.32 254.14 151.15 256.84 148.60 C 257.06 144.05 251.64 144.16 248.74 142.30 C 245.50 140.82 245.85 136.64 246.65 133.79 Z" />
<path fill="#000000" opacity="1.00" d=" M 136.63 132.88 C 136.10 130.50 138.86 130.31 140.47 130.55 C 141.05 138.23 140.57 145.95 140.70 153.65 C 139.33 153.57 137.97 153.49 136.61 153.41 C 136.70 146.57 136.61 139.73 136.63 132.88 Z" />
<path fill="#000000" opacity="1.00" d=" M 143.51 153.52 C 143.54 145.89 143.42 138.25 143.59 130.61 C 144.57 130.62 146.55 130.64 147.53 130.65 C 147.63 136.95 147.59 143.25 147.55 149.54 C 150.74 149.62 153.93 149.63 157.13 149.65 C 157.17 150.60 157.25 152.50 157.30 153.44 C 152.70 153.61 148.11 153.57 143.51 153.52 Z" />
<path fill="#000000" opacity="1.00" d=" M 158.47 131.26 C 159.88 130.96 161.31 130.70 162.75 130.47 C 162.77 138.23 162.80 145.99 162.72 153.74 C 161.43 153.59 160.10 153.62 158.86 153.18 C 158.28 145.89 158.93 138.56 158.47 131.26 Z" />
<path fill="#000000" opacity="1.00" d=" M 206.25 153.63 C 206.25 145.95 206.03 138.27 206.39 130.60 C 208.02 130.61 209.65 130.62 211.29 130.62 C 215.30 135.89 218.46 141.74 222.45 147.01 C 222.43 141.55 222.31 136.10 222.49 130.65 C 223.48 130.64 225.47 130.63 226.47 130.63 C 226.49 138.26 226.46 145.90 226.47 153.54 C 224.83 153.57 223.18 153.61 221.54 153.66 C 217.60 148.18 214.28 142.29 210.37 136.79 C 210.27 142.33 210.34 147.88 210.36 153.42 C 208.99 153.49 207.62 153.56 206.25 153.63 Z" />
<path fill="#000000" opacity="1.00" d=" M 26.57 132.62 C 27.74 132.63 28.92 132.65 30.10 132.67 C 30.32 133.25 30.76 134.40 30.98 134.98 C 30.76 135.54 30.31 136.66 30.08 137.22 C 28.92 137.26 27.77 137.30 26.61 137.34 C 26.38 135.77 26.36 134.19 26.57 132.62 Z" />
<path fill="#000000" opacity="1.00" d=" M 32.84 137.04 C 31.38 134.92 35.23 132.04 36.74 134.28 C 38.35 135.56 36.91 137.33 36.35 138.72 C 35.07 138.42 33.49 138.43 32.84 137.04 Z" />
<path fill="#000000" opacity="1.00" d=" M 40.60 134.66 C 42.58 133.92 43.66 135.85 44.82 137.06 C 43.63 138.84 41.83 139.77 39.67 139.49 C 39.48 137.80 38.68 135.66 40.60 134.66 Z" />
<path fill="#000000" opacity="1.00" d=" M 23.47 144.62 C 25.18 144.48 28.41 143.49 28.53 146.14 C 29.06 148.69 25.48 149.63 23.91 148.05 C 23.56 146.94 23.59 145.76 23.47 144.62 Z" />
<path fill="#000000" opacity="1.00" d=" M 31.32 146.21 C 31.96 144.56 33.92 144.79 35.33 144.58 C 35.49 146.15 36.17 147.83 35.31 149.31 C 34.04 149.47 32.75 149.47 31.46 149.51 C 31.37 148.41 31.32 147.31 31.32 146.21 Z" />
<path fill="#000000" opacity="1.00" d=" M 39.88 145.44 C 42.11 145.20 44.49 146.80 43.47 149.25 C 41.95 151.60 39.19 150.23 38.29 148.14 C 38.83 147.24 39.36 146.34 39.88 145.44 Z" />
<path fill="#000000" opacity="1.00" d=" M 22.35 155.31 C 23.68 155.38 25.02 155.41 26.34 155.64 C 26.81 156.90 26.66 158.25 26.67 159.57 C 25.22 159.61 23.76 159.65 22.31 159.66 C 22.31 158.21 22.32 156.76 22.35 155.31 Z" />
<path fill="#000000" opacity="1.00" d=" M 29.54 157.05 C 30.15 156.70 31.37 155.99 31.98 155.63 C 32.64 155.92 33.95 156.48 34.60 156.76 C 34.53 157.94 34.45 159.12 34.37 160.30 C 33.08 160.41 31.79 160.51 30.51 160.62 C 30.19 159.42 29.87 158.24 29.54 157.05 Z" />
<path fill="#000000" opacity="1.00" d=" M 38.23 157.26 C 39.50 155.77 41.37 157.21 42.77 157.65 C 42.39 159.10 42.10 161.77 40.00 161.42 C 37.94 161.88 36.58 158.45 38.23 157.26 Z" />
<path fill="#000000" opacity="1.00" d=" M 141.45 157.62 C 145.41 156.85 150.02 157.02 153.18 159.86 C 159.69 165.12 158.22 177.40 150.07 180.24 C 143.24 183.56 133.40 178.94 133.24 170.91 C 132.47 165.25 135.53 158.90 141.45 157.62 M 141.63 161.74 C 137.54 163.92 136.15 169.59 138.54 173.51 C 140.52 177.17 145.74 178.74 149.20 176.18 C 153.66 173.43 154.13 166.15 150.04 162.89 C 147.92 160.63 144.34 160.99 141.63 161.74 Z" />
<path fill="#000000" opacity="1.00" d=" M 98.00 160.94 C 98.06 158.45 100.84 157.40 102.97 157.61 C 106.83 157.58 112.03 157.70 113.67 161.99 C 113.84 164.42 114.39 167.52 112.30 169.32 C 109.48 171.54 105.69 171.26 102.31 171.39 C 102.32 174.39 102.34 177.39 102.38 180.39 C 100.95 180.50 99.52 180.60 98.09 180.69 C 97.85 174.12 97.68 167.51 98.00 160.94 M 102.33 161.32 C 102.33 163.45 102.34 165.58 102.36 167.72 C 104.83 167.68 107.33 167.50 109.61 166.45 C 109.45 164.84 109.84 162.72 108.02 161.92 C 106.24 161.20 104.21 161.49 102.33 161.32 Z" />
<path fill="#000000" opacity="1.00" d=" M 115.75 160.98 C 115.84 158.96 118.04 157.51 119.96 157.66 C 123.92 157.58 128.80 157.37 131.49 160.88 C 132.08 163.17 131.93 165.61 131.38 167.89 C 130.34 169.32 128.69 170.08 127.25 171.02 C 129.22 174.13 131.16 177.27 132.92 180.51 C 131.21 180.53 129.50 180.55 127.79 180.56 C 125.43 177.26 124.93 171.57 120.26 170.87 C 120.19 174.07 120.22 177.27 120.24 180.46 C 118.68 180.47 117.11 180.48 115.55 180.50 C 115.67 174.00 115.47 167.48 115.75 160.98 M 119.75 161.52 C 119.76 163.46 119.77 165.41 119.78 167.36 C 122.44 167.23 126.96 168.38 127.76 164.85 C 127.95 160.59 122.57 161.39 119.75 161.52 Z" />
<path fill="#000000" opacity="1.00" d=" M 159.32 160.89 C 159.04 158.87 161.22 157.73 162.94 157.68 C 166.02 157.52 169.27 157.54 172.12 158.86 C 175.75 160.63 176.16 165.95 173.90 168.94 C 171.10 171.66 166.91 171.28 163.32 171.39 C 163.32 174.41 163.35 177.43 163.39 180.45 C 162.02 180.52 160.65 180.60 159.28 180.67 C 159.31 174.08 159.18 167.48 159.32 160.89 M 163.36 161.33 C 163.34 163.44 163.34 165.55 163.35 167.65 C 165.86 167.68 168.42 167.54 170.75 166.48 C 170.58 165.28 170.91 163.93 170.27 162.85 C 168.57 160.80 165.67 161.60 163.36 161.33 Z" />
<path fill="#000000" opacity="1.00" d=" M 177.24 160.92 C 176.96 158.85 179.17 157.68 180.94 157.71 C 183.97 157.58 187.00 157.60 190.03 157.67 C 192.20 157.27 192.93 159.49 192.23 161.18 C 188.64 161.96 184.92 161.37 181.28 161.52 C 181.30 163.38 181.33 165.25 181.37 167.11 C 184.76 167.11 188.16 167.10 191.56 167.12 C 191.61 168.00 191.70 169.76 191.75 170.64 C 188.42 170.73 185.07 170.47 181.76 170.81 C 180.41 172.35 180.94 174.57 180.68 176.45 C 184.64 176.87 188.61 176.79 192.58 176.74 C 192.61 177.70 192.67 179.61 192.70 180.57 C 187.39 180.58 182.08 180.66 176.77 180.48 C 176.66 173.95 177.31 167.44 177.24 160.92 Z" />
<path fill="#000000" opacity="1.00" d=" M 194.33 160.93 C 194.20 158.96 196.24 157.72 197.99 157.70 C 200.65 157.51 203.37 157.57 205.98 158.23 C 208.93 158.91 211.24 161.91 210.70 165.00 C 210.95 168.06 207.98 169.54 205.97 171.17 C 207.54 174.39 209.87 177.19 211.16 180.57 C 209.54 180.58 207.93 180.58 206.32 180.57 C 204.56 177.52 203.31 174.13 201.09 171.38 C 200.41 171.30 199.06 171.15 198.39 171.08 C 198.38 174.21 198.41 177.34 198.47 180.47 C 197.09 180.53 195.70 180.59 194.33 180.64 C 194.31 174.07 194.13 167.49 194.33 160.93 M 198.39 161.35 C 198.41 163.41 198.45 165.47 198.51 167.53 C 201.07 167.29 204.14 167.96 206.12 165.88 C 206.78 164.35 206.13 162.90 204.97 161.85 C 202.83 161.25 200.58 161.44 198.39 161.35 Z" />
<path fill="#000000" opacity="1.00" d=" M 209.82 157.77 C 216.90 157.57 224.00 157.71 231.09 157.68 C 232.92 160.49 234.65 163.37 236.26 166.31 C 238.95 164.03 240.31 160.67 242.17 157.75 C 243.73 157.71 245.30 157.68 246.88 157.66 C 244.82 162.46 241.42 166.51 238.68 170.92 C 238.69 174.13 238.70 177.35 238.69 180.57 C 237.25 180.57 235.83 180.58 234.40 180.58 C 234.38 177.35 234.39 174.12 234.42 170.89 C 232.39 167.71 230.34 164.55 228.14 161.48 C 225.98 161.51 223.83 161.53 221.68 161.57 C 221.62 167.90 221.64 174.23 221.68 180.57 C 220.27 180.57 218.85 180.57 217.44 180.57 C 217.48 174.25 217.47 167.92 217.47 161.60 C 215.62 161.55 213.77 161.52 211.92 161.48 C 211.21 160.24 210.51 159.01 209.82 157.77 Z" />
<path fill="#000000" opacity="1.00" d=" M 21.86 167.88 C 23.87 166.01 25.80 168.10 26.72 169.93 C 25.77 170.86 24.82 171.79 23.86 172.72 C 22.39 171.62 19.97 169.79 21.86 167.88 Z" />
<path fill="#000000" opacity="1.00" d=" M 29.52 171.58 C 29.51 170.04 28.90 167.58 31.06 167.22 C 33.66 166.21 34.87 169.29 34.37 171.34 C 32.75 171.46 31.14 171.54 29.52 171.58 Z" />
<path fill="#000000" opacity="1.00" d=" M 37.60 167.90 C 38.25 167.52 39.55 166.76 40.21 166.38 C 42.06 167.47 42.68 169.31 42.40 171.36 C 40.84 171.40 39.29 171.42 37.74 171.42 C 37.69 170.24 37.64 169.07 37.60 167.90 Z" />
<path fill="#000000" opacity="1.00" d=" M 31.56 177.70 C 33.35 177.26 35.54 179.67 34.27 181.48 C 33.06 183.68 29.30 182.46 29.48 179.99 C 29.47 178.77 30.65 178.18 31.56 177.70 Z" />
<path fill="#000000" opacity="1.00" d=" M 38.63 177.75 C 39.88 176.68 41.24 178.02 42.43 178.47 C 42.46 179.04 42.52 180.17 42.55 180.74 C 41.70 181.39 40.87 182.07 39.96 182.65 C 37.85 182.11 36.35 179.05 38.63 177.75 Z" />
<path fill="#000000" opacity="1.00" d=" M 21.93 178.92 C 23.18 177.88 24.88 177.83 26.16 178.86 C 26.74 179.99 26.41 181.33 26.51 182.55 C 24.87 182.52 23.23 182.47 21.60 182.41 C 21.68 181.24 21.72 180.07 21.93 178.92 Z" />
<path fill="#000000" opacity="1.00" d=" M 44.32 188.83 C 45.46 186.94 47.21 186.10 49.39 186.58 C 50.31 189.02 49.28 191.42 46.54 191.70 C 45.80 190.74 45.06 189.79 44.32 188.83 Z" />
<path fill="#000000" opacity="1.00" d=" M 37.15 190.02 C 38.21 189.04 39.15 186.75 40.97 187.53 C 43.30 188.02 42.30 190.68 42.33 192.36 C 40.14 192.78 38.34 191.88 37.15 190.02 Z" />
<path fill="#000000" opacity="1.00" d=" M 32.53 188.57 C 34.30 188.01 36.21 189.84 35.61 191.65 C 35.13 193.88 31.68 194.27 30.98 191.96 C 29.77 190.77 31.39 189.08 32.53 188.57 Z" />
<path fill="#000000" opacity="1.00" d=" M 23.11 191.43 C 24.39 190.84 25.64 188.50 27.13 189.86 C 29.08 190.64 29.07 193.46 27.21 194.35 C 25.18 195.52 23.75 193.00 23.11 191.43 Z" />
<path fill="#000000" opacity="1.00" d=" M 50.37 196.51 C 51.48 195.77 53.62 196.55 53.66 198.04 C 54.34 199.85 52.36 201.81 50.56 201.32 C 48.69 200.33 48.01 197.38 50.37 196.51 Z" />
<path fill="#000000" opacity="1.00" d=" M 43.52 197.66 C 44.60 197.10 46.01 198.49 46.49 199.43 C 47.42 202.17 42.78 204.14 41.81 201.08 C 40.51 199.73 42.36 198.26 43.52 197.66 Z" />
<path fill="#000000" opacity="1.00" d=" M 34.51 199.43 C 36.55 199.01 39.64 199.10 39.31 202.04 C 38.68 204.30 36.27 203.63 34.55 203.57 C 34.52 202.19 34.51 200.81 34.51 199.43 Z" />
<path fill="#000000" opacity="1.00" d=" M 26.24 202.95 C 27.39 201.01 29.22 200.17 31.43 200.48 C 31.45 202.11 31.43 203.74 31.37 205.37 C 29.18 205.76 27.40 204.84 26.24 202.95 Z" />
<path fill="#000000" opacity="1.00" d=" M 55.33 204.37 C 57.76 203.45 59.72 207.13 57.51 208.55 C 54.92 211.56 51.17 205.09 55.33 204.37 Z" />
<path fill="#000000" opacity="1.00" d=" M 45.67 207.49 C 47.01 206.34 48.71 206.30 50.39 206.46 C 50.44 207.69 50.49 208.93 50.53 210.16 C 49.68 210.61 48.83 211.06 47.98 211.51 C 47.22 210.85 46.45 210.19 45.68 209.53 C 45.68 209.02 45.67 208.00 45.67 207.49 Z" />
<path fill="#000000" opacity="1.00" d=" M 39.32 208.44 C 41.18 207.39 42.97 209.00 43.41 210.78 C 42.60 212.76 40.53 213.31 38.66 212.43 C 38.01 211.21 37.73 209.02 39.32 208.44 Z" />
<path fill="#000000" opacity="1.00" d=" M 30.49 210.47 C 32.13 210.47 33.77 210.50 35.40 210.56 C 35.38 212.45 35.58 214.89 33.00 214.97 C 30.32 215.06 30.43 212.39 30.49 210.47 Z" />
<path fill="#000000" opacity="1.00" d=" M 58.16 214.98 C 59.30 214.00 60.41 212.00 62.21 212.80 C 64.12 213.65 63.54 215.76 63.47 217.39 C 61.20 217.90 59.13 217.25 58.16 214.98 Z" />
<path fill="#000000" opacity="1.00" d=" M 50.24 217.95 C 51.16 216.79 52.06 214.62 53.92 215.31 C 56.15 215.55 56.47 218.81 54.50 219.75 C 52.90 221.38 51.41 218.87 50.24 217.95 Z" />
<path fill="#000000" opacity="1.00" d=" M 42.18 219.97 C 43.30 219.07 44.11 217.14 45.82 217.57 C 48.48 217.70 48.48 222.30 45.88 222.51 C 44.08 222.99 43.31 220.94 42.18 219.97 Z" />
<path fill="#000000" opacity="1.00" d=" M 35.20 221.28 C 36.04 219.65 38.16 220.54 39.59 220.35 C 39.57 221.71 39.53 223.07 39.49 224.44 C 38.32 224.61 37.15 224.78 35.98 224.95 C 35.66 223.76 33.99 222.43 35.20 221.28 Z" />
<path fill="#000000" opacity="1.00" d=" M 65.29 220.54 C 66.62 220.26 67.99 220.47 69.34 220.49 C 69.34 221.82 69.34 223.15 69.33 224.48 C 67.73 224.58 66.12 224.55 64.53 224.40 C 64.72 223.11 64.46 221.65 65.29 220.54 Z" />
<path fill="#000000" opacity="1.00" d=" M 58.56 222.67 C 60.24 222.50 62.14 224.13 61.56 225.90 C 61.54 228.46 57.01 228.25 56.72 225.87 C 56.29 224.43 57.58 223.45 58.56 222.67 Z" />
<path fill="#000000" opacity="1.00" d=" M 50.11 225.60 C 51.24 225.82 52.46 225.89 53.42 226.61 C 53.73 227.85 53.51 229.15 53.50 230.42 C 52.26 230.45 51.02 230.48 49.78 230.50 C 49.51 229.89 48.98 228.68 48.72 228.07 C 49.07 227.45 49.76 226.22 50.11 225.60 Z" />
<path fill="#000000" opacity="1.00" d=" M 71.27 227.46 C 72.44 227.30 73.75 226.16 74.88 227.03 C 76.45 227.94 75.60 230.10 75.47 231.54 C 74.18 231.50 72.89 231.46 71.61 231.42 C 71.48 230.10 71.37 228.78 71.27 227.46 Z" />
<path fill="#000000" opacity="1.00" d=" M 41.16 230.97 C 40.92 228.70 43.48 228.10 45.13 228.92 C 46.18 230.27 45.58 232.02 45.45 233.55 C 43.63 233.53 40.77 233.64 41.16 230.97 Z" />
<path fill="#000000" opacity="1.00" d=" M 63.47 234.48 C 62.97 232.20 63.71 230.29 65.89 229.32 C 66.82 230.21 67.75 231.10 68.68 232.00 C 67.79 234.36 65.80 235.09 63.47 234.48 Z" />
<path fill="#000000" opacity="1.00" d=" M 55.49 233.38 C 57.18 233.28 60.10 232.78 60.31 235.16 C 60.59 237.81 57.39 237.84 55.54 237.51 C 55.51 236.13 55.49 234.76 55.49 233.38 Z" />
<path fill="#000000" opacity="1.00" d=" M 76.53 233.63 C 78.18 233.38 79.84 233.29 81.50 233.40 C 81.47 234.74 81.44 236.08 81.40 237.43 C 80.11 237.45 78.79 237.74 77.53 237.40 C 76.55 236.39 76.78 234.89 76.53 233.63 Z" />
<path fill="#000000" opacity="1.00" d=" M 47.83 236.87 C 49.21 235.43 51.16 236.56 52.50 237.44 C 52.38 238.42 52.25 239.40 52.13 240.39 C 50.58 240.48 49.03 240.55 47.47 240.62 C 47.59 239.37 47.34 238.05 47.83 236.87 Z" />
<path fill="#000000" opacity="1.00" d=" M 69.50 238.22 C 69.54 235.83 73.55 235.40 74.38 237.49 C 75.57 239.43 73.05 240.51 72.01 241.78 C 71.16 240.67 69.19 239.83 69.50 238.22 Z" />
<path fill="#000000" opacity="1.00" d=" M 62.88 239.92 C 64.11 239.57 65.39 239.44 66.65 239.26 C 67.70 241.35 67.49 243.61 65.13 244.61 C 64.44 244.23 63.07 243.47 62.38 243.09 C 62.52 242.03 62.64 240.96 62.88 239.92 Z" />
<path fill="#000000" opacity="1.00" d=" M 84.36 239.33 C 86.94 238.62 87.62 241.11 87.58 243.10 C 86.88 243.48 85.46 244.25 84.75 244.63 C 82.63 243.61 81.28 240.07 84.36 239.33 Z" />
<path fill="#000000" opacity="1.00" d=" M 56.68 242.64 C 58.54 241.91 59.98 243.35 60.58 244.99 C 60.00 246.24 59.14 247.82 57.49 247.47 C 55.08 247.34 54.68 243.67 56.68 242.64 Z" />
<path fill="#000000" opacity="1.00" d=" M 76.58 244.78 C 76.34 242.21 80.47 241.59 81.41 243.83 C 82.18 245.82 80.23 246.85 78.98 247.88 C 78.13 246.92 76.47 246.31 76.58 244.78 Z" />
<path fill="#000000" opacity="1.00" d=" M 72.50 245.64 C 75.33 244.89 76.76 249.12 74.09 250.41 C 70.82 251.75 68.88 246.23 72.50 245.64 Z" />
<path fill="#000000" opacity="1.00" d=" M 86.43 247.70 C 87.77 246.15 89.71 246.02 91.60 246.36 C 91.55 247.72 91.49 249.09 91.41 250.46 C 90.19 250.51 88.96 250.56 87.74 250.61 C 87.41 249.88 86.76 248.43 86.43 247.70 Z" />
<path fill="#000000" opacity="1.00" d=" M 64.68 249.89 C 65.45 249.36 66.21 248.82 66.98 248.29 C 67.83 248.81 68.68 249.33 69.53 249.85 C 69.29 251.02 69.59 252.57 68.35 253.29 C 67.11 254.38 65.69 252.85 64.48 252.47 C 64.54 251.61 64.61 250.75 64.68 249.89 Z" />
<path fill="#000000" opacity="1.00" d=" M 79.79 251.74 C 80.48 249.70 82.86 250.57 84.46 250.48 C 85.18 252.80 84.07 254.62 81.96 255.64 C 81.04 254.59 78.90 253.43 79.79 251.74 Z" />
<path fill="#000000" opacity="1.00" d=" M 90.47 252.60 C 91.76 252.61 93.06 252.63 94.36 252.65 C 94.40 253.89 95.28 255.37 94.35 256.46 C 93.47 257.72 91.78 257.21 90.50 257.44 C 90.42 255.83 90.41 254.21 90.47 252.60 Z" />
<path fill="#000000" opacity="1.00" d=" M 72.73 255.74 C 73.74 254.09 75.68 254.50 77.30 254.59 C 78.20 256.94 76.80 258.61 75.00 259.91 C 73.93 258.70 71.83 257.65 72.73 255.74 Z" />
<path fill="#000000" opacity="1.00" d=" M 85.68 256.68 C 87.57 255.61 88.68 258.01 89.81 259.03 C 88.69 259.91 87.94 261.92 86.20 261.53 C 83.85 261.37 83.43 257.40 85.68 256.68 Z" />
<path fill="#000000" opacity="1.00" d=" M 92.62 259.49 C 94.20 259.49 95.78 259.54 97.36 259.63 C 97.29 260.78 97.26 261.93 97.08 263.07 C 95.78 264.17 94.06 263.65 92.55 263.46 C 92.57 262.14 92.59 260.81 92.62 259.49 Z" />
<path fill="#000000" opacity="1.00" d=" M 79.62 260.29 C 81.09 260.62 82.72 260.99 83.46 262.48 C 84.02 264.68 80.63 266.65 79.20 264.85 C 77.57 263.59 79.08 261.67 79.62 260.29 Z" />
<path fill="#000000" opacity="1.00" d=" M 88.44 268.00 C 86.51 266.04 88.70 264.56 89.93 263.21 C 91.16 264.23 93.61 265.50 92.32 267.43 C 89.97 269.55 87.65 271.72 85.90 274.38 C 85.69 274.35 85.27 274.30 85.06 274.27 C 84.37 273.46 83.68 272.66 82.98 271.87 C 83.08 270.06 84.81 266.73 86.92 269.44 C 87.43 268.96 87.94 268.48 88.44 268.00 Z" />
</g>
<g id="#bf9e30ff">
<path fill="#bf9e30" opacity="1.00" d=" M 19.01 41.54 C 20.01 41.43 20.92 41.62 21.74 42.10 C 47.36 64.14 65.29 94.77 72.14 127.85 C 74.67 140.77 75.69 153.97 75.21 167.12 L 74.79 167.86 C 74.48 182.12 71.22 196.19 66.75 209.69 C 63.96 206.31 62.29 202.20 60.53 198.23 C 64.91 184.98 66.78 170.90 66.80 156.96 C 67.84 118.25 53.08 79.56 27.24 50.82 C 24.63 47.60 21.35 44.97 19.01 41.54 Z" />
<path fill="#bf9e30" opacity="1.00" d=" M 109.10 187.06 C 109.60 185.74 110.96 185.31 112.11 184.77 C 115.27 192.47 117.31 200.57 119.74 208.52 C 115.82 209.38 116.16 204.96 115.16 202.49 C 111.14 202.36 107.10 202.24 103.09 202.64 C 101.82 205.18 100.98 209.33 97.20 208.50 C 101.09 201.31 105.18 194.23 109.10 187.06 M 105.70 198.15 C 105.28 198.92 104.88 199.71 104.50 200.52 C 107.69 200.46 110.88 200.40 114.06 200.26 C 114.35 199.93 114.93 199.27 115.22 198.93 L 114.26 199.19 C 113.09 195.74 112.18 192.22 111.17 188.73 C 109.04 191.67 107.28 194.89 105.70 198.15 Z" />
<path fill="#bf9e30" opacity="1.00" d=" M 115.27 185.37 C 115.98 185.33 117.41 185.25 118.12 185.21 C 119.75 191.28 121.81 197.23 123.06 203.39 C 124.72 202.49 124.78 200.51 125.31 198.93 C 126.64 194.26 127.69 189.47 129.76 185.05 C 130.40 185.19 131.69 185.46 132.33 185.59 C 134.42 191.78 135.90 198.15 137.96 204.34 C 139.66 198.07 141.84 191.92 142.97 185.52 C 144.09 185.48 145.20 185.45 146.32 185.42 C 143.69 193.03 141.72 200.84 139.26 208.51 C 138.61 208.44 137.30 208.30 136.65 208.23 C 134.47 202.36 132.93 196.24 131.32 190.19 C 130.97 190.30 130.29 190.53 129.95 190.64 C 128.79 196.65 126.64 202.40 125.09 208.30 C 124.29 208.30 122.69 208.30 121.89 208.30 C 121.67 207.11 121.45 205.92 121.23 204.73 C 118.97 198.37 117.42 191.77 115.27 185.37 Z" />
<path fill="#bf9e30" opacity="1.00" d=" M 148.81 185.43 C 149.82 185.54 151.36 184.86 151.86 186.15 C 155.84 192.71 159.15 199.67 163.26 206.16 L 163.38 206.71 C 163.42 206.88 163.49 207.22 163.53 207.40 L 163.82 208.84 C 160.27 208.68 159.68 204.88 158.19 202.44 C 154.30 202.37 150.40 202.40 146.50 202.38 C 145.86 204.40 145.23 206.41 144.56 208.41 C 143.93 208.40 142.67 208.38 142.04 208.37 C 143.77 200.58 146.71 193.12 148.81 185.43 M 147.36 198.99 L 147.17 198.15 C 147.25 198.72 147.40 199.86 147.48 200.44 C 150.41 200.40 153.36 200.61 156.27 200.17 C 156.31 199.60 156.39 198.48 156.44 197.91 L 156.00 198.44 C 154.56 195.41 152.40 192.09 150.96 188.77 C 148.95 191.82 148.61 195.61 147.36 198.99 Z" />
<path fill="#bf9e30" opacity="1.00" d=" M 202.74 186.76 C 205.98 183.61 211.71 183.88 214.83 187.09 C 214.68 188.33 213.74 189.36 212.54 188.39 C 210.04 186.90 205.89 186.12 204.19 189.11 C 202.92 190.55 203.70 192.82 205.14 193.82 C 208.20 195.94 212.78 195.80 214.87 199.26 C 216.59 202.42 214.90 206.43 211.78 207.98 C 207.88 209.63 202.53 208.95 200.20 205.04 C 200.83 204.81 202.09 204.36 202.71 204.13 C 205.38 207.77 212.56 207.29 212.83 202.15 C 211.75 197.03 204.56 198.72 202.25 194.67 C 201.80 194.31 200.92 193.58 200.48 193.21 C 200.79 196.92 201.08 201.20 198.12 204.02 C 194.01 209.35 186.68 208.41 180.75 208.27 C 180.64 201.14 180.66 194.00 180.78 186.88 C 181.07 186.51 181.65 185.76 181.95 185.38 C 185.25 185.16 188.62 185.03 191.90 185.62 C 195.52 186.47 199.16 189.10 199.67 193.02 C 200.72 193.08 201.77 193.14 202.82 193.19 L 200.50 192.42 C 201.15 190.53 201.16 188.20 202.74 186.76 M 183.39 187.49 C 183.31 193.60 183.39 199.70 183.33 205.80 C 185.86 205.83 188.41 205.99 190.93 205.64 C 193.73 205.13 195.82 202.92 197.37 200.68 C 198.83 198.22 198.67 195.46 197.42 192.95 C 194.78 187.77 188.58 186.96 183.39 187.49 Z" />
<path fill="#bf9e30" opacity="1.00" d=" M 164.81 199.01 C 165.25 194.40 164.05 189.60 165.78 185.17 C 169.09 185.50 172.42 185.59 175.74 185.85 C 176.64 186.43 177.53 187.04 178.41 187.68 C 178.81 189.76 179.74 191.98 178.58 194.00 C 177.82 196.21 175.33 196.88 173.45 197.82 C 175.78 201.27 177.97 204.81 179.93 208.49 C 179.18 208.41 177.69 208.24 176.94 208.15 C 174.38 204.83 172.97 200.75 170.17 197.60 C 169.53 197.55 168.24 197.45 167.59 197.40 C 165.54 201.09 168.26 205.65 165.96 209.25 L 165.30 208.05 C 164.59 205.09 164.51 202.03 164.81 199.01 M 166.58 195.61 C 168.60 196.06 170.84 196.11 172.81 195.38 C 175.40 195.00 176.73 192.34 176.54 189.90 C 175.45 189.06 174.37 188.22 173.29 187.38 L 172.64 187.50 L 172.75 187.48 C 170.97 187.08 169.15 186.87 167.36 186.53 C 166.28 189.43 166.36 192.57 166.58 195.61 Z" />
</g>
<g id="#767367db">
<path fill="#767367" opacity="0.86" d=" M 174.41 118.56 C 169.73 115.16 170.66 106.77 176.07 104.61 C 179.32 103.80 182.86 104.16 185.73 105.95 C 184.99 106.72 184.25 107.48 183.50 108.24 C 181.60 107.53 179.42 106.06 177.42 107.34 C 173.54 108.87 173.48 115.08 177.24 116.74 C 178.93 117.90 180.90 116.99 182.70 116.68 C 182.71 115.68 182.72 114.69 182.73 113.69 C 180.67 113.65 178.87 113.24 179.31 110.69 C 181.32 110.66 183.34 110.64 185.36 110.64 C 185.42 113.44 185.44 116.24 185.41 119.04 C 181.84 119.75 177.66 120.86 174.41 118.56 Z" />
<path fill="#767367" opacity="0.86" d=" M 97.84 104.54 C 100.26 104.48 102.71 104.29 105.13 104.61 C 107.16 105.22 108.02 107.26 108.32 109.18 C 110.50 109.85 114.54 108.02 115.03 111.12 C 113.19 111.23 111.67 112.10 110.61 113.55 C 110.71 115.59 110.75 117.64 110.76 119.69 C 110.20 119.65 109.08 119.59 108.52 119.55 C 108.53 117.11 108.55 114.67 108.58 112.23 C 108.08 111.65 107.58 111.07 107.09 110.49 C 106.87 113.93 102.67 113.11 100.30 113.40 C 100.32 115.53 100.34 117.66 100.33 119.79 C 99.73 119.68 98.53 119.46 97.93 119.34 C 97.68 114.41 97.92 109.48 97.84 104.54 M 100.29 106.66 C 100.32 108.19 100.36 109.71 100.41 111.23 C 102.28 110.76 105.24 111.32 105.82 108.83 C 105.40 106.22 102.15 106.93 100.29 106.66 Z" />
<path fill="#767367" opacity="0.86" d=" M 156.46 106.53 C 156.96 106.59 157.95 106.71 158.44 106.77 C 158.46 107.40 158.50 108.66 158.52 109.29 C 160.28 109.37 162.04 109.44 163.80 109.52 C 164.60 111.82 165.42 114.10 166.29 116.37 C 167.33 114.08 168.19 111.71 169.38 109.48 C 169.74 109.66 170.44 110.02 170.79 110.20 C 170.81 110.50 170.86 111.09 170.89 111.39 C 169.25 115.27 168.00 119.33 166.06 123.07 C 165.28 125.09 161.14 125.86 161.20 122.82 C 163.02 122.67 164.89 121.95 165.16 119.90 C 164.44 116.86 162.97 114.08 161.78 111.22 C 160.67 111.33 159.56 111.45 158.45 111.57 C 158.47 113.52 158.48 115.47 158.50 117.41 C 159.33 117.55 160.99 117.82 161.82 117.96 C 161.17 120.32 158.45 120.28 156.78 119.18 C 155.80 116.73 156.33 114.02 156.24 111.45 C 154.41 111.69 152.06 110.91 150.67 112.44 C 149.91 114.63 150.41 117.06 150.30 119.34 C 149.73 119.45 148.61 119.68 148.05 119.79 C 147.76 116.37 147.82 112.95 147.98 109.53 C 150.69 109.58 153.40 109.40 156.10 109.27 C 156.19 108.58 156.37 107.22 156.46 106.53 Z" />
<path fill="#767367" opacity="0.86" d=" M 118.23 109.16 C 122.35 108.04 126.38 113.15 124.19 116.86 C 122.63 120.81 116.37 120.91 114.59 117.10 C 112.44 114.19 115.07 109.92 118.23 109.16 M 118.39 111.43 C 116.37 112.23 115.33 115.20 117.22 116.76 C 119.10 119.27 122.77 116.77 122.61 114.14 C 121.96 112.43 120.41 110.62 118.39 111.43 Z" />
<path fill="#767367" opacity="0.86" d=" M 125.38 109.55 C 128.74 109.85 133.65 107.71 135.50 111.78 C 137.66 115.34 134.86 119.58 131.10 120.36 C 129.95 119.88 128.79 119.42 127.63 118.96 C 127.65 121.28 127.86 123.65 127.26 125.92 C 126.81 125.76 125.91 125.44 125.46 125.28 C 125.16 120.05 125.65 114.80 125.38 109.55 M 129.47 111.57 C 128.62 112.16 127.98 112.93 127.54 113.89 C 127.01 116.68 130.97 119.31 132.94 116.83 C 135.37 114.60 132.61 109.85 129.47 111.57 Z" />
<path fill="#767367" opacity="0.86" d=" M 136.51 114.97 C 135.92 110.99 140.88 107.42 144.38 109.68 C 146.53 110.74 146.45 113.36 146.75 115.40 C 144.10 115.52 141.46 115.59 138.82 115.73 C 140.34 118.81 143.53 117.40 146.09 116.87 C 146.80 119.24 143.27 119.39 141.98 120.52 C 139.55 119.50 136.39 118.14 136.51 114.97 M 138.82 113.45 C 140.82 113.47 142.83 113.43 144.83 113.32 C 143.69 110.55 139.77 110.55 138.82 113.45 Z" />
<path fill="#767367" opacity="0.86" d=" M 186.69 109.42 C 187.67 109.34 188.65 109.26 189.64 109.18 C 190.00 111.96 188.68 115.59 191.33 117.53 C 194.87 116.29 193.24 111.90 193.60 109.14 C 194.26 109.21 195.58 109.35 196.24 109.42 C 196.44 112.76 196.31 116.11 196.33 119.46 C 193.65 119.14 190.58 120.45 188.13 119.09 C 186.01 116.39 186.99 112.61 186.69 109.42 Z" />
<path fill="#767367" opacity="0.86" d=" M 198.32 109.29 C 200.43 109.55 202.55 109.41 204.61 108.86 C 205.85 112.10 201.41 111.41 200.92 113.90 C 200.70 115.81 200.76 117.73 200.72 119.65 C 200.12 119.65 198.92 119.67 198.32 119.68 C 198.25 116.21 198.27 112.75 198.32 109.29 Z" />
<path fill="#767367" opacity="0.86" d=" M 212.24 109.17 C 213.21 109.30 214.18 109.43 215.16 109.56 C 215.12 112.83 215.12 116.11 215.15 119.38 C 212.10 119.00 207.60 121.28 205.75 117.87 C 204.92 115.19 205.34 112.29 205.46 109.53 C 206.19 109.43 207.63 109.24 208.35 109.15 C 208.98 111.82 206.90 116.12 210.00 117.58 C 213.23 116.22 211.79 111.93 212.24 109.17 Z" />
<path fill="#767367" opacity="0.86" d=" M 164.22 184.68 C 168.07 184.99 172.03 184.55 175.74 185.85 C 172.42 185.59 169.09 185.50 165.78 185.17 C 164.05 189.60 165.25 194.40 164.81 199.01 C 164.51 202.03 164.59 205.09 165.30 208.05 L 163.53 207.40 C 163.49 207.22 163.42 206.88 163.38 206.71 L 163.26 206.16 C 163.55 205.75 164.12 204.94 164.40 204.53 C 164.07 197.92 164.09 191.30 164.22 184.68 Z" />
<path fill="#767367" opacity="0.86" d=" M 166.58 195.61 C 166.36 192.57 166.28 189.43 167.36 186.53 C 169.15 186.87 170.97 187.08 172.75 187.48 L 172.64 187.50 C 170.69 187.87 168.74 188.18 166.82 188.66 C 167.32 190.66 166.63 193.17 168.22 194.79 C 169.70 195.28 171.27 195.25 172.81 195.38 C 170.84 196.11 168.60 196.06 166.58 195.61 Z" />
<path fill="#767367" opacity="0.86" d=" M 197.42 192.95 C 198.67 195.46 198.83 198.22 197.37 200.68 C 197.75 198.12 197.75 195.52 197.42 192.95 Z" />
<path fill="#767367" opacity="0.86" d=" M 104.50 200.52 C 104.88 199.71 105.28 198.92 105.70 198.15 C 105.67 198.48 105.63 199.13 105.60 199.46 C 108.48 199.79 111.45 200.01 114.26 199.19 L 115.22 198.93 C 114.93 199.27 114.35 199.93 114.06 200.26 C 110.88 200.40 107.69 200.46 104.50 200.52 Z" />
<path fill="#767367" opacity="0.86" d=" M 147.17 198.15 L 147.36 198.99 L 147.51 199.67 C 150.20 199.67 153.20 200.34 155.64 198.89 L 156.00 198.44 L 156.44 197.91 C 156.39 198.48 156.31 199.60 156.27 200.17 C 153.36 200.61 150.41 200.40 147.48 200.44 C 147.40 199.86 147.25 198.72 147.17 198.15 Z" />
</g>
</svg>
