<?xml version="1.0" encoding="UTF-8" ?>
<!DOCTYPE svg PUBLIC "-//W3C//DTD SVG 1.1//EN" "http://www.w3.org/Graphics/SVG/1.1/DTD/svg11.dtd">
<svg width="256pt" height="256pt" viewBox="0 0 256 256" version="1.1" xmlns="http://www.w3.org/2000/svg">
<g id="#ffffffff">
<path fill="#ffffff" opacity="1.00" d=" M 152.09 0.00 L 160.98 0.00 L 162.08 0.63 C 162.31 4.69 162.05 8.77 162.05 12.83 C 159.27 12.79 156.49 12.82 153.71 12.87 C 153.36 8.82 153.78 4.76 153.58 0.71 L 152.09 0.00 Z" />
<path fill="#ffffff" opacity="1.00" d=" M 84.26 18.82 C 86.39 16.87 88.00 14.28 90.64 12.93 C 93.31 15.85 96.06 18.71 99.04 21.32 C 97.79 23.99 95.20 25.70 93.17 27.75 C 90.20 24.77 87.24 21.79 84.26 18.82 Z" />
<path fill="#ffffff" opacity="1.00" d=" M 225.27 14.93 C 227.29 16.48 229.13 18.29 230.79 20.23 C 231.59 21.47 229.88 22.39 229.25 23.23 C 226.96 25.38 224.75 27.62 222.60 29.90 C 220.45 28.04 218.50 25.99 216.52 23.96 C 219.30 20.81 222.50 18.08 225.27 14.93 Z" />
<path fill="#ffffff" opacity="1.00" d=" M 138.32 26.48 C 139.70 25.52 141.44 25.63 143.04 25.56 C 153.34 25.63 163.64 25.56 173.94 25.60 C 175.85 25.53 177.90 26.29 178.79 28.09 C 183.01 34.95 187.16 41.86 191.23 48.80 C 193.03 51.38 191.20 55.39 187.96 55.39 C 168.65 55.61 149.32 55.39 130.00 55.50 C 127.93 55.50 125.09 55.31 124.24 53.04 C 122.83 50.28 125.23 47.74 126.46 45.44 C 130.53 39.20 133.76 32.34 138.32 26.48 M 143.12 34.18 C 140.75 38.49 137.94 42.55 135.70 46.93 C 150.50 46.95 165.30 46.94 180.09 46.93 C 177.78 42.62 175.02 38.58 172.72 34.26 C 162.86 33.98 152.99 34.13 143.12 34.18 Z" />
<path fill="#ffffff" opacity="1.00" d=" M 100.41 64.57 C 101.86 63.95 103.49 64.03 105.04 64.00 C 115.40 64.08 125.76 63.95 136.12 64.03 C 137.88 64.05 139.55 64.88 140.39 66.48 C 144.28 72.70 147.89 79.08 151.77 85.30 C 152.92 87.23 154.34 89.64 152.88 91.82 C 151.65 93.88 149.09 93.92 146.98 93.90 C 127.97 93.80 108.96 93.99 89.95 93.81 C 86.89 94.10 84.30 90.63 85.79 87.85 C 89.21 81.63 93.09 75.68 96.64 69.54 C 97.74 67.79 98.64 65.77 100.41 64.57 M 97.39 85.33 C 112.13 85.29 126.87 85.47 141.60 85.24 C 139.27 80.90 136.62 76.74 134.08 72.53 C 124.35 72.51 114.63 72.55 104.90 72.51 C 102.35 76.75 99.52 80.86 97.39 85.33 Z" />
<path fill="#ffffff" opacity="1.00" d=" M 177.37 64.49 C 179.14 63.80 181.09 64.04 182.95 63.97 C 192.98 64.15 203.02 63.87 213.05 64.08 C 215.89 63.78 217.27 66.53 218.52 68.56 C 222.25 75.11 226.46 81.41 229.99 88.07 C 231.51 91.22 228.18 94.49 225.01 93.87 C 205.67 93.87 186.32 93.92 166.99 93.85 C 163.86 94.14 160.93 90.80 162.63 87.82 C 166.42 80.95 170.72 74.37 174.60 67.56 C 175.36 66.42 176.11 65.14 177.37 64.49 M 174.36 85.40 C 189.01 85.18 203.67 85.54 218.32 85.22 C 216.70 81.79 214.46 78.71 212.64 75.38 C 211.83 74.03 210.92 72.04 208.95 72.47 C 199.92 72.56 190.88 72.59 181.85 72.45 C 179.20 76.65 176.20 80.79 174.36 85.40 Z" />
<path fill="#ffffff" opacity="1.00" d=" M 59.75 76.82 C 63.98 76.80 68.20 76.82 72.43 76.81 C 72.64 79.65 72.57 82.49 72.47 85.34 C 68.30 85.33 64.13 85.39 59.96 85.31 C 59.49 82.49 59.78 79.66 59.75 76.82 Z" />
<path fill="#ffffff" opacity="1.00" d=" M 243.15 76.92 C 245.76 76.94 248.38 76.60 250.99 76.85 C 252.62 76.66 254.87 77.60 256.00 76.00 L 256.00 83.44 L 255.43 85.33 C 251.33 85.45 247.23 85.36 243.14 85.24 C 243.19 82.46 243.19 79.69 243.15 76.92 Z" />
<path fill="#ffffff" opacity="1.00" d=" M 132.22 132.25 C 145.44 118.83 164.12 111.00 182.96 111.01 C 202.38 110.74 221.69 118.84 235.20 132.76 C 247.90 145.52 255.27 163.17 256.00 181.12 L 256.00 185.19 C 255.50 203.37 248.07 221.31 235.19 234.21 C 222.55 247.24 204.80 255.23 186.64 255.84 L 187.71 256.00 L 181.85 256.00 C 163.40 255.53 145.21 247.89 132.24 234.71 C 118.59 221.25 110.73 202.14 111.01 182.97 C 111.00 164.14 118.82 145.47 132.22 132.25 M 171.47 120.65 C 153.06 124.02 136.55 136.06 127.54 152.44 C 119.83 166.18 117.60 182.82 121.23 198.13 C 125.62 217.51 139.74 234.30 157.99 242.13 C 172.13 248.33 188.56 249.09 203.23 244.27 C 220.17 238.85 234.49 225.97 241.75 209.75 C 247.37 197.39 248.86 183.21 245.96 169.95 C 242.30 152.33 230.65 136.63 214.99 127.82 C 201.95 120.34 186.22 117.83 171.47 120.65 Z" />
<path fill="#ffffff" opacity="1.00" d=" M 12.28 129.26 C 23.84 123.60 37.27 122.87 49.85 124.67 C 58.60 126.24 67.98 129.25 73.67 136.51 C 77.03 140.55 76.92 146.05 76.84 151.00 C 76.79 177.68 76.84 204.36 76.81 231.04 C 77.02 236.03 75.20 241.04 71.63 244.57 C 63.79 252.38 52.36 255.29 41.60 255.80 L 42.69 256.00 L 36.90 256.00 C 26.56 255.49 15.73 253.30 7.47 246.69 C 3.45 243.57 0.57 238.95 0.00 233.85 L 0.00 145.24 C 0.17 137.85 6.02 132.27 12.28 129.26 M 32.40 132.60 C 25.77 133.26 19.04 134.84 13.39 138.49 C 10.78 140.15 8.37 142.74 8.50 146.04 C 8.05 152.46 14.23 156.42 19.40 158.62 C 31.52 163.30 45.53 163.27 57.63 158.54 C 62.71 156.33 68.80 152.41 68.30 146.07 C 68.48 141.96 64.87 139.23 61.66 137.43 C 52.75 132.70 42.30 131.80 32.40 132.60 M 8.69 162.59 C 8.49 165.89 8.02 169.48 9.60 172.53 C 11.76 176.01 15.40 178.18 19.05 179.81 C 28.19 183.62 38.46 184.14 48.16 182.61 C 54.68 181.35 61.57 179.16 66.09 174.04 C 69.05 170.98 68.26 166.38 68.16 162.52 C 50.33 173.43 26.55 173.41 8.69 162.59 M 8.66 183.86 C 8.31 188.17 7.97 193.35 11.65 196.43 C 18.26 202.34 27.42 204.25 36.03 204.72 C 46.02 204.96 56.90 203.38 64.80 196.76 C 68.75 193.69 68.64 188.33 68.09 183.83 C 59.04 189.25 48.58 192.41 37.97 191.94 C 27.62 192.30 17.52 189.02 8.66 183.86 M 8.50 205.30 C 8.64 208.64 7.99 212.27 9.66 215.33 C 13.33 220.56 19.58 223.11 25.56 224.62 C 35.88 226.92 46.99 226.62 56.93 222.83 C 61.08 221.11 65.31 218.67 67.52 214.59 C 68.69 211.71 68.17 208.50 68.34 205.47 C 66.50 205.45 65.08 206.79 63.56 207.61 C 58.56 210.20 53.12 211.91 47.55 212.74 C 35.75 214.18 23.22 213.16 12.67 207.28 C 11.41 206.37 9.99 205.74 8.50 205.30 M 8.65 226.56 C 8.41 230.70 7.88 235.66 11.30 238.73 C 17.82 244.98 27.24 246.89 35.98 247.37 C 46.07 247.60 57.15 246.09 65.02 239.22 C 68.89 236.13 68.42 230.89 68.21 226.48 C 59.10 231.81 48.68 235.06 38.03 234.61 C 27.64 235.00 17.58 231.64 8.65 226.56 Z" />
<path fill="#ffffff" opacity="1.00" d=" M 213.26 141.05 C 216.12 140.64 219.00 140.82 221.88 140.85 C 221.86 143.66 221.90 146.48 221.88 149.30 C 224.97 149.19 229.79 148.87 230.30 153.03 C 230.47 162.03 230.53 171.06 230.27 180.06 C 229.56 183.79 225.14 183.72 222.20 183.36 C 221.53 188.99 221.98 194.70 221.96 200.36 C 219.18 200.73 216.39 200.43 213.61 200.65 C 213.01 195.04 213.45 189.35 213.40 183.71 C 210.62 183.18 206.80 184.19 205.27 181.10 C 204.30 177.17 205.03 173.01 204.81 168.99 C 205.03 163.33 204.36 157.58 205.17 151.97 C 206.46 148.71 210.48 149.37 213.27 149.31 C 213.39 146.56 213.37 143.80 213.26 141.05 M 213.28 158.08 C 213.37 163.66 213.41 169.24 213.26 174.82 C 216.13 174.98 219.01 174.97 221.89 174.91 C 221.87 169.26 221.87 163.61 221.89 157.96 C 219.01 157.85 216.14 157.75 213.28 158.08 Z" />
<path fill="#ffffff" opacity="1.00" d=" M 145.06 145.06 C 147.93 145.03 150.80 145.02 153.67 145.17 C 153.58 149.41 153.50 153.65 153.68 157.89 C 156.02 158.05 158.96 157.25 160.81 159.12 C 162.26 160.31 162.05 162.34 162.14 164.01 C 162.11 175.67 162.12 187.32 162.13 198.97 C 162.09 200.60 162.13 202.60 160.68 203.69 C 158.73 205.34 155.97 204.68 153.63 204.86 C 153.55 209.11 153.61 213.36 153.59 217.61 C 150.79 217.54 148.00 217.59 145.21 217.69 C 144.90 213.41 145.12 209.13 145.05 204.85 C 141.92 204.99 137.00 205.23 136.62 200.98 C 136.37 188.98 136.62 176.96 136.50 164.96 C 136.61 163.09 136.23 160.91 137.60 159.38 C 139.40 157.23 142.54 158.03 144.99 157.88 C 145.12 153.61 145.03 149.34 145.06 145.06 M 145.18 166.34 C 144.91 176.30 145.14 186.28 145.06 196.25 C 147.79 195.91 151.28 197.11 153.55 195.64 C 153.68 185.91 153.51 176.16 153.62 166.43 C 150.81 166.47 147.99 166.37 145.18 166.34 Z" />
<path fill="#ffffff" opacity="1.00" d=" M 179.08 166.63 C 181.84 166.14 184.64 166.53 187.42 166.28 C 188.17 170.52 187.44 174.87 187.79 179.16 C 190.90 178.99 195.82 178.80 196.18 183.01 C 196.33 193.33 196.39 203.69 196.15 214.02 C 195.58 218.01 190.80 217.75 187.78 217.63 C 187.64 223.31 187.76 228.98 187.72 234.65 C 184.89 234.63 182.06 234.67 179.24 234.69 C 179.12 229.02 179.21 223.34 179.18 217.66 C 176.13 217.73 171.29 218.02 170.78 213.94 C 170.47 204.62 170.77 195.28 170.63 185.95 C 170.67 183.96 170.48 181.53 172.25 180.18 C 174.21 178.69 176.87 179.32 179.16 179.14 C 179.18 174.97 179.26 170.80 179.08 166.63 M 179.13 187.92 C 179.22 194.92 179.22 201.93 179.13 208.93 C 182.01 209.10 184.88 209.12 187.76 208.93 C 187.43 201.83 188.21 194.63 187.37 187.59 C 184.63 187.85 181.86 187.52 179.13 187.92 Z" />
</g>
</svg>
