<?xml version="1.0" encoding="UTF-8" ?>
<!DOCTYPE svg PUBLIC "-//W3C//DTD SVG 1.1//EN" "http://www.w3.org/Graphics/SVG/1.1/DTD/svg11.dtd">
<svg width="1031pt" height="750pt" viewBox="0 0 1031 750" version="1.1" xmlns="http://www.w3.org/2000/svg">
<g id="#3ec13cff">
<path fill="#00ff83" opacity="1.00" d=" M 812.74 0.00 L 1031.00 0.00 L 1031.00 218.47 C 1003.24 218.46 975.47 218.61 947.72 218.40 C 947.80 193.18 947.72 167.97 947.76 142.75 C 938.76 151.42 930.06 160.40 921.18 169.20 C 808.50 281.81 695.94 394.55 583.19 507.09 C 538.15 461.96 493.01 416.91 447.95 371.80 C 436.27 383.16 424.88 394.83 413.31 406.31 C 299.20 520.33 185.26 634.52 71.05 748.44 C 51.34 728.76 31.73 708.97 11.92 689.39 C 46.29 654.63 81.03 620.22 115.55 585.59 C 226.35 474.84 337.06 363.99 447.91 253.29 C 493.04 298.46 538.23 343.56 583.33 388.76 C 683.80 288.42 784.14 187.95 884.58 87.57 C 885.86 86.32 887.25 85.11 888.11 83.49 C 862.99 83.50 837.87 83.50 812.75 83.49 C 812.75 55.66 812.77 27.83 812.74 0.00 Z" />
</g>
</svg>
