<?xml version="1.0" encoding="UTF-8" ?>
<!DOCTYPE svg PUBLIC "-//W3C//DTD SVG 1.1//EN" "http://www.w3.org/Graphics/SVG/1.1/DTD/svg11.dtd">
<svg width="256pt" height="256pt" viewBox="0 0 256 256" version="1.1" xmlns="http://www.w3.org/2000/svg">
<g id="#ffffffff">
<path fill="#ffffff" opacity="1.00" d=" M 73.65 0.00 L 76.32 0.00 C 78.24 0.18 80.21 1.16 80.91 3.08 C 96.76 39.96 112.55 76.89 128.38 113.79 C 128.66 113.77 129.23 113.71 129.52 113.69 C 144.81 90.93 159.95 68.04 175.22 45.25 C 176.70 42.27 181.31 42.03 182.97 44.95 C 193.70 60.95 204.39 76.98 215.02 93.05 C 215.27 93.23 215.78 93.60 216.03 93.79 C 220.78 94.03 225.54 93.78 230.30 93.89 C 230.55 90.75 230.17 87.58 230.60 84.45 C 230.99 81.87 234.15 80.27 236.45 81.54 C 240.65 83.90 244.55 86.74 248.65 89.26 C 251.21 91.01 254.27 92.31 256.00 95.02 L 256.00 96.76 C 255.52 99.07 253.48 100.36 251.85 101.81 C 246.94 105.93 242.18 110.24 237.21 114.28 C 234.90 116.24 230.82 114.69 230.53 111.64 C 230.25 108.68 230.41 105.69 230.47 102.73 C 224.41 101.78 218.19 103.00 212.12 102.13 C 210.34 101.68 209.45 99.91 208.44 98.56 C 198.88 83.98 189.00 69.61 179.54 54.97 C 179.22 55.22 178.57 55.74 178.25 55.99 C 163.08 78.86 147.81 101.67 132.62 124.53 C 131.50 126.08 130.16 128.12 127.97 127.93 C 125.78 128.11 124.34 126.21 123.65 124.38 C 108.22 88.40 92.81 52.40 77.36 16.43 C 77.18 16.39 76.82 16.29 76.64 16.24 C 59.67 59.50 42.59 102.72 25.57 145.96 C 24.90 147.91 23.09 149.35 20.98 149.29 C 14.28 149.50 7.56 149.21 0.87 149.38 L 0.00 150.26 L 0.00 142.00 L 0.63 140.85 C 6.59 140.65 12.57 141.00 18.53 140.70 C 36.23 95.42 54.19 50.24 71.93 4.98 C 72.55 3.31 73.46 1.77 74.65 0.45 L 73.65 0.00 M 238.96 93.53 C 238.92 96.14 238.88 98.75 239.06 101.36 C 240.63 99.76 243.77 98.76 243.85 96.30 C 242.25 95.34 240.82 93.97 238.96 93.53 Z" />
<path fill="#ffffff" opacity="1.00" d=" M 55.47 116.03 C 55.17 113.43 57.22 110.74 59.98 110.99 C 71.02 110.89 82.06 110.93 93.10 110.97 C 96.01 110.56 98.54 113.17 98.11 116.06 C 98.13 161.06 98.15 206.07 98.10 251.07 C 98.40 253.14 96.85 254.53 95.72 256.00 L 59.36 256.00 C 56.93 255.64 55.20 253.41 55.48 251.00 C 55.45 206.01 55.47 161.02 55.47 116.03 M 64.24 119.34 C 63.94 121.23 63.97 123.14 64.03 125.04 C 63.98 165.82 64.05 206.59 63.99 247.37 C 72.43 247.61 80.88 247.36 89.32 247.50 C 89.39 247.11 89.54 246.32 89.61 245.93 C 89.56 203.76 89.62 161.58 89.58 119.41 C 81.14 119.47 72.68 119.59 64.24 119.34 Z" />
<path fill="#ffffff" opacity="1.00" d=" M 157.89 145.99 C 157.56 143.53 159.31 140.80 161.97 140.89 C 173.30 140.73 184.64 140.80 195.98 140.85 C 198.80 140.57 200.83 143.30 200.53 145.93 C 200.53 180.96 200.55 215.99 200.52 251.01 C 200.79 252.88 199.63 254.33 198.35 255.53 L 199.40 256.00 L 161.84 256.00 C 159.42 255.67 157.58 253.53 157.90 251.06 C 157.85 216.03 157.87 181.01 157.89 145.99 M 166.39 149.35 C 166.43 180.26 166.40 211.16 166.41 242.07 C 166.42 243.88 166.21 245.71 166.67 247.49 C 175.11 247.37 183.57 247.62 192.01 247.36 C 191.83 214.66 192.27 181.93 191.79 149.25 C 183.33 149.47 174.86 149.28 166.39 149.35 Z" />
<path fill="#ffffff" opacity="1.00" d=" M 106.68 167.07 C 106.43 164.57 108.33 162.04 110.96 162.18 C 122.34 162.08 133.73 162.07 145.10 162.19 C 147.68 162.07 149.56 164.59 149.32 167.04 C 149.37 195.01 149.35 222.98 149.33 250.94 C 149.52 252.80 148.47 254.34 147.19 255.55 L 148.55 256.00 L 110.19 256.00 C 107.92 255.36 106.44 253.31 106.67 250.95 C 106.65 222.99 106.64 195.03 106.68 167.07 M 115.17 170.86 C 115.19 196.29 115.23 221.73 115.15 247.17 C 115.59 247.25 116.48 247.42 116.93 247.51 C 124.90 247.20 132.95 247.90 140.86 247.16 C 140.77 221.78 140.79 196.38 140.85 171.00 C 140.40 170.90 139.48 170.71 139.02 170.62 C 131.08 170.84 123.10 170.37 115.17 170.86 Z" />
<path fill="#ffffff" opacity="1.00" d=" M 4.29 179.92 C 3.99 177.26 6.15 174.70 8.92 174.98 C 19.96 174.90 31.00 174.92 42.03 174.97 C 44.90 174.58 47.25 177.18 46.92 179.97 C 46.95 203.65 46.96 227.34 46.92 251.03 C 47.18 253.00 45.87 254.45 44.62 255.75 L 45.13 256.00 L 8.18 256.00 C 5.75 255.66 4.05 253.48 4.30 251.07 C 4.27 227.36 4.27 203.64 4.29 179.92 M 13.22 183.36 C 12.37 186.51 13.00 189.81 12.81 193.02 C 12.96 211.14 12.53 229.28 13.03 247.39 C 21.47 247.47 29.93 247.60 38.36 247.32 C 38.43 226.11 38.43 204.89 38.36 183.67 C 30.02 183.11 21.59 183.75 13.22 183.36 Z" />
<path fill="#ffffff" opacity="1.00" d=" M 209.10 200.93 C 208.96 198.70 210.64 196.35 213.00 196.37 C 223.67 196.14 234.35 196.37 245.02 196.26 C 246.85 196.34 249.04 196.03 250.43 197.52 C 252.02 198.87 251.62 201.13 251.74 202.97 C 251.68 219.01 251.76 235.05 251.70 251.09 C 251.94 252.95 250.72 254.36 249.60 255.67 L 250.21 256.00 L 213.00 256.00 C 210.60 255.67 208.81 253.50 209.09 251.08 C 209.04 234.36 209.03 217.64 209.10 200.93 M 217.68 204.90 C 217.53 219.06 217.56 233.23 217.66 247.39 C 226.16 247.47 234.68 247.62 243.17 247.32 C 243.09 233.16 243.39 218.99 243.02 204.84 C 234.58 204.83 226.12 204.71 217.68 204.90 Z" />
</g>
</svg>
