<?xml version="1.0" encoding="UTF-8" ?>
<!DOCTYPE svg PUBLIC "-//W3C//DTD SVG 1.1//EN" "http://www.w3.org/Graphics/SVG/1.1/DTD/svg11.dtd">
<svg width="256pt" height="256pt" viewBox="0 0 256 256" version="1.1" xmlns="http://www.w3.org/2000/svg">
<g id="#ffffffff">
<path fill="#ffffff" opacity="1.00" d=" M 114.41 0.00 L 140.59 0.00 C 142.42 0.34 144.32 1.30 144.80 3.25 C 146.54 8.30 147.66 13.53 149.28 18.62 C 154.34 19.63 159.36 20.88 164.23 22.63 C 168.46 19.02 172.04 14.70 176.35 11.19 C 179.17 9.02 182.42 11.64 185.04 12.86 C 191.24 15.79 197.01 19.50 202.65 23.37 C 204.21 24.35 205.47 26.09 204.98 28.03 C 204.17 33.36 202.07 38.43 201.26 43.76 C 204.87 47.50 208.79 50.95 212.20 54.90 C 217.17 53.71 222.07 52.24 227.06 51.15 C 228.93 50.63 231.11 51.06 232.21 52.78 C 237.41 60.08 242.03 67.86 245.53 76.13 C 246.27 78.48 244.32 80.36 242.88 81.93 C 239.69 85.16 236.45 88.36 233.38 91.71 C 235.07 96.61 236.38 101.64 237.39 106.73 C 242.48 108.33 247.72 109.48 252.78 111.21 C 254.59 111.65 255.46 113.38 256.00 115.01 L 256.00 140.60 C 255.64 142.40 254.72 144.30 252.78 144.79 C 247.74 146.52 242.51 147.67 237.42 149.24 C 236.36 154.32 235.11 159.37 233.37 164.26 C 237.01 168.44 241.28 172.05 244.80 176.33 C 247.17 179.71 243.72 183.30 242.42 186.40 C 239.87 191.94 236.39 196.97 233.07 202.06 C 231.99 203.78 230.27 205.53 228.02 204.99 C 222.70 204.03 217.52 202.36 212.27 201.08 C 208.78 204.99 204.91 208.51 201.25 212.23 C 202.08 217.55 204.15 222.61 204.98 227.94 C 205.47 229.91 204.20 231.69 202.61 232.69 C 195.47 237.61 187.98 242.10 179.99 245.50 C 177.90 246.27 176.05 244.73 174.63 243.39 C 171.14 240.08 167.85 236.55 164.23 233.37 C 159.37 235.11 154.36 236.37 149.30 237.36 C 147.77 242.18 146.62 247.10 145.11 251.92 C 144.77 253.49 143.54 254.58 142.50 255.72 L 143.73 256.00 L 115.46 256.00 C 113.62 255.67 111.71 254.74 111.22 252.79 C 109.47 247.73 108.35 242.48 106.72 237.38 C 101.64 236.37 96.61 235.09 91.72 233.37 C 87.58 237.01 83.98 241.24 79.74 244.75 C 78.19 246.17 75.97 245.71 74.30 244.82 C 68.35 241.89 62.43 238.86 56.98 235.05 C 54.50 233.28 50.28 231.71 51.03 227.92 C 51.97 222.60 53.70 217.45 54.90 212.19 C 51.03 208.68 47.29 205.03 43.85 201.10 C 38.54 202.29 33.35 204.03 27.99 204.99 C 26.04 205.43 24.29 204.19 23.31 202.61 C 19.47 196.98 15.79 191.21 12.86 185.04 C 11.63 182.40 8.99 179.12 11.22 176.30 C 14.73 172.00 19.05 168.45 22.63 164.21 C 20.88 159.36 19.62 154.36 18.64 149.31 C 13.84 147.76 8.91 146.63 4.09 145.11 C 2.31 144.75 1.12 143.33 0.00 142.02 L 0.00 116.16 C 0.15 114.36 0.66 112.23 2.54 111.49 C 7.77 109.52 13.28 108.43 18.60 106.74 C 19.63 101.66 20.90 96.63 22.63 91.74 C 19.72 88.52 16.62 85.47 13.57 82.39 C 11.99 80.66 9.61 78.66 10.50 76.02 C 14.01 67.82 18.59 60.09 23.77 52.84 C 24.87 51.00 27.18 50.62 29.10 51.18 C 34.04 52.28 38.89 53.73 43.81 54.90 C 47.31 51.01 50.98 47.30 54.89 43.83 C 53.71 38.53 51.97 33.36 51.01 28.01 C 50.35 24.24 54.53 22.67 57.02 20.91 C 62.43 17.13 68.32 14.13 74.23 11.21 C 75.89 10.32 78.08 9.82 79.65 11.18 C 83.93 14.71 87.55 18.98 91.73 22.63 C 96.62 20.91 101.65 19.63 106.72 18.62 C 108.22 13.80 109.39 8.90 110.89 4.09 C 111.35 2.26 112.68 0.73 114.41 0.00 M 113.20 25.19 C 108.85 28.01 103.15 27.54 98.39 29.53 C 94.90 30.27 90.67 33.34 87.43 30.45 C 83.51 27.02 80.12 22.99 76.07 19.70 C 70.57 22.61 65.10 25.57 59.98 29.13 C 61.23 33.73 62.37 38.36 63.55 42.98 C 64.11 44.90 64.11 47.16 62.47 48.56 C 58.77 52.22 54.60 55.41 51.36 59.52 C 49.57 61.31 47.90 64.15 45.00 63.88 C 39.61 62.95 34.39 61.21 29.05 60.02 C 26.10 64.56 23.22 69.15 20.83 74.01 C 20.33 75.03 19.35 76.44 20.66 77.34 C 23.77 80.55 26.96 83.69 30.03 86.94 C 31.38 88.25 32.16 90.13 31.50 91.99 C 30.16 96.87 28.26 101.60 27.46 106.62 C 26.79 109.00 26.84 112.04 24.65 113.63 C 19.61 116.18 13.41 116.28 8.60 118.97 C 8.42 125.05 8.73 131.15 8.47 137.23 C 13.46 139.31 18.92 140.00 23.94 141.99 C 26.40 142.91 26.64 145.86 27.20 148.04 C 28.02 152.76 29.35 157.37 30.92 161.90 C 31.48 163.84 32.40 166.27 30.86 168.02 C 27.43 172.24 23.09 175.66 19.72 179.94 C 22.58 185.44 25.60 190.86 29.08 196.00 C 34.73 194.78 40.25 192.61 46.02 192.14 C 50.09 193.57 52.05 198.02 55.24 200.72 C 57.93 203.92 62.40 205.89 63.86 209.96 C 63.38 215.73 61.23 221.26 59.99 226.91 C 65.16 230.24 70.35 233.63 76.02 236.02 C 80.76 233.04 84.00 227.84 88.72 224.67 C 91.14 223.63 93.69 225.10 96.04 225.71 C 100.94 227.57 106.15 228.28 111.19 229.64 C 113.67 230.19 114.47 232.85 115.04 234.99 C 116.08 239.07 117.39 243.07 118.31 247.18 C 124.54 247.74 130.84 247.35 137.09 247.40 C 139.83 242.35 139.73 235.87 142.76 230.86 C 146.08 228.31 150.70 228.69 154.56 227.38 C 158.59 226.51 162.40 224.16 166.59 224.38 C 171.83 227.25 175.00 233.00 180.03 236.07 C 185.63 233.54 190.86 230.28 196.00 226.91 C 194.74 221.59 193.07 216.36 192.11 210.98 C 191.87 208.13 194.63 206.47 196.41 204.72 C 200.54 201.44 203.76 197.25 207.45 193.53 C 208.82 191.90 211.06 191.89 212.95 192.44 C 217.59 193.61 222.24 194.78 226.86 196.02 C 230.28 190.91 233.58 185.68 236.02 180.04 C 233.07 175.00 227.23 171.83 224.38 166.59 C 224.11 162.37 226.57 158.59 227.38 154.53 C 228.68 150.69 228.35 146.12 230.83 142.80 C 235.80 139.67 242.43 139.90 247.40 137.04 C 247.47 131.02 247.48 124.99 247.39 118.97 C 242.59 116.28 236.39 116.19 231.37 113.63 C 229.26 112.20 229.27 109.33 228.64 107.12 C 227.84 101.89 225.87 96.98 224.49 91.91 C 223.35 88.15 227.30 85.87 229.38 83.43 C 231.47 80.85 234.60 78.93 236.05 75.95 C 233.52 70.34 230.29 65.07 226.85 59.98 C 221.02 61.20 215.27 63.78 209.30 63.73 C 204.88 60.94 202.31 56.04 198.19 52.85 C 195.76 50.34 191.14 48.11 192.28 43.92 C 193.39 38.96 194.73 34.04 196.02 29.12 C 190.90 25.57 185.43 22.60 179.94 19.70 C 175.67 23.11 172.23 27.43 168.00 30.87 C 166.55 32.18 164.51 31.67 162.84 31.21 C 158.35 29.76 153.86 28.23 149.19 27.43 C 146.67 26.74 143.16 26.73 141.96 23.92 C 140.03 18.88 139.27 13.45 137.22 8.46 C 131.13 8.72 125.02 8.43 118.93 8.60 C 116.13 13.64 116.30 20.20 113.20 25.19 Z" />
<path fill="#ffffff" opacity="1.00" d=" M 122.33 42.50 C 142.40 41.09 162.89 47.08 179.00 59.14 C 197.26 72.53 209.80 93.47 212.83 115.93 C 215.65 135.31 211.56 155.65 201.32 172.36 C 189.90 191.47 170.67 205.69 149.07 211.08 C 129.50 216.08 108.16 213.84 90.07 204.82 C 70.32 195.15 54.60 177.54 47.31 156.78 C 40.67 138.36 40.62 117.62 47.29 99.20 C 54.50 78.65 69.96 61.19 89.44 51.46 C 99.64 46.28 110.91 43.22 122.33 42.50 M 76.83 70.28 C 79.02 73.65 82.48 75.91 84.98 79.02 C 84.55 81.71 81.35 83.07 79.87 85.29 C 76.04 83.25 73.98 79.03 70.25 76.83 C 59.06 89.89 51.81 106.50 51.10 123.77 C 55.32 123.92 59.65 123.23 63.79 124.10 C 63.64 126.73 63.65 129.36 63.78 132.00 C 59.58 132.62 55.30 132.14 51.06 132.26 C 51.90 149.52 59.01 166.20 70.32 179.20 C 73.66 176.91 75.96 173.45 79.12 170.95 C 81.74 171.65 83.11 174.62 85.31 176.15 C 83.25 179.96 78.98 182.01 76.86 185.77 C 89.90 196.95 106.51 204.20 123.78 204.88 C 123.80 200.67 123.46 196.44 123.94 192.25 C 126.61 192.33 129.28 192.36 131.96 192.21 C 132.69 196.37 132.13 200.66 132.21 204.87 C 149.49 204.22 166.09 196.93 179.16 185.77 C 177.01 182.32 173.47 180.06 170.95 176.91 C 171.78 174.19 174.70 172.47 176.73 170.52 C 179.69 173.42 182.29 176.80 185.72 179.17 C 196.97 166.15 204.20 149.48 204.87 132.21 C 200.66 132.13 196.37 132.70 192.21 131.95 C 192.36 129.32 192.35 126.68 192.21 124.05 C 196.38 123.29 200.67 123.88 204.90 123.78 C 203.95 106.57 197.25 89.20 185.16 76.81 C 182.45 79.77 179.45 82.45 176.78 85.45 C 174.43 83.68 172.25 81.60 170.58 79.17 C 173.52 76.29 176.79 73.66 179.18 70.30 C 166.16 59.03 149.49 51.83 132.22 51.11 C 132.11 55.33 132.71 59.63 131.94 63.79 C 129.29 63.64 126.63 63.65 123.97 63.78 C 123.42 59.58 123.81 55.33 123.78 51.12 C 106.51 51.82 89.85 59.03 76.83 70.28 Z" />
<path fill="#ffffff" opacity="1.00" d=" M 159.48 90.46 C 162.55 87.81 167.83 91.05 166.36 95.00 C 159.70 105.91 152.08 116.25 145.32 127.10 C 145.04 131.82 143.67 136.71 140.12 140.04 C 135.06 145.37 126.43 146.63 120.01 143.12 C 113.88 139.96 110.08 132.86 111.02 126.01 C 111.75 118.40 118.29 111.76 125.93 111.08 C 127.30 110.84 128.84 111.01 130.00 110.10 C 139.82 103.55 149.62 96.96 159.48 90.46 M 132.02 118.98 C 129.19 120.15 125.63 118.87 123.12 121.07 C 118.90 123.84 118.27 130.56 122.03 133.98 C 125.42 137.69 132.06 137.12 134.86 132.97 C 137.50 130.09 135.34 125.70 137.75 122.76 C 140.40 118.38 143.84 114.45 146.01 109.82 C 141.22 112.69 136.78 116.09 132.02 118.98 Z" />
</g>
</svg>
